<svg height="511pt" viewBox="0 -19 511.99997 511" width="511pt" xmlns="http://www.w3.org/2000/svg"><path d="m178.941406 273.652344v-11.078125c0-4.144531-3.355468-7.5-7.5-7.5-4.144531 0-7.5 3.355469-7.5 7.5v11.078125c0 4.144531 3.355469 7.5 7.5 7.5 4.144532 0 7.5-3.355469 7.5-7.5zm330.792969 71.769531c-6.253906-11.238281-8.757813-23.976563-7.242187-36.832031.605468-5.140625-1.132813-10.175782-4.773438-13.816406-3.640625-3.640626-8.675781-5.382813-13.816406-4.773438-12.855469 1.515625-25.59375-.988281-36.832032-7.246094-2.480468-1.378906-5.164062-2.121094-7.851562-2.257812v-50.886719h8.019531c16.074219 0 29.148438-13.074219 29.148438-29.148437v-34.683594c0-16.074219-13.074219-29.148438-29.148438-29.148438h-12.867187c.988281-5.726562 1.027344-11.597656.085937-17.367187-.664062-4.085938-4.515625-6.863281-8.605469-6.195313-4.085937.664063-6.863281 4.515625-6.195312 8.605469.808594 4.980469.597656 10.070313-.597656 14.957031h-115.753906v-4.351562c0-1.671875-.132813-3.316406-.390626-4.925782l35.441407-16.527343c3.757812-1.75 5.378906-6.210938 3.628906-9.964844s-6.210937-5.382813-9.96875-3.628906l-34.988281 16.316406c-3.734375-4.949219-8.945313-8.792969-15.15625-10.820313-3.144532-1.027343-6.308594-1.921874-9.484375-2.722656l60.679687-75.648437c6.042969-7.53125 15.921875-10.609375 25.175782-7.847657 18.777343 5.605469 30.195312 24.992188 25.996093 44.132813l-2.105469 9.601563c-1.710937 7.804687 2.039063 15.839843 9.113282 19.539062l8.707031 4.558594c1.679687.878906 3.300781 1.890625 4.816406 3 3.34375 2.445312 8.035157 1.71875 10.480469-1.621094 2.445312-3.34375 1.722656-8.035156-1.621094-10.484375-2.117187-1.550781-4.378906-2.957031-6.71875-4.183594l-8.707031-4.558593c-1.101563-.574219-1.683594-1.824219-1.417969-3.039063l2.105469-9.597656c5.871094-26.769531-10.101563-53.882813-36.359375-61.722657-15.125-4.515624-31.285156.523438-41.164062 12.835938l-65.679688 81.878906c-11.628906-1.476562-23.359375-1.476562-34.988281 0l-65.679688-81.878906c-9.878906-12.3125-26.035156-17.351562-41.164062-12.835938-26.261719 7.839844-42.230469 34.953126-36.359375 61.722657l2.105468 9.597656c.265626 1.214844-.316406 2.464844-1.417968 3.039063l-8.707032 4.558593c-20.625 10.796875-31.3125 33.445313-27.460937 55.578125h-12.867187c-16.070313 0-29.148438 13.074219-29.148438 29.148438v34.683594c0 16.074218 13.078125 29.148437 29.148438 29.148437h8.019531v178.359375c0 14.929688 7.394531 28.835938 19.777343 37.199219 1.289063.871093 2.75 1.289062 4.191407 1.289062 2.410156 0 4.773437-1.160156 6.222656-3.304687 2.320313-3.433594 1.417969-8.09375-2.015625-10.414063-8.25-5.570312-13.175781-14.832031-13.175781-24.769531v-178.359375h140.632812v208.226563h-96.503906c-4.140625 0-7.5 3.359374-7.5 7.5 0 4.144531 3.359375 7.5 7.5 7.5h280.253906c.464844 1.867187.859375 3.761718 1.164063 5.683593.902344 5.679688 4.539062 10.578125 9.726562 13.105469 2.476563 1.203125 5.15625 1.800781 7.835938 1.800781 3.011718 0 6.023437-.757812 8.730468-2.265625 11.234376-6.253906 23.972657-8.753906 36.832032-7.242187 5.136718.601562 10.175781-1.136719 13.816406-4.777344s5.378906-8.675781 4.769531-13.816406c-1.515625-12.855469.992188-25.59375 7.246094-36.828125 2.847656-5.113282 3.019531-11.304688.460937-16.5625-.824218-1.695313-1.90625-3.222656-3.179687-4.542969 9.355469-8.304687 20.730469-13.710937 33.140625-15.675781 5.679688-.902344 10.578125-4.539063 13.101562-9.726563 2.558594-5.261719 2.386719-11.453125-.460937-16.566406zm-208.300781-193.792969h123.054687.039063.027344 22.683593c7.800781 0 14.148438 6.347656 14.148438 14.148438v34.683594c0 7.804687-6.347657 14.148437-14.148438 14.148437h-145.804687zm-126.480469 62.980469h-145.804687c-7.800782 0-14.148438-6.347656-14.148438-14.148437v-34.683594c0-7.804688 6.347656-14.148438 14.148438-14.148438h22.683593.027344.039063 123.054687zm4.40625-101.0625-34.988281-16.316406c-3.753906-1.75-8.21875-.125-9.96875 3.628906s-.125 8.214844 3.628906 9.964844l35.441406 16.527343c-.257812 1.609376-.390625 3.253907-.390625 4.925782v4.351562h-115.75c-4.09375-16.609375 3.558594-34.152344 19.101563-42.289062l8.707031-4.558594c7.074219-3.703125 10.824219-11.738281 9.113281-19.542969l-2.105468-9.59375c-4.199219-19.144531 7.222656-38.53125 26-44.140625 9.25-2.757812 19.128906.320313 25.167968 7.851563l60.683594 75.648437c-3.175781.800782-6.339844 1.695313-9.484375 2.722656-6.210937 2.027344-11.417969 5.871094-15.15625 10.820313zm8.722656 18.730469c0-6.980469 4.457031-13.125 11.09375-15.292969 6.257813-2.042969 12.605469-3.578125 18.996094-4.621094.3125-.027343.625-.082031.9375-.148437 12.707031-1.972656 25.582031-1.96875 38.289063.019531.1875.035156.375.058594.5625.082031 6.476562 1.042969 12.910156 2.597656 19.25 4.667969 6.636718 2.167969 11.09375 8.3125 11.09375 15.292969v4.351562h-100.222657zm1.871094 82.332031v-62.980469h96.476563v62.980469zm78.632813 223.226563h-60.785157v-208.226563h60.785157zm15 0v-208.226563h140.632812v139.6875c-2.171875-1.6875-4.257812-3.515625-6.230469-5.488281-9.855469-9.855469-16.21875-22.320313-18.394531-36.042969-.902344-5.683594-4.539062-10.582031-9.730469-13.105469-5.257812-2.558594-11.445312-2.382812-16.5625.464844-11.234375 6.253906-23.972656 8.757812-36.828125 7.242188-5.136718-.609376-10.175781 1.132812-13.816406 4.773437s-5.382812 8.675781-4.773438 13.816406c1.515626 12.855469-.988281 25.59375-7.246093 36.832031-2.847657 5.113282-3.019531 11.304688-.460938 16.5625 2.523438 5.1875 7.421875 8.824219 13.105469 9.726563 13.71875 2.179687 26.183594 8.539063 36.039062 18.394531 4.597657 4.601563 8.425782 9.769532 11.429688 15.363282zm169.980468-36.640626c-7.800781 14.011719-10.921875 29.878907-9.035156 45.886719.085938.714844-.214844 1.1875-.480469 1.453125-.269531.269532-.738281.5625-1.457031.484375-16.007812-1.894531-31.875 1.234375-45.882812 9.035157-1.207032.671874-2.292969.277343-2.707032.078124-.574218-.28125-1.292968-.847656-1.472656-1.964843-2.675781-16.871094-10.492188-32.1875-22.601562-44.300781-12.113282-12.109376-27.429688-19.925782-44.300782-22.601563-1.117187-.179687-1.683594-.902344-1.964844-1.476563-.199218-.410156-.59375-1.496093.078126-2.703124 7.800781-14.011719 10.925781-29.875 9.035156-45.886719-.082032-.714844.21875-1.183594.484375-1.453125.234375-.234375.628906-.496094 1.210937-.496094.078125 0 .15625.003906.242188.015625 16.011718 1.890625 31.875-1.238281 45.882812-9.035156 1.207032-.671875 2.296875-.28125 2.707032-.082031.574218.28125 1.296874.847656 1.472656 1.964843 2.675781 16.871094 10.492187 32.191407 22.605468 44.300781 11.75 11.75 26.527344 19.445313 42.804688 22.335938.042969.007812.089844.019531.136719.023438.453125.082031.902343.171874 1.355469.242187 1.121093.179687 1.6875.898437 1.964843 1.476563.203125.410156.59375 1.496093-.078125 2.703124zm43.140625-45.769531c-.277343.570313-.847656 1.292969-1.964843 1.472657-16.867188 2.675781-32.1875 10.492187-44.300782 22.601562-.539062.539062-1.0625 1.105469-1.59375 1.667969-3.304687-.800781-6.523437-1.847657-9.628906-3.132813v-14.15625l21.199219-21.203125c2.929687-2.929687 2.929687-7.679687 0-10.605469-2.929688-2.929687-7.675781-2.929687-10.605469 0l-10.59375 10.597657v-47.042969c.183594.058594.367188.132812.554688.234375 14.007812 7.800781 29.875 10.925781 45.886718 9.035156.710938-.085937 1.183594.214844 1.449219.484375.269531.269532.566406.734375.484375 1.453125-1.890625 16.007813 1.234375 31.875 9.035156 45.882813.671875 1.210937.277344 2.296875.078125 2.710937zm-126.148437 9.011719c-2.929688-2.925781-7.675782-2.925781-10.605469 0-2.929687 2.929688-2.929687 7.679688 0 10.609375l46.796875 46.796875c1.464844 1.464844 3.386719 2.195312 5.304688 2.195312 1.917968 0 3.839843-.730468 5.304687-2.195312 2.929687-2.929688 2.929687-7.675781 0-10.605469zm-132.367188-74.773438c8.914063 0 17.390625-3.859374 23.253906-10.589843 2.722657-3.125 2.394532-7.859375-.726562-10.582031-3.121094-2.722657-7.859375-2.398438-10.582031.726562-3.015625 3.460938-7.367188 5.445312-11.945313 5.445312-4.574218 0-8.925781-1.984374-11.941406-5.445312-2.722656-3.125-7.460938-3.449219-10.582031-.726562-3.121094 2.71875-3.449219 7.457031-.726563 10.578124 5.863282 6.730469 14.339844 10.59375 23.25 10.59375zm74.253906-16.011718v-11.078125c0-4.144531-3.359374-7.5-7.5-7.5-4.144531 0-7.5 3.355469-7.5 7.5v11.078125c0 4.144531 3.355469 7.5 7.5 7.5 4.140626 0 7.5-3.355469 7.5-7.5zm0 0"/></svg>