<svg height="512pt" viewBox="-13 0 512 512" width="512pt" xmlns="http://www.w3.org/2000/svg"><path d="m147.8125 238.695312c-4.140625 0-7.5 3.359376-7.5 7.5v15.984376c0 4.140624 3.359375 7.5 7.5 7.5 4.144531 0 7.5-3.359376 7.5-7.5v-15.984376c0-4.140624-3.355469-7.5-7.5-7.5zm337.222656 76.035157c0-28.019531-17.855468-52.875-43.964844-62.039063-3.046874-14.488281-8.085937-28.472656-15.09375-41.847656 3.78125-2.527344 7.277344-5.507812 10.398438-8.921875 9.617188-10.519531 14.914062-24.160156 14.914062-38.410156 0-15.9375-6.75-31.25-18.511718-42.003907-8.984375-8.21875-20.359375-13.269531-32.304688-14.566406-4.863281-14.75-12.03125-28.632812-21.363281-41.339844-2.453125-3.339843-7.144531-4.054687-10.484375-1.605468-3.335938 2.453125-4.054688 7.148437-1.601562 10.484375 7.453124 10.148437 13.367187 21.125 17.65625 32.730469-94.355469 8.1875-189.953126 8.1875-284.3125 0 9.179687-24.707032 25.917968-46.753907 47.863281-62.792969 26.328125-19.246094 58.933593-29.417969 94.285156-29.417969 39.128906 0 74.371094 12.242188 101.914063 35.398438 3.171874 2.667968 7.902343 2.257812 10.566406-.914063 2.667968-3.167969 2.257812-7.898437-.910156-10.566406-30.285157-25.460938-68.863282-38.917969-111.570313-38.917969-36.707031 0-70.789063 10.132812-98.925781 29.34375-4.46875-2.726562-9.601563-4.234375-14.933594-4.3125-2.847656-.042969-5.515625-1.332031-7.324219-3.527344-5.640625-6.859375-13.96875-10.792968-22.847656-10.792968-8.882813 0-17.210937 3.933593-22.847656 10.792968-1.808594 2.199219-4.480469 3.484375-7.328125 3.527344-8.878906.132812-17.144532 4.191406-22.683594 11.132812-5.535156 6.941407-7.652344 15.90625-5.808594 24.59375.59375 2.785157-.066406 5.675782-1.808594 7.925782-5.433593 7.027344-7.414062 16.019531-5.4375 24.675781 1.976563 8.660156 7.664063 15.902344 15.605469 19.875 2.546875 1.273437 4.394531 3.589844 5.070313 6.359375.070312.285156.15625.566406.234375.851562-.410157.351563-.824219.695313-1.226563 1.0625-11.761718 10.757813-18.507812 26.066407-18.507812 42.003907 0 14.25 5.296875 27.890625 14.910156 38.410156 3.125 3.414063 6.621094 6.398437 10.398438 8.921875-7.003907 13.378906-12.046876 27.363281-15.089844 41.847656-26.109375 9.167969-43.964844 34.023438-43.964844 62.039063 0 28.058593 17.597656 52.625 43.53125 61.894531-.140625 1.851562-.222656 3.710938-.222656 5.570312 0 24.890626 12.703125 48.339844 33.980468 62.730469 1.289063.871094 2.75 1.289063 4.195313 1.289063 2.40625 0 4.769531-1.15625 6.21875-3.300782 2.320313-3.429687 1.417969-8.09375-2.011719-10.414062-17.144531-11.597656-27.382812-30.398438-27.382812-50.300781 0-10.648438 2.929687-21.164063 8.46875-30.40625 1.226562-2.046875 1.40625-4.550781.484375-6.75-7.828125-18.707031-11.796875-38.394531-11.796875-58.515625 0-8.914063.785156-17.664063 2.308594-26.234375.070312-.289063.125-.585938.160156-.886719 2.679687-14.5625 7.550781-28.585938 14.585937-41.941406 4 1.34375 8.171875 2.238281 12.445313 2.667968-11.351563 20.429688-17.320313 43.144532-17.320313 66.394532 0 14.101562 2.15625 28.105468 6.410157 41.621094.714843 2.265624 2.457031 4.058593 4.703124 4.835937 2.246094.777344 4.722657.445313 6.683594-.894531 11.183594-7.640625 24.390625-11.679688 38.191406-11.679688.390626 0 .78125 0 1.171876.007813 15.734374.277343 31.070312-5.609375 43.097656-16.539063 20.453125-18.597656 46.953125-28.835937 74.613281-28.835937s54.160156 10.238281 74.613281 28.835937c12.027344 10.929688 27.332032 16.808594 43.101563 16.539063.386719-.007813.777343-.007813 1.167969-.007813 13.804687 0 27.007812 4.039063 38.191406 11.679688 1.261718.863281 2.738281 1.308594 4.230468 1.308594.828126 0 1.65625-.136719 2.453126-.414063 2.246093-.777344 3.988281-2.570313 4.703124-4.835937 4.253907-13.515626 6.410157-27.519532 6.410157-41.621094 0-23.25-5.96875-45.964844-17.316407-66.394532 4.269532-.429687 8.441407-1.324218 12.445313-2.667968 7.03125 13.355468 11.902344 27.378906 14.582031 41.941406.039063.300781.089844.597656.164063.886719 1.519531 8.570312 2.304687 17.320312 2.304687 26.234375 0 20.121094-3.96875 39.808594-11.796875 58.515625-.921875 2.199219-.742187 4.707031.484375 6.75 5.539063 9.242187 8.46875 19.757812 8.46875 30.40625 0 34.070312-29.304687 61.789062-65.324218 61.789062-.726563 0-1.453126-.011719-2.171876-.035156-12.503906-.378906-24.3125 4.78125-32.363281 14.1875-21.136719 24.695313-51.878906 38.859375-84.347656 38.859375-32.464844 0-63.210937-14.164062-84.34375-38.859375-8.050781-9.410156-19.847656-14.582031-32.363281-14.1875-3.511719.109375-7.105469-.050781-10.59375-.476563-4.109375-.496093-7.847656 2.429688-8.347656 6.542969s2.429687 7.847657 6.539062 8.347657c4.242188.519531 8.605469.710937 12.871094.578124 7.945312-.25 15.417968 3.015626 20.5 8.949219 23.988281 28.03125 58.882812 44.105469 95.738281 44.105469s71.753906-16.074219 95.746094-44.105469c5.078125-5.9375 12.5625-9.191406 20.496093-8.949219.878907.027344 1.757813.039063 2.640626.039063 44.292968 0 80.324218-34.445313 80.324218-76.789063 0-1.863281-.078125-3.71875-.21875-5.574218 25.929688-9.265625 43.53125-33.832032 43.53125-61.890625zm-438.773437 46.875c-18.726563-7.75-31.261719-26.070313-31.261719-46.875 0-18.753907 10.363281-35.667969 26.25-44.449219-.519531 5.359375-.78125 10.773438-.78125 16.242188 0 20.890624 3.890625 41.355468 11.566406 60.878906-2.417968 4.542968-4.347656 9.308594-5.773437 14.203125zm.933593-271.582031c-.972656-4.269532.003907-8.703126 2.679688-12.164063 4.441406-5.746094 6.125-13.117187 4.617188-20.222656-.910157-4.28125.132812-8.699219 2.863281-12.121094 2.726562-3.421875 6.804687-5.421875 11.179687-5.488281 7.261719-.109375 14.074219-3.390625 18.6875-9 2.78125-3.378906 6.886719-5.320313 11.261719-5.320313 4.378906 0 8.484375 1.941407 11.261719 5.320313 4.617187 5.609375 11.425781 8.890625 18.6875 9 .386718.003906.769531.035156 1.148437.070312-20.867187 18.007813-36.550781 41.257813-45.015625 66.84375-6.28125.683594-12.402344 2.40625-18.101562 5.082032-2.289063-5.261719-6.355469-9.59375-11.574219-12.203126-3.917969-1.960937-6.722656-5.53125-7.695313-9.796874zm355.191407 196.5c0 9.398437-1.074219 18.746093-3.203125 27.90625-11.578125-5.925782-24.460938-9.023438-37.785156-9.023438-.476563 0-.949219.003906-1.421876.011719-11.945312.210937-23.566406-4.289063-32.757812-12.644531-23.21875-21.109376-53.300781-32.734376-84.703125-32.734376-31.398437 0-61.480469 11.625-84.703125 32.734376-9.191406 8.355468-20.847656 12.835937-32.753906 12.644531-.472656-.007813-.949219-.011719-1.421875-.011719-13.324219 0-26.210938 3.097656-37.789063 9.023438-2.125-9.160157-3.203125-18.507813-3.203125-27.90625 0-22.917969 6.511719-45.28125 18.867188-64.949219 46.808593 3.917969 93.90625 5.90625 141.003906 5.90625s94.195313-1.988281 141.007813-5.90625c12.351562 19.667969 18.863281 42.03125 18.863281 64.949219zm10.921875-85.5625c-.410156.148437-.816406.332031-1.210938.558593-.023437.015625-.046875.035157-.074218.050781-4.273438 1.960938-8.949219 3.246094-13.910157 3.691407l-6.160156.550781c-1.765625.160156-3.53125.292969-5.296875.445312-.015625 0-.027344.003907-.042969.003907-95.652343 8.265625-192.550781 8.261719-288.203125 0-.003906 0-.007812 0-.011718 0-1.769532-.15625-3.546876-.289063-5.316407-.449219l-6.160156-.550781c-4.960937-.445313-9.636719-1.730469-13.910156-3.691407-.027344-.015624-.050781-.035156-.074219-.050781-.394531-.226562-.800781-.410156-1.210938-.558593-13.769531-6.90625-22.980468-21.082032-22.980468-37.449219 0-11.910157 4.84375-22.898438 13.632812-30.933594 1.320313-1.207031 2.703125-2.3125 4.128906-3.324219.21875-.140625.421876-.285156.621094-.441406 6.792969-4.644531 14.699219-7.128906 22.972656-7.214844.03125 0 .058594.007813.089844.007813.046875 0 .09375-.011719.140625-.011719.066407 0 .136719-.007812.203125-.007812 1.285156 0 2.574219.058593 3.871094.175781 98.277344 8.808593 197.941406 8.808593 296.222656 0 1.375-.125 2.746094-.175781 4.109375-.167969.035157.003906.070313.011719.105469.011719.054688 0 .113281-.011719.171875-.011719 10.257813.121094 19.9375 3.941406 27.640625 10.984375 8.789062 8.035156 13.628906 19.023437 13.628906 30.933594 0 16.367187-9.207031 30.546875-22.976562 37.449219zm25.464844 160.644531c-1.425782-4.894531-3.355469-9.660157-5.773438-14.203125 7.675781-19.523438 11.566406-39.988282 11.566406-60.878906 0-5.46875-.261718-10.886719-.785156-16.242188 15.890625 8.78125 26.25 25.695312 26.25 44.449219.003906 20.804687-12.53125 39.125-31.257812 46.875zm-161.777344-37.425781v-19.617188c0-8.195312-6.667969-14.863281-14.863282-14.863281h-39.230468c-8.199219 0-14.867188 6.667969-14.867188 14.863281v19.617188c0 19.011718 15.46875 34.480468 34.480469 34.480468 19.015625 0 34.480469-15.46875 34.480469-34.480468zm-53.960938 0v-19.480469h38.960938v19.480469c0 10.742187-8.738282 19.480468-19.480469 19.480468s-19.480469-8.738281-19.480469-19.480468zm114.183594-85.484376c-4.140625 0-7.5 3.359376-7.5 7.5v15.984376c0 4.140624 3.359375 7.5 7.5 7.5 4.144531 0 7.5-3.359376 7.5-7.5v-15.984376c0-4.140624-3.355469-7.5-7.5-7.5zm0 0"/></svg>