<svg height="512pt" viewBox="0 0 512.00035 512" width="512pt" xmlns="http://www.w3.org/2000/svg"><path d="m318.121094 342.554688c0-6.964844 5.667968-12.632813 12.632812-12.632813s12.632813 5.667969 12.632813 12.632813c0 4.140624 3.359375 7.5 7.5 7.5 4.144531 0 7.5-3.359376 7.5-7.5 0-15.238282-12.394531-27.632813-27.632813-27.632813-15.238281 0-27.632812 12.394531-27.632812 27.632813 0 4.140624 3.355468 7.5 7.5 7.5 4.140625 0 7.5-3.359376 7.5-7.5zm167.566406-171.421876c17.191406-5.832031 28.152344-23.152343 26.058594-41.1875-2.714844-23.386718-16.839844-43.789062-37.78125-54.566406-3.679688-1.894531-8.203125-.445312-10.101563 3.238282-1.894531 3.683593-.445312 8.207031 3.238281 10.101562 16.484376 8.484375 27.605469 24.542969 29.742188 42.957031 1.285156 11.058594-5.433594 21.675781-15.976562 25.25l-42.769532 14.507813v-6.746094c0-3.570312-.84375-6.980469-2.363281-10.019531l6.453125-6.457031c2.929688-2.929688 2.929688-7.675782 0-10.605469-2.929688-2.929688-7.675781-2.929688-10.605469 0l-6.679687 6.679687c-.730469-.328125-1.472656-.632812-2.246094-.886718-4.527344-1.476563-9.117188-2.589844-13.738281-3.347657l13.949219-41.125c2.519531-7.429687 8.539062-13.132812 16.097656-15.253906 3.988281-1.121094 6.3125-5.261719 5.195312-9.25-1.121094-3.988281-5.261718-6.3125-9.25-5.195313-12.324218 3.460938-22.140625 12.761719-26.25 24.882813l-14.441406 42.585937-14.445312-42.585937c-5.832032-17.191406-23.148438-28.148437-41.1875-26.058594-15.4375 1.792969-29.261719 8.433594-39.949219 18.378907-1.910157-1.726563-3.988281-3.347657-6.222657-4.859376l19.304688-46.667968c3.296875-7.96875 1.140625-16.679688-5.5-22.1875-6.640625-5.507813-15.597656-6.019532-22.820312-1.308594l-4.925782 3.210938c-3.144531 2.050781-7.367187 1.628906-10.046875-1.003907l-4.105469-4.035156c-12.988281-12.769531-34.117187-12.769531-47.105468 0l-4.105469 4.035156c-2.675781 2.632813-6.902344 3.054688-10.046875 1.003907l-4.925781-3.210938c-7.222657-4.710938-16.179688-4.199219-22.820313 1.308594-6.640625 5.507812-8.796875 14.21875-5.5 22.1875l19.304688 46.667968c-13.132813 8.972657-20.816406 21.804688-20.816406 36.964844 0 .988282.042968 1.984375.113281 2.980469-36.488281 10.882813-69.929688 30.019531-97.761719 56.4375-45.5625 43.253906-70.65625 100.792969-70.65625 162.019531 0 46.25 14.519531 84 43.160156 112.203125 1.460938 1.441407 3.359375 2.15625 5.261719 2.15625 1.9375 0 3.875-.746093 5.34375-2.234375 2.90625-2.953125 2.871094-7.703125-.082031-10.609375-25.667969-25.277343-38.683594-59.433593-38.683594-101.515625 0-57.070312 23.433594-110.746094 65.984375-151.140625 27.492187-26.09375 60.835937-44.621093 97.226563-54.507812.078124-.011719.15625-.019531.230468-.039063.3125-.070312.609375-.164062.898438-.269531 19.738281-5.253906 40.359375-7.980469 61.425781-7.980469 12.0625 0 24.167969.933594 36.085937 2.75-.050781.386719-.117187.773438-.160156 1.160156-2.09375 18.035157 8.863282 35.355469 26.058594 41.1875l49.125 16.664063c.8125 2.082031 1.929688 4.019531 3.304688 5.757813-7.929688 11.863281-23.65625 31.363281-45.375 39.140624-5.503907 1.972657-9.773438 6.292969-11.714844 11.851563-1.9375 5.542969-1.285156 11.5625 1.78125 16.511719 8.371094 13.5 22.804687 24.804687 38.605468 30.238281 2.574219.886719 5.226563 1.3125 7.851563 1.3125 7.222656 0 14.25-3.234375 18.910156-9.070313 10.640625-13.328124 20.535157-35.328124 28.980469-64.242187 8.445312 28.914063 18.34375 50.917969 28.980469 64.242187 4.660156 5.839844 11.6875 9.070313 18.910156 9.070313 2.625 0 5.277344-.425781 7.851563-1.3125 3.28125-1.128906 6.5-2.523437 9.621093-4.125 4.613281 17.199219 6.953125 34.914063 6.953125 52.800781 0 129.738282-122.773437 156.96875-225.765625 156.96875-68.058593 0-121.9375-11.683594-160.140625-34.726562-3.546875-2.140625-8.15625-1-10.296875 2.546875s-1 8.15625 2.546875 10.296875c40.578125 24.472656 97.0625 36.886718 167.890625 36.886718 71.40625 0 128.21875-12.609374 168.859375-37.480468 47.710938-29.195313 71.90625-74.445313 71.90625-134.492188 0-20.820312-2.953125-41.433594-8.769531-61.355468 6.316406-5.070313 11.765625-11.054688 15.796875-17.558594 3.066406-4.949219 3.71875-10.964844 1.785156-16.507813-1.941406-5.558593-6.214844-9.878906-11.71875-11.851562-21.71875-7.78125-37.445312-27.28125-45.375-39.144531 1.378906-1.738282 2.496094-3.675782 3.304688-5.757813zm-302.011719-141.960937c-1.082031-2.621094.492188-4.308594 1.21875-4.910156.726563-.605469 2.675781-1.84375 5.050781-.292969l4.921876 3.210938c9 5.871093 21.097656 4.664062 28.761718-2.871094l4.105469-4.035156c7.1875-7.070313 18.882813-7.066407 26.070313 0l4.105468 4.035156c7.664063 7.535156 19.757813 8.746094 28.761719 2.871094l4.921875-3.210938c2.375-1.550781 4.320312-.3125 5.050781.292969.726563.601562 2.300781 2.289062 1.214844 4.910156l-18.785156 45.417969c-11.035157-4.398438-24.132813-6.796875-38.304688-6.796875-14.476562 0-27.46875 2.40625-38.320312 6.75zm96.714844 84.976563c-13.078125-2.0625-26.375-3.113282-39.621094-3.113282-19.605469 0-38.851562 2.226563-57.429687 6.53125.785156-23.878906 30.125-34.773437 57.429687-34.773437 14.992188 0 28.34375 2.949219 38.394531 8.230469.246094.144531.5.28125.765626.402343 3.378906 1.847657 6.367187 3.960938 8.898437 6.324219-3.488281 5.019531-6.335937 10.519531-8.4375 16.398438zm65.855469 34.0625 6.457031 6.457031c-1.519531 3.039062-2.363281 6.449219-2.363281 10.019531v6.746094l-42.773438-14.503906c-10.539062-3.578126-17.257812-14.195313-15.976562-25.253907.273437-2.355469.695312-4.660156 1.246094-6.910156.023437-.078125.035156-.164063.058593-.242187 2.023438-8.128907 5.8125-15.507813 10.933594-21.738282.367187-.355468.6875-.738281.96875-1.148437 8.824219-10.160157 21.300781-17.035157 35.519531-18.6875 11.058594-1.285157 21.675782 5.4375 25.253906 15.976562l13.945313 41.125c-4.621094.757813-9.210937 1.871094-13.734375 3.347657-.777344.253906-1.519531.558593-2.25.886718l-6.679688-6.679687c-2.929687-2.929688-7.675781-2.929688-10.605468 0-2.929688 2.929687-2.929688 7.675781 0 10.605469zm7.269531 125.96875c-2.40625 3.015624-6.488281 4.195312-10.160156 2.933593-14.878907-5.117187-25.632813-15.734375-30.734375-23.957031-.917969-1.484375-.625-2.929688-.371094-3.664062.441406-1.261719 1.394531-2.234376 2.613281-2.671876 25.4375-9.113281 43.203125-30.414062 53.007813-45.238281 4.890625 1.46875 9.84375 2.53125 14.828125 3.171875-10.644531 40.3125-21.628907 59.964844-29.183594 69.425782zm42.070313-83.710938c-.910157.015625-1.824219.015625-2.738282 0-.390625-.035156-.78125-.046875-1.167968-.023438-7.152344-.238281-14.285157-1.488281-21.242188-3.761718-3.050781-.996094-5.101562-3.820313-5.101562-7.03125v-14.964844c0-3.207031 2.050781-6.03125 5.101562-7.027344 6.257812-2.046875 12.664062-3.253906 19.09375-3.652344.371094.003907.75-.011718 1.125-.066406 1.1875-.054687 2.375-.09375 3.5625-.09375 1.3125 0 2.628906.046875 3.941406.117188.214844.019531.433594.050781.648438.050781.03125 0 .066406-.007813.101562-.007813 6.429688.398438 12.828125 1.605469 19.085938 3.652344 3.050781.996094 5.101562 3.820313 5.101562 7.027344v14.964844c0 3.210937-2.050781 6.035156-5.101562 7.03125-6.953125 2.273437-14.085938 3.519531-21.238282 3.761718-.382812-.023437-.777343-.011718-1.171874.023438zm77.984374 56.351562c1.222657.4375 2.175782 1.410157 2.613282 2.671876.257812.730468.546875 2.179687-.371094 3.660156-3.195312 5.160156-8.617188 11.253906-15.882812 16.347656-.082032.054688-.164063.105469-.246094.164062-4.265625 2.960938-9.152344 5.574219-14.601563 7.449219-3.671875 1.261719-7.753906.082031-10.160156-2.933593-7.554687-9.460938-18.542969-29.113282-29.183594-69.429688 4.984375-.636719 9.9375-1.699219 14.828125-3.167969 9.804688 14.824219 27.566406 36.125 53.003906 45.238281zm-232.800781 136.496094c10.351563 0 20.195313-4.484375 27.011719-12.300781 2.71875-3.121094 2.394531-7.859375-.730469-10.582031-3.121093-2.722656-7.859375-2.394532-10.582031.726562-3.960938 4.546875-9.6875 7.15625-15.699219 7.15625-6.015625 0-11.738281-2.605468-15.703125-7.15625-2.722656-3.125-7.460937-3.449218-10.582031-.726562-3.121094 2.71875-3.449219 7.457031-.726563 10.582031 6.8125 7.816406 16.65625 12.300781 27.011719 12.300781zm-102.621093-40.761718c0-6.964844 5.664062-12.632813 12.632812-12.632813 6.964844 0 12.632812 5.667969 12.632812 12.632813 0 4.140624 3.359376 7.5 7.5 7.5 4.144532 0 7.5-3.359376 7.5-7.5 0-15.238282-12.394531-27.632813-27.632812-27.632813s-27.632812 12.394531-27.632812 27.632813c0 4.140624 3.355468 7.5 7.5 7.5 4.140624 0 7.5-3.359376 7.5-7.5zm0 0"/></svg>