<svg height="512pt" viewBox="0 -82 512 512" width="512pt" xmlns="http://www.w3.org/2000/svg"><path d="m168.292969 163.324219v12.742187c0 4.140625 3.359375 7.5 7.5 7.5 4.144531 0 7.5-3.359375 7.5-7.5v-12.742187c0-4.140625-3.355469-7.5-7.5-7.5-4.140625 0-7.5 3.359375-7.5 7.5zm99.199219 62.339843 18.054687-8.03125c5.140625-2.28125 8.96875-6.695312 10.511719-12.105468 1.539062-5.40625.609375-11.175782-2.550782-15.824219-3.984374-5.863281-9.957031-10.078125-16.816406-11.875-13.535156-3.542969-27.84375-3.542969-41.382812 0-6.859375 1.796875-12.832032 6.011719-16.816406 11.875-3.160157 4.648437-4.089844 10.417969-2.550782 15.828125 1.542969 5.40625 5.375 9.820312 10.511719 12.105469l18.054687 8.027343c1.300782.578126 2.636719 1.046876 3.992188 1.421876v25.507812c-7.742188-1.625-14.832031-5.726562-20.128906-11.808594-2.722656-3.121094-7.460938-3.445312-10.582032-.726562-3.125 2.722656-3.449218 7.460937-.726562 10.582031 9.824219 11.273437 24.015625 17.738281 38.9375 17.738281 14.925781 0 29.117188-6.464844 38.941406-17.738281 2.71875-3.121094 2.394532-7.859375-.726562-10.582031-3.125-2.71875-7.859375-2.394532-10.582032.726562-5.300781 6.082032-12.390624 10.183594-20.132812 11.808594v-25.507812c1.355469-.375 2.691406-.84375 3.992188-1.421876zm-6.09375-13.707031c-3.429688 1.527344-7.367188 1.527344-10.796876 0l-18.054687-8.027343c-1.457031-.648438-1.992187-1.851563-2.179687-2.511719-.1875-.660157-.367188-1.960938.53125-3.28125 1.945312-2.863281 4.859374-4.921875 8.207031-5.796875 5.527343-1.445313 11.210937-2.171875 16.894531-2.171875s11.367188.726562 16.890625 2.171875c3.347656.875 6.265625 2.933594 8.210937 5.796875.898438 1.320312.714844 2.621093.527344 3.28125-.1875.660156-.71875 1.863281-2.179687 2.511719zm228.566406-80.054687c-13.304688-8.976563-30.855469-13.917969-49.414063-13.917969-9.085937 0-17.855469 1.183594-26.167969 3.488281-2.996093-4.371094-6.230468-8.617187-9.699218-12.734375l50.296875-50.296875c5.777343-5.777344 8.957031-13.457031 8.957031-21.625 0-8.171875-3.179688-15.851562-8.957031-21.628906-5.777344-5.773438-13.457031-8.957031-21.625-8.957031s-15.847657 3.179687-21.625 8.957031l-4.203125 4.203125-10.449219-10.449219c-11.925781-11.921875-31.328125-11.921875-43.25 0-5.777344 5.777344-8.960937 13.457032-8.960937 21.628906 0 8.167969 3.183593 15.847657 8.960937 21.625l10.445313 10.449219-6.945313 6.945313c-29.71875-16.988282-64.652344-26.113282-101.328125-26.113282-36.671875 0-71.605469 9.125-101.328125 26.113282l-6.945313-6.945313 10.449219-10.449219c5.773438-5.777343 8.957031-13.457031 8.957031-21.625 0-8.171874-3.183593-15.851562-8.957031-21.628906-11.925781-11.921875-31.328125-11.921875-43.25 0l-10.449219 10.449219-4.207031-4.203125c-11.921875-11.921875-31.324219-11.925781-43.25 0-6.59375 6.59375-9.789062 15.695312-8.773437 24.976562.453125 4.117188 4.15625 7.089844 8.273437 6.636719 4.117188-.449219 7.089844-4.152343 6.636719-8.273437-.519531-4.730469 1.113281-9.371094 4.472656-12.730469 2.941406-2.945313 6.855469-4.566406 11.019532-4.566406 4.160156 0 8.074218 1.621093 11.015624 4.566406l9.507813 9.503906c2.929687 2.929688 7.679687 2.929688 10.605469 0l15.753906-15.75c6.074219-6.078125 15.960938-6.078125 22.039062 0 2.941407 2.941407 4.5625 6.855469 4.5625 11.019531 0 4.160157-1.621093 8.074219-4.5625 11.019532l-15.753906 15.75c-1.40625 1.40625-2.195312 3.316406-2.195312 5.304687s.789062 3.894531 2.195312 5.300781l9.828125 9.832032c-5.550781 3.820312-10.882812 7.933594-15.957031 12.34375-2.832031 2.460937-5.550781 5-8.175781 7.597656l-36.960938-36.960938c-2.929687-2.929687-7.679687-2.929687-10.605469 0-2.929687 2.929688-2.929687 7.679688 0 10.605469l37.375 37.375c-3.46875 4.117188-6.707031 8.367188-9.699218 12.738281-8.3125-2.304687-17.085938-3.492187-26.167969-3.492187-18.5625 0-36.109375 4.941406-49.414063 13.917969-14.214843 9.585937-22.039062 22.625-22.039062 36.71875s7.824219 27.132812 22.035156 36.71875c13.304688 8.976562 30.855469 13.917968 49.414063 13.917968.085937 0 .179687-.003906.269531-.003906 3.347656 38.410156 22.050781 70.398438 54.601562 93.042969 32.917969 22.902344 77.761719 35.007813 129.679688 35.007813 42.261719 0 80.71875-8.28125 111.214844-23.949219 3.683594-1.890625 5.136718-6.414063 3.242187-10.097657-1.890625-3.683593-6.414062-5.136718-10.097656-3.242187-28.382813 14.582031-64.46875 22.289063-104.359375 22.289063-48.144531 0-91.152344-11.476563-121.109375-32.320313-31.875-22.175781-48.722656-54.492187-48.722656-93.453125 0-25.792969 7.265625-50.433594 20.914062-72.101562.082031-.125.164063-.253907.238281-.382813 7.53125-11.867187 16.972657-22.839844 28.207032-32.605469 6.710937-5.835937 13.914062-11.113281 21.519531-15.816406.261719-.140625.515625-.304688.761719-.476562 28.359375-17.332032 62.347656-26.675782 98.191406-26.675782s69.828125 9.339844 98.1875 26.671875c.25.179688.507812.34375.773438.484375 7.601562 4.703125 14.800781 9.976563 21.511718 15.8125 11.234375 9.765625 20.679688 20.738282 28.207032 32.609375.074218.125.15625.25.234374.371094 13.652344 21.667969 20.917969 46.3125 20.917969 72.109375 0 34.652344-12.769531 63.28125-37.957031 85.097656-3.128906 2.710938-3.46875 7.449219-.757812 10.582032 2.710937 3.128906 7.449218 3.46875 10.582031.757812 25.070312-21.71875 39.632812-50.46875 42.570312-83.71875.089844 0 .1875.007812.28125.007812 18.558594 0 36.109375-4.941406 49.414063-13.917968 14.210937-9.585938 22.035156-22.625 22.035156-36.71875s-7.824219-27.132813-22.035156-36.71875zm-418.769532 72.351562c-30.484374-.089844-56.195312-16.371094-56.195312-35.632812 0-1.695313.210938-3.363282.59375-5 14.414062-1.832032 36.996094-2.191406 61.296875 1.796875-3.570313 12.511719-5.496094 25.527343-5.695313 38.835937zm10.609376-53.214844c-20.617188-3.59375-40.324219-4.214843-55.648438-3.382812 10.390625-8.828125 26.988281-14.671875 45.292969-14.671875 6.101562 0 12.175781.660156 17.953125 1.910156-2.855469 5.25-5.394532 10.636719-7.597656 16.144531zm304.511718-60.917968c-5.078125-4.414063-10.410156-8.527344-15.960937-12.347656l9.828125-9.828126c1.410156-1.40625 2.199218-3.316406 2.199218-5.304687s-.789062-3.894531-2.199218-5.300781l-15.75-15.753906c-2.945313-2.941407-4.566406-6.855469-4.566406-11.019532 0-4.160156 1.621093-8.074218 4.566406-11.019531 6.074218-6.074219 15.960937-6.074219 22.039062 0l15.75 15.753906c2.929688 2.929688 7.679688 2.929688 10.605469 0l9.507813-9.507812c6.074218-6.074219 15.960937-6.074219 22.039062 0 2.941406 2.945312 4.5625 6.855469 4.5625 11.019531s-1.621094 8.074219-4.566406 11.019531l-49.882813 49.882813c-2.625-2.59375-5.34375-5.132813-8.171875-7.59375zm36.28125 44.773437c5.777344-1.25 11.851563-1.910156 17.953125-1.910156 18.304688 0 34.902344 5.84375 45.292969 14.671875-15.324219-.832031-35.03125-.210938-55.648438 3.382812-2.203124-5.507812-4.742187-10.894531-7.597656-16.144531zm18.207032 69.359375c-.199219-13.308594-2.125-26.324218-5.695313-38.835937 24.300781-3.988281 46.882813-3.628907 61.296875-1.796875.382812 1.636718.59375 3.304687.59375 5 0 19.261718-25.710938 35.542968-56.195312 35.632812zm-112.097657-40.929687v12.742187c0 4.140625 3.355469 7.5 7.5 7.5 4.140625 0 7.5-3.359375 7.5-7.5v-12.742187c0-4.140625-3.359375-7.5-7.5-7.5-4.144531 0-7.5 3.359375-7.5 7.5zm0 0"/></svg>