<svg height="512pt" viewBox="-14 0 511 512" width="512pt" xmlns="http://www.w3.org/2000/svg"><path d="m444.015625 100.039062-31.523437-31.523437c-24.015626-24.015625-55.90625-38.191406-89.796876-39.910156-31.363281-1.585938-62.097656 7.546875-87.292968 25.832031v-2.101562c0-28.859376-23.476563-52.335938-52.332032-52.335938-28.855468 0-52.335937 23.476562-52.335937 52.335938v93.257812c0 7.152344-2.785156 13.878906-7.839844 18.9375l-35.371093 35.371094c-7.152344-2.519532-14.769532-3.789063-22.59375-3.695313-4.144532.054688-7.457032 3.453125-7.40625 7.597657.054687 4.140624 3.421874 7.453124 7.59375 7.402343 7.246093-.09375 14.261718 1.347657 20.703124 4.152344.289063.152344.585938.277344.886719.386719 5.359375 2.460937 10.296875 5.878906 14.597657 10.179687 6.332031 6.328125 10.859374 14.242188 13.097656 22.886719.773437 2.976562 3.28125 5.179688 6.332031 5.5625 12.367187 1.542969 23.5625 7.015625 32.375 15.832031 6.441406 6.441407 11.074219 14.105469 13.765625 22.773438.78125 2.511719 2.820312 4.433593 5.375 5.0625 10.199219 2.503906 19.535156 7.773437 27 15.238281s12.738281 16.804688 15.242188 27c.625 2.558594 2.546874 4.597656 5.0625 5.378906 8.667968 2.6875 16.332031 7.320313 22.773437 13.761719 8.8125 8.8125 14.285156 20.007813 15.832031 32.375.378906 3.050781 2.585938 5.5625 5.5625 6.332031 8.640625 2.238282 16.554688 6.769532 22.882813 13.097656 4.328125 4.324219 7.753906 9.304688 10.21875 14.710938.078125.199219.167969.398438.261719.589844 2.773437 6.296875 4.242187 13.15625 4.242187 20.242187 0 13.425781-5.230469 26.046875-14.722656 35.539063-9.492188 9.492187-22.113281 14.71875-35.542969 14.71875-13.425781 0-26.046875-5.226563-35.539062-14.71875-6.332032-6.332032-10.859376-14.246094-13.097657-22.886719-.773437-2.976563-3.28125-5.179687-6.332031-5.5625-12.367188-1.542969-23.5625-7.019531-32.375-15.832031-6.441406-6.441406-11.074219-14.101563-13.765625-22.773438-.78125-2.515625-2.820313-4.433594-5.375-5.0625-10.195313-2.503906-19.53125-7.773437-27-15.238281-7.464844-7.46875-12.734375-16.804687-15.238281-27-.628906-2.558594-2.550782-4.597656-5.0625-5.375-8.671875-2.691406-16.332032-7.324219-22.773438-13.765625-8.816406-8.8125-14.289062-20.007812-15.832031-32.375-.382813-3.050781-2.585937-5.558594-5.5625-6.332031-8.644531-2.238281-16.558594-6.769531-22.886719-13.097657-9.492187-9.492187-14.722656-22.113281-14.722656-35.539062s5.230469-26.050781 14.722656-35.542969c1.863282-1.863281 3.878906-3.589843 5.992188-5.128906 3.347656-2.4375 4.082031-7.128906 1.644531-10.480469-2.4375-3.347656-7.132813-4.082031-10.480469-1.644531-2.738281 1.996094-5.351562 4.234375-7.765625 6.648437-12.324219 12.324219-19.113281 28.714844-19.113281 46.148438 0 17.429688 6.789062 33.820312 19.113281 46.148438 7.039063 7.039062 15.589844 12.363281 24.953125 15.574218 2.683594 13.765625 9.308594 26.210938 19.328125 36.230469 7.078125 7.078125 15.648438 12.597656 24.984375 16.125 3.472656 11.289063 9.675782 21.597656 18.09375 30.011719 8.414063 8.417968 18.722656 14.617187 30.011719 18.09375 3.527344 9.335937 9.046875 17.90625 16.125 24.984375 10.019531 10.019531 22.464844 16.640625 36.230469 19.328125 3.210937 9.363281 8.535156 17.910156 15.574218 24.949218 12.722657 12.722657 29.4375 19.085938 46.148438 19.085938 16.714844 0 33.425781-6.363281 46.148438-19.085938 18.324218-18.320312 23.449218-44.917968 15.386718-67.871093l48.542969-48.546875c2.929687-2.929688 2.929687-7.679688 0-10.605469-2.925781-2.929687-7.675781-2.929687-10.605469 0l-44.96875 44.96875c-2.386718-3.621094-5.171875-7.054687-8.355468-10.238281-7.039063-7.039063-15.585938-12.367188-24.949219-15.578125-2.6875-13.765625-9.308594-26.207031-19.328125-36.226563-7.078125-7.078125-15.652344-12.601562-24.984375-16.125-3.476563-11.292968-9.675781-21.601562-18.09375-30.015625-8.414063-8.417969-18.722657-14.617187-30.011719-18.089843-3.527344-9.335938-9.046875-17.910157-16.125-24.988282-10.023438-10.019531-22.464844-16.640625-36.230469-19.328125-3.214843-9.363281-8.539062-17.910156-15.574219-24.949219-3.164062-3.164062-6.589843-5.957031-10.230468-8.367187l31.816406-31.816406c7.890625-7.890625 12.234375-18.378907 12.234375-29.539063v-93.261718c0-20.589844 16.75-37.335938 37.335937-37.335938 20.582032 0 37.332032 16.75 37.332032 37.335938v8.8125c0 4.539062 2.542968 8.578124 6.636718 10.539062s8.832032 1.410156 12.371094-1.4375c2.734375-2.199219 5.539063-4.257812 8.398438-6.1875 9.675781 12.164062 15.066406 26.480469 21.183594 42.765625 9.613281 25.589844 20.511718 54.59375 51.3125 85.394531 30.800781 30.800782 59.804687 41.699219 85.398437 51.3125 16.28125 6.117188 30.59375 11.503906 42.757813 21.179688-4.335938 6.460937-9.347657 12.597656-15.054688 18.300781l-58.085938 58.085937c-2.925781 2.929688-2.925781 7.679688 0 10.605469 1.464844 1.464844 3.386719 2.199219 5.304688 2.199219s3.839844-.734375 5.304688-2.199219l58.082031-58.085937c8.046875-8.042969 14.867187-16.851563 20.488281-26.1875.121094-.183594.234375-.367188.339844-.558594 31.28125-52.535156 24.34375-121.667969-20.824219-166.835938zm12.066406 151.617188c-13.605469-10.308594-28.972656-16.101562-45.101562-22.160156-24.167969-9.082032-51.5625-19.371094-80.066407-47.878906-28.507812-28.503907-38.800781-55.898438-47.878906-80.066407-6.066406-16.144531-11.867187-31.527343-22.195312-45.144531 46.085937-23.351562 103.09375-15.234375 141.042968 22.714844l31.523438 31.527344c38.09375 38.085937 45.644531 95.320312 22.675781 141.007812zm-196.511719-30.621094c-4.132812-.285156-7.714843 2.839844-7.996093 6.972656-.613281 8.921876 2.65625 17.664063 8.972656 23.976563 5.8125 5.816406 13.675781 9.046875 21.851563 9.046875.707031 0 1.417968-.023438 2.128906-.074219 4.128906-.28125 7.25-3.863281 6.96875-7.996093-.285156-4.132813-3.871094-7.25-7.996094-6.96875-4.601562.320312-9.097656-1.367188-12.347656-4.613282-3.246094-3.25-4.929688-7.75-4.613282-12.34375.285157-4.132812-2.835937-7.714844-6.96875-8zm62.191407 53.78125-7.855469 7.855469c-2.929688 2.929687-2.929688 7.679687 0 10.609375 1.464844 1.464844 3.382812 2.195312 5.304688 2.195312 1.917968 0 3.839843-.730468 5.300781-2.195312l7.855469-7.855469c2.929687-2.929687 2.929687-7.679687 0-10.609375-2.925782-2.925781-7.675782-2.925781-10.605469 0zm-94.65625-94.65625-7.855469 7.859375c-2.929688 2.925781-2.929688 7.675781 0 10.605469 1.464844 1.464844 3.382812 2.199219 5.304688 2.199219 1.917968 0 3.835937-.734375 5.300781-2.199219l7.859375-7.855469c2.925781-2.929687 2.925781-7.679687 0-10.605469-2.929688-2.933593-7.679688-2.933593-10.609375-.003906zm0 0"/></svg>