<svg height="512pt" viewBox="-95 0 512 512" width="512pt" xmlns="http://www.w3.org/2000/svg"><path d="m316.671875 196.335938c-4.75-5.585938-11.679687-8.789063-19.007813-8.789063h-18.785156c8.515625-17.546875 13.023438-36.921875 13.023438-56.949219 0-33.976562-12.921875-66.015625-36.421875-90.460937-1.621094-5.753907-4.683594-11.183594-9.203125-15.703125l-10.335938-10.335938c-6.828125-6.828125-15.90625-10.585937-25.5625-10.585937-4.054687 0-8.003906.667969-11.730468 1.941406-12.089844-3.601563-24.632813-5.453125-37.34375-5.453125-22.296876 0-44.132813 5.679688-63.472657 16.449219-11.335937-6.609375-26.148437-5.0625-35.851562 4.636719l-7.976563 7.976562c-9.46875 9.46875-11.164062 23.804688-5.097656 35.023438-3.691406 6.230468-6.878906 12.765624-9.476562 19.496093-1.492188 3.863281.429687 8.203125 4.296874 9.695313.886719.34375 1.800782.507812 2.699219.507812 3.007813 0 5.847657-1.824218 6.996094-4.800781 1.6875-4.363281 3.652344-8.632813 5.863281-12.773437l2.695313 2.691406c5.769531 5.773437 13.351562 8.65625 20.933593 8.65625 7.578126 0 15.160157-2.882813 20.933594-8.65625l7.972656-7.972656c11.542969-11.542969 11.542969-30.328126 0-41.871094l-1.980468-1.980469c15.914062-7.914063 33.515625-12.078125 51.464844-12.078125 6.988281 0 13.917968.644531 20.730468 1.878906l-7.554687 7.554688c-14.09375 14.09375-14.09375 37.03125.003906 51.125l10.332031 10.335937c6.828125 6.828125 15.90625 10.585938 25.566406 10.585938 9.652344 0 18.730469-3.757813 25.558594-10.585938l10.335938-10.335937c3.847656-3.847656 6.636718-8.355469 8.382812-13.160156 14.441406 19.679687 22.242188 43.355468 22.242188 68.199218 0 21.546875-5.890625 42.246094-16.894532 60.214844-.15625.226562-.300781.464844-.429687.710938-1.644531 2.640624-3.40625 5.222656-5.273437 7.738281-4.425782-9.585938-14.125-16.257813-25.355469-16.257813h-10.417969c-15.394531 0-27.917969 12.523438-27.917969 27.921875v10.414063c0 7.289062 2.808594 13.929687 7.398438 18.90625-11.757813 3.949218-24.046875 5.953125-36.707031 5.953125-13.148438 0-25.921876-2.171875-38.121094-6.441407l4.230468-4.234374c12.019532-12.015626 12.019532-31.570313 0-43.585938l-8.414062-8.414062c-12.015625-12.015626-31.566406-12.015626-43.585938 0l-8.414062 8.414062c-.757812.757812-1.464844 1.546875-2.128906 2.359375-12.40625-18.800781-19.164063-41.007813-19.164063-63.699219 0-3.371094.148438-6.773437.4375-10.117187.359375-4.128907-2.695312-7.761719-6.824219-8.121094-4.121093-.351563-7.761718 2.699219-8.117187 6.824219-.328125 3.769531-.496094 7.613281-.496094 11.414062 0 19.808594 4.546875 39.304688 13.082031 56.949219h-18.839843c-7.332031 0-14.257813 3.203125-19.007813 8.789063-4.746094 5.582031-6.792968 12.9375-5.613281 20.171874l42.578125 261.113282c3.246094 19.921875 20.253906 34.378906 40.4375 34.378906h141.191406c4.140625 0 7.5-3.359375 7.5-7.5s-3.359375-7.5-7.5-7.5h-141.191406c-12.792969 0-23.574219-9.164062-25.632812-21.792969l-2.171876-13.300781h188.496094.011719.019531 23.003906l-2.167968 13.300781c-1.144532 7.011719-5.175782 13.324219-11.058594 17.316407-3.429688 2.328124-4.320312 6.992187-1.992188 10.417968 1.449219 2.136719 3.808594 3.289063 6.210938 3.289063 1.449219 0 2.914062-.417969 4.207031-1.292969 9.277344-6.300781 15.632813-16.253906 17.4375-27.316406l42.578125-261.113282c1.179688-7.234374-.867187-14.589843-5.613281-20.171874zm-215.453125-136.011719-7.976562 7.972656c-5.695313 5.695313-14.960938 5.695313-20.65625 0l-7.972657-7.972656c-5.695312-5.695313-5.695312-14.960938 0-20.65625l7.972657-7.976563c2.761718-2.757812 6.425781-4.277344 10.328124-4.277344 3.410157 0 6.644532 1.164063 9.246094 3.300782.097656.089844.195313.175781.296875.265625.265625.230469.535157.460937.785157.710937l7.976562 7.976563c5.691406 5.695312 5.691406 14.960937 0 20.65625zm134.453125 4.625-10.335937 10.335937c-3.996094 3.996094-9.308594 6.195313-14.957032 6.195313-5.648437 0-10.960937-2.199219-14.953125-6.195313l-10.335937-10.332031c-8.246094-8.25-8.246094-21.667969 0-29.914063l10.335937-10.335937c3.992188-3.992187 9.304688-6.195313 14.953125-6.195313 5.648438 0 10.960938 2.203126 14.957032 6.195313l10.335937 10.335937c8.246094 8.246094 8.246094 21.664063 0 29.910157zm-30.0625 145.972656c0-7.121094 5.796875-12.917969 12.921875-12.917969h10.414062c7.125 0 12.921876 5.792969 12.921876 12.917969v10.417969c0 7.125-5.796876 12.921875-12.921876 12.921875h-10.414062c-.792969 0-1.566406-.085938-2.316406-.222657-.105469-.015624-.207032-.035156-.3125-.050781-5.867188-1.214843-10.292969-6.425781-10.292969-12.648437zm-128.003906-8.378906 8.414062-8.414063c3.085938-3.082031 7.136719-4.625 11.1875-4.625s8.105469 1.542969 11.1875 4.625l8.414063 8.414063c6.167968 6.167969 6.167968 16.207031 0 22.375l-8.414063 8.414062c-.882812.882813-1.863281 1.636719-2.902343 2.277344-.121094.066406-.234376.136719-.351563.210937-2.386719 1.390626-5.097656 2.144532-7.933594 2.144532-4.226562 0-8.199219-1.644532-11.1875-4.632813l-8.414062-8.414062c-6.167969-6.167969-6.167969-16.207031 0-22.375zm160.054687 244.363281h-152.710937l-24.992188-153.257812c19.121094-8.5 41.167969-6.574219 58.671875 5.417968 12.621094 8.644532 27.378906 13.214844 42.675782 13.214844 15.296874 0 30.054687-4.570312 42.675781-13.214844 17.503906-11.992187 39.550781-13.921875 58.671875-5.417968zm69.820313-232.8125-37.964844 232.8125h-16.65625l25.488281-156.300781c.511719-3.132813-1.007812-6.246094-3.785156-7.777344-25.117188-13.820313-55.410156-12.339844-79.058594 3.863281-20.457031 14.011719-47.941406 14.011719-68.398437 0-23.652344-16.207031-53.941407-17.683594-79.054688-3.863281-2.78125 1.53125-4.300781 4.644531-3.789062 7.777344l25.488281 156.300781h-16.65625l-37.964844-232.8125c-.472656-2.886719.34375-5.816406 2.238282-8.042969 1.894531-2.230469 4.65625-3.503906 7.578124-3.503906h27.371094c1.832032 2.777344 3.777344 5.488281 5.824219 8.125-.875 8.878906 2.074219 18.066406 8.859375 24.851563l8.414062 8.414062c5.820313 5.820312 13.5625 9.027344 21.792969 9.027344 4.261719 0 8.390625-.867188 12.191407-2.503906 16.402343 7.125 33.847656 10.734374 51.90625 10.734374 19.167968 0 37.59375-4.058593 54.824218-12.046874.792969.070312 1.589844.109374 2.402344.109374h10.414062c15.398438 0 27.921876-12.523437 27.921876-27.917968v-1.738282c4.992187-5.355468 9.480468-11.058593 13.453124-17.058593h27.34375c2.921876 0 5.683594 1.277343 7.578126 3.503906 1.894531 2.230469 2.707031 5.164063 2.238281 8.046875zm-146.175781-50.070312c15.566406 0 28.234374-13.773438 28.234374-30.703126 0-16.929687-12.667968-30.703124-28.234374-30.703124-15.570313 0-28.234376 13.773437-28.234376 30.703124 0 16.929688 12.664063 30.703126 28.234376 30.703126zm0-46.40625c7.296874 0 13.234374 7.042968 13.234374 15.703124 0 8.660157-5.9375 15.703126-13.234374 15.703126-7.296876 0-13.234376-7.042969-13.234376-15.703126 0-8.660156 5.9375-15.703124 13.234376-15.703124zm72.898437 7.257812v-11.039062c0-4.144532-3.355469-7.5-7.5-7.5-4.140625 0-7.5 3.355468-7.5 7.5v11.039062c0 4.140625 3.359375 7.5 7.5 7.5 4.144531 0 7.5-3.359375 7.5-7.5zm-130.796875 0v-11.039062c0-4.144532-3.359375-7.5-7.5-7.5-4.144531 0-7.5 3.355468-7.5 7.5v11.039062c0 4.140625 3.355469 7.5 7.5 7.5 4.140625 0 7.5-3.359375 7.5-7.5zm0 0"/></svg>