<svg height="512pt" viewBox="-35 0 512 512" width="512pt" xmlns="http://www.w3.org/2000/svg"><path d="m132.390625 121.464844c13.304687 0 24.128906-10.824219 24.128906-24.128906 0-13.308594-10.824219-24.132813-24.128906-24.132813-13.308594 0-24.132813 10.824219-24.132813 24.132813 0 13.304687 10.824219 24.128906 24.132813 24.128906zm0-33.261719c5.035156 0 9.128906 4.097656 9.128906 9.132813 0 5.035156-4.09375 9.128906-9.128906 9.128906s-9.132813-4.09375-9.132813-9.128906c0-5.035157 4.09375-9.132813 9.132813-9.132813zm182.863281 196.554687c0 13.304688 10.824219 24.128907 24.128906 24.128907 13.308594 0 24.132813-10.824219 24.132813-24.128907 0-13.308593-10.824219-24.132812-24.132813-24.132812-13.304687 0-24.128906 10.824219-24.128906 24.132812zm24.128906-9.132812c5.035157 0 9.132813 4.097656 9.132813 9.132812 0 5.035157-4.097656 9.128907-9.132813 9.128907-5.035156 0-9.128906-4.09375-9.128906-9.128907 0-5.035156 4.09375-9.132812 9.128906-9.132812zm-270.453124 8.160156c0 13.308594 10.824218 24.132813 24.128906 24.132813 13.304687 0 24.132812-10.824219 24.132812-24.132813 0-13.304687-10.828125-24.128906-24.132812-24.128906-13.304688 0-24.128906 10.824219-24.128906 24.128906zm33.257812 0c0 5.035156-4.09375 9.132813-9.128906 9.132813s-9.132813-4.097657-9.132813-9.132813 4.097657-9.128906 9.132813-9.128906 9.128906 4.097656 9.128906 9.128906zm-31.574219-129.160156c-13.304687 0-24.132812 10.824219-24.132812 24.132812 0 13.304688 10.828125 24.128907 24.132812 24.128907 13.308594 0 24.132813-10.824219 24.132813-24.128907 0-13.308593-10.824219-24.132812-24.132813-24.132812zm0 33.261719c-5.035156 0-9.132812-4.097657-9.132812-9.128907 0-5.035156 4.097656-9.132812 9.132812-9.132812 5.035157 0 9.132813 4.097656 9.132813 9.132812 0 5.03125-4.097656 9.128907-9.132813 9.128907zm178.8125 218.503906h-57.523437c-8.628906 0-15.648438 7.019531-15.648438 15.648437v10.691407c0 8.625 7.019532 15.648437 15.648438 15.648437h57.523437c8.628907 0 15.648438-7.023437 15.648438-15.648437v-10.691407c0-8.628906-7.019531-15.648437-15.648438-15.648437zm.648438 26.339844c0 .355469-.292969.648437-.648438.648437h-57.523437c-.355469 0-.648438-.292968-.648438-.648437v-10.691407c0-.355468.292969-.648437.648438-.648437h57.523437c.355469 0 .648438.292969.648438.648437zm171.273437 24.800781h-17.609375l-9.011719-40.703125c-3.316406-14.972656-13.773437-26.617187-27.367187-31.738281 13.210937-11.804688 25.023437-25.203125 35.070313-39.78125.3125-.378906.59375-.785156.828124-1.226563 5.300782-7.796875 10.113282-15.914062 14.351563-24.304687 15.636719-30.953125 23.5625-64.351563 23.5625-99.265625 0-58.902344-22.9375-114.277344-64.585937-155.925781-41.648438-41.648438-97.023438-64.585938-155.921876-64.585938-47.035156 0-91.921874 14.605469-129.808593 42.238281-3.347657 2.441407-4.082031 7.128907-1.640625 10.476563s7.132812 4.082031 10.480468 1.640625c35.300782-25.746094 77.132813-39.355469 120.96875-39.355469 113.316407 0 205.507813 92.191406 205.507813 205.511719 0 32.542969-7.386719 63.667969-21.953125 92.503906-3.378906 6.695313-7.148438 13.207031-11.261719 19.503906-20.316406-2.671875-35.105469-6.835937-50.695312-11.222656-22.324219-6.289063-45.261719-12.742187-85.433594-15.183594v-30.914062c13.488281-2.136719 26.816406-5.460938 39.792969-10.003907 6.90625-2.417968 12.332031-7.738281 14.886718-14.597656 2.554688-6.855468 1.929688-14.429687-1.714843-20.773437l-14.023438-24.429688c5.574219-2.640625 9.910157-7.335937 12.089844-13.1875 2.476563-6.648437 1.867187-13.992187-1.664063-20.148437l-46.066406-80.246094c-8.214844-14.308594-22.96875-22.851562-39.464844-22.851562-16.5 0-31.253906 8.542968-39.46875 22.851562l-46.0625 80.246094c-3.535156 6.152344-4.140624 13.496094-1.664062 20.148437 2.175781 5.851563 6.515625 10.546875 12.085938 13.1875l-14.023438 24.425781c-3.640625 6.347657-4.265625 13.917969-1.710938 20.777344 2.550782 6.859375 7.976563 12.175782 14.882813 14.59375 12.980469 4.546875 26.308594 7.875 39.796875 10.007813v30.914062c-40.171875 2.441407-63.113281 8.894531-85.4375 15.179688-15.585938 4.390625-30.375 8.554687-50.695312 11.226562-4.109376-6.296875-7.878907-12.808593-11.261719-19.503906-14.566407-28.839844-21.953125-59.960937-21.953125-92.507813 0-53.9375 20.738281-104.898437 58.398437-143.5 2.890625-2.964843 2.832031-7.710937-.132812-10.605468-2.96875-2.894532-7.714844-2.832032-10.605469.132812-40.40625 41.417969-62.660156 96.101563-62.660156 153.972656 0 34.917969 7.929687 68.316407 23.566406 99.269532 4.242188 8.398437 9.0625 16.523437 14.367188 24.328125.238281.441406.515624.851562.832031 1.230469 10.042969 14.566406 21.84375 27.957031 35.050781 39.753906-13.59375 5.121094-24.054688 16.765625-27.367188 31.738281l-9.011718 40.699219h-17.613282c-11.015624 0-19.976562 8.960937-19.976562 19.980468v14.511719c0 11.019531 8.964844 19.980469 19.976562 19.980469h354.054688c4.140625 0 7.5-3.359375 7.5-7.5s-3.359375-7.5-7.5-7.5h-354.054688c-2.742187 0-4.976562-2.234375-4.976562-4.976562v-14.515626c0-2.746093 2.230469-4.976562 4.976562-4.976562h23.496094.070313 354.148437.019532.027343 23.609375c2.746094 0 4.976563 2.230469 4.976563 4.976562v14.515626c0 2.746093-2.230469 4.976562-4.976563 4.976562h-12.496094c-4.140624 0-7.5 3.359375-7.5 7.5s3.359376 7.5 7.5 7.5h12.496094c11.015625 0 19.976563-8.960938 19.976563-19.976562v-14.515626c0-11.015624-8.960938-19.976562-19.976563-19.976562zm-273.207031-278.003906 46.066406-80.246094c5.503907-9.59375 15.394531-15.320312 26.457031-15.320312 11.058594 0 20.949219 5.726562 26.457032 15.320312l46.066406 80.246094c1.304688 2.273437 1.527344 4.988281.613281 7.445312-.914062 2.457032-2.859375 4.367188-5.335937 5.230469-43.722656 15.308594-91.882813 15.308594-135.605469 0-2.476563-.867187-4.421875-2.773437-5.335937-5.230469-.914063-2.457031-.691407-5.171875.617187-7.445312zm1.519531 71.507812c-2.683594-.9375-4.792968-3.007812-5.785156-5.671875-.992188-2.664062-.746094-5.605469.667969-8.074219l15.539062-27.070312c19.742188 5.636719 40.160157 8.464844 60.582031 8.464844 20.417969 0 40.835938-2.828125 60.578126-8.464844l15.539062 27.070312c1.417969 2.46875 1.660156 5.410157.667969 8.074219-.992188 2.664063-3.101563 4.734375-5.785157 5.671875-45.785156 16.03125-96.214843 16.03125-142.003906 0zm92.167969 26.039063v28.347656c-6.617187-.214844-13.644531-.332031-21.164063-.332031-7.523437 0-14.546874.117187-21.164062.332031v-28.347656c7.035156.648437 14.097656.980469 21.164062.980469 7.0625 0 14.125-.332032 21.164063-.980469zm-183.667969 69.175781c17.605469-2.8125 31.476563-6.71875 44.972656-10.515625 27.300782-7.691406 55.53125-15.644531 117.53125-15.644531 61.996094 0 90.226563 7.953125 117.53125 15.644531 13.496094 3.800781 27.367188 7.703125 44.96875 10.515625-10.386718 13.394531-22.421874 25.527344-35.746093 35.988281h-253.511719c-13.320312-10.460937-25.359375-22.597656-35.746094-35.988281zm-5.210937 111.28125 8.296875-37.460938c2.976562-13.441406 14.671875-22.832031 28.441406-22.832031h1.609375.003906.007813 258.707031.007813.007812 1.609375c13.765625 0 25.464844 9.390625 28.4375 22.832031l8.296875 37.460938zm283.683593-383.359375c-3.246093-2.574219-7.964843-2.03125-10.539062 1.214844-2.574219 3.242187-2.03125 7.960937 1.214844 10.535156 12.0625 9.574219 22.800781 20.722656 31.90625 33.136719 1.46875 2.003906 3.746094 3.066406 6.054687 3.066406 1.539063 0 3.09375-.472656 4.429688-1.453125 3.339843-2.449219 4.058593-7.144531 1.609375-10.484375-9.898438-13.492188-21.566406-25.613281-34.675782-36.015625zm-25.460937-9.492187c0-13.308594-10.828125-24.132813-24.132813-24.132813-13.304687 0-24.132812 10.824219-24.132812 24.132813 0 13.304687 10.828125 24.128906 24.132812 24.128906 13.304688.003906 24.132813-10.824219 24.132813-24.128906zm-33.265625 0c0-5.035157 4.097656-9.132813 9.132812-9.132813 5.035157 0 9.132813 4.097656 9.132813 9.132813 0 5.035156-4.097656 9.128906-9.132813 9.128906-5.035156.003906-9.132812-4.09375-9.132812-9.128906zm112.953125 78.957031c-1.964844-4.347657-4.128906-8.675781-6.429687-12.867188-1.992188-3.628906-6.546876-4.957031-10.183594-2.964843-3.628906 1.996093-4.957032 6.554687-2.964844 10.183593 2.117188 3.855469 4.105469 7.835938 5.914062 11.832031 1.253907 2.769532 3.980469 4.410157 6.835938 4.410157 1.035156 0 2.085938-.214844 3.085938-.671875 3.777343-1.707032 5.453124-6.148438 3.742187-9.921875zm-28.757813 32.941406c-13.304687 0-24.128906 10.824219-24.128906 24.132813 0 13.304687 10.824219 24.128906 24.128906 24.128906 13.304688 0 24.132813-10.824219 24.132813-24.128906-.003906-13.308594-10.828125-24.132813-24.132813-24.132813zm0 33.261719c-5.035156 0-9.128906-4.097656-9.128906-9.128906 0-5.035157 4.09375-9.132813 9.128906-9.132813 5.035157 0 9.132813 4.097656 9.132813 9.132813-.003906 5.03125-4.097656 9.128906-9.132813 9.128906zm0 0"/></svg>