<svg height="512pt" viewBox="-64 0 512 512.002" width="512pt" xmlns="http://www.w3.org/2000/svg"><path d="m330.332031 50.5625.789063-5.980469c1.390625-10.539062-.925782-21.320312-6.527344-30.355469-5.527344-8.90625-15.082031-14.226562-25.5625-14.226562-10.484375 0-20.039062 5.320312-25.5625 14.226562-5.605469 9.039063-7.921875 19.820313-6.527344 30.355469l.136719 1.039063c-.917969-.039063-1.835937-.0625-2.757813-.0625-8.960937 0-17.886718 1.902344-26.046874 5.535156-5.578126-2.917969-11.515626-5.007812-17.707032-6.230469-4.0625-.796875-8.007812 1.84375-8.808594 5.90625-.804687 4.066407 1.84375 8.007813 5.90625 8.8125 5.824219 1.148438 11.363282 3.296875 16.457032 6.382813 2.253906 1.359375 5.050781 1.445312 7.378906.21875 7.097656-3.730469 14.773438-5.625 22.816406-5.625 3.328125 0 6.597656.332031 9.78125.972656.167969.039062.335938.074219.511719.101562 7.167969 1.523438 13.890625 4.648438 19.8125 9.253907 2.429687 1.890625 5.761719 2.105469 8.410156.546875 6.78125-3.992188 14.539063-6.101563 22.433594-6.101563 24.4375 0 44.316406 19.878907 44.316406 44.316407 0 23.753906-18.785156 43.199218-42.28125 44.265624-.003906 0-.003906 0-.007812 0-.671875.03125-1.347657.054688-2.027344.054688-7.894531 0-15.648437-2.113281-22.433594-6.105469-2.648437-1.558593-5.980469-1.34375-8.410156.546875-8.6875 6.757813-19.097656 10.332032-30.105469 10.332032-8.042968 0-15.722656-1.894532-22.816406-5.628907-2.328125-1.222656-5.125-1.140625-7.378906.222657-7.933594 4.808593-17.0625 7.347656-26.394532 7.347656-9.328124 0-18.457031-2.539063-26.394531-7.347656-2.246093-1.363282-5.046875-1.449219-7.375-.222657-7.097656 3.734375-14.773437 5.628907-22.820312 5.628907-11.007813 0-21.417969-3.574219-30.105469-10.332032-2.425781-1.890625-5.757812-2.105468-8.410156-.546875-6.78125 3.992188-14.539063 6.105469-22.429688 6.105469-.679687 0-1.355468-.023438-2.027344-.054688-.003906 0-.003906 0-.007812 0-23.496094-1.066406-42.285156-20.511718-42.285156-44.265624 0-24.4375 19.882812-44.316407 44.320312-44.316407 7.894532 0 15.648438 2.109375 22.429688 6.101563 2.652344 1.558594 5.984375 1.34375 8.410156-.546875 8.6875-6.757813 19.097656-10.328125 30.105469-10.328125 8.046875 0 15.722656 1.894531 22.820312 5.625 2.324219 1.226562 5.125 1.140625 7.378907-.222656 1.761718-1.066407 3.609374-2.039063 5.492187-2.882813 3.773437-1.699219 5.460937-6.140625 3.761719-9.914063-1.699219-3.78125-6.140625-5.460937-9.914063-3.765624-1.175781.527343-2.339843 1.09375-3.488281 1.695312-8.164062-3.628906-17.085938-5.535156-26.050781-5.535156-12.714844 0-24.824219 3.652344-35.300781 10.605468-7.976563-3.828124-16.746094-5.832031-25.648438-5.832031-32.707031 0-59.3125 26.609375-59.3125 59.316407 0 29.464843 21.59375 53.96875 49.78125 58.542968v74.074219c0 6.015625-2.34375 11.671875-6.597656 15.925781l-36.839844 36.839844c-24 24-37.21875 55.910156-37.21875 89.851562 0 33.945313 13.21875 65.855469 37.21875 89.855469 3.269531 3.265625 6.738281 6.382813 10.316406 9.257813 1.386719 1.117187 3.046875 1.65625 4.695313 1.65625 2.191406 0 4.367187-.957032 5.847656-2.796875 2.597656-3.230469 2.082031-7.949219-1.144531-10.546875-3.15625-2.539063-6.222656-5.289063-9.109375-8.175782-21.167969-21.167968-32.824219-49.3125-32.824219-79.25 0-8.652343.980469-17.15625 2.878906-25.386718 34.125-2.585938 69.859375 11.414062 96.511719 38.070312 26.652344 26.652344 40.652344 62.378906 38.070313 96.507813-21.976563 5.113281-45.453126 3.589843-67.34375-5.234375-3.84375-1.546875-8.210938.3125-9.757813 4.152344-1.550781 3.84375.3125 8.210937 4.152344 9.761718 15.445312 6.222656 31.585937 9.25 47.582031 9.25 33.0625 0 65.496094-12.933594 89.832031-37.265625l76.664063-76.660156c26.574218-26.578125 41.210937-61.910156 41.210937-99.492187v-44.683594c0-.023438 0-.050782 0-.078125v-85.632813c28.1875-4.574218 49.78125-29.078125 49.78125-58.539062.003907-31.003906-23.90625-56.507813-54.25-59.089844zm-14.082031-7.945312-1.132812 8.597656c-5.363282.929687-10.582032 2.589844-15.496094 4.949218-5.316406-3.527343-11.054688-6.203124-17.078125-7.984374l-.734375-5.5625c-.9375-7.113282.625-14.386719 4.40625-20.484376 2.769531-4.46875 7.558594-7.132812 12.8125-7.132812 5.257812 0 10.046875 2.664062 12.816406 7.132812 3.78125 6.09375 5.347656 13.371094 4.40625 20.484376zm3.550781 255.964843c0 33.578125-13.074219 65.144531-36.816406 88.886719l-8.238281 8.242188c-14.601563-28.089844-16.019532-58.675782-3.660156-85.1875 9.59375-20.566407 26.683593-36.589844 48.714843-45.910157zm0-50.074219c-28.273437 10.28125-50.277343 29.886719-62.304687 55.675782-14.765625 31.664062-12.371094 69.59375 6.199218 102.574218l-57.375 57.371094c-11.222656 11.226563-24.40625 19.683594-38.59375 25.214844.984376-36.625-14.507812-74.167969-42.726562-102.386719-28.226562-28.226562-65.785156-43.722656-102.425781-42.726562 5.558593-14.300781 14.078125-27.421875 25.253906-38.59375l36.839844-36.839844c7.085937-7.085937 10.988281-16.507813 10.988281-26.53125v-73.574219c7.003906-.648437 13.84375-2.515625 20.179688-5.558594 10.480468 6.953126 22.585937 10.605469 35.304687 10.605469 8.960937 0 17.886719-1.902343 26.050781-5.535156 9.390625 4.90625 19.863282 7.480469 30.539063 7.480469s21.148437-2.574219 30.542969-7.476563c8.160156 3.628907 17.085937 5.53125 26.046874 5.53125 12.71875 0 24.824219-3.652343 35.304688-10.605469 6.335938 3.039063 13.175781 4.910157 20.179688 5.558594v79.816406zm0 0"/></svg>