<svg height="512pt" viewBox="-26 0 512 512.003" width="512pt" xmlns="http://www.w3.org/2000/svg"><path d="m459.492188 191.695312c.21875-4.808593-1.601563-9.515624-5-12.914062-3.398438-3.398438-8.101563-5.222656-12.914063-4.996094-4.734375.21875-10.859375.785156-17.5625 2.121094-2.722656-4.246094-5.902344-8.15625-9.5-11.65625-.007813-.019531-.023437-.121094.039063-.25 10.601562-21.285156 9.960937-46.34375-1.71875-67.027344-2.035157-3.605468-6.613282-4.878906-10.21875-2.839844-3.605469 2.035157-4.878907 6.609376-2.84375 10.214844 9.230468 16.34375 9.734374 36.144532 1.355468 52.964844-2.976562 5.972656-1.808594 13.066406 2.902344 17.65625 1.683594 1.640625 3.242188 3.398438 4.683594 5.25-8.691406 3.261719-17.367188 8.113281-24.574219 15.320312-17.433594 17.433594-21.113281 43.472657-21.757813 57.441407-.21875 4.808593 1.601563 9.515625 5 12.914062 3.210938 3.214844 7.59375 5.015625 12.128907 5.015625.261719 0 .523437-.003906.785156-.015625 5.691406-.261719 13.386719-1.03125 21.6875-3.027343 8.082031 17.789062 6.257813 38.511718-4.335937 54.558593-1.347657-1.675781-2.789063-3.304687-4.347657-4.863281-17.429687-17.429688-43.46875-21.113281-57.4375-21.757812-4.796875-.214844-9.519531 1.601562-12.917969 5-3.394531 3.398437-5.21875 8.105468-4.996093 12.914062.601562 13.019531 3.84375 36.519531 18.394531 53.765625-3.289062 8.46875-8.839844 15.675781-15.875 20.957031.71875-3.394531.917969-6.941406.5-10.519531-3.164062-27.246094-24.402344-48.484375-51.648438-51.648437-15.339843-1.777344-30.070312 7.542968-35.03125 22.164062l-10.453124 30.816406-10.453126-30.816406c-4.957031-14.621094-19.691406-23.941406-35.03125-22.164062-27.246093 3.164062-48.484374 24.402343-51.648437 51.648437-.417969 3.582031-.21875 7.128906.5 10.527344-9.113281-6.839844-15.71875-16.878907-18.144531-28.609375-1.242188-5.992188-5.917969-10.5625-11.785156-11.808594 15.453124-17.34375 18.839843-41.65625 19.453124-54.984375.222657-4.808594-1.597656-9.515625-4.996093-12.914063-3.398438-3.398437-8.109375-5.222656-12.914063-5-13.96875.644532-40.007812 4.324219-57.441406 21.757813-.140625.140625-.273438.289063-.410156.429687-1.144532-10.652343.734375-21.53125 5.582031-31.261718 2.972656-5.972656 1.804687-13.070313-2.90625-17.65625-9.996094-9.738282-15.503906-22.777344-15.503906-36.71875 0-5.292969.789062-10.4375 2.351562-15.371094 16.554688 11.3125 36.941407 14.019531 48.730469 14.5625.261719.011719.523438.019531.785156.019531 4.535156 0 8.917969-1.804687 12.128906-5.015625 3.398438-3.398437 5.222657-8.105468 5-12.917968-.644531-13.96875-4.324218-40.007813-21.757812-57.4375-9.503906-9.507813-21.566406-14.917969-32.835938-17.980469 2.527344-9.585938 7.515626-18.261719 14.636719-25.386719 7.515625-7.511719 16.75-12.640625 26.949219-15.023438 2.988281 5.921876 6.851562 11.628907 11.847656 16.625 8.539063 8.535157 24.445313 18.988282 52.199219 21.398438 2.84375 3.566406 6.277344 6.636719 10.152344 9.066406-2.777344 2.660156-4.542969 6.347656-4.722657 10.421875-.625 14.140625-6.480468 27.441407-16.488281 37.449219-1.503906 1.503906-3.109375 2.933594-4.765625 4.253906-5.257812 4.191406-7.226562 11.171875-4.90625 17.371094.269532.722656.523438 1.460938.761719 2.207031-5.195313 2.785157-10.589844 6.664063-15.980469 11.585938-3.640625-1.730469-7.742187-3.023438-11.925781-3.140625-4.136719-.121094-7.59375 3.144531-7.710937 7.285156-.117188 4.140625 3.148437 7.589844 7.289062 7.707031.363281.011719.746094.054688 1.132812.113281-4.523437 5.699219-8.015624 11.492188-10.128906 16.886719-5.507812 14.054688-.613281 21.871094 2.792969 25.273438 2.183594 2.1875 6.101563 4.898437 12.089844 4.898437.480469 0 .976562-.023437 1.484375-.058594 10.101562 8.054688 24.097656 13.105469 36.941406 13.105469 2.765625 0 5.476562-.242187 8.085938-.730469.730468 3.246094 1.179687 6.546876 1.328124 9.871094.308594 7.035156 5.3125 12.929688 12.164063 14.339844 8.167969 1.675781 15.800781 5.503906 22.078125 11.066406 4.46875 3.957032 10.867188 4.925782 16.304688 2.476563 6.210937-2.804688 12.832031-4.226563 19.6875-4.226563 6.855468 0 13.480468 1.421875 19.6875 4.226563 1.996093.898437 4.117187 1.339843 6.230468 1.339843 3.640625 0 7.246094-1.3125 10.070313-3.816406 6.28125-5.5625 13.914062-9.390625 22.082031-11.066406 6.851562-1.410156 11.855469-7.308594 12.164062-14.339844.625-14.136718 6.480469-27.4375 16.492188-37.445312 1.5-1.5 3.105469-2.933594 4.761719-4.257813 5.257812-4.1875 7.230469-11.171875 4.90625-17.367187-.828125-2.214844-1.496094-4.472656-2.007813-6.761719 3.003906 1.074219 6.132813 1.671875 9.351563 1.671875 20.621093 0 37.757812-24.101562 40.257812-46.300781 5.171875-4.476563 6.171875-9.679688 6.171875-13.015625 0-12.929688-13.660156-22.222656-34.988281-24.644532.230469-.304687.460937-.601562.710937-.863281 2.84375-3.011719 2.710938-7.757812-.300781-10.601562s-7.757812-2.710938-10.601562.300781c-2.875 3.039062-4.859375 6.855469-6.214844 10.652344-10.738281.488281-19.898437 2.582031-26.859375 5.933594-.9375-3.710938-1.507812-7.511719-1.679688-11.378907-.179687-4.074219-1.945312-7.761719-4.722656-10.421875 3.878906-2.429687 7.308594-5.5 10.15625-9.066406 27.75-2.414062 43.660156-12.863281 52.195313-21.398438 5-5 8.863281-10.703124 11.851562-16.628906 4.886719 1.144532 9.578125 2.929688 14.003907 5.335938 1.136718.621094 2.367187.914062 3.578124.914062 2.660157 0 5.234376-1.414062 6.59375-3.914062 1.980469-3.640625.636719-8.191406-3-10.171875-4.972656-2.707031-10.214843-4.785157-15.652343-6.238281 3.023437-10.1875 4.070312-19.90625 4.382812-26.738282.222657-4.808594-1.601562-9.515625-5-12.914062-3.394531-3.398438-8.09375-5.210938-12.914062-5-6.765625.3125-16.367188 1.34375-26.449219 4.300781-10.808594-8.007813-23.949219-12.386719-37.464844-12.386719-8.980468 0-17.664062 1.859375-25.816406 5.53125-.125.054688-.242188-.023437-.300781-.074218-11.511719-10.171876-26.3125-15.773438-41.675781-15.773438-15.363282 0-30.164063 5.601562-41.675782 15.773438-.058594.050781-.175781.128906-.300781.074218-8.152344-3.671875-16.835937-5.53125-25.816406-5.53125-13.515625 0-26.660157 4.378906-37.464844 12.386719-10.082031-2.957031-19.683594-3.988281-26.453125-4.300781-4.804688-.214844-9.515625 1.601562-12.914062 5-3.398438 3.398437-5.21875 8.105468-5 12.914062.316406 6.828125 1.363281 16.546875 4.378906 26.730469-12.082032 3.210937-23.027344 9.507813-32.023438 18.503906-9.246094 9.25-15.640625 20.574219-18.761718 33.082031-3.671876-.472656-7.027344-.734374-9.871094-.867187-4.8125-.21875-9.515625 1.601563-12.914063 5-3.398437 3.394531-5.222656 8.105469-4.9999998 12.914063.6015628 13.050781 3.8593748 36.632812 18.4960938 53.890624-3.527344 8.222657-5.378906 17.148438-5.378906 26.117188 0 18.019531 7.117187 34.875 20.019531 47.433594.007812.019531.023438.121094-.039062.25-8.441407 16.953125-9.773438 36.644531-3.796876 54.5625-7.269531 14.628906-9.246093 30.527344-9.703124 40.398437-.21875 4.8125 1.601562 9.519531 5 12.914063 3.210937 3.214844 7.59375 5.019531 12.128906 5.019531.257812 0 .523437-.007813.785156-.019531 10.570312-.488282 28.050781-2.71875 43.484375-11.328125 4.285156.988281 8.660156 1.585937 13.050781 1.773437.121094.007813.273438.058594.300782.191406 5.421874 26.199219 26.695312 45.980469 53.125 49.570313.453124.179687.914062.34375 1.375.503906l39.417968 13.367188c.550782 1.285156 1.234375 2.503906 2.039063 3.632812-4.523438 6.65625-11.636719 15.582031-21 22.503907-3.332031 2.464843-4.035157 7.160156-1.574219 10.492187 1.472656 1.988281 3.738281 3.042969 6.039062 3.042969 1.546876 0 3.109376-.480469 4.453126-1.46875 10.902343-8.0625 19.101562-18.109375 24.710937-26.449219 3.21875.921875 6.472656 1.621094 9.742187 2.109375-8.976562 33.339844-18.195312 48.386719-23.109374 54.542969-1.59375 1.996093-4.304688 2.777343-6.738282 1.941406-11.777344-4.050781-20.28125-12.441406-24.3125-18.941406-.074218-.117188-.136718-.242188-.179687-.367188-1.425781-3.890625-5.734375-5.886719-9.625-4.457031-3.886719 1.425781-5.882813 5.734375-4.457031 9.621094.394531 1.082031.90625 2.128906 1.515624 3.113281 6.980469 11.261719 19.011719 20.6875 32.179688 25.214844 2.246094.773437 4.558594 1.148437 6.847656 1.148437 6.296875 0 12.425782-2.824218 16.492188-7.914062 8.21875-10.296875 15.890625-26.820313 22.527344-48.375 6.636718 21.554687 14.304687 38.078125 22.523437 48.375 4.066406 5.09375 10.195313 7.914062 16.496094 7.914062 2.289062 0 4.601562-.375 6.84375-1.144531 13.167969-4.53125 25.199219-13.957031 32.183593-25.21875 2.722657-4.394531 3.300782-9.730469 1.585938-14.644531-1.722656-4.925782-5.507812-8.753906-10.390625-10.503906-16.839844-6.03125-29.207031-20.957032-35.730469-30.53125.804688-1.132813 1.488282-2.347657 2.039063-3.632813l39.417969-13.371094c.460937-.15625.917968-.320312 1.367187-.496093 20.902344-2.839844 38.699219-15.847657 47.871094-34.367188 16.621093 11.527344 37.222656 14.277344 49.101562 14.828125.265625.011719.523438.015625.785157.015625 4.535156 0 8.917968-1.804688 12.128906-5.015625 3.398437-3.398437 5.222656-8.105469 5-12.914063-.4375-9.511718-2.289063-24.617187-8.925782-38.792968 16.542969-20.46875 20.507813-48.742188 10.175782-73.007813 7.617187-3.214843 15.089844-7.730469 21.425781-14.066406 17.429687-17.433594 21.113281-43.472656 21.757813-57.445313zm-305.113282-101.597656c0-13.921875 11.328125-25.25 25.253906-25.25 6.851563 0 13.320313 2.792969 18.011719 7.5625-8.601562 7.386719-14.0625 18.328125-14.0625 30.527344 0 4.085938.617188 8.03125 1.753907 11.75-1.863282.429688-3.777344.660156-5.703126.660156-13.925781 0-25.253906-11.324218-25.253906-25.25zm-50.101562 160.933594c-1.347656-1.34375-1.128906-4.871094.566406-9.199219 1.808594-4.613281 5.070312-9.75 9.40625-14.875 1.253906.835938 2.707031 1.257813 4.15625 1.257813 1.921875 0 3.839844-.730469 5.304688-2.195313 2.570312-2.574219 2.882812-6.546875.9375-9.460937 5.738281-4.867188 10.878906-7.875 14.957031-9.445313.128906-.046875.257812-.089843.378906-.144531 2.339844-.863281 4.316406-1.257812 5.832031-1.257812 1.359375 0 2.351563.3125 2.910156.871093 1.667969 1.671875-.3125 10.550781-17.105468 27.34375-16.792969 16.792969-25.675782 18.773438-27.34375 17.105469zm53.558594 9.113281c-5.953126 5.957031-20.8125 6.074219-33.601563-.425781 5.488281-3.625 11.515625-8.707031 17.992187-15.183594 6.476563-6.480468 11.558594-12.503906 15.1875-17.996094 6.496094 12.792969 6.378907 27.652344.421876 33.605469zm169.734374-50.582031c-8.421874 0-19.011718-10.417969-23.460937-24.058594 6.449219 1.316406 14.300781 1.984375 23.460937 1.984375 9.164063 0 17.019532-.667969 23.464844-1.984375-4.449218 13.640625-15.039062 24.058594-23.464844 24.058594zm-7.351562-54.296875c.679688 3.441406 3.710938 6.039063 7.351562 6.039063 3.644532 0 6.675782-2.597657 7.355469-6.039063 16.035157 1.3125 24.078125 6.757813 24.078125 9.984375 0 2.359375-7.683594 7.238281-31.433594 7.238281-23.746093 0-31.429687-4.878906-31.429687-7.238281 0-3.226562 8.042969-8.671875 24.078125-9.984375zm-18.226562 56.054687c0 .117188-.003907.246094-.003907.363282 0 7.984375 1.410157 15.800781 4.195313 23.234375.015625.042969-.019532.222656-.207032.375-2.097656 1.667969-4.125 3.480469-6.023437 5.378906-12.667969 12.667969-20.078125 29.496094-20.867187 47.390625-.003907.046875-.023438.269531-.203126.308594-10.734374 2.207031-20.765624 7.230468-29.003906 14.53125-.058594.050781-.117187.0625-.183594.03125-8.164062-3.683594-16.863281-5.550782-25.863281-5.550782-8.992187 0-17.695312 1.867188-25.855469 5.550782-.066406.03125-.128906.019531-.1875-.03125-8.238281-7.300782-18.269531-12.324219-29.003906-14.53125-.175781-.039063-.199218-.246094-.203125-.308594-.226562-5.183594-1.027343-10.3125-2.371093-15.324219.773437-.621093 1.523437-1.277343 2.230468-1.988281 14.585938-14.582031 9.65625-43.742188-4.273437-61.207031.492187-6.824219-2.476563-11.207031-4.835938-13.566407-4.308593-4.308593-10.1875-5.898437-16.960937-4.984374-.277344-.855469-.574219-1.703126-.886719-2.539063-.015625-.046875.019531-.226563.207031-.375 2.097656-1.667969 4.125-3.480469 6.023438-5.378906 12.667968-12.667969 20.078125-29.496094 20.867187-47.390625.003907-.0625.027344-.269532.203125-.308594 4.953125-1.019531 9.769532-2.644531 14.339844-4.824219 3.207031-.277343 6.371094-.9375 9.414062-1.964843 7.386719 9.125 18.667969 14.972656 31.292969 14.972656 12.628907 0 23.910157-5.847656 31.296875-14.972656 3.042969 1.027343 6.207032 1.6875 9.417969 1.964843 4.566406 2.179688 9.382813 3.804688 14.335937 4.824219.175782.039062.199219.246094.203126.308594.324218 7.359375 1.773437 14.539062 4.289062 21.40625-1.453125 2.613281-2.234375 5.46875-2.234375 8.53125 0 3.335937 1 8.535156 6.171875 13.015625 1.328125 11.78125 6.773438 24.089843 14.679688 33.058593zm-103.410157-108.382812c0-13.925781 11.328125-25.253906 25.25-25.253906 13.925781 0 25.253907 11.328125 25.253907 25.253906 0 13.921875-11.328126 25.25-25.253907 25.25-13.921875 0-25.25-11.328125-25.25-25.25zm69.457031 12.410156c-1.929687 0-3.84375-.230468-5.707031-.660156 1.136719-3.71875 1.753907-7.664062 1.753907-11.75 0-12.199219-5.460938-23.140625-14.058594-30.527344 4.691406-4.769531 11.15625-7.5625 18.011718-7.5625 13.921876 0 25.25 11.328125 25.25 25.25 0 13.925782-11.328124 25.25-25.25 25.25zm61.796876-77.171875c.0625-.023437.125-.046875.1875-.066406 9.777343-3.339844 19.582031-4.414063 26.210937-4.71875.796875-.042969 1.316406.316406 1.617187.621094.304688.300781.65625.828125.621094 1.617187-.542968 11.800782-3.523437 33.667969-17.378906 47.523438-9.480469 9.480468-22.78125 13.847656-33.804688 15.839844.648438-2.863282 1-5.835938 1-8.890626 0-1.449218-.078124-2.878906-.230468-4.285156 1.265625.855469 2.734375 1.289063 4.203125 1.289063 1.917969 0 3.835937-.734375 5.300781-2.199219l25.289062-25.285156c2.925782-2.929688 2.925782-7.679688 0-10.609375-2.929687-2.925781-7.679687-2.925781-10.605468 0l-25.289063 25.289062c-.5.5-.910156 1.058594-1.238281 1.648438-1.570312-4.160157-3.804688-8-6.578125-11.375 2.609375-5.402344 5.808594-10.042969 9.574219-13.804688 6.019531-6.023437 13.554687-9.988281 21.121094-12.59375zm-173.792969-12.859375c6.84375 0 13.453125 1.414063 19.65625 4.207032 5.453125 2.457031 11.886719 1.472656 16.390625-2.507813 8.769531-7.75 20.042968-12.015625 31.746094-12.015625 11.699218 0 22.976562 4.265625 31.742187 12.015625 4.507813 3.980469 10.941406 4.964844 16.394531 2.507813 6.203125-2.792969 12.8125-4.207032 19.65625-4.207032 7.050782 0 13.96875 1.5625 20.273438 4.503906-4.90625 2.753907-9.601563 6.144532-13.796875 10.339844-4.160157 4.160156-7.757813 9.0625-10.789063 14.613282-5.726562-3.136719-12.296875-4.925782-19.277344-4.925782-12.253906 0-23.71875 5.613282-31.289062 14.972656-4.058594-1.378906-8.398438-2.136718-12.914062-2.136718-4.519532 0-8.859376.757812-12.914063 2.136718-7.570313-9.359374-19.035156-14.972656-31.289063-14.972656-6.980468 0-13.550781 1.789063-19.277343 4.925782-3.03125-5.550782-6.628907-10.453126-10.789063-14.613282-4.195312-4.195312-8.890625-7.585937-13.796875-10.339844 6.304688-2.941406 13.222657-4.503906 20.273438-4.503906zm-66.226563 8.691406c.304688-.300781.820313-.660156 1.621094-.621093 11.800781.542969 33.667969 3.523437 47.519531 17.378906 3.765625 3.765625 6.96875 8.40625 9.574219 13.804687-2.777344 3.378907-5.007812 7.214844-6.578125 11.375-.328125-.589843-.738281-1.144531-1.238281-1.648437l-25.289063-25.285156c-2.925781-2.929688-7.675781-2.929688-10.605469 0-2.929687 2.929687-2.929687 7.675781 0 10.605469l25.289063 25.289062c1.460937 1.464844 3.382813 2.195312 5.300781 2.195312 1.46875 0 2.9375-.429687 4.199219-1.289062-.148437 1.410156-.230469 2.835938-.230469 4.285156 0 3.054688.355469 6.03125 1.003906 8.890625-11.027343-1.992187-24.324218-6.355469-33.804687-15.839843-13.859375-13.855469-16.835937-35.722657-17.378906-47.519532-.039063-.789062.316406-1.316406.617187-1.621094zm-74.8125 96.984376c-.035156-.789063.316406-1.316407.621094-1.621094.289062-.289063.78125-.621094 1.507812-.621094h.109376c11.800781.542969 33.667968 3.523438 47.523437 17.378906 13.855469 13.855469 16.835937 35.722656 17.378906 47.523438.035157.789062-.316406 1.316406-.621093 1.617187-.304688.304688-.835938.660157-1.617188.621094-11.683594-.535156-33.21875-3.46875-47.09375-16.964844-.011719-.011719-.023438-.019531-.03125-.03125-.132812-.128906-.269531-.25-.398438-.382812-13.855468-13.855469-16.835937-35.722657-17.378906-47.519531zm69.359375 208.886718c-13.855469 13.859375-35.722656 16.835938-47.523437 17.378906-.789063.039063-1.3125-.316406-1.617188-.617187-.304687-.304687-.65625-.832031-.621094-1.621094.417969-9.070312 2.28125-24.085937 9.410157-36.84375.011719-.015625.019531-.035156.03125-.050781 2.140625-3.820312 4.746093-7.4375 7.9375-10.625 13.855469-13.859375 35.722656-16.835938 47.523437-17.378906.789063-.042969 1.316406.316406 1.617188.621094.304687.300781.65625.828124.621094 1.617187-.542969 11.800781-3.523438 33.664063-17.378907 47.519531zm114.792969 48.242188-4.78125-4.78125c-2.929688-2.929688-7.679688-2.929688-10.605469 0-2.929687 2.929687-2.929687 7.679687 0 10.605468l4.574219 4.574219c-1.0625 2.429688-1.648438 5.09375-1.648438 7.867188v3.558593l-33.011718-11.195312c-7.96875-2.707031-13.050782-10.734375-12.082032-19.097656 2.355469-20.300782 18.179688-36.121094 38.480469-38.480469 8.351563-.96875 16.390625 4.113281 19.097657 12.085937l10.84375 31.976563c-3.289063.613281-6.558594 1.433594-9.789063 2.488281-.367187.121094-.722656.261719-1.078125.398438zm25.734375 37.882812c-.703125.011719-1.40625.011719-2.109375 0-.363281-.03125-.722656-.042968-1.082031-.019531-5.660157-.203125-11.304688-1.199219-16.808594-2.996094-1.910156-.625-3.195313-2.394531-3.195313-4.40625v-12.191406c0-2.011719 1.285157-3.78125 3.195313-4.40625 4.972656-1.625 10.0625-2.585937 15.171875-2.910156.335938.003906.675781-.011719 1.015625-.058594.917969-.042969 1.835937-.070313 2.753906-.070313.921875 0 1.839844.027344 2.757813.070313.339844.042969.675781.0625 1.011718.058594 5.113282.320312 10.203126 1.28125 15.175782 2.90625 1.910156.625 3.195312 2.398437 3.195312 4.410156v12.191406c0 2.011719-1.285156 3.78125-3.195312 4.40625-5.507813 1.796875-11.152344 2.792969-16.8125 2.992188-.355469-.019531-.714844-.007813-1.074219.023437zm63.128906 48.605469c.816407.292969 1.15625.960937 1.285157 1.328125.125.363281.269531 1.078125-.171876 1.792969-4.03125 6.5-12.53125 14.886719-24.3125 18.941406-2.433593.835937-5.140624.054687-6.738281-1.945313-10.507812-13.160156-18.421875-37.234374-23.105469-54.539062 3.269532-.492188 6.523438-1.191406 9.742188-2.113281 8.210938 12.195312 22.703125 29.160156 43.300781 36.535156zm5.964844-75.859375-33.007813 11.195312v-3.554687c0-2.777344-.589843-5.441406-1.648437-7.871094l4.574219-4.574219c2.929687-2.925781 2.929687-7.675781 0-10.605468-2.929688-2.929688-7.679688-2.929688-10.605469 0l-4.785156 4.785156c-.355469-.140625-.710938-.28125-1.078125-.402344-3.226563-1.054687-6.496094-1.875-9.789063-2.488281l10.847657-31.976563c2.703124-7.972656 10.730468-13.0625 19.097656-12.085937 20.296875 2.359375 36.121094 18.179687 38.476562 38.480469.972656 8.363281-4.109375 16.394531-12.082031 19.097656zm105.46875-21.4375c-.304687.304688-.832031.667969-1.617187.621094-11.800782-.542969-33.667969-3.523438-47.523438-17.378906-.046875-.046876-.089844-.09375-.132812-.140626-.011719-.011718-.023438-.023437-.035157-.035156-13.710937-13.863281-16.671875-35.597656-17.210937-47.347656-.039063-.789062.316406-1.316406.621094-1.617188.289062-.289062.777343-.625 1.503906-.625.039062 0 .074218 0 .113281.003907 11.800781.542969 33.667969 3.523437 47.519531 17.378906 3.171875 3.167969 5.765625 6.757813 7.898438 10.550781.019531.039063.042968.074219.0625.113282 7.140625 12.757812 9.003906 27.785156 9.421875 36.859374.035156.785157-.316407 1.3125-.621094 1.617188zm5.160156-125.726562c-.019531.007812-.039062.011718-.058593.019531-9.351563 3.011719-18.605469 4.011719-24.949219 4.304687-.800781.042969-1.316407-.320312-1.621094-.621094-.300781-.304687-.65625-.832031-.617187-1.617187.542968-11.800781 3.523437-33.667969 17.378906-47.523437 7.675781-7.679688 17.808594-12.011719 27.328125-14.445313.003906-.003906.007812-.003906.007812-.003906 7.660157-1.957031 14.925781-2.6875 20.183594-2.929688.785156-.042969 1.316406.316407 1.621094.621094.300781.300781.65625.828125.621093 1.617187-.546874 11.800782-3.527343 33.667969-17.378906 47.523438-6.394531 6.390625-14.488281 10.464844-22.515625 13.054688zm-329.101562 54.15625-25.285157 25.289062c-2.929687 2.925781-2.929687 7.675781 0 10.605469 1.464844 1.464843 3.382813 2.195312 5.300782 2.195312 1.921875 0 3.839844-.730469 5.304687-2.195312l25.285157-25.289063c2.929687-2.929687 2.929687-7.675781 0-10.605468-2.925782-2.925782-7.675782-2.925782-10.605469 0zm-14.292969-123.277344c1.917969 0 3.835938-.734375 5.300781-2.199219 2.929688-2.925781 2.929688-7.675781 0-10.605469l-25.285156-25.285156c-2.929687-2.929688-7.679687-2.929688-10.605469 0-2.929687 2.925781-2.929687 7.675781 0 10.605469l25.285156 25.285156c1.464844 1.464844 3.382813 2.199219 5.304688 2.199219zm357.058594 21.925781-25.289063 25.289063c-2.929687 2.929687-2.929687 7.679687 0 10.605468 1.464844 1.464844 3.386719 2.199219 5.304688 2.199219s3.839843-.734375 5.300781-2.199219l25.289062-25.285156c2.929688-2.929688 2.929688-7.679688 0-10.609375-2.929687-2.925781-7.675781-2.925781-10.605468 0zm-59.113282 122.023437c-2.929687-2.929687-7.679687-2.929687-10.609374 0-2.925782 2.929688-2.925782 7.679688 0 10.605469l25.289062 25.289063c1.464844 1.464844 3.382812 2.195312 5.300781 2.195312 1.921875 0 3.839844-.730468 5.304688-2.195312 2.929687-2.929688 2.929687-7.679688 0-10.605469zm0 0"/></svg>