<svg height="511pt" viewBox="0 -54 511.99928 511" width="511pt" xmlns="http://www.w3.org/2000/svg"><path d="m201.011719 262.921875c-4.144531 0-7.5 3.359375-7.5 7.5v9.128906c0 4.144531 3.355469 7.5 7.5 7.5 4.140625 0 7.5-3.355469 7.5-7.5v-9.128906c0-4.140625-3.359375-7.5-7.5-7.5zm109.976562 24.128906c4.140625 0 7.5-3.359375 7.5-7.5v-9.128906c0-4.140625-3.359375-7.5-7.5-7.5-4.144531 0-7.5 3.359375-7.5 7.5v9.128906c0 4.140625 3.355469 7.5 7.5 7.5zm-63.832031-12.023437c-2.722656-3.121094-7.460938-3.449219-10.582031-.726563-3.121094 2.722657-3.449219 7.460938-.726563 10.582031 5.082032 5.832032 12.429688 9.179688 20.152344 9.179688s15.070312-3.347656 20.152344-9.179688c2.722656-3.121093 2.394531-7.859374-.726563-10.582031-3.125-2.722656-7.863281-2.394531-10.582031.726563-2.234375 2.5625-5.457031 4.03125-8.84375 4.03125s-6.609375-1.46875-8.84375-4.03125zm261.488281-153.164063c-12.074219-21.6875-16.910156-46.265625-13.984375-71.070312.882813-7.496094-1.648437-14.839844-6.949218-20.136719-5.304688-5.304688-12.644532-7.835938-20.140626-6.949219-24.804687 2.925781-49.378906-1.910156-71.070312-13.984375-7.578125-4.21875-16.753906-4.476562-24.539062-.6875-7.777344 3.78125-13.011719 10.832032-14.363282 19.339844-4.1875 26.386719-16.417968 50.351562-35.367187 69.300781-15.308594 15.304688-34.277344 26.390625-55.019531 32.207031-2.496094-1.316406-5.230469-2.242187-8.140626-2.703124-26.386718-4.1875-50.351562-16.417969-69.300781-35.367188-18.949219-18.953125-31.179687-42.914062-35.367187-69.300781-1.351563-8.511719-6.585938-15.558594-14.363282-19.34375-7.789062-3.785157-16.960937-3.53125-24.539062.6875-21.6875 12.074219-46.261719 16.910156-71.070312 13.984375-8.765626-1.03125-17.417969 2.726562-22.59375 9.816406-2.441407 3.34375-1.710938 8.035156 1.636718 10.480469 3.347656 2.441406 8.039063 1.707031 10.480469-1.636719 2.015625-2.761719 5.277344-4.167969 8.71875-3.761719 27.957031 3.296875 55.664063-2.160156 80.125-15.777343 3.351563-1.863282 7.242187-1.972657 10.683594-.300782 3.308593 1.609375 5.535156 4.597656 6.105469 8.203125 4.6875 29.53125 18.371093 56.351563 39.578124 77.554688 21.203126 21.203125 48.019532 34.890625 77.554688 39.578125 1.78125.28125 3.414062.972656 4.800781 1.996094.03125.019531.058594.042968.089844.0625 1.378906 1.039062 2.515625 2.410156 3.3125 4.046874 1.671875 3.441407 1.5625 7.332032-.300781 10.683594-2.832032 5.085938-5.347656 10.441406-7.515625 15.972656-.367188-.003906-.734375-.011718-1.105469-.011718-8.121094 0-16.042969.855468-23.6875 2.46875-18.832031-19.648438-44.894531-30.839844-72.214844-30.839844-1.1875 0-2.367187.027344-3.546875.070312l-53.480469-53.480468c-2.925781-2.929688-7.675781-2.929688-10.605468 0-2.929688 2.929687-2.929688 7.679687 0 10.605468l45.316406 45.316407c-16.769531 3.839843-31.941406 11.90625-44.335938 23.011719-19.714843-16.777344-43.445312-27.746094-69.082031-31.8125-3.605469-.570313-6.59375-2.796876-8.203125-6.109376-1.671875-3.4375-1.5625-7.332031.300782-10.679687 9.480468-17.027344 15.15625-36.355469 16.417968-55.898437.265625-4.132813-2.867187-7.699219-7.003906-7.964844-4.140625-.273438-7.699219 2.867187-7.964844 7-1.121094 17.332031-6.152344 34.472656-14.554687 49.566406-4.21875 7.574219-4.472657 16.75-.683594 24.539062 3.78125 7.777344 10.832031 13.011719 19.339844 14.363282 22.597656 3.585937 43.535156 13.171875 61.011719 27.828125-14.3125 17.304687-22.921876 39.488281-22.921876 63.644531 0 54.066406 43.132813 98.242188 96.792969 99.941406 19.804688 34.210938 56.8125 57.28125 99.105469 57.28125 42.296875 0 79.304688-23.070312 99.109375-57.285156 20.058594-.628906 39.164063-7.132812 55.4375-18.929688 3.351563-2.433593 4.097656-7.121093 1.667969-10.476562-2.433594-3.355469-7.121094-4.101562-10.476563-1.667969-11.644531 8.441407-25 13.691407-39.113281 15.457031 5.03125-12.878906 7.800781-26.882812 7.800781-41.523437 0-48.910156-30.847656-90.746094-74.109375-107.085937 15.351563-13.273438 35.050782-20.710938 55.585938-20.710938 46.867187 0 85 38.128906 85 85 0 16.128906-4.535156 31.824219-13.117188 45.382812-2.214844 3.5-1.171875 8.132813 2.328125 10.347657 1.246094.789062 2.632813 1.164062 4.003907 1.164062 2.484374 0 4.917968-1.234375 6.34375-3.492187 10.101562-15.960938 15.441406-34.429688 15.441406-53.402344 0-22.527344-7.488282-43.332031-20.105469-60.070312 16.898437-13.355469 36.867187-22.15625 58.191406-25.539063 8.507813-1.351563 15.558594-6.585937 19.34375-14.363281 3.785157-7.785156 3.53125-16.960938-.6875-24.539063zm-433.546875 124.511719c0-46.871094 38.132813-85 85-85 20.535156 0 40.234375 7.4375 55.585938 20.710938-43.261719 16.339843-74.109375 58.175781-74.109375 107.085937 0 14.628906 2.765625 28.625 7.792969 41.5-41.816407-5.296875-74.269532-41.066406-74.269532-84.296875zm280.328125 42.796875c0 54.820313-44.605469 99.421875-99.425781 99.421875s-99.425781-44.601562-99.425781-99.421875c0-54.824219 44.605469-99.425781 99.425781-99.425781s99.425781 44.601562 99.425781 99.425781zm140.414063-149.328125c-1.609375 3.308594-4.601563 5.535156-8.203125 6.109375-24.128907 3.828125-46.707031 13.847656-65.75 29.070313-11.851563-11.625-26.574219-20.335938-42.996094-24.945313l40.644531-40.640625c2.925782-2.929688 2.925782-7.679688 0-10.605469-2.929687-2.929687-7.679687-2.929687-10.609375 0l-47.960937 47.960938c-2.988282-.269531-6.007813-.417969-9.066406-.417969-27.320313 0-53.382813 11.191406-72.210938 30.84375-2.257812-.476562-4.539062-.886719-6.84375-1.230469 1.484375-3.402343 3.105469-6.71875 4.878906-9.90625 4.132813-7.417969 4.453125-16.363281.910156-24.046875 20.335938-6.929687 38.90625-18.453125 54.203126-33.75 21.207031-21.203125 34.890624-48.023437 39.578124-77.554687.570313-3.605469 2.796876-6.59375 6.105469-8.203125 3.4375-1.671875 7.335938-1.5625 10.683594.304687 24.460937 13.617188 52.167969 19.070313 80.125 15.773438 2.90625-.34375 5.742187.625 7.773437 2.65625 2.035157 2.035156 3.003907 4.867187 2.660157 7.773437-3.296875 27.960938 2.15625 55.664063 15.777343 80.125 1.863282 3.351563 1.972657 7.246094.300782 10.683594zm0 0"/></svg>