<svg height="511pt" viewBox="1 -6 511.999 511" width="511pt" xmlns="http://www.w3.org/2000/svg"><path d="m148.363281 280.101562v16.902344c0 4.140625 3.359375 7.5 7.5 7.5 4.144531 0 7.5-3.359375 7.5-7.5v-16.902344c0-4.144531-3.355469-7.5-7.5-7.5-4.140625 0-7.5 3.355469-7.5 7.5zm345.039063-20.734374h-20.910156c-2.179688-10.121094-5.789063-20.542969-11.59375-29.992188 5.191406-6.695312 8.253906-15.09375 8.253906-24.183594v-9.429687c0-11.152344-4.75-21.832031-13.039063-29.300781-8.285156-7.464844-19.398437-11.085938-30.496093-9.925782-6.125.636719-12.257813 1.238282-18.390626 1.804688l-109.292968-137.59375c-10.21875-12.867188-25.503906-20.246094-41.933594-20.246094s-31.714844 7.378906-41.933594 20.246094l-14.152344 17.816406c-2.574218 3.242188-2.035156 7.960938 1.207032 10.535156 3.246094 2.578125 7.960937 2.039063 10.539062-1.207031l14.152344-17.816406c7.355469-9.261719 18.359375-14.574219 30.1875-14.574219s22.832031 5.3125 30.1875 14.574219l21.09375 26.554687c-41.386719 22.398438-90.953125 39.742188-142.121094 49.800782l24.558594-30.914063c2.574219-3.242187 2.035156-7.960937-1.207031-10.539063-3.246094-2.574218-7.960938-2.035156-10.539063 1.207032l-73.199218 92.15625c-6.132813-.566406-12.265626-1.167969-18.390626-1.804688-11.09375-1.160156-22.210937 2.460938-30.496093 9.925782-8.289063 7.46875-13.039063 18.148437-13.039063 29.300781v9.429687c0 9.089844 3.0625 17.488282 8.253906 24.183594-5.808593 9.449219-9.414062 19.871094-11.597656 29.992188h-20.90625c-10.253906 0-18.597656 8.34375-18.597656 18.597656v43.488281c0 42.457031 30.886719 78.152344 72.433594 84.515625 9.085937 13.785156 20.15625 26.636719 33.09375 38.253906 40.234375 36.121094 93.671875 56.011719 150.472656 56.011719 53 0 103.804688-17.636719 143.054688-49.664063 3.207031-2.617187 3.6875-7.34375 1.066406-10.550781-2.617188-3.210937-7.34375-3.691406-10.550782-1.070312-36.582031 29.847656-84.015624 46.285156-133.570312 46.285156-108.519531 0-196.929688-78.359375-198.183594-175.109375.300782.011719.601563.046875.90625.046875.097656 0 .191406-.003906.289063-.003906 17.558593-.21875 50.152343-3.738281 71.214843-24.796875 8.925782-8.925782 15.542969-20.683594 19.714844-35 35.292969 2.183594 70.675782 3.285156 106.058594 3.285156s70.765625-1.101562 106.058594-3.285156c4.171875 14.316406 10.789062 26.070312 19.714844 35 21.0625 21.058594 53.65625 24.578125 71.214843 24.796875.097657 0 .191407.003906.289063.003906.308594 0 .609375-.035156.910156-.046875-.378906 29.957031-8.957031 58.664062-25.074219 84.324219-.261719.34375-.496093.703125-.699219 1.085937-4.441406 6.957032-9.429687 13.6875-14.972656 20.152344-2.695312 3.144531-2.328125 7.882812.816406 10.574219 1.414063 1.214843 3.148438 1.808593 4.875 1.808593 2.113282 0 4.21875-.890624 5.699219-2.621093 5.375-6.273438 10.277344-12.773438 14.703125-19.480469 41.5625-6.347656 72.464844-42.046875 72.464844-84.515625v-43.492187c0-10.25-8.34375-18.59375-18.597656-18.59375zm-104.089844-99.464844c-36.160156 2.957031-72.445312 4.707031-108.753906 5.25 29.394531-11.753906 56.480468-25.789063 79.957031-41.5zm-238.28125-35.679688c59.539062-9.800781 118.003906-29.449218 165.71875-55.671875l34.410156 43.320313c-32.621094 21.667968-72.480468 40.023437-115.875 53.339844-37.59375-.472657-75.164062-2.246094-112.597656-5.308594zm-89.058594 263.734375c-27.636718-9.722656-46.972656-35.996093-46.972656-66.503906v-43.488281c0-1.984375 1.613281-3.597656 3.597656-3.597656h18.585938c-.464844 4.703124-.675782 9.167968-.726563 13.246093-.074219 5.996094 2.199219 11.632813 6.398438 15.898438-.042969 1.570312-.066407 3.082031-.066407 4.535156 0 28.046875 6.625 55.160156 19.183594 79.910156zm57.644532-113.191406c-17.304688 17.304687-45.515626 20.210937-60.792969 20.40625-1.964844.054687-3.839844-.730469-5.238281-2.132813-1.398438-1.398437-2.15625-3.257812-2.132813-5.238281.144531-11.441406 1.882813-31.773437 11.160156-48.394531 4.652344 2.667969 9.921875 4.425781 15.582031 5.015625 18.742188 1.957031 37.53125 3.597656 56.347657 4.933594-3.453125 10.410156-8.449219 18.9375-14.925781 25.410156zm-39.867188-45.261719c-5.382812-.5625-10.1875-2.832031-13.917969-6.226562-.101562-.101563-.207031-.195313-.316406-.289063-4.742187-4.472656-7.667969-10.804687-7.667969-17.796875v-9.429687c0-7.011719 2.871094-13.460938 8.082032-18.15625 4.550781-4.105469 10.253906-6.289063 16.273437-6.289063.867187 0 1.746094.042969 2.625.136719 50.191406 5.238281 100.695313 8.15625 151.238281 8.765625.089844.003906.179688.023438.273438.023438.078125 0 .15625-.015626.230468-.019532 63.664063.75 127.378907-2.171875 190.601563-8.769531 6.976563-.730469 13.6875 1.457031 18.902344 6.152344 5.207031 4.695312 8.078125 11.144531 8.078125 18.15625v9.429687c0 6.988282-2.925782 13.324219-7.667969 17.792969-.109375.09375-.214844.191406-.316406.292969-3.734375 3.394531-8.539063 5.664062-13.921875 6.222656-116.945313 12.210938-235.542969 12.210938-352.496094.003906zm373.425781 65.667969c-15.277343-.195313-43.488281-3.101563-60.792969-20.40625-6.476562-6.472656-11.472656-15-14.925781-25.410156 18.816407-1.335938 37.605469-2.976563 56.347657-4.933594 5.660156-.589844 10.929687-2.347656 15.582031-5.015625 9.277343 16.621094 11.015625 36.953125 11.160156 48.394531.023437 1.980469-.734375 3.839844-2.132813 5.238281-1.398437 1.398438-3.222656 2.164063-5.238281 2.132813zm43.824219 26.28125c0 30.507813-19.335938 56.78125-46.972656 66.503906 12.632812-24.828125 19.183594-51.871093 19.183594-79.90625 0-1.464843-.023438-2.972656-.066407-4.539062 4.199219-4.265625 6.472657-9.902344 6.398438-15.898438-.050781-4.074219-.265625-8.542969-.726563-13.242187h18.585938c1.984375 0 3.597656 1.613281 3.597656 3.59375zm-140.863281-48.851563c-4.144531 0-7.5 3.355469-7.5 7.5v16.902344c0 4.140625 3.355469 7.5 7.5 7.5s7.5-3.359375 7.5-7.5v-16.902344c0-4.144531-3.359375-7.5-7.5-7.5zm-120.878907 53.929688c-8.429687 0-15.285156 6.855469-15.285156 15.285156v20.742188c0 19.867187 16.160156 36.03125 36.027344 36.03125s36.027344-16.164063 36.027344-36.03125v-20.742188c0-8.429687-6.855469-15.285156-15.285156-15.285156zm41.769532 15.285156v20.742188c0 11.59375-9.433594 21.027344-21.027344 21.027344-11.597656 0-21.027344-9.433594-21.027344-21.027344v-20.742188c0-.160156.128906-.289062.285156-.289062h41.484376c.15625.003906.285156.132812.285156.289062zm0 0"/></svg>