<svg height="512pt" viewBox="-72 0 512 512.002" width="512pt" xmlns="http://www.w3.org/2000/svg"><path d="m366.878906 486.632812-4.183594-10.230468c-6.84375-16.722656-22.941406-27.527344-41.011718-27.527344h-6.082032c-.578124 0-1.082031-.371094-1.226562-.902344-2.316406-8.476562-7.929688-15.535156-15.398438-20.152344v-140.402343c17.90625-.417969 32.347657-15.105469 32.347657-33.109375v-50.363282c0-33.191406-27.003907-60.191406-60.195313-60.191406h-5.988281c-.28125-3.101562-.722656-6.175781-1.351563-9.191406-.253906-1.214844.429688-2.441406 1.554688-2.789062 20.46875-6.332032 34.097656-25.734376 33.140625-47.175782-.210937-4.804687-1.164063-9.527344-2.828125-14.042968-1.433594-3.886719-5.738281-5.878907-9.632812-4.445313-3.886719 1.433594-5.875 5.746094-4.441407 9.632813 1.128907 3.0625 1.773438 6.265624 1.921875 9.519531.648438 14.632812-8.640625 27.867187-22.589844 32.179687-8.582031 2.65625-13.660156 11.335938-11.808593 20.191406.421875 2.011719.734375 4.054688.964843 6.121094h-131.902343c3.546875-31.832031 29.585937-56.828125 61.90625-58.761718 6.863281-.414063 13.6875.226562 20.277343 1.886718 8.816407 2.222656 17.753907-2.492187 20.789063-10.96875 4.835937-13.511718 17.726563-22.050781 32.113281-21.25 3.023438.167969 6.003906.773438 8.855469 1.792969 3.898437 1.394531 8.191406-.640625 9.585937-4.539063 1.394532-3.898437-.636718-8.191406-4.539062-9.585937-4.207031-1.503906-8.605469-2.394531-13.066406-2.644531-21.09375-1.171875-39.980469 11.351562-47.074219 31.167968-.417969 1.171876-1.707031 1.808594-2.996094 1.480469-8.082031-2.035156-16.4375-2.816406-24.84375-2.3125-40.191406 2.40625-72.453125 33.902344-76.070312 73.734375h-5.980469c-33.191406 0-60.195312 27-60.195312 60.191406v73.957032c0 20.246094 13.722656 37.339844 32.351562 42.496094v128.476562h-22.707031c-18.070313 0-34.167969 10.808594-41.011719 27.53125l-4.1875 10.226562c-2.324219 5.683594-1.671875 12.125 1.753906 17.222657 3.421875 5.101562 9.132813 8.144531 15.273438 8.144531h37.160156c4.144531 0 7.5-3.355469 7.5-7.5 0-4.140625-3.355469-7.5-7.5-7.5h-37.15625c-1.578125 0-2.445312-.941406-2.824219-1.503906-.375-.5625-.921875-1.722656-.324219-3.183594l4.1875-10.226562c4.527344-11.0625 15.175782-18.210938 27.128907-18.210938h165.515625c7.015625 0 13.191406-4.386719 15.375-10.914062 1.808594-5.410157 7.699218-9.1875 14.320312-9.1875 3.148438 0 6.164063.835937 8.722656 2.417968 3.125 1.929688 7.183594 1.3125 9.597657-1.453125 4.300781-4.9375 10.839843-7.769531 17.941406-7.769531 3.511719 0 6.847656.703125 9.835937 1.957031.355469.195313.734376.355469 1.125.492188 5.359376 2.578125 9.402344 7.027343 10.898438 12.503906 1.917969 7.039063 8.375 11.953125 15.699219 11.953125h6.078125c11.953125 0 22.601562 7.148438 27.128906 18.210938l4.1875 10.230468c.597656 1.457032.054688 2.617188-.324219 3.179688-.378906.5625-1.246093 1.507812-2.824219 1.507812h-257.875c-4.144531 0-7.5 3.355469-7.5 7.5 0 4.140625 3.355469 7.5 7.5 7.5h257.875c6.140626 0 11.855469-3.046875 15.277344-8.148437 3.421875-5.101563 4.078125-11.539063 1.75-17.222657zm-82.902344-64.230468c-1.9375-.285156-3.917968-.4375-5.929687-.4375-9.375 0-18.226563 3.164062-25.050781 8.820312-3.539063-1.324218-7.332032-2.011718-11.210938-2.011718-13.1875 0-24.660156 7.808593-28.546875 19.429687-.128906.382813-.621093.671875-1.152343.671875h-127.804688v-127.003906c22.804688-1.671875 40.851562-20.746094 40.851562-43.96875v-31.625c0-13.164063 10.710938-23.871094 23.871094-23.871094 2.816406 0 5.109375 2.292969 5.109375 5.109375v15.253906c0 15.410157 12.539063 27.945313 27.949219 27.945313 8.851562 0 16.753906-4.144532 21.875-10.589844h17.085938v18.847656h-25.269532c-4.140625 0-7.5 3.359375-7.5 7.5 0 4.144532 3.359375 7.5 7.5 7.5h65.539063c4.140625 0 7.5-3.355468 7.5-7.5 0-4.140625-3.359375-7.5-7.5-7.5h-25.269531v-18.847656h11.675781c4.144531 0 7.5-3.355469 7.5-7.5 0-4.140625-3.355469-7.5-7.5-7.5h-37.800781c.066406-.777344.109374-1.5625.109374-2.355469v-8.671875c0-6.445312 5.246094-11.691406 11.691407-11.691406h19.496093c13.160157 0 23.871094 10.707031 23.871094 23.871094v8.03125c0 13.179687 7.738282 24.585937 18.910156 29.917968zm-3.910156-168.09375v-8.03125c0-21.433594-17.4375-38.871094-38.871094-38.871094h-19.496093c-14.71875 0-26.691407 11.972656-26.691407 26.691406v8.671875c0 7.136719-5.808593 12.945313-12.945312 12.945313-7.140625 0-12.945312-5.808594-12.945312-12.945313v-15.253906c0-11.089844-9.023438-20.109375-20.113282-20.109375-21.433594 0-38.867187 17.4375-38.867187 38.871094v31.625c0 16.042968-13.054688 29.101562-29.101563 29.101562s-29.101562-13.058594-29.101562-29.101562v-73.957032c0-24.921874 20.273437-45.195312 45.195312-45.195312h174c24.921875 0 45.195313 20.273438 45.195313 45.195312v50.363282c0 9.996094-8.132813 18.128906-18.128907 18.128906-9.996093 0-18.128906-8.132812-18.128906-18.128906zm-97.386718-192.5c17.039062 0 30.902343-13.863282 30.902343-30.90625 0-17.039063-13.863281-30.902344-30.902343-30.902344-17.039063 0-30.902344 13.863281-30.902344 30.902344 0 17.042968 13.863281 30.90625 30.902344 30.90625zm0-46.808594c8.769531 0 15.902343 7.132812 15.902343 15.902344 0 8.769531-7.132812 15.90625-15.902343 15.90625-8.769532 0-15.902344-7.136719-15.902344-15.90625 0-8.769532 7.132812-15.902344 15.902344-15.902344zm1.449218 328.921875c6.777344 0 13.222656-2.933594 17.683594-8.050781 2.722656-3.125 2.394531-7.859375-.726562-10.582032-3.125-2.722656-7.863282-2.398437-10.582032.726563-1.609375 1.847656-3.933594 2.90625-6.375 2.90625s-4.765625-1.058594-6.375-2.90625c-2.722656-3.125-7.457031-3.449219-10.582031-.726563-3.121094 2.71875-3.449219 7.457032-.726563 10.582032 4.457032 5.117187 10.90625 8.050781 17.683594 8.050781zm-45.628906-5.816406c4.144531 0 7.5-3.355469 7.5-7.5v-7.574219c0-4.140625-3.355469-7.5-7.5-7.5s-7.5 3.359375-7.5 7.5v7.574219c0 4.144531 3.359375 7.5 7.5 7.5zm91.257812-22.574219c-4.144531 0-7.5 3.359375-7.5 7.5v7.574219c0 4.144531 3.355469 7.5 7.5 7.5 4.140626 0 7.5-3.355469 7.5-7.5v-7.574219c0-4.140625-3.359374-7.5-7.5-7.5zm-26.328124 97.652344h-58.039063v-18.847656h25.269531c4.144532 0 7.5-3.359376 7.5-7.5 0-4.144532-3.355468-7.5-7.5-7.5h-65.535156c-4.144531 0-7.5 3.355468-7.5 7.5 0 4.140624 3.355469 7.5 7.5 7.5h25.265625v18.847656h-11.675781c-4.144532 0-7.5 3.355468-7.5 7.5 0 4.140625 3.355468 7.5 7.5 7.5h84.714844c4.140624 0 7.5-3.359375 7.5-7.5 0-4.144532-3.359376-7.5-7.5-7.5zm0 0"/></svg>