<svg height="512pt" viewBox="-61 0 512 512" width="512pt" xmlns="http://www.w3.org/2000/svg"><path d="m246.246094 121.429688c4.144531 0 7.5-3.355469 7.5-7.5v-8.386719c0-4.140625-3.355469-7.5-7.5-7.5-4.140625 0-7.5 3.359375-7.5 7.5v8.386719c0 4.144531 3.359375 7.5 7.5 7.5zm-93.566406-7.5v-8.386719c0-4.140625-3.359376-7.5-7.5-7.5-4.140626 0-7.5 3.359375-7.5 7.5v8.386719c0 4.144531 3.359374 7.5 7.5 7.5 4.140624 0 7.5-3.355469 7.5-7.5zm234.5 255.632812-25-48.742188c2.464843-1.6875 4.769531-3.695312 6.839843-6.054687 9.738281-11.101563 11.601563-26.15625 4.863281-39.296875l-36.542968-71.253906c3.367187-1.894532 6.425781-4.507813 8.988281-7.796875 8.289063-10.632813 8.496094-24.53125.527344-35.40625l-98.414063-134.285157c-12.449218-16.984374-31.667968-26.726562-52.726562-26.726562-21.0625 0-40.277344 9.742188-52.726563 26.726562l-68.902343 94.015626c-2.449219 3.339843-1.726563 8.03125 1.617187 10.480468 3.339844 2.449219 8.03125 1.726563 10.480469-1.613281l68.902344-94.015625c9.589843-13.085938 24.398437-20.59375 40.628906-20.59375 16.226562 0 31.035156 7.507812 40.625 20.59375l98.417968 134.285156c4.730469 6.457032 2.96875 13.179688-.257812 17.320313-1.964844 2.515625-4.988281 4.730469-8.722656 5.410156-.167969.023437-.339844.050781-.507813.085937-2.277343.320313-4.800781.074219-7.5-1.023437l-8.109375-3.292969c-1.90625-.773437-3.886718-1.425781-5.90625-1.960937-5.3125-6.339844-12.691406-10.898438-21.089844-12.621094v-12.003906c0-4.140625-3.359374-7.5-7.5-7.5-4.140624 0-7.5 3.359375-7.5 7.5v12.003906c-14.296874 2.929687-25.628906 14.070313-28.859374 28.257813l-13.660157 5.550781c-11.382812 4.625-23.691406 6.480469-35.917969 5.457031-2.816406-14.804688-14.402343-26.539062-29.132812-29.558594v-12.003906c0-4.140625-3.359375-7.5-7.5-7.5-4.144531 0-7.5 3.359375-7.5 7.5v12.003906c-6.46875 1.324219-12.320312 4.335938-17.101562 8.539063l-9.019532-3.664063c-11.996094-4.878906-25.207031-4.878906-37.203125 0l-8.109375 3.292969c-2.699218 1.097656-5.222656 1.34375-7.496094 1.023437-.175781-.035156-.347656-.066406-.523437-.089843-3.726563-.679688-6.75-2.894531-8.710937-5.40625-3.226563-4.140625-4.988282-10.863281-.257813-17.320313l8.894531-12.140625c2.449219-3.339843 1.726563-8.03125-1.613281-10.480469-3.34375-2.449218-8.035156-1.726562-10.484375 1.617188l-8.894531 12.136719c-7.972657 10.875-7.765625 24.773437.527343 35.410156 2.5625 3.289063 5.621094 5.898437 8.988282 7.792969l-36.546875 71.253906c-6.738281 13.140625-4.871094 28.199219 4.867187 39.296875 2.070313 2.359375 4.367188 4.382813 6.832032 6.066406l-24.996094 48.730469c-7.148438 13.941406-5.171875 29.917969 5.164062 41.695312 7.332032 8.355469 17.308594 12.816407 27.753906 12.816407 4.273438 0 8.632813-.75 12.914063-2.28125l32.453125-11.613281c3.242188-1.160157 6.574219-1.976563 9.957031-2.46875.882813 18.222656 14.902344 33.042968 32.765625 35.195312v37.890625c0 10.878906 7.003906 20.285156 17.425782 23.410156 17.347656 5.195313 35.1875 7.792969 53.035156 7.792969 17.84375 0 35.691406-2.597656 53.035156-7.792969 5.285156-1.585937 9.929688-4.953125 13.074219-9.488281 2.359375-3.402344 1.511719-8.078125-1.890625-10.4375-3.40625-2.359375-8.078125-1.511719-10.4375 1.890625-1.214844 1.753906-3.007813 3.054687-5.046875 3.664063-31.882813 9.550781-65.585938 9.550781-97.464844 0-4.023437-1.203126-6.730469-4.835938-6.730469-9.039063v-39.128906c7.078125-2.082031 13.285156-6.210938 17.9375-11.699219l2.421875 1.199219c10.988281 5.4375 23.046875 8.15625 35.101563 8.15625 12.058594 0 24.113281-2.71875 35.101562-8.15625l20.359375-10.070313v34.652344c0 4.140625 3.355469 7.5 7.5 7.5 4.140625 0 7.5-3.359375 7.5-7.5v-42.074219l2.335938-1.15625c4.554687-2.253906 9.367187-3.804687 14.359375-4.640625 6.40625 11.332032 18.5625 19.003906 32.484375 19.003906 7.941406 0 15.304687-2.5 21.359375-6.75l4.632812 1.660157c4.285156 1.53125 8.640625 2.28125 12.917969 2.28125 10.445313 0 20.421875-4.460938 27.753906-12.816407 10.332031-11.777343 12.3125-27.753906 5.160157-41.695312zm-112.015626-181.527344c12.292969 0 22.296876 10.003906 22.296876 22.300782 0 12.296874-10.003907 22.296874-22.296876 22.296874-12.296874 0-22.300781-10-22.300781-22.296874 0-12.296876 10.003907-22.300782 22.300781-22.300782zm-122.570312 9.707032c12.292969 0 22.296875 10.003906 22.296875 22.300781s-10.003906 22.300781-22.296875 22.300781c-12.296875 0-22.300781-10.003906-22.300781-22.300781s10.003906-22.300781 22.300781-22.300781zm-121.707031 84.574218 38.222656-74.523437c3.386719-.136719 6.824219-.855469 10.195313-2.226563l8.109374-3.292968c8.355469-3.394532 17.558594-3.394532 25.910157 0l5.390625 2.191406c-2.191406 4.742187-3.421875 10.019531-3.421875 15.578125 0 20.566406 16.730469 37.296875 37.296875 37.296875 17.804687 0 32.726562-12.542969 36.417968-29.253906 2.246094.164062 4.496094.253906 6.746094.253906 11.976563 0 23.878906-2.308594 35.035156-6.839844l7.933594-3.226562c3.652344 16.765624 18.597656 29.363281 36.441406 29.363281 20.566407 0 37.296876-16.734375 37.296876-37.300781 0-1.613282-.113282-3.195313-.3125-4.757813 3.363281 1.363281 6.796874 2.09375 10.179687 2.234375l38.210937 74.503906c4.621094 9.015625 1.585938 17.5625-2.792968 22.558594-4.382813 4.992188-12.464844 9.109375-22.003906 5.699219l-30.117188-10.777344c-15.878906-5.683594-33.652344-4.648437-48.765625 2.824219l-19.238281 9.519531c-2.609375-1.222656-5.378906-2.160156-8.269532-2.75v-12.003906c0-4.140625-3.359374-7.5-7.5-7.5-4.140624 0-7.5 3.359375-7.5 7.5v12.003906c-9.980468 2.042969-18.511718 8.09375-23.859374 16.382813-7.277344-.648438-14.441407-2.628907-20.945313-5.847657l-34.980469-17.300781c-3.515625-1.742188-7.207031-3.136719-11.015625-4.1875-3.242187-14.167969-14.566406-25.292969-28.851562-28.21875v-12.003906c0-4.140625-3.355469-7.5-7.5-7.5-4.140625 0-7.496094 3.359375-7.496094 7.5v12.003906c-16.984375 3.480469-29.800781 18.542969-29.800781 36.539062 0 1.695313.125 3.359376.34375 4.996094-7.132813.570313-13.042969-2.867187-16.566406-6.878906-4.378907-4.996094-7.414063-13.542969-2.792969-22.558594zm213.265625 63.613282c0 12.296874-10.003906 22.296874-22.300782 22.296874-12.296874 0-22.296874-10-22.296874-22.296874 0-12.296876 10-22.300782 22.296874-22.300782 12.296876 0 22.300782 10.003906 22.300782 22.300782zm-134.652344-39.171876c0 12.296876-10.003906 22.300782-22.300781 22.300782-12.292969 0-22.296875-10.003906-22.296875-22.300782 0-12.296874 10.003906-22.296874 22.296875-22.296874 12.296875 0 22.300781 10 22.300781 22.296874zm20.238281 121.429688c-12.292969 0-22.296875-10.003906-22.296875-22.300781 0-1.582031.167969-3.121094.480469-4.609375.003906-.011719.007813-.023438.007813-.039063 2.144531-10.070312 11.105468-17.652343 21.808593-17.652343 12.296875 0 22.300781 10.003906 22.300781 22.300781s-10.003906 22.300781-22.300781 22.300781zm185.617188-16.300781c-12.296875 0-22.300781-10.003907-22.300781-22.300781 0-12.292969 10.003906-22.296876 22.300781-22.296876 12.292969 0 22.296875 10 22.296875 22.296876.003906 12.296874-10 22.300781-22.296875 22.300781zm55.390625-10.523438c-4.644532 5.292969-13.046875 9.675781-23.023438 6.71875 3.132813-5.457031 4.929688-11.769531 4.929688-18.496093 0-17.996094-12.8125-33.058594-29.796875-36.539063v-12.003906c0-4.140625-3.359375-7.5-7.5-7.5s-7.5 3.359375-7.5 7.5v12.003906c-16.984375 3.480469-29.796875 18.542969-29.796875 36.539063 0 1.320312.070312 2.625.203125 3.910156-5.679688 1.140625-11.171875 2.992187-16.402344 5.582031l-37.695313 18.644531c-17.8125 8.8125-39.085937 8.8125-56.902343 0l-1.855469-.917968c1.058594-3.457032 1.632812-7.121094 1.632812-10.917969 0-18-12.8125-33.0625-29.796874-36.542969v-12.003906c0-4.140625-3.359376-7.5-7.5-7.5-4.144532 0-7.5 3.359375-7.5 7.5v12.003906c-12.480469 2.558594-22.695313 11.371094-27.246094 23.003906-5.976563.441406-11.847656 1.679688-17.519532 3.707032l-32.453124 11.613281c-10.550782 3.777343-19.492188-.78125-24.339844-6.304688-4.847656-5.523437-8.207032-14.980469-3.089844-24.957031l25.636719-49.984375c1.753906.277344 3.539062.417969 5.335937.417969 2.25 0 4.527344-.226563 6.800782-.671875 6.558593 10.71875 18.375 17.886719 31.835937 17.886719 17.992187 0 33.046875-12.804688 36.535156-29.78125 1.421875.539062 2.824219 1.117187 4.179688 1.789062l34.980469 17.304688c6.910156 3.417968 14.414062 5.734374 22.089843 6.863281-.285156 1.855469-.433593 3.757812-.433593 5.695312 0 20.566407 16.730468 37.300781 37.296874 37.300781 20.566407 0 37.300782-16.734374 37.300782-37.300781 0-8.925781-3.15625-17.121093-8.402344-23.550781l12.761719-6.3125c11.484375-5.679688 24.996093-6.464844 37.058593-2.148438l30.117188 10.777344c5.839844 2.089844 11.8125 2.613282 17.503906 1.714844l25.644532 50c5.113281 9.976562 1.757812 19.433594-3.089844 24.957031zm-175.03125-273.492187c7.273437 0 14.1875-3.148438 18.972656-8.640625 2.722656-3.125 2.398438-7.859375-.722656-10.582031-3.125-2.722657-7.863282-2.394532-10.582032.726562-1.9375 2.222656-4.734374 3.496094-7.671874 3.496094s-5.730469-1.273438-7.667969-3.496094c-2.722657-3.125-7.460938-3.449219-10.582031-.726562-3.121094 2.71875-3.449219 7.457031-.726563 10.582031 4.789063 5.492187 11.707031 8.640625 18.980469 8.640625zm0 0"/></svg>