<svg height="512pt" viewBox="-64 0 512 512" width="512pt" xmlns="http://www.w3.org/2000/svg"><path d="m337.363281 380.1875c-25.382812 0-46.035156 20.652344-46.035156 46.035156 0 2.054688.136719 4.09375.40625 6.109375h-35.90625v-126.945312c11.195313-7.160157 18.636719-19.691407 18.636719-33.9375v-43.164063c0-5.226562-.71875-10.40625-2.140625-15.398437-1.136719-3.984375-5.285157-6.292969-9.269531-5.15625-3.980469 1.132812-6.292969 5.28125-5.15625 9.265625 1.039062 3.652344 1.566406 7.453125 1.566406 11.289062v43.164063c0 13.933593-11.335938 25.269531-25.269532 25.269531-13.9375 0-25.273437-11.335938-25.273437-25.269531 0-14.53125-11.820313-26.351563-26.347656-26.351563h-18.132813c-21.898437 0-39.71875 17.816406-39.71875 39.714844v16.324219c0 13.933593-11.335937 25.269531-25.269531 25.269531s-25.269531-11.335938-25.269531-25.269531v-72.851563c0-22.652344 18.433594-41.085937 41.089844-41.085937h103.101562c7.886719 0 15.546875 2.238281 22.148438 6.472656 3.480468 2.234375 8.125 1.222656 10.363281-2.261719 2.234375-3.488281 1.222656-8.128906-2.265625-10.363281-9.023438-5.789063-19.484375-8.847656-30.246094-8.847656h-28.105469v-8.683594c20.355469-9.078125 34.644531-29.558594 34.644531-53.097656 0-24.441407-13.457031-35.964844-26.476562-47.109375-8.53125-7.300782-17.351562-14.855469-24.457031-26.835938-3-5.066406-8.066407-8.429687-13.894531-9.234375-5.8125-.796875-11.59375 1.066407-15.84375 5.117188-10.230469 9.761719-34.167969 36.601562-35.457032 74.957031-.546875 16.296875 5.667969 32.292969 17.050782 43.886719 5.578124 5.675781 12.070312 10.042969 19.132812 12.976562v8.023438h-29.695312c-30.925782 0-56.085938 25.164062-56.085938 56.089843v72.847657c0 14.246093 7.441406 26.777343 18.632812 33.941406v97.253906h-56.660156c-7.425781 0-14.167968 3.785157-18.039062 10.117188-3.871094 6.335937-4.15625 14.0625-.769532 20.667969l11 21.445312c5.265626 10.261719 13.972657 18.476562 24.523438 23.136719 3.785156 1.675781 8.214844-.039063 9.890625-3.828125 1.671875-3.789063-.042969-8.21875-3.832031-9.890625-7.414063-3.277344-13.535156-9.050781-17.234375-16.261719l-11-21.445312c-1.417969-2.765626-.316407-5.121094.222656-6.003907.539063-.882812 2.132813-2.9375 5.238281-2.9375h291.335938c3.105468 0 4.695312 2.054688 5.234375 2.9375.542969.882813 1.644531 3.238281.226562 6.003907l-1.246093 2.429687c-.003907.003906-.003907.007813-.007813.011719l-9.746094 19.003906c-6.105469 11.890625-18.203125 19.28125-31.570312 19.28125h-199.832031c-4.140626 0-7.5 3.359375-7.5 7.5s3.359374 7.5 7.5 7.5h199.832031c19.019531 0 36.230469-10.515625 44.910156-27.4375l6.898437-13.445312c3.324219.753906 6.722657 1.140624 10.167969 1.140624 25.386719 0 46.035157-20.652343 46.035157-46.035156 0-25.386718-20.648438-46.035156-46.035157-46.035156zm-162.09375-207.988281h-15.300781v-4.117188c2.261719.269531 4.550781.425781 6.863281.425781.296875 0 .601563-.003906.902344-.007812 2.554687-.039062 5.066406-.265625 7.535156-.628906zm-38.726562-31.511719c-8.519531-8.675781-13.171875-20.660156-12.761719-32.875.761719-22.773438 12.285156-46.925781 30.816406-64.601562.984375-.9375 2.070313-1.152344 2.855469-1.152344.222656 0 .421875.015625.585937.039062.75.105469 2.140626.503906 3.039063 2.023438 8.371094 14.113281 18.589844 22.863281 27.605469 30.582031 12.324218 10.554687 21.230468 18.179687 21.230468 35.710937 0 23.398438-19.027343 42.726563-42.410156 43.085938-4.351562.0625-8.617187-.53125-12.6875-1.742188-.074218-.023437-.144531-.046874-.222656-.070312-6.730469-2.042969-12.917969-5.769531-18.050781-11zm104.285156 291.644531h-148.003906v-91.480469c2.160156.359376 4.371093.554688 6.632812.554688 22.203125 0 40.269531-18.066406 40.269531-40.269531v-16.324219c0-13.628906 11.089844-24.714844 24.714844-24.714844h18.132813c6.261719 0 11.351562 5.089844 11.351562 11.351563 0 22.203125 18.066407 40.269531 40.273438 40.269531 2.257812 0 4.472656-.195312 6.632812-.554688v121.167969zm96.535156 24.925781c-1.351562 0-2.691406-.09375-4.019531-.265624.851562-4.953126-.09375-10.089844-2.8125-14.542969-3.871094-6.335938-10.613281-10.117188-18.039062-10.117188h-5.554688c-.398438-2.003906-.609375-4.042969-.609375-6.109375 0-17.113281 13.921875-31.035156 31.035156-31.035156s31.035157 13.921875 31.035157 31.035156c0 17.113282-13.921876 31.035156-31.035157 31.035156zm-112.085937-391.808593c14.378906 0 26.078125-11.695313 26.078125-26.074219 0-12.21875-7.835938-25.019531-14.40625-33.605469-2.808594-3.667969-7.0625-5.769531-11.671875-5.769531s-8.863282 2.101562-11.667969 5.769531c-6.574219 8.585938-14.410156 21.386719-14.410156 33.605469 0 14.378906 11.699219 26.074219 26.078125 26.074219zm0-50.246094c7.046875 9.28125 11.078125 18.078125 11.078125 24.171875 0 6.105469-4.96875 11.074219-11.078125 11.074219s-11.078125-4.96875-11.078125-11.074219c0-6.09375 4.035156-14.890625 11.078125-24.171875zm-42.878906 347.101563c-3.125-2.722657-7.863282-2.398438-10.582032.726562-1.261718 1.445312-3.082031 2.273438-4.988281 2.273438-1.910156 0-3.730469-.828126-4.992187-2.273438-2.722657-3.125-7.460938-3.449219-10.582032-.726562-3.121094 2.71875-3.445312 7.457031-.726562 10.582031 4.109375 4.714843 10.050781 7.421875 16.300781 7.421875 6.246094 0 12.183594-2.707032 16.296875-7.421875 2.71875-3.125 2.394531-7.863281-.726562-10.582031zm-55.941407-8.84375c-4.140625 0-7.5 3.355468-7.5 7.5v6.699218c0 4.144532 3.359375 7.5 7.5 7.5 4.144531 0 7.5-3.355468 7.5-7.5v-6.699218c0-4.144532-3.359375-7.5-7.5-7.5zm67.214844-235.707032c0-12.636718-8.125-25.902344-14.941406-34.808594-2.863281-3.742187-7.203125-5.886718-11.90625-5.886718s-9.042969 2.144531-11.902344 5.886718c-6.816406 8.90625-14.941406 22.175782-14.941406 34.808594 0 14.804688 12.042969 26.847656 26.847656 26.847656 14.800781 0 26.84375-12.042968 26.84375-26.847656zm-38.691406 0c0-6.484375 4.316406-15.84375 11.847656-25.683594 7.527344 9.835938 11.84375 19.199219 11.84375 25.683594 0 6.53125-5.3125 11.847656-11.84375 11.847656-6.535156 0-11.847656-5.316406-11.847656-11.847656zm52.214843 235.707032c-4.144531 0-7.5 3.355468-7.5 7.5v6.699218c0 4.144532 3.355469 7.5 7.5 7.5 4.144532 0 7.5-3.355468 7.5-7.5v-6.699218c0-4.144532-3.359374-7.5-7.5-7.5zm0 0"/></svg>