<svg height="512pt" viewBox="0 -33 512.00075 512" width="512pt" xmlns="http://www.w3.org/2000/svg"><path d="m167.039062 238.675781c-4.144531 0-7.5 3.359375-7.5 7.5v14.128907c0 4.144531 3.355469 7.5 7.5 7.5 4.140626 0 7.5-3.355469 7.5-7.5v-14.128907c0-4.140625-3.359374-7.5-7.5-7.5zm185.425782 21.628907v-14.128907c0-4.140625-3.355469-7.5-7.5-7.5-4.140625 0-7.5 3.359375-7.5 7.5v14.128907c0 4.144531 3.359375 7.5 7.5 7.5 4.144531 0 7.5-3.355469 7.5-7.5zm-120.9375 64.679687c.734375.226563 1.480468.335937 2.210937.335937 3.203125 0 6.171875-2.070312 7.164063-5.292968l2.003906-6.503906c1.222656-3.960938-1-8.15625-4.957031-9.375s-8.15625 1-9.375 4.957031l-2.003907 6.503906c-1.222656 3.957031 1 8.15625 4.957032 9.375zm-13.578125-156.707031c-8.890625 0-17.179688 4.785156-21.636719 12.484375-2.074219 3.585937-.851562 8.171875 2.734375 10.246093 1.183594.6875 2.476563 1.011719 3.75 1.011719 2.589844 0 5.109375-1.34375 6.496094-3.746093 1.785156-3.082032 5.101562-4.996094 8.652343-4.996094 3.554688 0 6.871094 1.914062 8.652344 4.996094 2.074219 3.585937 6.664063 4.808593 10.25 2.734374 3.582032-2.074218 4.808594-6.664062 2.734375-10.246093-4.453125-7.699219-12.742187-12.484375-21.632812-12.484375zm-45.230469 156.035156c-5.660156 7.148438-6.707031 16.683594-2.738281 24.890625 3.230469 6.683594 9.21875 11.300781 16.253906 12.789063 7.535156 18.023437 22.699219 32.101562 41.417969 38.136718 9.273437 2.992188 18.808594 4.488282 28.347656 4.488282s19.078125-1.496094 28.351562-4.488282c14.660157-4.726562 27.128907-14.398437 35.476563-27.023437-.222656 1.777343-.300781 3.585937-.210937 5.382812.777343 15.578125 13.097656 28.050781 28.65625 29.003907.652343.039062 1.304687.0625 1.953124.0625 7.824219 0 15.195313-2.914063 20.9375-8.3125 6.128907-5.761719 9.644532-13.894532 9.644532-22.304688 0-6.597656-2.070313-12.882812-5.984375-18.179688-6.734375-9.105468-11.664063-17.460937-15.070313-25.542968-9.273437-22.007813-22.402344-39.945313-39.023437-53.3125-26.863281-21.609375-53.773438-23.941406-64.097657-23.941406-10.417968 0-19.144531 7.367187-21.246093 17.164062-17.882813 4.515625-33.824219 14.765625-45.34375 29.308594zm107.027344 61.542969c-15.53125 5.007812-31.957032 5.007812-47.488282 0-11.871093-3.828125-21.90625-11.816407-28.382812-22.234375 5.101562.886718 10.105469 2.292968 14.957031 4.253906l19.804688 7.984375c5.597656 2.261719 11.480469 3.390625 17.363281 3.390625s11.769531-1.128906 17.367188-3.390625l19.800781-7.984375c4.855469-1.960938 9.859375-3.367188 14.957031-4.253906-6.472656 10.417968-16.507812 18.40625-28.378906 22.234375zm-23.113282-114.894531c8.734376 0 31.546876 2.007812 54.699219 20.628906 14.660157 11.792968 26.304688 27.757812 34.601563 47.453125 3.871094 9.191406 9.378906 18.558593 16.828125 28.636719 1.992187 2.691406 3.046875 5.894531 3.046875 9.261718 0 4.351563-1.75 8.390625-4.921875 11.375-3.167969 2.980469-7.328125 4.472656-11.691407 4.207032-7.796874-.480469-14.207031-6.96875-14.59375-14.78125-.054687-1.050782 0-2.101563.152344-3.128907 2.257813-15.144531-.121094-29.710937-6.890625-42.121093-25.464843-46.714844-66.621093-48.0625-71.230469-48.0625-3.714843 0-6.734374-3.019532-6.734374-6.734376 0-3.710937 3.019531-6.734374 6.734374-6.734374zm-54.832031 40.789062c9.136719-11.535156 21.65625-19.796875 35.726563-23.695312 3.6875 6.769531 10.867187 11.375 19.105468 11.375 1.710938 0 9.726563.25 19.953126 4.398437-.835938-.039063-1.691407.058594-2.535157.316406-3.957031 1.222657-6.175781 5.417969-4.957031 9.378907l2.003906 6.503906c.992188 3.222656 3.960938 5.292968 7.164063 5.292968.734375 0 1.476562-.109374 2.210937-.335937 3.960938-1.21875 6.179688-5.417969 4.960938-9.375l-2.003906-6.503906c-.351563-1.136719-.953126-2.125-1.71875-2.9375 10.800781 5.492187 23.140624 15.441406 32.984374 33.5 1.371094 2.515625 2.496094 5.160156 3.394532 7.90625-10.5.316406-20.761719 2.445312-30.535156 6.386719l-19.800782 7.988281c-7.578125 3.058593-15.925781 3.058593-23.507812 0l-19.800782-7.988281c-10.617187-4.28125-21.804687-6.453126-33.25-6.453126-3.363281 0-6.246093-1.808593-7.710937-4.835937s-1.09375-6.410156.996094-9.046875zm70.617188-126.621094c-2.074219 3.585938-.847657 8.175782 2.738281 10.25 3.582031 2.074219 8.171875.851563 10.246094-2.734375 1.785156-3.082031 5.097656-4.996093 8.652344-4.996093 3.554687 0 6.867187 1.914062 8.652343 4.996093 1.390625 2.402344 3.910157 3.746094 6.496094 3.746094 1.277344 0 2.570313-.328125 3.75-1.011719 3.585937-2.074218 4.8125-6.664062 2.734375-10.25-4.453125-7.699218-12.746094-12.480468-21.632812-12.480468-8.890626 0-17.179688 4.78125-21.636719 12.480468zm-13.632813-40.617187c-8.890625 0-17.183594 4.78125-21.636718 12.484375-2.074219 3.582031-.851563 8.171875 2.734374 10.246094 3.585938 2.074218 8.175782.851562 10.25-2.734376 1.78125-3.082031 5.097657-4.996093 8.652344-4.996093 3.550782 0 6.867188 1.914062 8.648438 4.996093 1.390625 2.402344 3.910156 3.746094 6.5 3.746094 1.273437 0 2.566406-.328125 3.75-1.011718 3.585937-2.074219 4.808594-6.664063 2.734375-10.246094-4.457031-7.703125-12.746094-12.484375-21.632813-12.484375zm241.316406-4.664063c-13.046874-16.914062-33.429687-24.949218-54.507812-21.492187-6.457031 1.058593-12.5 3.121093-17.988281 6.046875l4.632812-13.4375c3.210938-9.320313 3.988281-19.367188 2.246094-29.054688-.734375-4.078125-4.632813-6.789062-8.710937-6.054687-4.078126.734375-6.785157 4.632812-6.050782 8.707031 1.289063 7.171875.710938 14.613281-1.667968 21.515625l-22.328126 64.796875c-.109374-.097656-.21875-.199219-.328124-.296875-7.578126-6.582031-15.683594-12.554687-24.226563-17.898437l11.546875-42.964844c1.074219-4-1.296875-8.117188-5.296875-9.191406-4-1.074219-8.113281 1.296874-9.1875 5.296874l-10.523437 39.144532c-9.558594-4.996094-19.582032-9.253906-29.96875-12.746094l6.503906-40.371094s0 0 0-.003906l1.046875-6.523438c2.316406-14.386718 11.660156-26.484374 24.992187-32.367187 13.328125-5.882813 28.566406-4.628906 40.753906 3.359375 1.449219.945312 2.851563 1.992188 4.167969 3.105469 3.164063 2.667969 7.898438 2.265625 10.570313-.898438 2.667968-3.167969 2.269531-7.898437-.898438-10.570312-1.777344-1.5-3.667968-2.90625-5.617187-4.183594-16.457031-10.785156-37.03125-12.480469-55.035157-4.535156-8.917968 3.933593-16.507812 9.933593-22.28125 17.347656-3.113281-10.425781-8.378906-20.222656-15.617187-28.71875-15.082031-17.703125-37.070313-27.859375-60.328125-27.859375s-45.246094 10.15625-60.328125 27.859375c-7.238281 8.5-12.503906 18.292969-15.617187 28.71875-5.773438-7.414063-13.363282-13.414063-22.28125-17.347656-18.003907-7.945313-38.574219-6.25-55.03125 4.535156-22.160157 14.519531-31.609376 42.152344-22.980469 67.199219l4.632812 13.441406c-5.484375-2.929688-11.53125-4.992188-17.984375-6.050781-21.085937-3.460938-41.460937 4.578125-54.511718 21.492187-14.902344 19.320313-15.894532 45.992188-2.46875 66.367188l49.476562 75.074218c-.382812 4.539063-.582031 9.117188-.582031 13.726563 0 41.003906 15.730469 76.449219 45.492187 102.503906 3.113282 2.730469 7.851563 2.414063 10.582032-.703125 2.730468-3.117187 2.414062-7.851562-.703126-10.582031-26.789062-23.453125-40.371093-54.140625-40.371093-91.21875 0-4.988281.261719-9.9375.761719-14.832031 0-.007813 0-.011719 0-.015625 3.820312-37.464844 22.066406-71.929688 52.359374-98.265625 8.183594-7.113282 17.042969-13.457032 26.449219-19.003906.296875-.148438.574219-.316407.84375-.5 12.59375-7.335938 26.164063-13.242188 40.441407-17.613282.453124-.09375.894531-.21875 1.3125-.386718 19.140624-5.71875 39.527343-8.707032 60.507812-8.707032s41.363281 2.988282 60.507812 8.707032c.417969.167968.855469.292968 1.3125.386718 14.277344 4.371094 27.847657 10.277344 40.441407 17.613282.269531.183593.542969.351562.839843.5 9.40625 5.546874 18.265626 11.890624 26.453126 19.003906 30.289062 26.335937 48.535156 60.796875 52.355468 98.265625.003906.003906.003906.007812.003906.015625.496094 4.894531.761719 9.84375.761719 14.832031 0 41.96875-18.152343 76.777344-52.484375 100.667969-32.21875 22.414062-78.453125 34.757812-130.191406 34.757812-44.320312 0-84.113281-8.816406-115.082031-25.5-3.644531-1.960937-8.195313-.601562-10.160157 3.046875-1.964843 3.648438-.601562 8.195313 3.046876 10.160157 33.144531 17.855468 75.398437 27.292968 122.191406 27.292968 55.570312 0 103.550781-12.949218 138.761718-37.445312 38.542969-26.816406 58.914063-65.882813 58.914063-112.980469 0-4.609375-.199219-9.183594-.582031-13.722656l49.476562-75.078125c13.433594-20.378906 12.441406-47.046875-2.464844-66.367188zm-417.511718 70.414063-16.910156-27.59375c-2.164063-3.53125-6.785157-4.640625-10.316407-2.472657-3.53125 2.164063-4.640625 6.78125-2.472656 10.3125l21.371094 34.871094c-5.242188 10.832032-9.238281 22.167969-11.914063 33.871094l-40.390625-61.292969c-9.90625-15.027343-9.171875-34.699219 1.820313-48.949219 9.625-12.476562 24.652344-18.402343 40.203125-15.851562s27.898437 12.972656 33.03125 27.867188c.003906.003906.003906.003906.003906.007812l7.324219 21.257812c-8.328125 8.714844-15.597656 18.082032-21.75 27.972657zm71.699218-65.296875-10.519531-39.144532c-1.074219-4-5.191406-6.371093-9.191406-5.296874-4 1.074218-6.371094 5.191406-5.296875 9.191406l11.550781 42.964844c-8.542969 5.34375-16.648437 11.316406-24.226562 17.898437-.109375.097656-.21875.199219-.328125.296875l-22.328125-64.796875c-6.394531-18.546875.601562-39.015625 17.015625-49.765625 12.1875-7.988281 27.421875-9.246094 40.753906-3.359375 13.332031 5.882813 22.671875 17.980469 24.988281 32.367187l1.050781 6.523438v.003906l6.5 40.375c-10.386718 3.488282-20.40625 7.746094-29.96875 12.742188zm165.144532-55.503906-6.1875 38.445312c-15.96875-4.148438-32.65625-6.539062-49.746094-7.085938v-46.671874c0-4.140626-3.355469-7.5-7.5-7.5-4.140625 0-7.5 3.359374-7.5 7.5v46.671874c-17.085938.546876-33.773438 2.9375-49.742188 7.085938l-6.191406-38.445312c-2.996094-18.613282 2.296875-37.523438 14.523438-51.875 12.226562-14.351563 30.054687-22.585938 48.910156-22.585938 18.859375 0 36.683594 8.230469 48.910156 22.585938 12.230469 14.351562 17.523438 33.261718 14.523438 51.875zm170.613281 108.496093-40.390625 61.289063c-2.679688-11.703125-6.671875-23.035156-11.914062-33.871094l21.371093-34.867188c2.164063-3.535156 1.054688-8.148437-2.476562-10.316406-3.53125-2.164062-8.148438-1.054687-10.3125 2.476563l-16.914063 27.59375c-6.148437-9.890625-13.417968-19.257813-21.75-27.972657l7.324219-21.261718s.003906-.003906.003906-.003906c5.132813-14.898438 17.480469-25.316407 33.03125-27.867188s30.578125 3.375 40.203125 15.851562c10.996094 14.25 11.726563 33.921876 1.824219 48.949219zm0 0"/></svg>