<svg height="512pt" viewBox="0 -41 512 512" width="512pt" xmlns="http://www.w3.org/2000/svg"><path d="m286.332031 102.609375c15.117188 8.4375 39.945313 19.363281 72.375 23.527344.324219.042969.644531.0625.964844.0625 3.714844 0 6.941406-2.761719 7.429687-6.542969.527344-4.109375-2.375-7.867188-6.484374-8.394531-53.871094-6.921875-91.015626-34.539063-98.078126-47.097657-2.027343-3.609374-6.601562-4.890624-10.214843-2.863281-3.609375 2.03125-4.890625 6.605469-2.859375 10.214844 5.398437 9.605469 19.179687 21.230469 36.867187 31.09375zm181.273438 66.035156c2.675781-1.253906 5.003906-3.207031 6.714843-5.730469 2.859376-4.226562 3.648438-9.453124 2.15625-14.347656-10.523437-34.539062-31.269531-66-59.996093-90.972656-42.71875-37.140625-99.710938-57.59375-160.480469-57.59375-59.179688 0-115.078125 19.519531-157.402344 54.964844-3.175781 2.660156-3.59375 7.390625-.9375 10.566406 2.660156 3.175781 7.390625 3.59375 10.566406.933594 39.628907-33.1875 92.109376-51.464844 147.773438-51.464844 57.152344 0 110.648438 19.144531 150.640625 53.914062 26.597656 23.121094 45.785156 52.179688 55.488281 84.023438.222656.738281-.046875 1.296875-.230468 1.566406-.199219.292969-.570313.65625-1.203126.710938-5.753906.488281-11.621093.863281-17.519531 1.128906v-19.511719c0-10.179687-8.285156-18.464843-18.464843-18.464843h-13.4375c-10.183594 0-18.464844 8.285156-18.464844 18.464843v19.015625c-87.464844-5.75-162.660156-36.535156-188.605469-77.648437-1.726563-2.734375-5.007813-4.054688-8.148437-3.277344-3.136719.777344-5.425782 3.480469-5.671876 6.703125-.9375 12.140625-14.332031 34.734375-42.144531 57.859375-29.558593 24.578125-65.511719 41.679687-101.230469 48.160156-1.296874.234375-2.1875-.382812-2.605468-.769531-.421875-.394531-1.105469-1.25-.960938-2.570312.078125-.738282.171875-1.46875.261719-2.203126.011719-.089843.023437-.179687.03125-.269531 4.148437-33.417969 18.105469-65.003906 40.46875-91.496093 2.671875-3.164063 2.273437-7.894532-.890625-10.566407-3.167969-2.675781-7.898438-2.273437-10.570312.890625-23.519532 27.859375-38.464844 60.953125-43.457032 96.050782-18.402344 12.96875-29.285156 33.8125-29.285156 56.460937 0 22.445313 10.761719 42.421875 27.390625 55.050781v86.765625c0 30.214844 24.582031 54.796875 54.800781 54.796875h347.617188c22.367187 0 42.28125-13.375 50.746094-34.074218 1.566406-3.835938-.273438-8.214844-4.105469-9.78125-3.835938-1.570313-8.214844.269531-9.78125 4.105468-6.144531 15.035156-20.613281 24.75-36.855469 24.75h-6.765625c8.816406-9 14.265625-21.304687 14.265625-34.867187v-75.316407c.558594-.8125 1.125-1.621093 1.671875-2.441406 1.320313.078125 2.625.121094 3.90625.121094 9.464844 0 18.496094-1.914062 26.71875-5.375v61.320312c0 4.140626 3.359375 7.5 7.5 7.5s7.5-3.359374 7.5-7.5v-70c16.628906-12.632812 27.390625-32.609374 27.390625-55.054687 0-28.792969-17.945312-54.402344-44.394531-64.527344zm-59.796875-31.808593c0-1.914063 1.554687-3.46875 3.464844-3.46875h13.4375c1.910156 0 3.464843 1.554687 3.464843 3.46875v41.789062c0 1.910156-1.554687 3.464844-3.464843 3.464844h-13.4375c-1.910157 0-3.464844-1.554688-3.464844-3.464844zm-392.808594 96.335937c0-14.8125 5.964844-28.632813 16.328125-38.707031.796875 1.222656 1.746094 2.359375 2.847656 3.386718 2.472657 2.304688 5.449219 3.816407 8.625 4.472657 0 .335937-.015625.691406-.015625 1.023437 0 29.480469 7.316406 57.925782 21.15625 83.683594-27.421875-2.613281-48.941406-25.765625-48.941406-53.859375zm67.191406 181.613281c-21.945312 0-39.800781-17.851562-39.800781-39.796875v-78.082031c8.226563 3.460938 17.253906 5.378906 26.722656 5.378906 1.277344 0 2.582031-.046875 3.902344-.125.546875.820313 1.113281 1.628906 1.675781 2.445313v75.3125c0 13.5625 5.445313 25.867187 14.261719 34.867187zm340.117188-34.867187c0 19.226562-15.640625 34.867187-34.867188 34.867187h-262.882812c-19.226563 0-34.867188-15.640625-34.867188-34.867187v-56.277344c4.921875 5.511719 10.195313 10.816406 15.835938 15.882813 40.234375 36.117187 93.671875 56.011718 150.472656 56.011718s110.238281-19.894531 150.472656-56.011718c5.640625-5.066407 10.914063-10.371094 15.835938-15.882813zm-166.308594.617187c-109.296875 0-198.210938-79.484375-198.210938-177.1875 0-.84375.019532-1.722656.035157-2.59375 35.5-7.917968 70.726562-25.390625 100.003906-49.734375 20.632813-17.15625 35.976563-35.957031 43.132813-52.253906 15.855468 18.050781 40.101562 33.894531 71.105468 46.335937 35.191406 14.121094 76.800782 22.984376 120.742188 25.769532v7.753906c0 10.179688 8.28125 18.464844 18.464844 18.464844h13.4375c10.179687 0 18.464843-8.285156 18.464843-18.464844v-7.261719c2.566407-.113281 5.121094-.25 7.671875-.402343 2.226563 10.605468 3.367188 21.46875 3.367188 32.386718-.003906 97.703125-88.917969 177.1875-198.214844 177.1875zm192.058594-93.503906c13.835937-25.757812 21.152344-54.203125 21.152344-83.683594 0-6.007812-.328126-12.003906-.949219-17.960937 17.363281 9.234375 28.738281 27.5 28.738281 47.785156 0 28.09375-21.519531 51.246094-48.941406 53.859375zm-267.945313-104.410156c-13.5 0-24.480469 10.984375-24.480469 24.480468 0 4.140626 3.359376 7.5 7.5 7.5 4.144532 0 7.5-3.359374 7.5-7.5 0-5.226562 4.253907-9.480468 9.480469-9.480468 5.226563 0 9.480469 4.253906 9.480469 9.480468 0 4.140626 3.355469 7.5 7.5 7.5 4.140625 0 7.5-3.359374 7.5-7.5 0-13.496093-10.984375-24.480468-24.480469-24.480468zm98.824219 57.984375c-3.121094-2.722657-7.859375-2.398438-10.582031.722656-3.121094 3.582031-7.625 5.636719-12.355469 5.636719-4.734375 0-9.238281-2.054688-12.355469-5.632813-2.722656-3.125-7.460937-3.449219-10.582031-.726562-3.125 2.71875-3.449219 7.457031-.726562 10.582031 5.96875 6.847656 14.59375 10.777344 23.664062 10.777344s17.695312-3.929688 23.664062-10.777344c2.722657-3.125 2.394532-7.863281-.726562-10.582031zm52.949219-57.984375c-13.496094 0-24.480469 10.984375-24.480469 24.480468 0 4.140626 3.359375 7.5 7.5 7.5 4.144531 0 7.5-3.359374 7.5-7.5 0-5.226562 4.253906-9.480468 9.480469-9.480468 5.226562 0 9.476562 4.253906 9.476562 9.480468 0 4.140626 3.359375 7.5 7.5 7.5 4.144531 0 7.5-3.359374 7.5-7.5 0-13.496093-10.980469-24.480468-24.476562-24.480468zm0 0"/></svg>