<svg height="512pt" viewBox="0 0 512 512.00113" width="512pt" xmlns="http://www.w3.org/2000/svg"><path d="m217.515625 174.25c-11.929687-11.925781-31.335937-11.929688-43.265625 0-11.925781 11.929688-11.925781 31.335938 0 43.265625 5.964844 5.960937 13.800781 8.945313 21.632812 8.945313 7.835938 0 15.667969-2.984376 21.632813-8.945313 11.929687-11.929687 11.929687-31.335937 0-43.265625zm-10.609375 32.65625c-6.078125 6.078125-15.96875 6.078125-22.046875 0s-6.078125-15.96875 0-22.046875c3.039063-3.039063 7.03125-4.558594 11.023437-4.558594 3.992188 0 7.984376 1.519531 11.023438 4.558594 6.078125 6.078125 6.078125 15.96875 0 22.046875zm290.820312-49.5-11.890624-11.890625c-10.015626-10.015625-23.867188-15.199219-37.988282-14.21875-12.042968.832031-23.253906 6.078125-31.597656 14.601563l-39.914062-16.203126c-15.613282-6.339843-30.441407-14.074218-44.410157-23.105468-.019531-.015625-.035156-.035156-.054687-.050782-.300782-.222656-.613282-.414062-.933594-.589843-15.277344-9.976563-29.519531-21.527344-42.589844-34.597657-28.984375-28.984374-67.515625-44.945312-108.5-44.945312-25.535156 0-50.117187 6.199219-72.03125 17.878906-2.019531-10.65625-7.175781-20.585937-14.960937-28.375-21.214844-21.214844-55.730469-21.214844-76.945313 0-21.210937 21.214844-21.210937 55.730469 0 76.941406 7.800782 7.804688 17.757813 12.972657 28.433594 14.980469-6.570312 12.347657-11.453125 25.578125-14.449219 39.398438-.875 4.050781 1.695313 8.042969 5.746094 8.921875 4.046875.871094 8.042969-1.695313 8.917969-5.746094 3.507812-16.195312 9.867187-31.503906 18.742187-45.3125.003907-.011719.011719-.019531.019531-.03125 5.328126-8.289062 11.566407-16.035156 18.636719-23.105469 7.0625-7.0625 14.757813-13.261719 22.953125-18.558593.285156-.160157.554688-.335938.816406-.527344 21.957032-13.976563 47.460938-21.460938 74.121094-21.460938 23.574219 0 46.246094 5.863282 66.363282 16.882813-27.773438 35.511719-60.179688 72.480469-87.808594 100.109375-27.625 27.628906-64.589844 60.03125-100.101563 87.804687-10.585937-19.351562-16.429687-41.09375-16.863281-63.679687-.082031-4.140625-3.523438-7.421875-7.644531-7.355469-4.144531.078125-7.4375 3.503906-7.355469 7.644531.765625 39.855469 16.714844 77.332032 44.914062 105.53125 13.070313 13.070313 24.621094 27.3125 34.597657 42.589844.175781.320312.367187.632812.589843.933594.015626.015625.03125.03125.046876.050781 9.035156 13.972656 16.769531 28.796875 23.109374 44.414063l16.203126 39.914062c-8.523438 8.339844-13.769532 19.554688-14.601563 31.597656-.976563 14.128906 4.207031 27.976563 14.21875 37.992188l11.890625 11.886718c9.445312 9.445313 22.027344 14.273438 34.667969 14.273438 10.351562 0 20.746093-3.242188 29.472656-9.839844 37.050781-28.019531 72.75-57.851562 106.9375-89.328125 2.804687 5.117188 6.320313 9.816407 10.53125 14.03125 12.113281 12.109375 28.015625 18.164063 43.925781 18.164063 15.902344 0 31.8125-6.058594 43.921875-18.164063 11.730469-11.734375 18.191407-27.332031 18.191407-43.925781 0-16.589844-6.460938-32.1875-18.191407-43.921875-4.210937-4.207031-8.902343-7.722656-14.019531-10.523437 16.230469-17.625 32.019531-35.652344 47.34375-54.0625 2.652344-3.183594 2.21875-7.914063-.964844-10.5625-3.1875-2.652344-7.914062-2.21875-10.566406.964843-69.746094 83.78125-149.203125 159.605469-236.15625 225.359375-13.445312 10.164063-32.570312 8.84375-44.484375-3.074218l-11.890625-11.886719c-6.945312-6.945313-10.539062-16.546875-9.863281-26.347657.671875-9.695312 5.460937-18.621093 13.152343-24.546874.003907-.003907.007813-.003907.011719-.007813.097657-.074219.191407-.152344.300781-.242187 99.882813-75.539063 188.832032-164.488282 264.371094-264.375.070313-.085938.144532-.175782.214844-.265626.003906-.007812.007812-.011718.011719-.019531 5.925781-7.699219 14.855469-12.496093 24.558593-13.164062 9.800782-.675781 19.402344 2.917969 26.34375 9.863281l11.890626 11.886719c11.917968 11.917969 13.238281 31.042969 3.074218 44.488281-6.441406 8.511719-13.050781 17.054688-19.652344 25.390625-2.574218 3.246094-2.027343 7.964844 1.222657 10.535156 3.246093 2.574219 7.964843 2.027344 10.535156-1.222656 6.671875-8.417969 13.355469-17.050781 19.859375-25.65625 14.660156-19.382813 12.753906-46.957031-4.429688-64.140625zm-426.375-86.054688c-6.910156 6.90625-13.085937 14.410157-18.503906 22.386719-9.863281-.390625-19.300781-4.464843-26.328125-11.492187-15.363281-15.363282-15.363281-40.363282 0-55.726563s40.363281-15.363281 55.726563 0c7.019531 7.015625 11.09375 16.4375 11.496094 26.285157-7.949219 5.410156-15.445313 11.597656-22.390626 18.546874zm330.824219 268.589844c5.234375 2.332032 9.960938 5.566406 14.078125 9.683594 8.898438 8.898438 13.800782 20.730469 13.800782 33.3125 0 12.585938-4.902344 24.417969-13.800782 33.316406-18.371094 18.371094-48.261718 18.367188-66.628906 0-4.117188-4.117187-7.351562-8.84375-9.679688-14.074218 21.371094-20.105469 42.125-40.871094 62.230469-62.238282zm-320.21875-62.203125c-5.824219-5.824219-11.058593-12.089843-15.691406-18.714843 36.355469-28.355469 74.382813-61.644532 102.746094-90.007813 28.367187-28.367187 61.664062-66.402344 90.019531-102.761719 6.613281 4.632813 12.875 9.875 18.703125 15.703125 12.03125 12.03125 25 22.839844 38.808594 32.398438-23.347657 30.433593-58.871094 72.988281-94.035157 108.152343-35.164062 35.164063-77.722656 70.6875-108.15625 94.039063-9.554687-13.8125-20.363281-26.78125-32.394531-38.808594zm76.15625 128.710938-14.515625-35.757813c-5.890625-14.507812-12.925781-28.371094-21.023437-41.546875 30.894531-23.648437 74.523437-60.007812 110.542969-96.027343 36.019531-36.023438 72.382812-79.648438 96.03125-110.542969 13.171874 8.097656 27.035156 15.132812 41.542968 21.023437l35.757813 14.515625c-71.578125 93.285157-155.050781 176.757813-248.335938 248.335938zm97.679688-247.140625c7.835937 0 15.671875-2.980469 21.632812-8.945313 5.78125-5.777343 8.960938-13.460937 8.960938-21.632812s-3.179688-15.851563-8.960938-21.628907c-5.777343-5.78125-13.460937-8.960937-21.628906-8.960937-8.171875 0-15.855469 3.179687-21.632813 8.960937-11.925781 11.925782-11.925781 31.335938 0 43.261719 5.960938 5.964844 13.796876 8.945313 21.628907 8.945313zm-11.023438-41.601563c2.945313-2.945312 6.859375-4.566406 11.023438-4.566406 4.167969 0 8.082031 1.621094 11.023437 4.566406 2.945313 2.945313 4.566406 6.859375 4.566406 11.023438 0 4.164062-1.621093 8.078125-4.566406 11.023437-6.078125 6.078125-15.96875 6.078125-22.046875 0s-6.078125-15.96875 0-22.046875zm-137.671875 116.453125c-11.925781 11.929688-11.925781 31.335938 0 43.265625 5.777344 5.777344 13.460938 8.960938 21.632813 8.960938s15.851562-3.183594 21.632812-8.960938c11.925781-11.929687 11.925781-31.335937 0-43.265625-11.929687-11.925781-31.335937-11.925781-43.265625 0zm32.65625 32.65625c-2.945312 2.945313-6.859375 4.566406-11.023437 4.566406-4.164063 0-8.078125-1.621093-11.023438-4.566406-6.078125-6.078125-6.078125-15.96875 0-22.046875 3.039063-3.039062 7.03125-4.558593 11.023438-4.558593 3.992187 0 7.984375 1.519531 11.023437 4.558593 6.078125 6.078125 6.078125 15.96875 0 22.046875zm0 0"/></svg>