<svg height="511pt" viewBox="0 -50 511.998 511" width="511pt" xmlns="http://www.w3.org/2000/svg"><path d="m503.941406 274.519531c-13.410156-10.582031-23.472656-24.3125-29.433594-40.035156v-191.910156c0-11.996094-5.054687-22.828125-13.136718-30.5-.261719-.28125-.535156-.542969-.824219-.773438-7.460937-6.710937-17.316406-10.800781-28.117187-10.800781h-352.863282c-10.796875 0-20.65625 4.089844-28.113281 10.800781-.292969.230469-.5625.492188-.824219.773438-8.082031 7.671875-13.140625 18.503906-13.140625 30.5v12.261719c0 4.140624 3.359375 7.5 7.5 7.5 4.144531 0 7.5-3.359376 7.5-7.5v-12.261719c0-5.515625 1.664063-10.652344 4.507813-14.9375l136.894531 113.011719-101.742187 83.996093c-5.984376-2.738281-11.722657-6.082031-17.144532-10.019531-5.910156-4.289062-13.574218-5.425781-20.503906-3.03125-.6875.238281-1.355469.515625-2.011719.8125v-122.980469c0-4.144531-3.355469-7.5-7.5-7.5-4.140625 0-7.5 3.355469-7.5 7.5v145.058594c-5.960937 15.722656-16.019531 29.453125-29.433593 40.035156-5.117188 4.039063-8.054688 10.074219-8.054688 16.554688 0 6.476562 2.9375 12.511719 8.058594 16.550781 15.519531 12.246094 26.566406 28.707031 31.945312 47.597656 2.042969 7.167969 7.460938 12.898438 14.492188 15.328125 2.398437.828125 4.878906 1.234375 7.347656 1.234375 4.671875 0 9.292969-1.457031 13.160156-4.265625 17.125-12.433593 37.402344-19.007812 58.632813-19.007812 11.304687 0 22.539062 1.9375 33.148437 5.664062-3.210937 2.292969-5.683594 5.523438-7.027344 9.371094-1.9375 5.546875-1.285156 11.566406 1.785157 16.523437 8.378906 13.515626 22.828125 24.832032 38.648437 30.273438 2.574219.886719 5.230469 1.3125 7.859375 1.3125 7.226563 0 14.257813-3.234375 18.921875-9.078125 10.65625-13.347656 20.566406-35.386719 29.027344-64.355469 8.457031 28.96875 18.371094 51.007813 29.023438 64.355469 4.664062 5.84375 11.695312 9.078125 18.925781 9.078125 2.628906 0 5.285156-.425781 7.859375-1.3125 15.820312-5.441406 30.265625-16.757812 38.644531-30.273438 3.074219-4.957031 3.726563-10.976562 1.789063-16.523437-1.34375-3.847656-3.820313-7.078125-7.027344-9.371094 10.605468-3.726562 21.84375-5.664062 33.144531-5.664062 7.941406 0 15.847656.933593 23.488281 2.777343 4.035156.96875 8.082032-1.511718 9.050782-5.535156.96875-4.027344-1.507813-8.078125-5.535157-9.050781-8.792969-2.117187-17.878906-3.191406-27.003906-3.191406-17.601563 0-35.070313 4.089843-50.796875 11.847656-15.101562-9.378906-26.226562-23.503906-32.492188-32.875 1.382813-1.742187 2.503907-3.683594 3.316407-5.773437l27.371093-9.285157c1.152344.722657 2.511719 1.148438 3.972657 1.148438h97.257812c4.144531 0 7.5-3.355469 7.5-7.5 0-4.140625-3.355469-7.5-7.5-7.5h-67.675781c10.183594-8.191407 15.921875-21.285157 14.351562-34.777344-.007812-.09375-.023437-.183594-.035156-.273437 1.582032.066406 3.164063.113281 4.730469.113281 24.421875 0 47.742187-7.5625 67.449219-21.871094 1.980468-1.4375 4.457031-1.796875 6.792968-.992187 2.445313.84375 4.253907 2.761718 4.964844 5.257812 6.25 21.945312 19.070313 41.058594 37.082032 55.269531 2.042968 1.609375 2.347656 3.683594 2.347656 4.773438 0 1.09375-.304688 3.164062-2.347656 4.777343-18.011719 14.210938-30.832032 33.324219-37.082032 55.265626-.710937 2.496093-2.519531 4.414062-4.964844 5.257812-2.335937.808594-4.816406.445312-6.792968-.988281-1.78125-1.292969-3.621094-2.550781-5.464844-3.734375-3.484375-2.238282-8.125-1.226563-10.363281 2.257812-2.238281 3.488282-1.226563 8.125 2.261719 10.363282 1.605468 1.03125 3.203124 2.125 4.753906 3.25 3.867187 2.808593 8.484375 4.265624 13.160156 4.265624 2.464844 0 4.949219-.40625 7.34375-1.234374 7.035156-2.429688 12.453125-8.160157 14.492188-15.328126 5.378906-18.890624 16.429687-35.351562 31.949218-47.597656 5.121094-4.039062 8.054688-10.074218 8.054688-16.554687.003906-6.480469-2.933594-12.515625-8.054688-16.554688zm-435.292968-256.714843c3.34375-1.476563 7.035156-2.304688 10.917968-2.304688h352.867188c3.882812 0 7.574218.828125 10.917968 2.304688l-141.707031 116.988281c-.015625.011719-.03125.027343-.046875.042969l-22.972656 18.960937c-13.109375 10.824219-32.136719 10.824219-45.25 0l-22.976562-18.96875c-.011719-.011719-.027344-.023437-.039063-.035156zm64.988281 315.707031c-24.417969 0-47.742188 7.5625-67.445313 21.871093-1.980468 1.4375-4.457031 1.796876-6.792968.992188-2.445313-.847656-4.257813-2.761719-4.96875-5.257812-6.246094-21.945313-19.070313-41.054688-37.082032-55.265626-2.042968-1.613281-2.347656-3.6875-2.347656-4.777343 0-1.09375.304688-3.167969 2.347656-4.777344 18.011719-14.210937 30.835938-33.324219 37.082032-55.269531.710937-2.496094 2.523437-4.410156 4.96875-5.257813 2.335937-.804687 4.8125-.445312 6.792968.992188 19.703125 14.308593 43.027344 21.871093 67.445313 21.871093 1.566406 0 3.148437-.046874 4.734375-.113281-.011719.09375-.027344.183594-.039063.277344-1.566406 13.492187 4.167969 26.585937 14.351563 34.777344h-67.671875c-4.144531 0-7.5 3.355469-7.5 7.5 0 4.140625 3.355469 7.5 7.5 7.5h97.253906c1.460937 0 2.820313-.425781 3.972656-1.148438l27.375 9.285157c.8125 2.085937 1.929688 4.027343 3.3125 5.773437-6.265625 9.371094-17.390625 23.496094-32.488281 32.875-15.726562-7.757813-33.195312-11.847656-50.800781-11.847656zm74.335937-66.4375 6.46875 6.472656c-1.519531 3.042969-2.367187 6.457031-2.367187 10.035156v6.765625l-42.839844-14.527344c-10.558594-3.582031-17.289063-14.21875-16.003906-25.292968.324219-2.773438.855469-5.476563 1.558593-8.105469.050782-.15625.089844-.3125.128907-.472656 5.972656-21.523438 24.308593-37.574219 47.109375-40.21875 11.070312-1.285157 21.714844 5.441406 25.296875 16l13.96875 41.1875c-4.632813.761719-9.230469 1.875-13.765625 3.355469-.773438.253906-1.519532.5625-2.253906.890624l-6.695313-6.695312c-2.929687-2.929688-7.675781-2.929688-10.605469 0-2.929687 2.929688-2.929687 7.679688 0 10.605469zm7.28125 126.144531c-2.414062 3.023438-6.507812 4.207031-10.183594 2.9375-14.902343-5.125-25.671874-15.753906-30.78125-23.992188-.921874-1.484374-.628906-2.941406-.371093-3.675781.441406-1.265625 1.398437-2.242187 2.621093-2.679687 25.472657-9.125 43.257813-30.457032 53.074219-45.300782 4.902344 1.476563 9.867188 2.539063 14.863281 3.179688-10.65625 40.375-21.660156 60.054688-29.222656 69.53125zm42.117188-83.816406c-.914063.019531-1.832032.019531-2.746094 0-.390625-.035156-.78125-.046875-1.164062-.023438-7.164063-.238281-14.308594-1.488281-21.273438-3.765625-3.058594-1-5.113281-3.832031-5.113281-7.046875v-14.984375c0-3.21875 2.054687-6.050781 5.113281-7.046875 6.265625-2.046875 12.675781-3.257812 19.113281-3.65625.375.003906.753907-.015625 1.136719-.070312 1.1875-.054688 2.375-.09375 3.5625-.09375s2.375.039062 3.5625.09375c.382812.054687.757812.074218 1.136719.070312 6.4375.398438 12.847656 1.605469 19.113281 3.65625 3.058594.996094 5.113281 3.828125 5.113281 7.046875v14.984375c0 3.214844-2.054687 6.050782-5.113281 7.046875-6.960938 2.277344-14.105469 3.527344-21.265625 3.765625-.386719-.023437-.777344-.011718-1.175781.023438zm78.089844 56.40625c1.222656.4375 2.179687 1.414062 2.621093 2.679687.257813.734375.550781 2.191407-.371093 3.675781-5.109376 8.238282-15.878907 18.871094-30.78125 23.996094-3.675782 1.265625-7.769532.082032-10.183594-2.941406-7.5625-9.476562-18.566406-29.15625-29.222656-69.53125 4.996093-.640625 9.960937-1.703125 14.863281-3.179688 9.816406 14.847657 27.601562 36.175782 53.074219 45.300782zm7.304687-89.988282-42.839844 14.527344v-6.769531c0-3.574219-.847656-6.988281-2.367187-10.035156l6.46875-6.46875c2.929687-2.929688 2.929687-7.675781 0-10.605469-2.929688-2.929688-7.679688-2.929688-10.605469 0l-6.695313 6.691406c-.734374-.328125-1.480468-.632812-2.253906-.886718-4.535156-1.480469-9.132812-2.597657-13.765625-3.355469l13.96875-41.1875c3.582031-10.558594 14.21875-17.289063 25.296875-16.003907 22.800782 2.648438 41.136719 18.699219 47.109375 40.21875.039063.160157.078125.320313.128907.476563.703124 2.625 1.234374 5.328125 1.558593 8.101563 1.285157 11.078124-5.445312 21.714843-16.003906 25.296874zm35.597656-42.1875c-2.734375 0-5.507812-.128906-8.292969-.363281-8.816406-24.980469-31.074218-43.273437-58.371093-46.441406-18.058594-2.089844-35.390625 8.875-41.226563 26.085937l-14.472656 42.667969-14.472656-42.667969c-5.835938-17.210937-23.175782-28.175781-41.230469-26.085937-27.292969 3.167969-49.550781 21.460937-58.367187 46.441406-2.785157.234375-5.558594.363281-8.292969.363281-8.535157 0-16.910157-1.078124-24.992188-3.15625l97.027344-80.101562 18.152344 14.988281c9.324219 7.699219 20.746093 11.542969 32.175781 11.542969 11.425781 0 22.851562-3.847656 32.175781-11.542969l18.152344-14.988281 97.027344 80.101562c-8.082031 2.078126-16.457031 3.15625-24.992188 3.15625zm81.148438-21.222656c-.65625-.300781-1.324219-.578125-2.011719-.816406-6.929688-2.394531-14.59375-1.257812-20.503906 3.03125-5.421875 3.9375-11.160156 7.28125-17.144532 10.023438l-101.742187-83.996094 136.890625-113.015625c2.847656 4.285156 4.507812 9.421875 4.507812 14.9375v169.835937zm-145.378907-163.371094c4.140626 0 7.5-3.359374 7.5-7.5v-9.8125c0-4.140624-3.359374-7.5-7.5-7.5-4.144531 0-7.5 3.359376-7.5 7.5v9.8125c0 4.140626 3.355469 7.5 7.5 7.5zm-58.132812 28.128907c14.296875 0 25.929688-12.613281 25.929688-28.121094s-11.632813-28.125-25.929688-28.125-25.929688 12.617187-25.929688 28.125 11.632813 28.121094 25.929688 28.121094zm0-41.246094c6.027344 0 10.929688 5.886719 10.929688 13.125 0 7.234375-4.902344 13.121094-10.929688 13.121094s-10.929688-5.886719-10.929688-13.121094c0-7.238281 4.902344-13.125 10.929688-13.125zm-58.132812-11.695313c-4.140626 0-7.5 3.359376-7.5 7.5v9.8125c0 4.140626 3.359374 7.5 7.5 7.5 4.144531 0 7.5-3.359374 7.5-7.5v-9.8125c0-4.140624-3.355469-7.5-7.5-7.5zm0 0"/></svg>