<svg height="511pt" viewBox="0 -27 511.99973 511" width="511pt" xmlns="http://www.w3.org/2000/svg"><path d="m497.113281 297.386719c5.671875-.898438 10.566407-4.527344 13.085938-9.710938 2.554687-5.25 2.382812-11.433593-.460938-16.539062-6.238281-11.210938-8.738281-23.910157-7.226562-36.734375.605469-5.136719-1.132813-10.164063-4.765625-13.800782-3.636719-3.636718-8.671875-5.375-13.800782-4.765624-12.824218 1.511718-25.527343-.988282-36.734374-7.226563-5.105469-2.84375-11.289063-3.015625-16.539063-.460937-5.183594 2.519531-8.8125 7.410156-9.714844 13.085937-.726562 4.589844-1.933593 9.03125-3.578125 13.289063 5.28125-38.292969 13.121094-76.3125 23.421875-113.390626 3.195313-11.515624 1.566407-23.503906-4.585937-33.746093-6.15625-10.246094-15.972656-17.3125-27.644532-19.898438-6.707031-1.484375-13.523437-2.890625-20.257812-4.179687-4.070312-.78125-8 1.886718-8.777344 5.957031-.777344 4.066406 1.886719 7.996094 5.957032 8.773437 6.59375 1.261719 13.269531 2.640626 19.835937 4.09375 7.609375 1.6875 14.015625 6.296876 18.027344 12.976563 4.015625 6.683594 5.074219 14.5 2.988281 22.007813-12.976562 46.722656-22.125 94.910156-27.21875 143.277343-1.472656 1.277344-2.996094 2.492188-4.570312 3.628907-2.429688-.277344-4.898438-.4375-7.402344-.4375-17.761719 0-33.867188 7.21875-45.539063 18.878906-6.234375-8.402344-10.351562-18.136719-12.003906-28.558594-.898437-5.671875-4.53125-10.566406-9.710937-13.085938-5.25-2.554687-11.4375-2.382812-16.542969.460938-11.207031 6.238281-23.914063 8.738281-36.734375 7.226562-5.136719-.605468-10.164063 1.132813-13.800782 4.765626-3.632812 3.636718-5.371093 8.667968-4.765624 13.800781 1.179687 10.015625-.09375 19.949219-3.675782 29.160156-44.726562-.199219-89.808594-1.898437-134.203125-5.054687-4.117187-58.820313-14.164062-117.253907-29.941406-174.0625-2.085937-7.507813-1.023437-15.328126 2.992187-22.007813 4.011719-6.683594 10.414063-11.289063 18.027344-12.976563 7.203125-1.59375 14.527344-3.085937 21.902344-4.472656.046875-.007812.09375-.019531.144531-.027344 2.90625-.546874 5.820313-1.082031 8.742188-1.589843v39.121093c0 20.296876 16.511719 36.8125 36.8125 36.8125 20.296875 0 36.808593-16.515624 36.808593-36.8125v-48.035156c47.738282-3.238281 95.898438-1.589844 143.265626 4.90625 4.09375.566406 7.886718-2.304687 8.449218-6.410156.5625-4.101562-2.308594-7.886719-6.410156-8.449219-23.585938-3.238281-47.363281-5.28125-71.191406-6.15625-1.054688-28.019531-26.296875-50.519531-57.195313-50.519531-13.96875 0-27.421875 4.648438-37.878906 13.089844-3.457031 2.792968-8.058594 3.789062-12.304687 2.667968-4.246094-1.121093-8.65625-1.6875-13.109376-1.6875-26.117187 0-47.363281 19.480469-47.363281 43.429688 0 2.175781.1875 4.335938.53125 6.464844-4.847656.96875-9.679687 1.964844-14.449219 3.023437-11.667968 2.582031-21.484374 9.648438-27.640624 19.894531-6.15625 10.246094-7.785157 22.230469-4.585938 33.746094 17.773438 63.988282 28.148438 130.078125 30.832031 196.429688l1.484375 36.65625c-18.460937-1.421875-36.898437-3.089844-55.304687-5.023438-10.914063-1.144531-21.832031 2.40625-29.976563 9.746094-8.144531 7.339844-12.816406 17.835938-12.816406 28.796875v19.449219c0 10.558594 4.390625 20.789062 12.039062 28.074218 3 2.855469 7.75 2.738282 10.601563-.261718 2.859375-3 2.742187-7.746094-.257813-10.601563-4.761718-4.53125-7.382812-10.644531-7.382812-17.210937v-19.449219c0-6.816406 2.792969-13.085937 7.855469-17.648437 5.070312-4.5625 11.59375-6.683594 18.378906-5.972657 21.257813 2.230469 42.5625 4.121094 63.902344 5.675781.066406.007813.136719.011719.207031.015626 68.183594 4.96875 136.691406 6.492187 205.074219 4.574218.054687.003906.113281.015625.167969.015625.25 0 .5-.015625.75-.039062 10.988281-.3125 21.96875-.710938 32.949218-1.203125.027344 0 .054688.003906.082032.003906.246093 0 .492187-.011719.738281-.039062 30.132812-1.359376 60.226562-3.390626 90.242187-6.089844.023438 0 .046875-.003906.070313-.003906 9.988281-.898438 19.964843-1.863282 29.933593-2.910157 6.78125-.710937 13.3125 1.410157 18.378907 5.972657 5.0625 4.5625 7.855469 10.832031 7.855469 17.652343v19.445313c0 12.195312-9.144532 22.351562-21.273438 23.621094-138.757812 14.566406-279.53125 15.101562-418.398438 1.582031-4.121093-.398438-7.792968 2.617187-8.191406 6.738281-.402344 4.125 2.613282 7.792969 6.738282 8.191406 67.304687 6.550782 135.046874 9.828125 202.800781 9.828125 73.046875 0 146.109375-3.808593 218.617187-11.417969 19.785156-2.078124 34.707032-18.648437 34.707032-38.542968v-19.445313c0-10.964843-4.671876-21.460937-12.820313-28.796875-8.148437-7.339844-19.070313-10.890625-29.980469-9.746094-5.429687.570313-10.867187 1.109376-16.304687 1.636719 2.730469-7.226562 4.148437-14.917969 4.148437-22.769531 0-.074219-.003906-.144531-.003906-.214844 2.691406-4.394531 5.890625-8.460937 9.542969-12.109375 9.828125-9.832031 22.257812-16.179687 35.945312-18.351562zm-337.820312-267.816407c3.164062 0 6.285156.402344 9.28125 1.191407 8.84375 2.335937 18.398437.28125 25.558593-5.5 7.796876-6.292969 17.902344-9.761719 28.453126-9.761719 22.445312 0 40.855468 15.554688 42.164062 35.109375-22.414062-.359375-44.839844.332031-67.164062 2.066406-3.902344.304688-6.917969 3.5625-6.917969 7.480469v55.007812c0 12.027344-9.785157 21.8125-21.808594 21.8125-12.027344 0-21.8125-9.785156-21.8125-21.8125v-47.992187c0-2.199219-.964844-4.285156-2.640625-5.710937-1.675781-1.425782-3.890625-2.042969-6.058594-1.691407-3.71875.601563-7.4375 1.242188-11.148437 1.902344-.179688-1.210937-.269531-2.4375-.269531-3.671875 0-15.675781 14.519531-28.429688 32.363281-28.429688zm-46.132813 325.75-1.554687-38.363281c-.144531-3.558593-.320313-7.117187-.507813-10.675781 42.203125 2.957031 85.003906 4.609375 127.527344 4.917969-.230469 3.109375.34375 6.269531 1.746094 9.152343 2.519531 5.179688 7.410156 8.8125 13.085937 9.710938 13.683594 2.171875 26.117188 8.519531 35.949219 18.347656 3.445312 3.445313 6.445312 7.222656 9.011719 11.265625-61.785157 1.378907-123.648438-.074219-185.257813-4.355469zm175.871094-54.230468 34.054688 34.054687c.917968 8.28125 3.414062 16.28125 7.355468 23.566407-5.035156.195312-10.074218.363281-15.109375.515624-3.882812-7.914062-9.007812-15.109374-15.320312-21.425781-12.085938-12.082031-27.371094-19.882812-44.207031-22.554687-1.109376-.175782-1.671876-.890625-1.945313-1.460938-.199219-.40625-.589844-1.484375.078125-2.683594 7.78125-13.976562 10.898438-29.8125 9.015625-45.785156-.082031-.707031.214844-1.171875.476563-1.4375.265624-.261718.726562-.5625 1.4375-.476562 15.976562 1.886718 31.808593-1.234375 45.785156-9.015625 1.199218-.667969 2.277344-.277344 2.6875-.078125.566406.277344 1.28125.839844 1.457031 1.949218 2.25 14.175782 8.183594 27.320313 17.261719 38.347657-3.753906 6.15625-6.5 12.996093-8.019532 20.273437l-24.398437-24.398437c-2.929687-2.925781-7.675781-2.925781-10.605469 0-2.929687 2.933593-2.929687 7.683593-.003906 10.609375zm141.183594 51.332031c-27.421875 2.414063-54.910156 4.265625-82.433594 5.554687-6.527344-8.582031-10.101562-19.074218-10.101562-29.914062 0-27.28125 22.195312-49.476562 49.476562-49.476562 27.277344 0 49.472656 22.195312 49.472656 49.476562 0 8.597656-2.210937 16.949219-6.414062 24.359375zm20.34375-47.292969c-.785156.785156-1.546875 1.59375-2.296875 2.410156-2.152344-6.386718-5.269531-12.332031-9.191407-17.65625l21.46875-21.464843c2.925782-2.929688 2.925782-7.675781 0-10.605469-2.929687-2.929688-7.679687-2.929688-10.609374 0l-21.105469 21.105469c-4.9375-4.191407-10.5-7.664063-16.546875-10.234375.3125-.300782.636718-.585938.941406-.894532 12.085938-12.085937 19.886719-27.371093 22.554688-44.203124.175781-1.109376.890624-1.671876 1.460937-1.949219.40625-.195313 1.488281-.585938 2.683594.078125 13.980469 7.785156 29.8125 10.902344 45.789062 9.019531.703125-.085937 1.171875.210937 1.433594.476563.265625.261718.5625.726562.476563 1.433593-1.882813 15.976563 1.234374 31.808594 9.019531 45.789063.664062 1.195312.273437 2.273437.078125 2.683594-.277344.566406-.839844 1.28125-1.949219 1.457031-16.835937 2.671875-32.121094 10.472656-44.207031 22.554687zm0 0"/></svg>