<svg height="512pt" viewBox="-22 0 512 512.001" width="512pt" xmlns="http://www.w3.org/2000/svg"><path d="m331.066406 182.707031v-14.765625c0-4.140625-3.355468-7.5-7.5-7.5-4.140625 0-7.5 3.359375-7.5 7.5v14.765625c0 4.140625 3.359375 7.5 7.5 7.5 4.144532 0 7.5-3.359375 7.5-7.5zm19.007813 132.066407-16.5 16.5c-2.929688 2.929687-2.929688 7.679687 0 10.609374 1.464843 1.460938 3.386719 2.195313 5.304687 2.195313 1.917969 0 3.839844-.734375 5.304688-2.195313l16.5-16.503906c2.929687-2.929687 2.929687-7.675781 0-10.605468-2.929688-2.929688-7.679688-2.929688-10.609375 0zm-102.199219 28.589843c-2.929688-2.929687-7.679688-2.929687-10.609375 0-2.929687 2.929688-2.929687 7.679688 0 10.605469l13.648437 13.648438c1.464844 1.464843 3.382813 2.199218 5.304688 2.199218 1.917969 0 3.835938-.734375 5.300781-2.195312 2.929688-2.929688 2.929688-7.679688 0-10.609375zm-114.941406-29.601562-16.917969 16.917969c-2.929687 2.929687-2.929687 7.675781 0 10.605468 1.464844 1.464844 3.382813 2.195313 5.304687 2.195313 1.917969 0 3.835938-.730469 5.300782-2.195313l16.917968-16.917968c2.929688-2.929688 2.929688-7.675782 0-10.605469-2.925781-2.929688-7.675781-2.929688-10.605468 0zm20.25-131.054688v-14.765625c0-4.140625-3.355469-7.5-7.5-7.5-4.140625 0-7.5 3.359375-7.5 7.5v14.765625c0 4.140625 3.359375 7.5 7.5 7.5 4.144531 0 7.5-3.359375 7.5-7.5zm41.34375 258.371094-11.261719 11.261719c-2.929687 2.929687-2.929687 7.679687 0 10.609375 1.460937 1.464843 3.382813 2.199219 5.300781 2.199219 1.921875 0 3.839844-.734376 5.304688-2.199219l11.265625-11.261719c2.929687-2.929688 2.929687-7.679688 0-10.609375-2.929688-2.929687-7.679688-2.929687-10.609375 0zm40.097656-239.535156c11.152344 0 21.761719-4.832031 29.105469-13.253907 2.722656-3.121093 2.394531-7.859374-.726563-10.582031-3.121094-2.722656-7.859375-2.398437-10.582031.726563-4.492187 5.152344-10.980469 8.109375-17.796875 8.109375s-13.300781-2.957031-17.792969-8.109375c-2.722656-3.125-7.460937-3.449219-10.582031-.726563-3.125 2.722657-3.449219 7.460938-.726562 10.582031 7.339843 8.421876 17.949218 13.253907 29.101562 13.253907zm31.714844 231.183593-7.535156 7.53125c-2.925782 2.929688-2.925782 7.679688 0 10.609376 1.464843 1.460937 3.386718 2.195312 5.304687 2.195312s3.839844-.734375 5.304687-2.199219l7.53125-7.53125c2.929688-2.929687 2.929688-7.679687 0-10.609375-2.925781-2.925781-7.675781-2.925781-10.605468.003906zm190.535156-274.941406c-13.140625-21.804687-35.097656-36.601562-60.242188-40.589844-43.167968-6.855468-86.679687-10.949218-130.269531-12.289062.398438-22.929688 19.164063-41.464844 42.1875-41.464844 17.492188 0 31.71875-14.230468 31.71875-31.722656 0-17.488281-14.226562-31.71875-31.71875-31.71875-58.003906 0-105.234375 46.992188-105.632812 104.90625-28.679688.878906-57.335938 2.949219-85.894531 6.222656-4.117188.472656-7.070313 4.1875-6.597657 8.304688.46875 4.113281 4.1875 7.074218 8.304688 6.597656 30.472656-3.488281 61.0625-5.589844 91.667969-6.316406h.007812c.011719 0 .023438-.003906.035156-.003906 16.101563-.378907 32.210938-.382813 48.308594 0 .035156 0 .0625.003906.097656.003906.007813 0 .019532 0 .03125-.003906 45.308594 1.082031 90.546875 5.179687 135.40625 12.300781 20.761719 3.296875 38.894532 15.511719 49.746094 33.515625 10.851562 18.007812 13.1875 39.746094 6.402344 59.644531l-.589844 1.734375c-4.945312 14.507812-14.132812 26.550781-26.230469 34.921875-.222656.144531-.441406.296875-.652343.464844-5.816407 3.925781-12.289063 7.015625-19.289063 9.117187-21.949219 6.59375-44.929687 2.328125-63.054687-11.699218-7.269532-5.628907-17.429688-5.628907-24.703126 0-47.859374 37.046874-114.714843 37.042968-162.570312 0-7.273438-5.628907-17.433594-5.628907-24.707031 0-18.121094 14.027343-41.101563 18.292968-63.050781 11.699218-7-2.101562-13.46875-5.1875-19.285157-9.113281-.210937-.167969-.433593-.328125-.664062-.472656-12.097657-8.367188-21.28125-20.410157-26.226563-34.917969l-.589844-1.734375c-6.78125-19.898437-4.449218-41.636719 6.402344-59.640625 10.855469-18.007812 28.984375-30.222656 49.75-33.519531 2.792969-.445313 5.589844-.875 8.386719-1.296875 4.097656-.613282 6.921875-4.433594 6.304687-8.53125-.613281-4.09375-4.433593-6.914063-8.53125-6.304688-2.839843.425782-5.675781.867188-8.515624 1.316406-25.140626 3.992188-47.101563 18.785157-60.242188 40.589844-13.140625 21.804688-15.96875 48.128906-7.753906 72.226563l.59375 1.734375c5.742187 16.847656 16.179687 30.972656 29.929687 41.0625l23.128907 82.078125c4.9375 17.523437 17.132812 31.933593 33.300781 39.757812l4.199219 14.023438c11.296874 37.710937 37.886718 69.613281 72.945312 87.523437 20.636719 10.542969 43.269531 15.808594 65.910156 15.808594 22.632813 0 45.277344-5.269531 65.90625-15.808594 11.308594-5.777344 21.816406-13.023437 31.238282-21.53125 3.074218-2.777344 3.3125-7.519531.539062-10.59375-2.777344-3.074218-7.519531-3.316406-10.59375-.539062-8.449219 7.628906-17.871094 14.125-28.007812 19.304687-36.996094 18.898438-81.171876 18.898438-118.167969 0-31.433594-16.058593-55.269531-44.65625-65.398438-78.46875l-1.273437-4.242187c16.78125 2.757812 34.136718-1.339844 48.011718-11.675782 4.050782-3.011718 9.621094-2.90625 13.550782.257813 18.121094 14.605469 40.917968 22.648437 64.195312 22.648437 23.273438 0 46.070313-8.042968 64.191406-22.648437 3.929688-3.164063 9.5-3.273437 13.550782-.257813 13.875 10.335938 31.230468 14.433594 48.007812 11.675782l-1.269531 4.242187c-3.632813 12.121094-9 23.621094-15.957031 34.1875-2.277344 3.460938-1.320313 8.113281 2.140625 10.390625 1.273437.835938 2.703125 1.238282 4.117187 1.238282 2.441406 0 4.832032-1.191407 6.273438-3.378907 7.757812-11.78125 13.746094-24.613281 17.796875-38.132812l4.203125-14.023438c16.164062-7.824219 28.363281-22.234375 33.300781-39.757812l23.128906-82.078125c13.746094-10.089844 24.1875-24.210938 29.929688-41.0625l.589843-1.734375c8.210938-24.097657 5.386719-50.425781-7.757812-72.226563zm-205.503906-53.226562c-11.148438-.179688-22.300782-.179688-33.449219 0 .585937-49.480469 41.011719-89.558594 90.628906-89.558594 9.21875 0 16.71875 7.5 16.71875 16.71875s-7.5 16.71875-16.71875 16.71875c-31.179687 0-56.597656 25.078125-57.179687 56.121094zm145.171875 246.257812c-4.074219 14.457032-14.132813 25.746094-27.835938 31.417969-.097656.039063-.199219.082031-.296875.128906-.902344.363281-1.816406.707031-2.746094 1.023438-15.253906 5.191406-31.414062 2.648437-44.335937-6.972657-9.535156-7.101562-22.664063-6.851562-31.917969.605469-15.46875 12.464844-34.921875 19.328125-54.785156 19.328125-19.859375 0-39.316406-6.863281-54.78125-19.328125-9.257812-7.457031-22.382812-7.707031-31.917969-.605469-12.925781 9.621094-29.082031 12.164063-44.335937 6.976563-.933594-.320313-1.847656-.664063-2.75-1.027344-.097656-.042969-.191406-.085937-.292969-.125-13.703125-5.671875-23.761719-16.964843-27.835937-31.421875l-19.085938-67.726562c2.488281 1.003906 5.035156 1.90625 7.644531 2.6875 26.644531 8.007812 54.546875 2.828125 76.550781-14.203125 1.867188-1.445313 4.472657-1.445313 6.339844 0 26.632813 20.613281 58.550782 30.921875 90.46875 30.921875 31.917969 0 63.832032-10.308594 90.464844-30.921875 1.867188-1.445313 4.476562-1.445313 6.339844 0 22.003906 17.03125 49.902344 22.207031 76.550781 14.203125 2.609375-.78125 5.15625-1.683594 7.644531-2.683594zm0 0"/></svg>