<svg height="512pt" viewBox="-65 0 512 512" width="512pt" xmlns="http://www.w3.org/2000/svg"><path d="m190.53125 159.230469c13.644531 0 24.746094-11.097657 24.746094-24.746094v-12.539063c0-6.730468-5.476563-12.207031-12.207032-12.207031h-25.078124c-6.730469 0-12.207032 5.476563-12.207032 12.207031v12.539063c-.003906 13.648437 11.101563 24.746094 24.746094 24.746094zm-9.75-34.492188h19.496094v9.746094c0 5.375-4.375 9.746094-9.75 9.746094-5.371094 0-9.746094-4.371094-9.746094-9.746094zm-125.300781 26.992188c0-4.140625-3.359375-7.5-7.5-7.5h-40.480469c-4.140625 0-7.5 3.359375-7.5 7.5 0 4.144531 3.359375 7.5 7.5 7.5h40.480469c4.140625 0 7.5-3.355469 7.5-7.5zm67.015625-35.28125v10.21875c0 4.144531 3.359375 7.5 7.5 7.5s7.5-3.355469 7.5-7.5v-10.21875c0-4.140625-3.359375-7.5-7.5-7.5s-7.5 3.359375-7.5 7.5zm189.582031-57.097657c1.917969 0 3.839844-.734374 5.304687-2.199218l28.621094-28.621094c2.929688-2.929688 2.929688-7.679688 0-10.605469-2.925781-2.929687-7.675781-2.929687-10.605468 0l-28.625 28.621094c-2.925782 2.929687-2.925782 7.679687 0 10.605469 1.464843 1.464844 3.382812 2.199218 5.304687 2.199218zm-248.398437-2.199218c1.464843 1.464844 3.382812 2.195312 5.300781 2.195312 1.921875 0 3.839843-.730468 5.304687-2.195312 2.929688-2.929688 2.929688-7.675782 0-10.605469l-28.625-28.625c-2.929687-2.925781-7.675781-2.925781-10.605468 0-2.929688 2.929687-2.929688 7.679687 0 10.609375zm275.074218 410.714844h-5.394531c-4.140625 0-7.5 3.359374-7.5 7.5 0 4.144531 3.359375 7.5 7.5 7.5h5.394531c3.898438 0 7.066406 3.171874 7.066406 7.066406 0 3.894531-3.167968 7.066406-7.066406 7.066406h-86.046875c-23.011719 0-42.015625-17.441406-44.511719-39.800781h14.261719c2.390625 14.539062 15.042969 25.667969 30.25 25.667969h45.71875c4.144531 0 7.5-3.355469 7.5-7.5 0-4.140626-3.355469-7.5-7.5-7.5h-45.71875c-7.027343 0-12.988281-4.648438-14.964843-11.035157 15.28125-2.113281 27.816406-13.347656 31.375-28.765625l30.042968-130.082031h6.949219c13.492187 0 24.472656-10.976563 24.472656-24.472656v-19.011719c0-12.40625-9.28125-22.679688-21.265625-24.257812 3.394532-11.414063 5.117188-23.25 5.117188-35.324219 0-34.558594-13.738282-82.210938-35-121.394531-25.730469-47.414063-57.300782-73.523438-88.902344-73.523438-15.046875 0-30.058594 5.835938-44.617188 17.339844-3.246093 2.566406-3.800781 7.285156-1.230468 10.535156 2.566406 3.246094 7.285156 3.800781 10.535156 1.230469 11.84375-9.359375 23.722656-14.105469 35.3125-14.105469 25.46875 0 53.066406 23.9375 75.714844 65.679688 19.851562 36.578124 33.1875 82.488281 33.1875 114.242187 0 12.050781-1.945313 23.835937-5.78125 35.101563h-64.933594c2.96875-14.0625 6.601562-26.882813 10.261719-36.0625 1.535156-3.847657-.335938-8.207032-4.183594-9.742188-3.847656-1.539062-8.210937.339844-9.746094 4.183594-4.234375 10.613281-8.394531 25.53125-11.644531 41.621094h-45.75c-3.253906-16.089844-7.414062-31.007813-11.648438-41.621094-1.535156-3.847656-5.898437-5.722656-9.742187-4.183594-3.847656 1.535156-5.722656 5.894531-4.1875 9.742188 3.660156 9.179687 7.292969 22 10.261719 36.0625h-64.933594c-3.839844-11.265626-5.78125-23.050782-5.78125-35.101563 0-36.8125 19.0625-100.023437 50.964844-142.09375 2.503906-3.300781 1.855468-8.007813-1.445313-10.507813-3.300781-2.503906-8.003906-1.855468-10.507812 1.445313-30.789063 40.605469-54.011719 105.585937-54.011719 151.152344 0 12.074219 1.722656 23.910156 5.117188 35.324219-11.984376 1.578124-21.265626 11.851562-21.265626 24.253906v19.015625c0 13.492187 10.980469 24.472656 24.476563 24.472656h6.945313l30.042968 130.078125c3.5625 15.421875 16.09375 26.652344 31.375 28.769531-1.976562 6.386719-7.9375 11.035157-14.964844 11.035157h-86.046874c-12.167969 0-22.066407 9.898437-22.066407 22.066406 0 12.167968 9.898438 22.066406 22.066407 22.066406h86.046874c31.289063 0 57.023438-24.160156 59.570313-54.800781h5.214844c2.546875 30.640625 28.28125 54.800781 59.570312 54.800781h86.046875c12.167969 0 22.066406-9.898438 22.066406-22.066406 0-12.164063-9.898437-22.066406-22.066406-22.066406zm-263.800781-184.882813c-5.226563 0-9.476563-4.25-9.476563-9.472656v-19.015625c0-5.222656 4.25-9.472656 9.476563-9.472656h7.195313c.007812 0 .015624.003906.027343.003906s.027344-.003906.039063-.003906h216.628906c.015625 0 .027344.003906.042969.003906.007812 0 .015625-.003906.023437-.003906h7.199219c5.222656 0 9.472656 4.25 9.472656 9.472656v19.015625c0 5.222656-4.25 9.472656-9.472656 9.472656zm53.398437 214.015625h-86.046874c-3.894532 0-7.066407-3.171875-7.066407-7.066406 0-3.894532 3.171875-7.0625 7.066407-7.0625h86.046874c15.207032 0 27.859376-11.132813 30.253907-25.671875h14.257812c-2.492187 22.359375-21.5 39.800781-44.511719 39.800781zm20.21875-54.800781c-10.578124 0-19.632812-7.199219-22.011718-17.511719l-29.261719-126.703125h186.46875l-29.261719 126.707031c-2.382812 10.308594-11.433594 17.507813-22.015625 17.507813zm109.992188-315.53125v-10.21875c0-4.140625-3.355469-7.5-7.5-7.5-4.140625 0-7.5 3.359375-7.5 7.5v10.21875c0 4.144531 3.359375 7.5 7.5 7.5 4.144531 0 7.5-3.355469 7.5-7.5zm114.996094 17.5625h-40.480469c-4.140625 0-7.5 3.359375-7.5 7.5 0 4.144531 3.359375 7.5 7.5 7.5h40.480469c4.144531 0 7.5-3.355469 7.5-7.5 0-4.140625-3.355469-7.5-7.5-7.5zm0 0"/></svg>