<svg height="512pt" viewBox="-12 0 512 512" width="512pt" xmlns="http://www.w3.org/2000/svg"><path d="m269.167969 319.988281 8.730469-8.730469c2.929687-2.929687 2.929687-7.675781 0-10.605468-2.929688-2.929688-7.679688-2.929688-10.609376 0l-11.832031 11.835937h-7.386719l1.230469-1.230469c2.929688-2.929687 2.929688-7.675781 0-10.605468-2.929687-2.929688-7.679687-2.929688-10.605469 0l-11.835937 11.832031h-14.605469c-.507812-1.683594-1.179687-3.300781-2-4.828125l32.746094-32.746094c2.929688-2.929687 2.929688-7.679687 0-10.605468-2.929688-2.929688-7.679688-2.929688-10.605469 0l-32.746093 32.746093c-1.527344-.824219-3.144532-1.496093-4.828126-2.003906v-14.601563l11.832032-11.835937c2.929687-2.929687 2.929687-7.675781 0-10.605469-2.929688-2.929687-7.675782-2.929687-10.605469 0l-1.226563 1.230469v-7.386719l11.832032-11.832031c2.929687-2.929687 2.929687-7.679687 0-10.609375-2.925782-2.929688-7.675782-2.925781-10.605469 0l-8.726563 8.726562-8.726562-8.726562c-2.929688-2.925781-7.679688-2.925781-10.609375 0-2.925781 2.929688-2.925781 7.679688 0 10.609375l11.835937 11.832031v7.382813l-1.226562-1.226563c-2.929688-2.929687-7.679688-2.929687-10.609375 0-2.929687 2.929688-2.929687 7.679688 0 10.605469l11.832031 11.835937v14.601563c-1.6875.507813-3.300781 1.183594-4.824218 2.003906l-32.75-32.746093c-2.925782-2.929688-7.675782-2.929688-10.605469 0-2.929688 2.929687-2.929688 7.675781 0 10.605468l32.75 32.746094c-.824219 1.527344-1.496094 3.140625-2.003907 4.828125h-14.605468l-11.832032-11.832031c-2.929687-2.929688-7.675781-2.929688-10.605468-.003906-2.929688 2.929687-2.929688 7.679687 0 10.609374l1.226562 1.226563h-7.386718l-11.832032-11.832031c-2.929687-2.929688-7.679687-2.929688-10.605468 0-2.929688 2.929687-2.929688 7.675781 0 10.605468l8.726562 8.730469-8.726562 8.726563c-2.929688 2.929687-2.929688 7.675781 0 10.605468 1.460937 1.464844 3.382812 2.195313 5.300781 2.195313s3.839843-.730469 5.304687-2.195313l11.832032-11.832031h7.386718l-1.230468 1.226563c-2.925782 2.929687-2.925782 7.675781 0 10.605468 1.464843 1.464844 3.386718 2.195313 5.304687 2.195313s3.839844-.730469 5.304687-2.195313l11.832032-11.832031h14.601562c.511719 1.6875 1.183594 3.300781 2.003906 4.828125l-32.746093 32.746094c-2.929688 2.929688-2.929688 7.675781 0 10.605469 1.464843 1.464843 3.382812 2.195312 5.304687 2.195312 1.917969 0 3.835938-.730469 5.300782-2.195312l32.75-32.746094c1.523437.820313 3.136718 1.492187 4.824218 2.003906v14.601563l-11.832031 11.832031c-2.929687 2.929687-2.929687 7.679687 0 10.609375 2.929687 2.925781 7.679687 2.925781 10.605469 0l1.226562-1.230469v7.386719l-11.832031 11.835938c-2.929687 2.925781-2.929687 7.675781 0 10.605468 2.929687 2.925782 7.675781 2.925782 10.609375-.003906l8.726562-8.726562 8.726563 8.726562c1.464844 1.464844 3.382813 2.199219 5.300781 2.199219 1.921875 0 3.839844-.734375 5.304688-2.195313 2.929687-2.929687 2.929687-7.679687 0-10.605468l-11.835938-11.835938v-7.386719l1.226563 1.230469c1.464843 1.464844 3.386719 2.195312 5.304687 2.195312 1.917969 0 3.839844-.730468 5.304688-2.195312 2.925781-2.929688 2.925781-7.679688 0-10.609375l-11.835938-11.832031v-14.605469c1.6875-.507813 3.304688-1.179687 4.828125-2l32.746094 32.746094c1.464844 1.464843 3.386719 2.195312 5.304687 2.195312 1.917969 0 3.839844-.730469 5.300782-2.195312 2.929687-2.929688 2.929687-7.679688 0-10.609375l-32.746094-32.746094c.824219-1.523438 1.496094-3.140625 2.003906-4.828125h14.601563l11.835937 11.835937c1.464844 1.464844 3.382813 2.195313 5.300782 2.195313 1.921874 0 3.839843-.730469 5.304687-2.195313 2.929687-2.929687 2.929687-7.679687 0-10.605468l-1.226563-1.230469h7.382813l11.835937 11.835937c1.464844 1.464844 3.382813 2.195313 5.304688 2.195313 1.917969 0 3.835938-.730469 5.300781-2.195313 2.929688-2.929687 2.929688-7.679687 0-10.605468zm-81.851563 11.042969c-6.089844 0-11.042968-4.953125-11.042968-11.042969 0-6.089843 4.953124-11.042969 11.042968-11.042969s11.042969 4.953126 11.042969 11.042969c0 6.089844-4.953125 11.042969-11.042969 11.042969zm-56.675781-252c18.546875 0 33.640625-17.726562 33.640625-39.515625s-15.09375-39.515625-33.640625-39.515625c-18.550781 0-33.644531 17.726562-33.644531 39.515625s15.09375 39.515625 33.644531 39.515625zm0-64.03125c10.277344 0 18.640625 10.996094 18.640625 24.515625s-8.363281 24.515625-18.640625 24.515625c-10.28125 0-18.644531-10.996094-18.644531-24.515625s8.363281-24.515625 18.644531-24.515625zm340.203125 237.882812c-15.164062-23.449218-41.902344-36.816406-69.761719-34.886718l-29.300781 2.035156 2.558594-16.355469c1.101562-7.035156-.921875-14.171875-5.554688-19.582031-4.628906-5.410156-11.367187-8.515625-18.488281-8.515625h-18.46875l-13.710937-37.671875c-2.867188-7.867188-8.621094-14.148438-16.210938-17.6875-5.378906-2.507812-11.214844-3.417969-16.960938-2.722656 2.597657-16.003906-1.054687-32.882813-10.851562-49.535156-2.101562-3.574219-6.699219-4.765626-10.269531-2.664063-3.570313 2.101563-4.761719 6.695313-2.660157 10.269531 9.699219 16.492188 12.078126 32.328125 7.097657 47.125l-40.839844 14.863282c-7.867187 2.863281-14.152344 8.621093-17.691406 16.210937-3.214844 6.902344-3.804688 14.5625-1.738281 21.8125h-43.535157c.476563-7.105469-1.457031-14.109375-5.601562-20.027344-4.804688-6.859375-11.992188-11.4375-20.238281-12.894531l-18.007813-3.175781c7.054687-11.460938 17.785156-19.960938 30.960937-24.351563 30.664063-10.21875 43.546876-45.90625 45.261719-73.359375.273438-4.398437 2.773438-8.257812 6.679688-10.320312 3.917969-2.074219 8.34375-1.972657 12.136719.28125 8.675781 5.15625 17.171874 11.507812 24.566406 18.371093 3.039062 2.816407 7.785156 2.640626 10.601562-.398437 2.816406-3.035156 2.640625-7.78125-.398437-10.597656-8.160157-7.574219-17.53125-14.582031-27.109375-20.269531-8.265625-4.914063-18.285156-5.152344-26.808594-.648438-8.5625 4.527344-14.035156 12.992188-14.636719 22.648438-1.535156 24.597656-12.964843 52.707031-35.03125 60.0625-18.5 6.160156-33.148437 18.785156-41.839843 35.828124l-19.308594-3.402343c-17.023438-3-33.316406 8.40625-36.320313 25.429687l-2.964843 16.824219h-22.0625c-7.121094 0-13.859376 3.101563-18.488282 8.515625-4.628906 5.410156-6.65625 12.546875-5.554687 19.582031l38.820312 248.101563c.980469 6.277344 2.789063 12.378906 5.371094 18.144531 1.695313 3.777344 6.132813 5.46875 9.910156 3.773437 3.78125-1.691406 5.472657-6.132812 3.777344-9.910156-2.035156-4.546875-3.464844-9.367187-4.238281-14.324218l-1.230469-7.851563c33.738281-1.785156 51.925781 2.644531 71.089844 7.316406 17.085937 4.164063 34.75 8.472657 63.523437 8.472657 28.777344 0 46.441406-4.308594 63.527344-8.472657 19.160156-4.675781 37.351562-9.101562 71.089844-7.316406l-1.230469 7.851563c-4.308594 27.546874-27.675781 47.539062-55.558594 47.539062h-155.65625c-11.34375 0-22.285156-3.367188-31.640625-9.742188-3.421875-2.332031-8.089844-1.449218-10.421875 1.976563-2.332031 3.421875-1.445312 8.085937 1.976563 10.417969 11.859375 8.078125 25.71875 12.347656 40.085937 12.347656h155.65625c16.972657 0 33.421875-6.074219 46.316407-17.109375 12.894531-11.035156 21.4375-26.34375 24.0625-43.113281l3.253906-20.792969h35.324218c36.222657 0 70.761719-17.347656 92.394532-46.398437 28.652344-38.484376 30.398437-91.410157 4.347656-131.703126zm-247.515625-92.777343c1.84375-3.957031 5.121094-6.960938 9.226563-8.453125l50.507812-18.386719c4.105469-1.492187 8.542969-1.300781 12.503906.546875 3.957032 1.847656 6.960938 5.121094 8.453125 9.226562l11.84375 32.539063h-92l-1.082031-2.972656c-1.496094-4.101563-1.300781-8.542969.546875-12.5zm-159.191406 1.253906c1.566406-8.878906 10.0625-14.824219 18.941406-13.265625l24.832031 4.378906c.007813 0 .015625.003906.023438.003906l28.082031 4.953126c4.300781.757812 8.046875 3.144531 10.554687 6.722656 2.347657 3.359375 3.320313 7.386718 2.808594 11.425781h-87.75zm260.125 265.355469c-36.972657-2.113282-57.292969 2.839844-76.972657 7.636718-16.96875 4.140626-33 8.046876-59.972656 8.046876s-43-3.90625-59.96875-8.046876c-19.683594-4.796874-40.003906-9.75-76.976562-7.636718l-35.257813-225.355469c-.429687-2.742187.328125-5.410156 2.128907-7.515625 1.800781-2.105469 4.320312-3.265625 7.09375-3.265625h131.359374.023438.023438 62.84375.023437.046875 131.640625c2.769531 0 5.289063 1.160156 7.09375 3.265625 1.800781 2.105469 2.558594 4.773438 2.128906 7.515625l-4.035156 25.796875c-.003906.007812-.003906.011719-.003906.015625l-7.050781 45.0625v.007813zm38.089843-146.40625 42.863282-2.980469c6.261718-.433594 12.269531 2.566406 15.683594 7.847656 12.640624 19.546875 11.789062 45.222657-2.109376 63.890625-10.460937 14.054688-27.167968 22.441406-44.691406 22.441406h-26.015625zm92.109376 95.316406c-18.8125 25.269531-48.855469 40.355469-80.359376 40.355469h-32.976562l4.609375-29.472657h28.367187c22.238282 0 43.441407-10.648437 56.71875-28.484374 17.621094-23.664063 18.699219-56.214844 2.675782-80.992188-6.382813-9.875-17.632813-15.484375-29.328125-14.667969l-39.4375 2.742188 4.675781-29.871094 32.71875-2.273437c22.421875-1.566407 43.921875 9.199218 56.121094 28.0625 22.667968 35.0625 21.148437 81.117187-3.785156 114.601562zm0 0"/></svg>