<svg height="511pt" viewBox="0 -40 511.997 511" width="511pt" xmlns="http://www.w3.org/2000/svg"><path d="m504.210938 191.820312c-15.648438-14.269531-46.160157-37.4375-82.222657-40.953124 3.769531-8.984376 7.785157-18.171876 13.121094-27.042969 3.351563-5.5625 3.421875-12.5.191406-18.101563-3.234375-5.601562-9.28125-8.996094-15.773437-8.890625-9.652344.1875-18.945313-.777343-27.980469-1.90625 9.175781-26.179687 8.398437-53.996093 5.859375-73.632812-.859375-6.648438-4.492188-12.65625-9.96875-16.492188-5.472656-3.832031-12.363281-5.191406-18.902344-3.726562-19.132812 4.289062-53.058594 14.957031-76.703125 39.472656-.390625-.511719-.78125-1.023437-1.171875-1.535156-6.605468-8.65625-13.433594-17.601563-19.074218-27.800781-3.148438-5.679688-9.117188-9.210938-15.585938-9.210938s-12.4375 3.53125-15.582031 9.210938c-5.644531 10.199218-12.472657 19.144531-19.078125 27.800781-.390625.507812-.78125 1.023437-1.167969 1.535156-23.648437-24.515625-57.574219-35.183594-76.707031-39.472656-6.539063-1.464844-13.429688-.105469-18.902344 3.726562-5.476562 3.835938-9.109375 9.84375-9.96875 16.488281-.277344 2.148438-.523438 4.308594-.726562 6.425782-.398438 4.125 2.621093 7.789062 6.742187 8.1875 4.132813.414062 7.789063-2.621094 8.1875-6.742188.1875-1.957031.417969-3.957031.671875-5.945312.324219-2.507813 1.636719-4.683594 3.695312-6.125 2.058594-1.441406 4.554688-1.929688 7.019532-1.378906 17.910156 4.015624 50.007812 14.070312 70.921875 37.089843-8.441407 12-16.097657 25.367188-20.625 43.019531-20.445313-5.664062-38.003907-4.75-54.734375-2.808593-3.539063-9.15625-5.910156-19.402344-7.039063-30.578125-.414062-4.121094-4.097656-7.132813-8.214843-6.707032-4.121094.414063-7.125 4.09375-6.710938 8.214844 1.125 11.121094 3.363281 21.503906 6.671875 30.984375-9.042969 1.125-18.347656 2.089844-27.980469 1.90625-.109375-.003906-.21875-.003906-.328125-.003906-6.367187 0-12.265625 3.386719-15.445312 8.894531-3.230469 5.601563-3.160157 12.535156.191406 18.101563 5.335937 8.867187 9.351563 18.058593 13.121094 27.042969-36.0625 3.515624-66.574219 26.683593-82.222657 40.953124-4.949218 4.515626-7.789062 10.9375-7.789062 17.625 0 6.683594 2.839844 13.105469 7.789062 17.621094 15.644532 14.269532 46.15625 37.4375 82.222657 40.953125-3.769531 8.984375-7.785157 18.171875-13.125 27.042969-3.347657 5.566406-3.421875 12.5-.1875 18.101562 3.179687 5.507813 9.074219 8.894532 15.445312 8.894532.109375 0 .21875 0 .328125-.003906 11.644532-.21875 22.8125 1.230468 33.613282 2.621093.605468.078125 1.210937.15625 1.816406.234375-10.917969 33.589844-2.988282 69.871094 3.148437 89.492188 2 6.394531 6.621094 11.683594 12.679688 14.507812 3.175781 1.480469 6.617187 2.226563 10.066406 2.226563 3.125 0 6.253906-.613281 9.195313-1.835938 19.042968-7.941406 44.390624-21.777343 62.535156-43.902343 5.238281 6.960937 10.433594 14.226562 14.886718 22.277343 3.144532 5.679688 9.117188 9.210938 15.582032 9.210938 6.46875 0 12.441406-3.53125 15.585937-9.214844 4.453125-8.046875 9.648438-15.3125 14.886719-22.273437 18.144531 22.125 43.492188 35.960937 62.535156 43.898437 2.941406 1.226563 6.070313 1.839844 9.195313 1.839844 3.449219 0 6.890625-.742188 10.066406-2.226563 6.058594-2.824218 10.679687-8.113281 12.679687-14.507812.726563-2.3125 1.417969-4.683594 2.0625-7.039063 1.09375-3.996093-1.257812-8.121093-5.253906-9.214843-3.992187-1.089844-8.121094 1.257812-9.214844 5.253906-.597656 2.1875-1.238281 4.378906-1.910156 6.523437-.753906 2.414063-2.425781 4.328125-4.703125 5.390625-2.277343 1.0625-4.816406 1.109375-7.148437.136719-14.972656-6.242187-41.734375-19.804687-58.949219-42.402344 10.367187-13.871093 20.324219-28.929687 25.742187-50.160156 11.804688 3.34375 22.632813 4.488281 32.902344 4.488281 4.910156 0 9.683594-.269531 14.382813-.675781 4.675781 12.777344 6.496093 27.476563 5.398437 43.792969-.28125 4.132812 2.84375 7.707031 6.976563 7.984375.171875.011719.34375.019531.511719.019531 3.914062 0 7.207031-3.035156 7.476562-6.996094 1.144531-17.007812-.5625-32.605468-5.082031-46.507812.828125-.109375 1.65625-.214844 2.480469-.320313 10.796874-1.390625 21.953124-2.847656 33.613281-2.621093 6.535156.128906 12.535156-3.289063 15.769531-8.890626 3.234375-5.601562 3.160156-12.535156-.1875-18.101562-5.351562-8.890625-9.375-18.101562-13.152344-27.109375 35.773438-3.738281 66-26.707031 81.546875-40.886719 4.949219-4.515625 7.789063-10.9375 7.789063-17.621094.003906-6.6875-2.835938-13.109374-7.785156-17.625zm-84.410157-79.988281c1.4375-.03125 2.203125.859375 2.507813 1.390625.308594.53125.707031 1.609375-.046875 2.867188-6.578125 10.925781-11.128907 21.832031-15.527344 32.375-7.484375 17.929687-14.59375 34.945312-31.054687 50.808594-5.179688-3.976563-11-7.878907-17.601563-11.6875-9.472656-5.472657-19.359375-9.429688-29.203125-11.757813l38.117188-22.007813c3.585937-2.070312 4.816406-6.65625 2.746093-10.246093-2.070312-3.585938-6.660156-4.8125-10.246093-2.742188l-37.894532 21.875c2.761719-9.480469 4.199219-19.769531 4.199219-30.429687 0-7.851563-.503906-15.035156-1.40625-21.675782 22.003906-6.351562 40.320313-3.996093 59.609375-1.511718 11.332031 1.460937 23.042969 2.964844 35.800781 2.742187zm-47.984375-96.117187c2.464844-.554688 4.960938-.066406 7.019532 1.375 2.058593 1.441406 3.371093 3.617187 3.695312 6.125 1.992188 15.40625 3.640625 44.132812-6.257812 69.800781-16.742188-1.941406-34.304688-2.855469-54.75 2.804687-4.53125-17.648437-12.183594-31.015624-20.625-43.019531 20.910156-23.019531 53.007812-33.074219 70.917968-37.085937zm-138.550781 32.398437c6.933594-9.085937 14.101563-18.476562 20.277344-29.636719.710937-1.285156 1.84375-1.476562 2.457031-1.476562s1.75.191406 2.460938 1.476562c6.175781 11.160157 13.34375 20.554688 20.277343 29.636719 16.484375 21.601563 32.058594 42.003907 32.058594 84.160157 0 10.75-1.65625 20.988281-4.832031 30.121093-4.957032-2.992187-10.765625-4.71875-16.96875-4.71875-10.074219 0-19.359375 4.621094-25.496094 12.132813v-84.601563c0-4.144531-3.355469-7.5-7.5-7.5s-7.5 3.355469-7.5 7.5v83.746094c-6.132812-7.011719-15.101562-11.277344-24.792969-11.277344-6.445312 0-12.457031 1.867188-17.542969 5.082031-3.257812-9.222656-4.960937-19.585937-4.960937-30.484374 0-42.15625 15.574219-62.558594 32.0625-84.160157zm23.085937 182.398438c-11.617187 0-21.066406-9.453125-21.066406-21.070313 0-11.613281 9.449219-21.066406 21.066406-21.066406 11.617188 0 21.070313 9.453125 21.070313 21.066406 0 11.617188-9.453125 21.070313-21.070313 21.070313zm17.921876 16.625c0 9.882812-8.039063 17.921875-17.921876 17.921875-9.882812 0-17.921874-8.039063-17.921874-17.921875 0-2.007813.347656-3.984375 1-5.855469 5.046874 2.695312 10.808593 4.230469 16.921874 4.230469 6.113282 0 11.871094-1.535157 16.921876-4.230469.648437 1.871094 1 3.847656 1 5.855469zm-53.957032-38.949219c-8.265625-1.589844-14.53125-8.871094-14.53125-17.589844 0-9.882812 8.039063-17.925781 17.921875-17.925781 5.300781 0 10.203125 2.347656 13.542969 6.195313-9.847656 6.175781-16.507812 16.96875-16.933594 29.320312zm55.136719-29.316406c3.339844-3.851563 8.242187-6.199219 13.542969-6.199219 9.882812 0 17.921875 8.042969 17.921875 17.925781 0 8.71875-6.265625 16-14.53125 17.589844-.425781-12.351562-7.085938-23.144531-16.933594-29.316406zm-185.714844-62.78125c-.753906-1.257813-.351562-2.335938-.046875-2.867188.304688-.53125 1.066406-1.425781 2.507813-1.390625 12.738281.21875 24.464843-1.28125 35.800781-2.742187 19.289062-2.488282 37.605469-4.839844 59.609375 1.511718-.902344 6.640626-1.40625 13.824219-1.40625 21.675782 0 10.660156 1.433594 20.945312 4.195313 30.429687l-37.890626-21.878906c-3.589843-2.070313-8.175781-.839844-10.246093 2.746094-2.070313 3.585937-.839844 8.175781 2.746093 10.246093l38.320313 22.121094c-9.675781 2.34375-19.390625 6.265625-28.703125 11.640625-6.769531 3.910157-12.710938 7.914063-17.992188 11.996094-16.683593-15.949219-23.835937-33.070313-31.367187-51.113281-4.398437-10.542969-8.949219-21.449219-15.527344-32.375zm-71.839843 99.894531c-1.871094-1.703125-2.898438-4.027344-2.898438-6.539063 0-2.515624 1.027344-4.835937 2.898438-6.542968 14.914062-13.597656 44.5625-36.144532 78.296874-37.441406 6.53125 14.808593 14.515626 29.761718 29.0625 43.988281-14.546874 14.21875-22.519531 29.136719-29.0625 43.976562-33.734374-1.296875-63.382812-23.839843-78.296874-37.441406zm110.105468 93.816406c-11.332031-1.464843-23.050781-2.972656-35.804687-2.742187-1.4375.054687-2.203125-.859375-2.507813-1.394532-.308594-.53125-.707031-1.609374.046875-2.867187 6.578125-10.925781 11.128907-21.832031 15.527344-32.378906 10.464844-25.078125 20.347656-48.765625 56.855469-69.84375 9.371094-5.410157 19.132812-9.105469 28.6875-10.910157-.007813.3125-.023438.621094-.023438.933594 0 16.164063 11.714844 29.636719 27.097656 32.394532l-72.875 42.074218c-3.585937 2.070313-4.816406 6.660156-2.746093 10.246094 1.390625 2.40625 3.910156 3.75 6.503906 3.75 1.269531 0 2.5625-.324219 3.742187-1.003906l72.878907-42.078125c-1.28125 3.554687-1.957031 7.324219-1.957031 11.15625 0 12.496093 6.996093 23.386719 17.277343 28.960937-6.339843 7.371094-14.417969 13.976563-23.789062 19.386719-36.507813 21.074219-61.964844 17.789063-88.914063 14.316406zm29.21875 105.652344c-2.332031.972656-4.875.925781-7.152344-.136719-2.277343-1.0625-3.945312-2.976562-4.703124-5.390625-5.761719-18.425781-13.335938-52.914062-2.195313-83.28125 4.914063.441407 9.914063.734375 15.058594.734375 10.074219 0 20.695312-1.105468 32.246093-4.304687 5.425782 21.132812 15.355469 36.144531 25.695313 49.976562-17.21875 22.597657-43.980469 36.160157-58.949219 42.402344zm121.511719-44.679687c-6.933594 9.085937-14.101563 18.480468-20.273437 29.636718-.710938 1.285156-1.847657 1.476563-2.460938 1.476563s-1.746094-.191407-2.457031-1.476563c-6.175781-11.15625-13.34375-20.550781-20.277344-29.632812-11.835937-15.511719-23.0625-30.238282-28.546875-52.585938 6.273438-2.554687 12.820312-5.746094 19.703125-9.71875 9.152344-5.285156 17.285156-11.601562 24.078125-18.660156v43.867188c0 4.144531 3.355469 7.5 7.5 7.5s7.5-3.355469 7.5-7.5v-44.621094c6.9375 7.359375 15.308594 13.945312 24.78125 19.414062 6.652344 3.839844 12.988281 6.949219 19.0625 9.457032-5.457031 22.496093-16.726562 37.277343-28.609375 52.84375zm144.230469-67.976563c.757812 1.257813.355468 2.335937.046875 2.867187-.300781.523438-1.019531 1.394532-2.441407 1.394532-.019531 0-.042968 0-.0625 0-12.753906-.226563-24.472656 1.277344-35.808593 2.742187-26.945313 3.476563-52.40625 6.761719-88.914063-14.316406-9.371094-5.410156-17.449218-12.011719-23.789062-19.386719 10.28125-5.574218 17.277344-16.464844 17.277344-28.960937 0-3.832031-.675782-7.601563-1.957032-11.15625l72.878906 42.078125c1.183594.683594 2.472657 1.003906 3.742188 1.003906 2.59375 0 5.113281-1.34375 6.503906-3.75 2.070313-3.585938.839844-8.171875-2.746094-10.246094l-72.875-42.070312c15.382813-2.761719 27.097657-16.234375 27.097657-32.398438 0-.3125-.015625-.621094-.023438-.933594 9.554688 1.804688 19.316407 5.5 28.683594 10.910157 33.273437 19.210937 44.429687 40.585937 54.066406 63.207031 0 0 .003907.003906.003907.003906.9375 2.199219 1.859374 4.410156 2.789062 6.632813 4.398438 10.546875 8.949219 21.453125 15.527344 32.378906zm71.136718-86.8125c-14.8125 13.507813-44.15625 35.832031-77.605468 37.410156-6.59375-14.949219-14.640625-29.980469-29.402344-44.292969 14.320312-14.121093 22.230469-28.949218 28.710938-43.640624 33.734374 1.300781 63.382812 23.84375 78.296874 37.445312 1.871094 1.703125 2.898438 4.023438 2.898438 6.539062 0 2.511719-1.027344 4.835938-2.898438 6.539063zm0 0"/></svg>