<svg height="512pt" viewBox="-62 0 512 512" width="512pt" xmlns="http://www.w3.org/2000/svg"><path d="m385.050781 262.457031c-.050781-.273437-.117187-.542969-.195312-.8125-7.578125-32.105469-25.832031-59.015625-53.90625-78.972656-23.921875-17.007813-54.003907-28.4375-88.53125-33.839844v-22.472656c11.476562-1.632813 20.328125-11.519531 20.328125-23.441406v-12.425781c0-13.058594-10.625-23.683594-23.683594-23.683594h-10.15625c4.984375-7.007813 7.816406-15.523438 7.816406-24.511719 0-23.324219-18.972656-42.296875-42.292968-42.296875-23.324219 0-42.296876 18.972656-42.296876 42.296875 0 8.988281 2.832032 17.503906 7.816407 24.511719h-10.15625c-13.058594 0-23.683594 10.625-23.683594 23.683594v12.425781c0 11.921875 8.855469 21.808593 20.328125 23.441406v22.542969c-19.402344 3.066406-37.546875 8.015625-53.769531 14.738281-3.824219 1.585937-5.640625 5.976563-4.054688 9.800781 1.585938 3.828125 5.972657 5.644532 9.800781 4.058594 27.230469-11.289062 60.429688-17.257812 96.015626-17.257812 13.488281 0 26.457031.820312 38.839843 2.429687.414063.09375.84375.148437 1.28125.167969 34.558594 4.652344 64.421875 15.503906 87.710938 32.058594 23.902343 16.992187 39.8125 39.679687 47.070312 66.699218-6.695312 6.121094-14.933593 9.386719-24.050781 9.484375-.199219.003907-.394531.003907-.59375.003907-30.589844 0-56.523438-25.613282-66.292969-36.679688-4.300781-4.875-10.707031-7.222656-17.125-6.289062-6.464843.941406-11.96875 5.054687-14.722656 11.003906-5.066406 10.933594-20.28125 36.363281-52.117187 36.363281-31.835938 0-47.050782-25.429687-52.117188-36.363281-2.753906-5.949219-8.257812-10.0625-14.722656-11.003906-6.417969-.9375-12.824219 1.414062-17.125 6.289062-9.773438 11.066406-35.703125 36.679688-66.292969 36.679688-.199219 0-.398437-.003907-.59375-.003907-9.121094-.101562-17.363281-3.367187-24.058594-9.492187 7.449219-27.738282 24.023438-50.894532 49.007813-68.042969 3.417968-2.34375 4.285156-7.011719 1.941406-10.425781-2.34375-3.417969-7.015625-4.285156-10.429688-1.941406-29.367187 20.160156-48.378906 47.660156-56.105468 80.695312-.023438.085938-.042969.167969-.0625.253906-2.570313 11.070313-3.871094 22.761719-3.871094 35.003906 0 36.21875 10.433594 70 29.261719 98.277344.3125.636719.710937 1.214844 1.175781 1.726563 18.746094 27.429687 45.480469 49.539062 78.300781 63.457031 29.101563 12.339844 49.78125 25.804688 65.085938 42.378906 5.296875 5.738282 12.808593 9.027344 20.605469 9.027344 7.792968 0 15.304687-3.289062 20.601562-9.027344 12.101562-13.101562 27.855469-24.417968 48.179688-34.597656 3.699218-1.855469 5.199218-6.363281 3.34375-10.066406-1.851563-3.703125-6.359376-5.199219-10.0625-3.34375-21.96875 11.003906-39.132813 23.378906-52.480469 37.832031-2.503907 2.710937-5.90625 4.203125-9.582031 4.203125-3.679688 0-7.082032-1.492188-9.585938-4.203125-16.800781-18.195313-39.121094-32.816406-70.25-46.015625-25.449219-10.789062-47.273438-27.0625-63.933594-47.488281 27.742188 3.222656 50.730469 26.003906 59.800782 36.28125 3.679687 4.167969 8.894531 6.492187 14.34375 6.492187.921874 0 1.855468-.066406 2.785156-.203125 6.460937-.941406 11.964844-5.054687 14.71875-11.003906 5.066406-10.933594 20.28125-36.367187 52.117187-36.367187 31.839844 0 47.054688 25.433593 52.117188 36.367187 2.757812 5.949219 8.261719 10.0625 14.722656 11.003906 6.421875.9375 12.824219-1.414062 17.128906-6.289062 9.066407-10.269531 32.074219-33.039063 59.773438-36.277344-13.292969 16.324219-29.984375 30.167969-49.597657 40.648437-3.648437 1.953126-5.03125 6.5-3.078124 10.152344 1.351562 2.527344 3.945312 3.964844 6.621093 3.964844 1.195313 0 2.40625-.285156 3.53125-.886719 26.277344-14.046875 47.765625-33.605469 63.472657-56.921875.011718-.015625.023437-.035156.035156-.050781 19.164062-28.464844 29.703125-62.527344 29.703125-99.070313 0-12.117187-1.28125-23.695312-3.804688-34.675781zm-190.621093-247.457031c15.050781 0 27.292968 12.246094 27.292968 27.296875 0 10.480469-5.96875 19.945313-15.316406 24.511719h-23.957031c-9.34375-4.566406-15.316407-14.03125-15.316407-24.511719 0-15.050781 12.246094-27.296875 27.296876-27.296875zm32.988281 131.898438c-10.640625-1.09375-21.648438-1.65625-32.988281-1.65625-11.246094 0-22.273438.582031-32.992188 1.707031v-20.347657h65.980469zm-77.625-35.296876c-4.789063 0-8.683594-3.894531-8.683594-8.683593v-12.425781c0-4.789063 3.894531-8.683594 8.683594-8.683594h30.910156.105469 27.242187c.007813 0 .019531.003906.027344.003906.011719 0 .027344-.003906.039063-.003906h30.945312c4.789062 0 8.683594 3.894531 8.683594 8.683594v12.425781c0 4.789062-3.894532 8.683593-8.683594 8.683593zm199.328125 272.476563c-1.226563-.097656-2.457032-.164063-3.679688-.179687-.25-.003907-.5-.003907-.75-.003907-36.699218 0-66.417968 29.152344-77.542968 41.75-1.304688 1.476563-2.894532 1.496094-3.71875 1.375-.6875-.097656-2.382813-.539062-3.273438-2.464843-13.070312-28.214844-37.640625-45.0625-65.730469-45.0625-28.085937 0-52.65625 16.847656-65.726562 45.0625-.890625 1.925781-2.585938 2.367187-3.273438 2.464843-.832031.125-2.417969.105469-3.71875-1.371093-11.199219-12.6875-41.277343-42.183594-78.296875-41.75-1.230468.011718-2.464844.082031-3.699218.183593-16.160157-25.570312-24.710938-55.554687-24.710938-86.949219 0-6.585937.425781-12.984374 1.257812-19.199218 8.050782 5.203125 17.351563 8.039062 27.152344 8.144531.253906.003906.503906.007813.753906.007813 36.699219 0 66.417969-29.152344 77.542969-41.753907 1.300781-1.476562 2.886719-1.492187 3.71875-1.371093.6875.097656 2.382813.539062 3.273438 2.464843 13.070312 28.214844 37.640625 45.058594 65.726562 45.058594 28.089844 0 52.660157-16.84375 65.730469-45.058594.890625-1.925781 2.585938-2.367187 3.273438-2.46875.828124-.117187 2.414062-.101562 3.71875 1.375 11.125 12.601563 40.839843 41.753907 77.542968 41.75.25 0 .503906 0 .753906-.003906 9.800782-.105469 19.105469-2.941406 27.152344-8.144531.835938 6.210937 1.257813 12.613281 1.257813 19.199218 0 31.867188-8.75 61.671876-24.734375 86.945313zm-78.019532-86.832031c-13.59375 0-24.652343 11.058594-24.652343 24.652344 0 4.144531 3.355469 7.5 7.5 7.5 4.140625 0 7.5-3.355469 7.5-7.5 0-5.324219 4.328125-9.652344 9.652343-9.652344 5.324219 0 9.65625 4.328125 9.65625 9.652344 0 4.144531 3.355469 7.5 7.5 7.5 4.140626 0 7.5-3.355469 7.5-7.5 0-13.59375-11.0625-24.652344-24.65625-24.652344zm-153.347656 0c-13.597656 0-24.65625 11.058594-24.65625 24.652344 0 4.144531 3.359375 7.5 7.5 7.5s7.5-3.355469 7.5-7.5c0-5.324219 4.332032-9.652344 9.65625-9.652344 5.324219 0 9.652344 4.328125 9.652344 9.652344 0 4.144531 3.359375 7.5 7.5 7.5 4.144531 0 7.5-3.355469 7.5-7.5.003906-13.59375-11.058594-24.652344-24.652344-24.652344zm99.800782 39.050781c-3.125-2.722656-7.863282-2.398437-10.582032.726563-3.167968 3.632812-7.738281 5.71875-12.542968 5.71875-4.804688 0-9.378907-2.085938-12.542969-5.71875-2.722657-3.125-7.460938-3.449219-10.582031-.726563-3.125 2.722656-3.449219 7.460937-.730469 10.582031 6.019531 6.902344 14.710937 10.863282 23.855469 10.863282 9.140624 0 17.832031-3.960938 23.851562-10.863282 2.71875-3.125 2.394531-7.859375-.726562-10.582031zm0 0"/></svg>