<svg height="512pt" viewBox="0 -27 512.001 512" width="512pt" xmlns="http://www.w3.org/2000/svg"><path d="m379.941406 336.546875c0 16.320313 13.277344 29.601563 29.601563 29.601563 16.320312 0 29.601562-13.277344 29.601562-29.601563 0-16.320313-13.28125-29.601563-29.601562-29.601563-16.320313 0-29.601563 13.28125-29.601563 29.601563zm44.203125 0c0 8.050781-6.550781 14.601563-14.601562 14.601563s-14.601563-6.550782-14.601563-14.601563 6.550782-14.601563 14.601563-14.601563 14.601562 6.550782 14.601562 14.601563zm-228.914062-216.003906c21.113281 0 40.359375-9.070313 51.480469-24.261719 1.101562-1.5 3.03125-2.378906 5.054687-2.296875l219.410156 9.222656c7.773438.328125 15.171875-2.464843 20.796875-7.855469 5.621094-5.394531 8.71875-12.65625 8.71875-20.445312v-11.554688c0-7.792968-3.097656-15.054687-8.722656-20.445312-5.625-5.394531-12.988281-8.183594-20.792969-7.855469l-219.410156 9.222657c-2.042969.082031-3.953125-.796876-5.050781-2.296876-11.125-15.191406-30.371094-24.261718-51.480469-24.261718-6.6875 0-13.253906.914062-19.527344 2.71875-3.980469 1.148437-6.277343 5.300781-5.132812 9.28125 1.144531 3.984375 5.308593 6.28125 9.28125 5.132812 4.921875-1.414062 10.097656-2.132812 15.378906-2.132812 16.101563 0 31.191406 6.941406 39.375 18.121094 4.078125 5.570312 10.726563 8.71875 17.785156 8.421874l219.414063-9.222656c3.660156-.148437 7.136718 1.160156 9.78125 3.695313 2.644531 2.539062 4.105468 5.957031 4.105468 9.621093v11.550782c0 3.667968-1.457031 7.082031-4.105468 9.621094-2.644532 2.535156-6.109375 3.84375-9.785156 3.695312l-219.410157-9.222656c-7.0625-.285156-13.707031 2.851562-17.785156 8.421875-8.183594 11.179687-23.273437 18.125-39.375 18.125-25.132813 0-45.578125-16.335938-45.578125-36.417969 0-6.1875 1.992188-12.304688 5.769531-17.6875 2.375-3.390625 1.550781-8.070312-1.839843-10.445312-3.394532-2.375-8.070313-1.554688-10.445313 1.835937-5.550781 7.921875-8.484375 17.015625-8.484375 26.300781-.003906 28.351563 27.171875 51.414063 60.574219 51.414063zm-149.492188-49.90625 57.523438 43.902343c1.355469 1.035157 2.957031 1.539063 4.542969 1.539063 2.257812 0 4.492187-1.015625 5.96875-2.949219 2.511718-3.292968 1.878906-8-1.410157-10.515625l-57.519531-43.902343c-3.296875-2.511719-8-1.878907-10.515625 1.410156-2.511719 3.292968-1.882813 8 1.410156 10.515625zm27.117188 265.910156c0 16.320313 13.28125 29.601563 29.601562 29.601563 16.320313 0 29.601563-13.277344 29.601563-29.601563 0-16.320313-13.277344-29.601563-29.601563-29.601563-16.320312 0-29.601562 13.28125-29.601562 29.601563zm44.203125 0c0 8.050781-6.550782 14.601563-14.601563 14.601563s-14.601562-6.550782-14.601562-14.601563 6.550781-14.601563 14.601562-14.601563 14.601563 6.550782 14.601563 14.601563zm-12.925782-284.027344c1.210938 2.855469 3.984376 4.570313 6.902344 4.570313.980469 0 1.972656-.191406 2.929688-.601563 3.8125-1.617187 5.59375-6.019531 3.972656-9.832031l-17.867188-42.085938c-1.617187-3.8125-6.019531-5.589843-9.832031-3.972656-3.8125 1.621094-5.59375 6.023438-3.972656 9.835938zm217.070313 188.363281c-4.144531 0-7.5 3.355469-7.5 7.5v11.003907c0 4.144531 3.355469 7.5 7.5 7.5s7.5-3.355469 7.5-7.5v-11.003907c0-4.144531-3.355469-7.5-7.5-7.5zm-65.203125-3.707031c-15.535156 0-28.171875 13.742188-28.171875 30.632813s12.636719 30.632812 28.171875 30.632812 28.171875-13.742187 28.171875-30.632812-12.636719-30.632813-28.171875-30.632813zm0 46.261719c-7.261719 0-13.171875-7.011719-13.171875-15.628906 0-8.621094 5.910156-15.632813 13.171875-15.632813s13.171875 7.011719 13.171875 15.632813c0 8.617187-5.910156 15.628906-13.171875 15.628906zm-65.203125-42.554688c-4.144531 0-7.5 3.355469-7.5 7.5v11.003907c0 4.144531 3.355469 7.5 7.5 7.5s7.5-3.355469 7.5-7.5v-11.003907c0-4.144531-3.359375-7.5-7.5-7.5zm294.3125-18.984374c14.828125 0 26.890625-12.0625 26.890625-26.890626v-25.808593c0-14.828125-12.0625-26.894531-26.890625-26.894531h-458.21875c-14.828125.003906-26.890625 12.066406-26.890625 26.894531v25.808593c0 14.828126 12.0625 26.890626 26.890625 26.890626h10.976563v157.175781h-10.976563c-14.828125 0-26.890625 12.0625-26.890625 26.890625v25.808594c0 14.828124 12.0625 26.890624 26.890625 26.890624h417.300781c4.144532 0 7.5-3.355468 7.5-7.5 0-4.140624-3.355468-7.5-7.5-7.5h-417.300781c-6.554687 0-11.890625-5.332031-11.890625-11.890624v-25.808594c0-6.554688 5.335938-11.890625 11.890625-11.890625h458.21875c6.554687 0 11.890625 5.335937 11.890625 11.890625v25.808594c0 6.558593-5.335938 11.890624-11.890625 11.890624h-6.554687c-4.144532 0-7.5 3.359376-7.5 7.5 0 4.144532 3.355468 7.5 7.5 7.5h6.554687c14.828125 0 26.890625-12.0625 26.890625-26.890624v-25.808594c0-14.828125-12.0625-26.890625-26.890625-26.890625h-10.976563v-157.175781zm-254.296875 142.066406v15.109375h-177.945312v-93.867188l35.527343-33.421875c1.355469.390625 2.785157.613282 4.261719.613282h19.601562c1.480469 0 2.90625-.222657 4.261719-.613282l114.863281 108.070313c-.363281 1.3125-.570312 2.683593-.570312 4.109375zm-152.96875-122.847656-24.976562 23.496093v-42.714843h24.402343v15.109374c0 1.425782.207031 2.796876.574219 4.109376zm14.425781-4.109376v-15.109374h20.378907v15.109374c0 .214844-.175782.390626-.390626.390626h-19.601562c-.214844 0-.386719-.175782-.386719-.390626zm173.921875 142.066407h-20.378906v-15.109375c0-.214844.171875-.390625.386719-.390625h19.601562c.214844 0 .390625.175781.390625.390625zm-.390625-30.5h-19.601562c-1.480469 0-2.90625.222656-4.261719.617187l-114.863281-108.074218c.363281-1.3125.574219-2.683594.574219-4.109376v-15.109374h256.707031v15.109374c0 1.421876.207031 2.796876.574219 4.109376l-114.867188 108.074218c-1.355469-.394531-2.78125-.617187-4.261719-.617187zm193.332031 30.5h-177.941406v-15.109375c0-1.425782-.210937-2.796875-.574218-4.109375l114.863281-108.070313c1.355469.390625 2.78125.613282 4.261719.613282h19.601562c1.476562 0 2.90625-.222657 4.261719-.613282l35.527343 33.421875zm-59.78125-142.066407v-15.109374h20.378907v15.109374c0 .214844-.175781.390626-.390625.390626h-19.597656c-.214844 0-.390626-.175782-.390626-.390626zm59.78125 27.605469-24.976562-23.496093c.367188-1.308594.574219-2.683594.574219-4.109376v-15.109374h24.402343zm-432.242187-57.714843c-6.554687 0-11.890625-5.335938-11.890625-11.890626v-25.808593c0-6.558594 5.335938-11.894531 11.890625-11.894531h458.21875c6.554687 0 11.890625 5.335937 11.890625 11.894531v25.808593c0 6.554688-5.335938 11.890626-11.890625 11.890626zm0 0"/></svg>