<svg height="512pt" viewBox="0 0 512 512" width="512pt" xmlns="http://www.w3.org/2000/svg"><path d="m419.972656 68.910156c8.824219 0 17.648438-3.359375 24.367188-10.078125 6.507812-6.507812 10.09375-15.164062 10.09375-24.371093 0-9.203126-3.585938-17.855469-10.09375-24.367188-6.507813-6.507812-15.164063-10.09375-24.367188-10.09375-9.207031 0-17.859375 3.585938-24.371094 10.09375-6.507812 6.511719-10.09375 15.164062-10.09375 24.367188 0 9.207031 3.585938 17.863281 10.09375 24.371093 6.71875 6.71875 15.546876 10.078125 24.371094 10.078125zm-13.765625-48.210937c3.679688-3.675781 8.566407-5.699219 13.765625-5.699219 5.199219 0 10.085938 2.023438 13.761719 5.699219s5.703125 8.566406 5.703125 13.761719c0 5.199218-2.027344 10.089843-5.703125 13.765624-7.589844 7.589844-19.9375 7.585938-27.523437 0-3.675782-3.675781-5.703126-8.566406-5.703126-13.765624 0-5.195313 2.023438-10.085938 5.699219-13.761719zm105.789063 101.027343c-.09375-10.933593-4.484375-21.140624-12.355469-28.742187-2.957031-2.851563-6.3125-5.214844-9.976563-7.023437-3.714843-1.835938-8.210937-.3125-10.046874 3.402343-1.832032 3.714844-.308594 8.210938 3.40625 10.046875 2.273437 1.121094 4.355468 2.589844 6.195312 4.367188 4.957031 4.78125 7.71875 11.203125 7.78125 18.082031.058594 6.878906-2.585938 13.347656-7.449219 18.210937l-150.664062 150.664063c-15.707031 15.707031-34.152344 22.089844-54.824219 18.957031-18.285156-2.769531-37.074219-13.011718-52.90625-28.847656-15.835938-15.832031-26.078125-34.621094-28.847656-52.90625-3.128906-20.671875 3.25-39.117188 18.957031-54.824219l43.34375-43.339843c4.480469-4.484376 10.441406-6.953126 16.785156-6.953126 6.339844 0 12.300781 2.46875 16.785157 6.953126l18.839843 18.84375c10.941407 10.941406 23.761719 16.492187 38.101563 16.5h.03125c11.714844 0 24.535156-3.789063 38.101562-11.261719 3.117188-1.714844 6.191406-3.585938 9.222656-5.5625.105469-.066407.210938-.140625.316407-.210938 19.765625-12.957031 37.410156-30.59375 49.644531-42.835937l.660156-.660156c1.226563-1.226563 2.574219-2.332032 4.007813-3.292969 3.441406-2.304688 4.363281-6.964844 2.058593-10.40625-2.304687-3.441407-6.964843-4.363281-10.40625-2.058594-2.246093 1.503906-4.351562 3.238281-6.269531 5.152344l-.660156.660156c-10.742187 10.75-25.839844 25.835937-42.433594 37.597656l-85.242187-85.246093c-9.0625-9.058594-23.808594-9.0625-32.871094 0l-93.066406 93.066406c-24.453125 24.453125-35.894532 54.730468-33.078125 87.558594 1.683593 19.695312 8.632812 39.421874 20.078125 57.683593l-91.507813 91.503907-9.640625-9.640626c-3.753906-3.75-7.984375-6.988281-12.582031-9.617187-3.59375-2.058594-8.175781-.8125-10.234375 2.785156-2.054688 3.59375-.808594 8.175781 2.785156 10.234375 3.441406 1.96875 6.613282 4.394532 9.425782 7.203125l70.765624 70.769531c12.074219 12.070313 16.222657 29.632813 10.824219 45.832032-.609375 1.828125-2.128906 2.367187-2.753906 2.515625-.625.148437-2.226563.34375-3.589844-1.019531l-122.574219-122.574219c-1.367187-1.363281-1.167968-2.964844-1.023437-3.589844.148437-.625.691406-2.144531 2.519531-2.753906 1.839844-.613281 3.734375-1.109375 5.632813-1.480469 4.066406-.789062 6.722656-4.722656 5.933593-8.789062-.789062-4.066407-4.726562-6.722657-8.789062-5.933594-2.539062.492187-5.070312 1.15625-7.519531 1.972656-6.238281 2.078125-10.863281 7.136719-12.375 13.535156-1.507813 6.398438.363281 12.996094 5.011719 17.644532l122.578124 122.578124c3.589844 3.589844 8.335938 5.523438 13.261719 5.523438 1.453125 0 2.921875-.167969 4.378907-.511719 6.398437-1.511719 11.460937-6.136719 13.539062-12.375 7.203125-21.621093 1.667969-45.066406-14.449219-61.183593l-9.640625-9.640626 91.507813-91.503906c18.257812 11.441406 37.988281 18.390625 57.679687 20.078125 3.253906.28125 6.484375.421875 9.683594.421875 29.089844 0 55.847656-11.46875 77.875-33.496094l93.070312-93.070312c9.0625-9.0625 9.0625-23.804688 0-32.867188l-6.011718-6.011718 41.160156-41.164063c7.734375-7.734375 11.9375-18.015625 11.839844-28.949219zm-387.410156 295.957032-30.273438-30.269532 89.617188-89.617187c4.296874 5.566406 9.023437 10.953125 14.171874 16.101563 5.148438 5.148437 10.535157 9.875 16.101563 14.171874zm329.816406-197.574219-93.070313 93.070313c-21.226562 21.226562-47.394531 31.164062-75.671875 28.738281-27.027344-2.3125-54.355468-16.03125-76.953125-38.628907-22.59375-22.59375-36.3125-49.921874-38.628906-76.949218-2.421875-28.28125 7.515625-54.449219 28.742187-75.671875l93.066407-93.070313c3.214843-3.210937 8.441406-3.214844 11.65625 0l82.882812 82.882813c-.136719.078125-.273437.160156-.40625.234375-24.164062 13.3125-43.265625 12.425781-58.394531-2.707032l-18.839844-18.839843c-7.320312-7.316407-17.046875-11.347657-27.394531-11.347657s-20.074219 4.027344-27.390625 11.347657l-43.339844 43.335937c-18.992187 18.996094-27.007812 42.398438-23.183594 67.675782 3.242188 21.429687 14.988282 43.1875 33.070313 61.273437 18.082031 18.082031 39.84375 29.824219 61.269531 33.066406 4.109375.625 8.167969.933594 12.167969.933594 20.601563 0 39.601563-8.207031 55.507813-24.113281l98.894531-98.894532 6.011719 6.011719c1.558593 1.558594 2.414062 3.625 2.414062 5.828125 0 2.199219-.855469 4.269532-2.410156 5.824219zm-189.753906-50.175781c-2.929688-2.925782-7.675782-2.929688-10.609376.003906l-6.53125 6.53125c-2.929687 2.929688-2.929687 7.679688 0 10.605469 1.464844 1.464843 3.382813 2.199219 5.304688 2.199219 1.917969 0 3.835938-.734376 5.300781-2.199219l6.535157-6.535157c2.929687-2.925781 2.929687-7.675781 0-10.605468zm19.769531 81.464844c.492187 0 .988281-.015626 1.488281-.042969 6.757812-.378907 13.214844-3.328125 18.1875-8.300781 10.5-10.496094 11.152344-26.921876 1.460938-36.613282-9.691407-9.6875-26.113282-9.03125-36.609376 1.460938-4.972656 4.976562-7.921874 11.433594-8.300781 18.191406-.398437 7.070312 2.03125 13.613281 6.839844 18.421875 4.46875 4.46875 10.433594 6.882813 16.933594 6.882813zm-8.796875-24.464844c.171875-3.066406 1.566406-6.058594 3.929687-8.421875 2.613281-2.613281 5.9375-3.964844 9.035157-3.964844 2.410156 0 4.679687.820313 6.363281 2.503906 3.84375 3.84375 3.1875 10.75-1.460938 15.398438-2.363281 2.363281-5.351562 3.757812-8.421875 3.929687-2.753906.164063-5.226562-.722656-6.976562-2.472656-1.746094-1.746094-2.625-4.222656-2.46875-6.972656zm55.835937 20.417968-6.53125 6.535157c-2.929687 2.929687-2.929687 7.679687 0 10.605469 1.464844 1.464843 3.382813 2.195312 5.300781 2.195312 1.921876 0 3.839844-.730469 5.304688-2.195312l6.535156-6.535157c2.929688-2.929687 2.929688-7.675781 0-10.605469-2.929687-2.925781-7.679687-2.929687-10.609375 0zm0 0"/></svg>