<svg height="512pt" viewBox="0 -33 512.001 512" width="512pt" xmlns="http://www.w3.org/2000/svg"><path d="m319.785156 131.566406c-4.144531 0-7.5 3.355469-7.5 7.5v10.585938c0 4.144531 3.355469 7.5 7.5 7.5 4.140625 0 7.5-3.355469 7.5-7.5v-10.585938c0-4.144531-3.359375-7.5-7.5-7.5zm70.15625 27.441406-12.15625 12.15625c-2.925781 2.929688-2.925781 7.675782 0 10.605469 1.464844 1.464844 3.386719 2.195313 5.304688 2.195313 1.921875 0 3.839844-.730469 5.304687-2.195313l12.152344-12.152343c2.929687-2.929688 2.929687-7.679688 0-10.609376-2.929687-2.925781-7.679687-2.925781-10.605469 0zm49.425782-46.519531c-2.929688-2.929687-7.679688-2.929687-10.605469 0-2.929688 2.929688-2.929688 7.675781 0 10.605469l12.152343 12.152344c1.464844 1.464844 3.382813 2.199218 5.300782 2.199218 1.921875 0 3.839844-.734374 5.304687-2.199218 2.929688-2.929688 2.929688-7.675782 0-10.605469zm-161.625 31.980469c-3.121094-2.722656-7.859376-2.398438-10.578126.726562-2.820312 3.234376-6.886718 5.089844-11.164062 5.089844-4.273438 0-8.34375-1.855468-11.164062-5.089844-2.722657-3.125-7.457032-3.449218-10.578126-.726562-3.125 2.722656-3.449218 7.457031-.726562 10.582031 5.667969 6.503907 13.855469 10.230469 22.46875 10.230469s16.800781-3.726562 22.46875-10.230469c2.722656-3.125 2.398438-7.859375-.726562-10.582031zm-220.472657-25.359375-12.152343 12.152344c-2.929688 2.929687-2.929688 7.679687 0 10.609375 1.460937 1.460937 3.382812 2.195312 5.300781 2.195312 1.921875 0 3.839843-.734375 5.304687-2.195312l12.152344-12.15625c2.929688-2.929688 2.929688-7.675782 0-10.605469-2.929688-2.925781-7.675781-2.925781-10.605469 0zm54.03125 27.785156c-2.929687-2.929687-7.679687-2.929687-10.605469 0-2.929687 2.929688-2.929687 7.679688 0 10.605469l12.152344 12.15625c1.464844 1.460938 3.382813 2.195312 5.300782 2.195312 1.921874 0 3.839843-.734374 5.304687-2.195312 2.929687-2.933594 2.929687-7.679688 0-10.609375zm80.914063-15.328125c-4.140625 0-7.5 3.355469-7.5 7.5v10.585938c0 4.144531 3.359375 7.5 7.5 7.5 4.144531 0 7.5-3.355469 7.5-7.5v-10.585938c0-4.144531-3.355469-7.5-7.5-7.5zm9.542968-54.710937 12.152344-12.15625c2.929688-2.929688 2.929688-7.675781 0-10.605469-2.929687-2.929688-7.679687-2.929688-10.609375 0l-12.152343 12.152344c-2.929688 2.929687-2.929688 7.679687 0 10.609375 1.464843 1.460937 3.382812 2.195312 5.304687 2.195312 1.917969 0 3.835937-.734375 5.304687-2.195312zm111.59375-.363281c1.917969 0 3.839844-.734376 5.304688-2.199219 2.929688-2.929688 2.929688-7.675781 0-10.605469l-12.152344-12.152344c-2.929687-2.929687-7.679687-2.929687-10.609375 0-2.929687 2.929688-2.929687 7.675782 0 10.605469l12.152344 12.152344c1.464844 1.464843 3.386719 2.199219 5.304687 2.199219zm180.402344 9.863281c-4.441406-3.765625-9.417968-6.703125-14.714844-8.761719 1.109376-4.4375 1.566407-9.039062 1.328126-13.617188l-1.0625-20.269531c-.710938-13.550781-7.308594-26.042969-18.101563-34.265625-10.792969-8.226562-24.582031-11.273437-37.839844-8.363281-105.039062 23.0625-212.609375 29.835937-319.71875 20.136719-4.117187-.367188-7.773437 2.667968-8.144531 6.792968-.375 4.125 2.667969 7.773438 6.792969 8.148438 108.640625 9.835938 217.746093 2.964844 324.289062-20.425781 8.945313-1.964844 18.25.09375 25.53125 5.640625 7.28125 5.550781 11.734375 13.976562 12.210938 23.121094l1.0625 20.269531c.167969 3.199219-.167969 6.410156-.976563 9.5-4.132812-.324219-8.328125-.171875-12.507812.519531-129.992188 21.476562-261.8125 21.476562-391.804688 0-4.765625-.789062-9.554687-.894531-14.246094-.367188l-.417968-7.96875c-.789063-15.027343 9.253906-28.453124 23.878906-31.917968 4.027344-.957032 6.523438-4.996094 5.566406-9.027344-.957031-4.03125-4.996094-6.523438-9.027344-5.570312-21.675781 5.140624-36.5625 25.03125-35.398437 47.300781l.585937 11.167969c-4.578124 1.996093-8.894531 4.652343-12.796874 7.960937-11.59375 9.832031-18.242188 24.195313-18.242188 39.398437v23.21875c0 25.402344 18.1875 46.84375 43.25 50.980469 70.585938 11.664063 141.667969 17.496094 212.75 17.496094 26.335938 0 52.667969-.804687 78.976562-2.40625v152.710937c0 14.191407 10.898438 25.878907 24.761719 27.148438v42.726562c0 4.144532 3.359375 7.5 7.5 7.5 4.144531 0 7.5-3.355468 7.5-7.5v-42.605468h17.507813v42.605468c0 4.140626 3.359375 7.5 7.5 7.5s7.5-3.359374 7.5-7.5v-42.605468h17.507812v42.605468c0 4.140626 3.355469 7.5 7.5 7.5 4.140625 0 7.5-3.359374 7.5-7.5v-42.726562c13.863282-1.269531 24.761719-12.957031 24.761719-27.148438v-47.507812c0-4.140625-3.359375-7.5-7.5-7.5-4.144531 0-7.5 3.359375-7.5 7.5v47.507812c0 6.765626-5.503906 12.269532-12.269531 12.269532h-75c-6.761719 0-12.265625-5.503906-12.265625-12.269532v-153.710937c33.242187-2.40625 66.4375-6.105469 99.535156-11.074219v82.34375c0 4.140625 3.355469 7.5 7.5 7.5 4.140625 0 7.5-3.359375 7.5-7.5v-84.679687c1.410156-.230469 2.824219-.445313 4.238281-.679688 25.058594-4.136719 43.246094-25.578125 43.246094-50.976562v-23.21875c0-15.207031-6.648438-29.570313-18.246094-39.40625zm3.246094 62.621093c0 18.027344-12.910156 33.242188-30.695312 36.183594-41.113282 6.792969-82.398438 11.570313-123.753907 14.359375-.023437 0-.046875-.003906-.070312-.003906-.34375 0-.679688.03125-1.011719.074219-98.652344 6.574218-197.699219 1.773437-295.773438-14.429688-17.785156-2.941406-30.695312-18.15625-30.695312-36.183594v-23.21875c0-10.789062 4.71875-20.980468 12.949219-27.964843 6.683593-5.667969 15.078125-8.710938 23.699219-8.710938 1.996093 0 4.003906.164063 6.003906.496094 131.613281 21.746094 265.082031 21.746094 396.695312 0 10.648438-1.757813 21.472656 1.234375 29.703125 8.214844s12.949219 17.175781 12.949219 27.964843zm-378.851562-66.410156c1.921874 0 3.839843-.730468 5.304687-2.195312 2.929687-2.929688 2.929687-7.675782 0-10.605469l-12.152344-12.15625c-2.929687-2.925781-7.679687-2.925781-10.605469 0-2.929687 2.929687-2.929687 7.679687 0 10.609375l12.152344 12.152344c1.464844 1.464844 3.382813 2.195312 5.300782 2.195312zm267.171874-8.273437 12.15625-12.152344c2.925782-2.929687 2.925782-7.675781 0-10.605469-2.929687-2.929687-7.679687-2.929687-10.609374 0l-12.152344 12.152344c-2.929688 2.929688-2.929688 7.679688 0 10.605469 1.464844 1.464843 3.382812 2.199219 5.304687 2.199219 1.917969 0 3.839844-.734376 5.300781-2.199219zm28.699219 278.429687c1.921875 0 3.839844-.734375 5.304688-2.195312l12.152343-12.152344c2.929688-2.929688 2.929688-7.679688 0-10.609375-2.929687-2.925781-7.675781-2.925781-10.605468 0l-12.152344 12.152344c-2.929688 2.929687-2.929688 7.679687 0 10.609375 1.464844 1.460937 3.382812 2.195312 5.300781 2.195312zm-4.785156-99.378906c1.917969 0 3.835937-.730469 5.300781-2.195312 2.929688-2.929688 2.929688-7.675782 0-10.605469l-12.152344-12.152344c-2.929687-2.929687-7.679687-2.929687-10.605468 0-2.929688 2.929687-2.929688 7.675781 0 10.605469l12.152344 12.152344c1.464843 1.464843 3.382812 2.195312 5.304687 2.195312zm-27.269531 28.902344-12.152344 12.152344c-2.929688 2.929687-2.929688 7.679687 0 10.609374 1.464844 1.460938 3.382812 2.195313 5.300781 2.195313 1.921875 0 3.839844-.734375 5.304688-2.195313l12.152343-12.152343c2.929688-2.933594 2.929688-7.679688 0-10.609375-2.925781-2.925782-7.675781-2.925782-10.605468 0zm0 0"/></svg>