<svg height="512pt" viewBox="0 -28 512.00121 512" width="512pt" xmlns="http://www.w3.org/2000/svg"><path d="m122.757812 207.9375c3.539063 0 6.6875-2.515625 7.367188-6.117188.761719-4.074218-1.917969-7.996093-5.992188-8.757812l-40.496093-7.597656c-4.070313-.765625-7.992188 1.917968-8.753907 5.992187-.765624 4.070313 1.917969 7.992188 5.988282 8.753907l40.496094 7.597656c.464843.089844.929687.128906 1.390624.128906zm305.605469-22.472656-40.492187 7.597656c-4.074219.761719-6.753906 4.683594-5.992188 8.757812.675782 3.605469 3.828125 6.117188 7.367188 6.117188.457031 0 .925781-.039062 1.390625-.128906l40.496093-7.597656c4.070313-.761719 6.753907-4.683594 5.988282-8.753907-.761719-4.074219-4.691406-6.757812-8.757813-5.992187zm70.542969 49.386718-7.496094-9.8125c-1.472656-1.929687-1.472656-4.621093 0-6.550781l7.496094-9.8125c20.296875-26.574219 16.617188-64.789062-8.378906-87-2.859375-2.542969-5.964844-4.675781-9.238282-6.410156-8.277343-21.953125-28.175781-37.917969-51.578124-41.054687l-12.238282-1.636719c-2.402344-.324219-4.308594-2.226563-4.628906-4.632813l-1.640625-12.238281c-4.441406-33.140625-34.042969-57.554687-67.445313-55.59375-19.019531 1.121094-35.261718 13.507813-41.382812 31.550781l-45.289062 133.535156c-.722657-.003906-1.445313-.003906-2.167969 0l-45.289063-133.535156c-6.121094-18.042968-22.367187-30.425781-41.386718-31.546875-14.949219-.882812-29.804688 3.519531-41.851563 12.386719-3.335937 2.457031-4.050781 7.152344-1.59375 10.492188 2.457031 3.335937 7.15625 4.050781 10.492187 1.589843 9.226563-6.792969 20.621094-10.167969 32.070313-9.488281 12.894531.761719 23.90625 9.152344 28.058594 21.386719l43.9375 129.550781c-10.15625 1.027344-20.257813 3.003906-30.210938 5.914062l-46.988281-46.984374c-2.929688-2.929688-7.679688-2.929688-10.609375 0-2.929687 2.933593-2.929687 7.683593 0 10.613281l35.316406 35.3125-113.816406-56.164063c-7.238281-3.570312-15.039063-5.132812-22.714844-4.792968 7.78125-11.222657 20.0625-18.984376 33.949219-20.84375l12.242188-1.636719c9.09375-1.222657 16.292968-8.421875 17.507812-17.511719l1.640625-12.238281c.390625-2.902344 1.035156-5.777344 1.921875-8.546875 1.265625-3.945313-.910156-8.167969-4.855469-9.433594-3.945312-1.265625-8.167969.90625-9.433593 4.855469-1.15625 3.605469-2 7.355469-2.507813 11.132812l-1.636719 12.238281c-.324218 2.402344-2.226562 4.308594-4.628906 4.628907l-12.242188 1.640625c-23.398437 3.132812-43.300781 19.097656-51.578124 41.054687-3.269532 1.730469-6.375 3.867188-9.238282 6.40625-24.992187 22.214844-28.675781 60.429688-8.378906 87.003907l7.496094 9.8125c1.472656 1.925781 1.472656 4.621093 0 6.546874l-7.496094 9.8125c-20.296875 26.574219-16.613281 64.789063 8.378906 87.003907 8.746094 7.769531 19.753906 11.800781 30.90625 11.800781 7.003906-.003906 14.074219-1.59375 20.664063-4.847656l120.414062-59.421875c-36.871093 61.390625-82.058593 81.496093-95.578125 86.339843-8.53125 3.058594-15.152344 9.757813-18.167968 18.386719-3 8.601563-1.996094 17.929688 2.757812 25.59375 15.109375 24.371094 41.207031 44.792969 69.808594 54.632813 4.175781 1.4375 8.476562 2.128906 12.734375 2.128906 11.707031 0 23.09375-5.238281 30.648437-14.699219 22.507813-28.195312 43.199219-77.414062 60.339844-143.226562 17.140625 65.808593 37.832031 115.03125 60.339844 143.222656 7.550781 9.464844 18.941406 14.703125 30.648437 14.703125 4.257813 0 8.558594-.691406 12.730469-2.128906 21.414062-7.363282 41.699219-20.820313 57.125-37.894532 2.777344-3.074218 2.539062-7.816406-.535156-10.597656-3.074219-2.777344-7.820313-2.535156-10.597656.539063-13.753907 15.21875-31.820313 27.210937-50.871094 33.761719-9.664063 3.324218-20.421875.210937-26.773438-7.742188-16.214844-20.3125-39.871094-63.511719-61.746094-154.390625 3.949219-.246094 7.894532-.636719 11.828126-1.167969 10.980468 31.941406 24.066406 57.957032 42.003906 83.621094 1.460937 2.085938 3.789062 3.203125 6.15625 3.203125 1.484375 0 2.984375-.4375 4.292968-1.351563 3.394532-2.375 4.226563-7.054687 1.851563-10.449218-16.695313-23.886719-29-48.160156-39.355469-77.742188 3.148438-.722656 6.289063-1.535156 9.410156-2.441406 8.1875 14.246094 20.898438 33.378906 38.625 51.929688 21.125 22.101562 43.976563 37.65625 67.925782 46.238281 5.328125 1.90625 9.085937 6.644531 9.804687 12.363281.472657 3.792969 3.707031 6.570312 7.433594 6.570312.3125 0 .625-.023437.941406-.0625 4.113281-.515624 7.027344-4.265624 6.511719-8.378906-1.425781-11.359375-8.945312-20.792968-19.632812-24.621094-47.96875-17.183593-80.859376-62.394531-95.472657-86.289062l120.308594 59.371094c6.597656 3.253906 13.660156 4.84375 20.667969 4.84375 11.152344 0 22.160156-4.027344 30.90625-11.800782 24.996094-22.210937 28.675781-60.425781 8.378906-87zm-432.5 80.5c-11.585938 5.714844-25.308594 3.863282-34.964844-4.714843-19.15625-17.023438-21.976562-46.3125-6.421875-66.675781l7.496094-9.8125c5.570313-7.292969 5.570313-17.476563 0-24.765626l-7.496094-9.816406c-15.554687-20.363281-12.734375-49.652344 6.421875-66.671875 9.65625-8.582031 23.378906-10.429687 34.964844-4.714843l119.375 58.90625c-4.078125 5.855468-6.40625 12.9375-6.40625 20.460937v12.351563l-75.691406 18.371093c-4.027344.980469-6.5 5.035157-5.523438 9.0625.835938 3.433594 3.90625 5.734375 7.289063 5.734375.582031 0 1.179687-.070312 1.773437-.214844l72.148438-17.511718v.640625c0 7.523437 2.332031 14.605469 6.410156 20.460937zm117.527344 117.054688c-6.351563 7.953125-17.109375 11.066406-26.773438 7.742188-29.949218-10.300782-51.632812-31.730469-61.9375-48.347657-2.355468-3.796875-2.84375-8.441406-1.339844-12.742187 1.511719-4.328125 4.8125-7.683594 9.0625-9.207032 23.945313-8.578124 46.800782-24.132812 67.921876-46.238281 17.726562-18.546875 30.441406-37.679687 38.625-51.925781 3.125.90625 6.261718 1.71875 9.414062 2.441406-10.359375 29.582032-22.660156 53.855469-39.359375 77.742188-2.371094 3.394531-1.542969 8.074218 1.851563 10.445312 1.308593.914063 2.808593 1.355469 4.292968 1.355469 2.367188 0 4.695313-1.117187 6.15625-3.203125 17.9375-25.664062 31.023438-51.679688 42.003906-83.621094 3.9375.53125 7.882813.921875 11.832032 1.167969-21.878906 90.878906-45.535156 134.078125-61.75 154.390625zm133.691406-196.425781c0 6.640625-3.128906 12.691406-8.195312 16.542969-.117188.082031-.222657.171874-.335938.261718-1.621094 1.179688-3.4375 2.128906-5.402344 2.816406-.027344.011719-.054687.019532-.082031.027344-.132813.046875-.265625.097656-.417969.15625-6.816406 2.222656-13.722656 3.953125-20.675781 5.195313-.339844.03125-.679687.089843-1.023437.171875-7.898438 1.355468-15.855469 2.078125-23.816407 2.167968-.550781-.058593-1.109375-.058593-1.675781.007813-.5625-.066406-1.117188-.0625-1.660156-.007813-7.96875-.089843-15.929688-.8125-23.832032-2.167968-.335937-.078125-.671874-.136719-1.007812-.167969-6.953125-1.242187-13.859375-2.972656-20.679688-5.195313-.140624-.054687-.28125-.109374-.425781-.160156-.027343-.007812-.058593-.015625-.085937-.023437-1.960938-.6875-3.777344-1.636719-5.394532-2.816407-.113281-.089843-.226562-.183593-.34375-.265624-5.066406-3.851563-8.191406-9.898438-8.191406-16.539063v-28.433594c0-6.640625 3.125-12.6875 8.191406-16.539062.121094-.085938.230469-.179688.347657-.269531 1.730469-1.261719 3.679687-2.273438 5.800781-2.964844 13.285156-4.339844 26.894531-6.808594 40.546875-7.421875.113281.003906.222656.023437.332031.023437.328125 0 .660156-.035156.992188-.078125 1.800781-.066406 3.609375-.105469 5.414062-.105469 1.804688 0 3.609375.039063 5.414063.105469.328125.042969.660156.078125.988281.078125.113281 0 .222656-.019531.332031-.023437 13.65625.609375 27.265625 3.082031 40.546875 7.417969 2.125.695312 4.074219 1.707031 5.808594 2.96875.113281.089843.222656.183593.34375.265624 5.0625 3.855469 8.191406 9.902344 8.191406 16.542969v28.429688zm42.832031-111.019531c-2.933593-2.929688-7.683593-2.929688-10.613281 0l-46.984375 46.984374c-9.953125-2.914062-20.054687-4.886718-30.210937-5.914062l43.9375-129.550781c4.148437-12.234375 15.160156-20.625 28.058593-21.386719 25.570313-1.523438 48.285157 17.203125 51.6875 42.605469l1.636719 12.238281c1.21875 9.089844 8.417969 16.292969 17.511719 17.511719l12.238281 1.636719c13.890625 1.859374 26.167969 9.621093 33.953125 20.84375-7.675781-.339844-15.476563 1.222656-22.714844 4.792968l-113.816406 56.164063 35.316406-35.3125c2.925781-2.929688 2.925781-7.683594 0-10.613281zm120.105469 185.675781c-9.65625 8.578125-23.382812 10.429687-34.964844 4.714843l-119.375-58.910156c4.074219-5.855468 6.40625-12.9375 6.40625-20.460937v-.640625l72.152344 17.511718c.59375.148438 1.1875.214844 1.773438.214844 3.382812 0 6.453124-2.300781 7.285156-5.734375.976562-4.023437-1.496094-8.082031-5.519532-9.058593l-75.691406-18.375v-12.351563c0-7.519531-2.332031-14.601563-6.40625-20.460937l119.375-58.90625c8.457032-4.171876 18.050782-4.296876 26.375-.726563.238282.117187.488282.21875.738282.3125 2.804687 1.285156 5.449218 3 7.847656 5.128906 19.15625 17.023438 21.976562 46.3125 6.421875 66.675781l-7.492188 9.8125c-5.570312 7.292969-5.570312 17.476563 0 24.765626l7.492188 9.8125c15.554687 20.363281 12.734375 49.652343-6.417969 66.675781zm0 0"/></svg>