<svg height="512pt" viewBox="0 -93 512 512" width="512pt" xmlns="http://www.w3.org/2000/svg"><path d="m507.441406 152.898438-12.082031-12.085938c3.332031-6.671875 2.230469-15.011719-3.324219-20.566406l-94.761718-94.761719c-16.4375-16.433594-38.285157-25.484375-61.527344-25.484375h-159.492188c-23.242187 0-45.09375 9.050781-61.527344 25.484375l-8.273437 8.273437c-2.929687 2.929688-2.929687 7.679688 0 10.609376 2.929687 2.925781 7.675781 2.925781 10.605469 0l8.277344-8.277344c13.601562-13.601563 31.683593-21.089844 50.917968-21.089844h12.601563c3.746093 33.742188 32.421875 60.070312 67.144531 60.070312s63.402344-26.328124 67.144531-60.070312h12.605469c19.230469 0 37.316406 7.488281 50.914062 21.089844l94.761719 94.761718c1.101563 1.101563 1.101563 2.890626 0 3.988282l-43.414062 43.417968c-1.101563 1.101563-2.890625 1.101563-3.992188 0l-60.03125-60.035156c-2.144531-2.144531-5.375-2.789062-8.175781-1.625-2.804688 1.160156-4.628906 3.898438-4.628906 6.929688v106.699218c0 4.144532 3.355468 7.5 7.5 7.5 4.140625 0 7.5-3.355468 7.5-7.5v-88.59375l47.230468 47.234376c5.558594 5.554687 13.894532 6.652343 20.566407 3.324218l12.085937 12.082032c3.035156 3.039062 7.027344 4.558593 11.019532 4.558593 3.992187 0 7.984374-1.519531 11.023437-4.558593l29.332031-29.332032c6.078125-6.078125 6.078125-15.964844 0-22.042968zm-223.109375-137.898438c-3.324219 12.539062-14.765625 21.808594-28.332031 21.808594-13.570312 0-25.007812-9.269532-28.332031-21.808594zm-28.332031 45.070312c-26.441406 0-48.375-19.625-52.027344-45.070312h8.367188c3.574218 20.871094 21.785156 36.808594 43.660156 36.808594s40.085938-15.9375 43.660156-36.808594h8.367188c-3.652344 25.445312-25.585938 45.070312-52.027344 45.070312zm240.835938 104.261719-29.335938 29.335938c-.226562.230469-.601562.230469-.828125 0l-11.425781-11.429688 30.160156-30.160156 11.429688 11.425781c.226562.230469.226562.601563 0 .828125zm-290.167969 34.292969c1.675781 4.496094 5.234375 7.988281 9.765625 9.574219 5.753906 2.015625 11.644531 3.550781 17.601562 4.65625v22.46875c0 8.519531 6.929688 15.445312 15.445313 15.445312h13.042969c8.515624 0 15.445312-6.929687 15.445312-15.445312v-22.46875c5.957031-1.105469 11.847656-2.640625 17.597656-4.65625 4.53125-1.585938 8.089844-5.074219 9.765625-9.574219 1.679688-4.5 1.269531-9.46875-1.121093-13.632812l-5.339844-9.304688c2.050781-1.726562 3.660156-3.953125 4.621094-6.535156 1.640624-4.398438 1.238281-9.25-1.097657-13.316406l-23.25-40.503907c-4.816406-8.386719-13.46875-13.398437-23.144531-13.398437-9.671875 0-18.324219 5.011718-23.140625 13.398437v.003907l-23.25 40.5c-2.335937 4.066406-2.734375 8.917968-1.101563 13.3125.960938 2.585937 2.574219 4.8125 4.625 6.539062l-5.339843 9.300781c-2.390625 4.167969-2.800781 9.136719-1.125 13.636719zm56.296875 36.699219c0 .246093-.199219.445312-.441406.445312h-13.046876c-.242187 0-.441406-.199219-.441406-.445312v-20.648438c2.316406.132813 4.640625.222657 6.964844.222657s4.648438-.089844 6.96875-.226563v20.652344zm-40.347656-72.019531 23.25-40.503907c2.109374-3.671875 5.898437-5.863281 10.132812-5.863281s8.023438 2.191406 10.132812 5.863281l23.25 40.503907c.042969.074218.171876.296874.050782.613281-.117188.316406-.359375.402343-.4375.429687-.976563.34375-1.957032.652344-2.941406.960938-.023438.007812-.050782.015625-.078126.027344-19.453124 6.113281-40.5 6.113281-59.953124-.003907-.023438-.007812-.046876-.011719-.070313-.019531-.984375-.3125-1.96875-.621094-2.945313-.964844-.082031-.027344-.320312-.109375-.441406-.429687-.117187-.316407.007813-.539063.050782-.613281zm-1.816407 29.15625 6.414063-11.175782c9.417968 2.429688 19.101562 3.648438 28.785156 3.648438 9.679688 0 19.363281-1.21875 28.785156-3.648438l6.414063 11.171875c.167969.296875.195312.613281.074219.933594-.117188.320313-.34375.539063-.664063.652344-22.320313 7.816406-46.902344 7.816406-69.21875 0-.324219-.113281-.546875-.332031-.667969-.652344-.117187-.320313-.09375-.636719.078125-.929687zm147.882813 64.589843c-4.144532 0-7.503906 3.359375-7.503906 7.5v7.511719h-210.359376v-148.535156c0-3.03125-1.828124-5.769532-4.632812-6.929688-2.800781-1.164062-6.027344-.515625-8.171875 1.625l-60.035156 60.035156c-1.101563 1.101563-2.890625 1.101563-3.988281 0l-43.417969-43.417968c-1.101563-1.097656-1.101563-2.890625 0-3.988282l61.671875-61.671874c2.929687-2.933594 2.929687-7.679688 0-10.609376-2.929688-2.925781-7.675782-2.925781-10.605469 0l-61.675781 61.675782c-5.554688 5.554687-6.65625 13.894531-3.324219 20.566406l-12.082031 12.085938c-6.078125 6.078124-6.078125 15.964843 0 22.042968l29.335937 29.335938c3.035157 3.035156 7.027344 4.554687 11.019531 4.554687 3.992188 0 7.984376-1.519531 11.023438-4.554687l12.082031-12.085938c6.671875 3.332032 15.011719 2.230469 20.570313-3.324218l47.230468-47.230469v158.472656c0 14.753906 12.003907 26.761719 26.757813 26.761719h186.847656c14.753907 0 26.757813-12.007813 26.757813-26.761719v-35.558594c0-4.140625-3.359375-7.5-7.5-7.5zm-323.355469-63.382812c-.226563.230469-.601563.230469-.828125 0l-29.335938-29.335938c-.226562-.226562-.226562-.597656 0-.828125l11.429688-11.425781 30.164062 30.160156zm143.101563 118.199219h-25.851563c-6.484375 0-11.761719-5.273438-11.761719-11.757813v-13.050781h37.609375v24.808594zm60.070312 0h-45.070312v-24.808594h45.070312zm60.070312 0h-45.070312v-24.808594h45.070312zm52.609376-11.757813c0 6.484375-5.273438 11.757813-11.757813 11.757813h-25.851563v-24.804688h37.609376zm0 0"/></svg>