<svg height="512pt" viewBox="0 0 512 512.00214" width="512pt" xmlns="http://www.w3.org/2000/svg"><path d="m275.566406 344.144531c-11.621094 0-21.074218 9.453125-21.074218 21.078125 0 11.621094 9.453124 21.074219 21.074218 21.074219 11.625 0 21.078125-9.453125 21.078125-21.074219 0-11.625-9.453125-21.078125-21.078125-21.078125zm0 27.152344c-3.351562 0-6.074218-2.726563-6.074218-6.074219 0-3.351562 2.726562-6.078125 6.074218-6.078125 3.351563 0 6.078125 2.726563 6.078125 6.078125 0 3.351563-2.726562 6.074219-6.078125 6.074219zm232.832032 104.699219c-10.519532-21.03125-31.5-35.390625-54.882813-37.621094-1.824219-6.570312-6.097656-12.320312-11.949219-16.679688v-29.90625c0-8.507812-3.6875-16.167968-9.546875-21.472656 5.859375-5.308594 9.546875-12.96875 9.546875-21.476562v-32.300782c0-8.507812-3.6875-16.171874-9.546875-21.476562 5.859375-5.304688 9.546875-12.96875 9.546875-21.476562v-32.300782c0-1.148437-.074218-2.28125-.207031-3.40625 6.664063 1.730469 13.605469.351563 19.105469-3.832031 5.601562-4.257813 8.8125-10.734375 8.8125-17.769531v-30.855469c0-11.929687-8.027344-22.488281-19.523438-25.679687l-35.636718-9.890626v-13.691406c8.972656-3.199218 15.417968-11.773437 15.417968-21.832031v-43.253906c0-8.765625-5.808594-16.195313-13.777344-18.652344-.015624-.066406-.027343-.132813-.046874-.195313 8.742187-4.910156 14.277343-14.273437 14.257812-24.390624-.03125-14.707032-11.539062-26.910157-26.203125-27.7851568-12.601563-.7578122-23.867187 6.8124998-27.980469 18.5624998-3.621094-.359375-7.285156-.289062-10.917968.210938-18.101563 2.492187-32.921876 15.605469-37.945313 32.816406-10 .832031-17.890625 9.222656-17.890625 19.433594v15.042969c0 9.355468 6.621094 17.1875 15.417969 19.074218v19.769532l-38.96875-10.820313c-19.289063-5.355469-39.679688-5.355469-58.960938 0l-116.574219 32.363281c-3.992187 1.105469-6.328124 5.242188-5.222656 9.230469 1.109375 3.992187 5.242188 6.332031 9.234375 5.222656l116.574219-32.363281c16.65625-4.625 34.269531-4.625 50.9375 0l164.273438 45.605469c5.023437 1.394531 8.535156 6.011719 8.535156 11.226562v30.855469c0 2.308594-1.054688 4.429688-2.890625 5.828125-1.835938 1.394531-4.167969 1.839844-6.390625 1.226563l-174.195313-48.359376c-9.6875-2.691406-19.925781-2.691406-29.601562 0l-79.695313 22.125c-8.898437 2.46875-15.109375 10.640626-15.109375 19.871094v24.183594c0 9.089844-7.398437 16.488281-16.488281 16.488281s-16.484375-7.398437-16.484375-16.488281v-12.789062c0-4.292969-1.960937-8.246094-5.378906-10.84375-3.417969-2.601563-7.753907-3.433594-11.886719-2.28125l-29.15625 8.09375c-2.222656.613281-4.550781.167968-6.386719-1.226563-1.835937-1.398437-2.890625-3.523437-2.890625-5.828125v-30.855469c0-5.214843 3.511719-9.832031 8.535156-11.226562l13.679688-3.796875c3.992188-1.109375 6.332031-5.242188 5.222656-9.234375-1.109375-3.988281-5.242187-6.332031-9.230468-5.21875l-13.683594 3.796875c-11.496094 3.191406-19.523438 13.75-19.523438 25.679687v30.855469c0 7.035156 3.214844 13.511719 8.8125 17.769531 5.5 4.179688 12.441406 5.5625 19.105469 3.828125-.132813 1.125-.207031 2.261719-.207031 3.410156v32.300782c0 8.507812 3.6875 16.167968 9.546875 21.476562-5.859375 5.304688-9.546875 12.964844-9.546875 21.472656v32.300782c0 8.507812 3.6875 16.171875 9.546875 21.476562-5.859375 5.304688-9.546875 12.96875-9.546875 21.476563v46.273437h-5.429688c-28.796875 0-54.738281 18.191406-64.554687 45.265625-.296875.820313-.449219 1.683594-.449219 2.554688 0 14.402343 11.714844 26.117187 26.113281 26.117187h423.371094c4.144531 0 7.5-3.359375 7.5-7.5 0-4.144531-3.355469-7.5-7.5-7.5h-423.371094c-5.722656 0-10.449219-4.351562-11.050781-9.917968 8.035156-20.40625 27.917969-34.019532 49.9375-34.019532h287.476562c5.691407 0 10.738282-3.601562 12.558594-8.96875 1.078125-3.171875 5.898438-6.546875 12.710938-6.546875 2.144531 0 4.226562.355469 6.179687 1.054688 2.878907 1.027343 6.09375.207031 8.128907-2.078125 4.769531-5.359375 12.9375-8.5625 21.847656-8.5625 6.171875 0 11.96875 1.585937 16.480468 4.226562.035157.023438.074219.046875.113282.066406 4.472656 2.652344 7.667968 6.339844 8.675781 10.542969 1.375 5.75 6.328125 9.953125 12.324219 10.453125 18.515625 1.550782 35.179687 12.835938 43.488281 29.453125 1.316406 2.636719 2.015625 5.65625 2.015625 8.742188 0 3.0625-2.488281 5.550781-5.550781 5.550781h-7.355469c-4.144531 0-7.5 3.359375-7.5 7.5 0 4.144531 3.355469 7.5 7.5 7.5h7.355469c11.332031 0 20.550781-9.21875 20.550781-20.550781 0-5.402344-1.246094-10.746094-3.601562-15.453125zm-141.488282-442.3125c2.84375-.390625 5.710938-.394532 8.519532-.011719 6.371093.871094 12.507812-3.132813 14.261718-9.316406 1.664063-5.855469 7.085938-9.6875 13.1875-9.332031 6.652344.398437 12.078125 6.160156 12.089844 12.84375.011719 4.988281-2.902344 9.582031-7.425781 11.707031-4.679688 2.195312-7.445313 6.992187-7.257813 11.984375h-57.347656c4.359375-9.464844 13.316406-16.40625 23.972656-17.875zm32.207032 112.003906-59.667969-16.5625v-23.492188h43.742187v8.695313c0 10.246094 6.6875 18.953125 15.925782 22.003906zm7.496093-23.203125c-.101562 0-.199219.007813-.300781.011719-4.480469-.027344-8.121094-3.679688-8.121094-8.167969v-11.175781c0-6.902344-5.613281-12.519532-12.515625-12.519532h-57.128906c-2.492187 0-4.515625-2.023437-4.515625-4.515624v-15.042969c0-2.488281 2.023438-4.515625 4.515625-4.515625h80.902344.019531.015625.535156c2.488281 0 4.515625 2.023437 4.515625 4.515625v43.253906c0 4.421875-3.53125 8.023437-7.921875 8.15625zm-241.097656 89.066406 79.695313-22.121093c7.054687-1.960938 14.519531-1.960938 21.578124 0l82.429688 22.882812h-185.339844c.492188-.332031 1.039063-.59375 1.636719-.761719zm3.4375 226.515625h-83.519531v-46.273437c0-7.707031 6.269531-13.976563 13.972656-13.976563h69.546875zm0-75.25h-69.546875c-7.703125 0-13.972656-6.269531-13.972656-13.976562v-32.300782c0-7.707031 6.269531-13.976562 13.972656-13.976562h69.546875zm131.65625 75.25h-89.21875v-139.003906c0-3.6875 3-6.6875 6.6875-6.6875h75.84375c3.6875 0 6.6875 3 6.6875 6.6875zm27.4375 0h-12.4375v-139.003906c0-11.957031-9.730469-21.6875-21.6875-21.6875h-75.84375c-11.960937 0-21.6875 9.730469-21.6875 21.6875v139.003906h-12.4375v-144.878906c0-15.578125 12.671875-28.25 28.246094-28.25h87.597656c15.578125 0 28.25 12.671875 28.25 28.25zm98.519531-23.472656c-4.003906-1.054688-8.265625-1.628906-12.667968-1.628906-11.285157 0-22.003907 3.757812-29.601563 10.222656-2.140625-.421875-4.332031-.636719-6.550781-.636719-11.988282 0-22.652344 6.320313-26.460938 15.515625h-8.238281v-60.25h69.542969c7.707031 0 13.976562 6.269532 13.976562 13.972656zm0-65.753906c0 7.707031-6.269531 13.976562-13.976562 13.976562h-69.542969v-60.253906h69.542969c7.707031 0 13.976562 6.269531 13.976562 13.976562zm0-75.253906c0 7.707031-6.269531 13.976562-13.976562 13.976562h-69.921875c-2.765625-21.195312-20.929688-37.625-42.871094-37.625h-87.597656c-21.941407 0-40.105469 16.429688-42.871094 37.625h-69.921875c-7.703125 0-13.972656-6.269531-13.972656-13.976562v-32.300782c0-3 .96875-5.871094 2.738281-8.261718l10.25-2.84375v10.976562c0 17.363281 14.125 31.488281 31.484375 31.488281 17.363281 0 31.488281-14.125 31.488281-31.488281v-13.84375h241.855469l20.578125 5.710938c1.769531 2.390624 2.738281 5.261718 2.738281 8.261718zm0 0"/></svg>