<svg height="512pt" viewBox="-78 0 512 512.00029" width="512pt" xmlns="http://www.w3.org/2000/svg"><path d="m61.300781 400.523438c-2.925781-2.925782-7.675781-2.929688-10.605469 0-2.925781 2.929687-2.925781 7.679687 0 10.609374l15.15625 15.152344c1.464844 1.464844 3.386719 2.195313 5.304688 2.195313s3.839844-.730469 5.300781-2.195313c2.929688-2.929687 2.929688-7.675781 0-10.605468zm211.273438-221.386719c-2.925781 2.929687-2.925781 7.679687 0 10.609375l15.15625 15.152344c1.464843 1.464843 3.386719 2.199218 5.304687 2.199218 1.917969 0 3.839844-.734375 5.300782-2.195312 2.929687-2.929688 2.929687-7.679688 0-10.609375l-15.152344-15.152344c-2.929688-2.929687-7.679688-2.929687-10.609375-.003906zm-176.976563-27.960938c1.464844 1.464844 3.382813 2.195313 5.300782 2.195313 1.921874 0 3.839843-.730469 5.304687-2.195313 2.929687-2.929687 2.929687-7.675781 0-10.605469l-15.15625-15.15625c-2.929687-2.925781-7.675781-2.929687-10.605469 0-2.929687 2.929688-2.929687 7.679688 0 10.605469zm-39.597656 64.453125c1.917969 0 3.839844-.730468 5.300781-2.199218l15.15625-15.152344c2.929688-2.929688 2.929688-7.679688 0-10.609375-2.925781-2.925781-7.675781-2.925781-10.605469.003906l-15.15625 15.152344c-2.929687 2.929687-2.929687 7.679687 0 10.609375 1.464844 1.464844 3.382813 2.195312 5.304688 2.195312zm209.5625-62.253906c1.921875 0 3.839844-.734375 5.304688-2.199219l15.15625-15.152343c2.929687-2.929688 2.929687-7.679688 0-10.605469-2.929688-2.929688-7.679688-2.929688-10.605469-.003907l-15.15625 15.15625c-2.929688 2.929688-2.929688 7.679688 0 10.605469 1.464843 1.464844 3.382812 2.199219 5.300781 2.199219zm-134.316406 147.148438c-4.140625 0-7.5 3.355468-7.5 7.5v7.808593c0 4.144531 3.359375 7.5 7.5 7.5 4.144531 0 7.5-3.355469 7.5-7.5v-7.808593c0-4.144532-3.355469-7.5-7.5-7.5zm170.339844 95.230468-15.152344 15.152344c-2.929688 2.933594-2.929688 7.679688 0 10.609375 1.460937 1.464844 3.382812 2.195313 5.300781 2.195313s3.839844-.730469 5.304687-2.195313l15.15625-15.15625c2.925782-2.929687 2.925782-7.675781 0-10.605469-2.929687-2.929687-7.679687-2.925781-10.609374 0zm8.578124-327.277344h-3.351562v-33.03125c0-11.042968-5.007812-21.253906-13.738281-28.011718-8.734375-6.761719-19.875-9.054688-30.5625-6.285156l-211.773438 54.804687c-17.246093 4.460937-31.785156 15.3125-40.988281 30.554687-6.105469 7.863282-9.75 17.71875-9.75 28.417969v350.625c0 25.613281 20.835938 46.449219 46.449219 46.449219h263.714843c25.609376 0 46.449219-20.835938 46.449219-46.449219v-350.625c0-25.609375-20.839843-46.449219-46.449219-46.449219zm-43.894531-52.804687c6.164063-1.597656 12.585938-.277344 17.621094 3.621094 5.035156 3.898437 7.921875 9.785156 7.921875 16.152343v33.03125h-229.605469zm75.34375 449.878906c0 17.339844-14.109375 31.449219-31.453125 31.449219h-263.710937c-17.339844 0-31.449219-14.109375-31.449219-31.449219v-350.625c0-17.339843 14.109375-31.449219 31.449219-31.449219h263.714843c17.339844 0 31.449219 14.109376 31.449219 31.449219zm-43.53125-193.988281c-.015625-.070312-.035156-.140625-.054687-.210938-4.789063-20.429687-16.386719-37.554687-34.25-50.253906-14.476563-10.289062-32.511719-17.316406-53.121094-20.851562v-9.03125c7.203125-2.140625 12.476562-8.816406 12.476562-16.703125v-7.628907c0-9.613281-7.820312-17.433593-17.433593-17.433593h-1.21875c1.730469-3.730469 2.679687-7.859375 2.679687-12.148438 0-15.910156-12.945312-28.855469-28.855468-28.855469-15.910157 0-28.855469 12.945313-28.855469 28.855469 0 4.289063.949219 8.417969 2.679687 12.148438h-1.21875c-9.613281 0-17.433594 7.820312-17.433594 17.433593v7.628907c0 7.886719 5.273438 14.5625 12.476563 16.703125v9.03125c-20.609375 3.539062-38.644531 10.5625-53.121094 20.851562-17.863281 12.699219-29.460937 29.824219-34.25 50.253906-.019531.070313-.035156.140626-.054687.210938-1.625 7.011719-2.453125 14.40625-2.453125 22.148438 0 45.609374 26.25 85.074218 68.507812 102.992187 17.464844 7.40625 29.84375 15.449219 38.949219 25.308594 3.796875 4.113281 9.183594 6.472656 14.773438 6.472656 5.589843 0 10.976562-2.359375 14.773437-6.472656 9.105469-9.859375 21.480469-17.902344 38.949219-25.308594 42.253906-17.917969 68.503906-57.382813 68.503906-102.992187.003906-7.742188-.824219-15.136719-2.449219-22.148438zm-119.777343-148.117188c7.640624 0 13.855468 6.214844 13.855468 13.855469 0 5.105469-2.789062 9.734375-7.207031 12.148438h-13.296875c-4.414062-2.414063-7.207031-7.042969-7.207031-12.148438 0-7.640625 6.214843-13.855469 13.855469-13.855469zm-29.828126 43.4375c0-1.34375 1.09375-2.433593 2.433594-2.433593h18.980469.035156 16.726563c.011718 0 .019531.003906.027344.003906.015624 0 .027343-.003906.039062-.003906h18.984375c1.339844 0 2.429687 1.089843 2.429687 2.433593v7.628907c0 1.339843-1.089843 2.429687-2.429687 2.429687h-54.792969c-1.339844 0-2.433594-1.089844-2.433594-2.429687zm47.179688 25.058594v6.390625c-5.632812-.480469-11.414062-.742187-17.351562-.742187-5.933594 0-11.714844.261718-17.351563.742187v-6.390625zm-94.128906 41.382813c13.917968-9.894531 31.828125-16.371094 52.585937-19.160157.289063-.023437.578125-.0625.855469-.117187 7.4375-.960937 15.226562-1.457031 23.335938-1.457031 8.109374 0 15.902343.496094 23.335937 1.457031.28125.054687.566406.09375.859375.117187 20.753906 2.789063 38.664062 9.265626 52.585938 19.160157 13.773437 9.792969 22.914062 22.351562 27.339843 37.5-2.738281 2.117187-6.542969 3.945312-11.566406 4-.113281 0-.222656 0-.332031 0-17.59375 0-32.78125-15.035157-38.515625-21.527344-3.289063-3.730469-8.183594-5.523437-13.101563-4.8125-4.9375.71875-9.140625 3.859375-11.246094 8.402344-2.875 6.207031-11.488281 20.640625-29.359374 20.640625-17.867188 0-26.484376-14.433594-29.359376-20.640625-2.101562-4.542969-6.308593-7.683594-11.246093-8.402344-4.914063-.714844-9.808594 1.082031-13.101563 4.808594-5.734375 6.5-20.917968 21.53125-38.511718 21.53125-.113282 0-.222657 0-.335938 0-5.023438-.054688-8.828125-1.882813-11.5625-4 4.425781-15.148438 13.566406-27.707031 27.339844-37.5zm124.648437 149.566406c-19.5 8.269531-33.515625 17.464844-44.113281 28.941406-.984375 1.066407-2.316406 1.648438-3.757812 1.648438-1.4375 0-2.773438-.585938-3.753907-1.644531-10.601562-11.480469-24.617187-20.675782-44.113281-28.945313-36.613281-15.523437-59.359375-49.695313-59.359375-89.179687 0-2.429688.089844-4.8125.273437-7.144532 4.402344 2.078125 9.21875 3.203125 14.234376 3.257813h.496093c23.347657 0 42.105469-18.023438 49.4375-26.238281 8.554688 18.132812 24.519531 28.941406 42.789063 28.941406 18.261718 0 34.226562-10.808594 42.78125-28.941406 7.332031 8.214843 26.089844 26.242187 49.441406 26.238281h.492188c5.019531-.054688 9.835937-1.179688 14.238281-3.257813.183593 2.332032.273437 4.714844.273437 7.144532 0 39.484374-22.746094 73.65625-59.359375 89.179687zm22.722657 64.964844h-141.183594c-4.144532 0-7.5 3.355469-7.5 7.5 0 4.140625 3.355468 7.5 7.5 7.5h141.183594c4.140624 0 7.5-3.359375 7.5-7.5 0-4.144531-3.359376-7.5-7.5-7.5zm-23.53125-147.332031c-4.144532 0-7.5 3.355468-7.5 7.5v7.808593c0 4.144531 3.355468 7.5 7.5 7.5 4.140624 0 7.5-3.355469 7.5-7.5v-7.808593c0-4.144532-3.359376-7.5-7.5-7.5zm-29.726563 10.003906c-3.125-2.722656-7.863281-2.398438-10.582031.726562-1.707032 1.957032-4.167969 3.078125-6.753906 3.078125-2.585938 0-5.046876-1.121093-6.75-3.078125-2.722657-3.121094-7.460938-3.449218-10.582032-.726562-3.125 2.71875-3.449218 7.457031-.730468 10.582031 4.558593 5.226563 11.140624 8.222656 18.0625 8.222656 6.921874 0 13.507812-2.996093 18.0625-8.226562 2.71875-3.121094 2.394531-7.859375-.726563-10.578125zm0 0"/></svg>