<svg height="512pt" viewBox="-41 0 512 512.001" width="512pt" xmlns="http://www.w3.org/2000/svg"><path d="m429.675781 313.558594c0-21.941406-17.851562-39.796875-39.792969-39.796875h-4.621093v-60.152344c12.277343-9.695313 20.183593-24.699219 20.183593-41.519531 0-16.328125-7.46875-31.507813-20.15625-41.507813-.035156-.515625-.097656-1.027343-.1875-1.539062-5.773437-32.9375-22.859374-62.550781-49.40625-85.632813-32.203124-27.992187-75.121093-43.410156-120.855468-43.410156-35.878906 0-70.09375 9.441406-98.957032 27.300781-3.523437 2.179688-4.613281 6.800781-2.433593 10.324219 2.179687 3.519531 6.800781 4.609375 10.324219 2.429688 26.492187-16.390626 57.980468-25.054688 91.066406-25.054688 42.117187 0 81.542968 14.109375 111.011718 39.730469 23.785157 20.675781 39.125 47.078125 44.386719 76.386719-1.539062.132812-3.148437.214843-4.789062.269531-.070313.003906-.144531.003906-.21875.007812-39.679688 1.316407-107.6875-18.75-145.625-49.972656-2.769531-2.277344-6.765625-2.277344-9.53125 0-37.945313 31.230469-105.972657 51.277344-145.640625 49.96875-.066406 0-.132813-.003906-.203125-.003906-1.640625-.054688-3.25-.136719-4.789063-.269531 4.746094-26.425782 17.859375-50.773438 37.941406-70.445313 2.960938-2.894531 3.007813-7.644531.113282-10.605469-2.898438-2.957031-7.648438-3.007812-10.609375-.109375-22.46875 22.007813-37.101563 49.355469-42.3125 79.089844-.089844.507813-.148438 1.023437-.183594 1.535156-12.691406 10-20.15625 25.183594-20.15625 41.507813 0 16.824218 7.902344 31.828125 20.183594 41.523437v60.152344h-4.621094c-21.945313 0-39.796875 17.851563-39.796875 39.792969 0 17.949218 11.6875 33.054687 28.027344 38.039062-1.039063 3.582032-1.574219 7.316406-1.574219 11.089844 0 21.941406 17.855469 39.792969 39.796875 39.792969h13.929688l-9.800782 39.507812c-5.894531 23.75 7.929688 47.589844 31.46875 54.273438 36.960938 10.492187 74.972656 15.738281 112.988282 15.738281 38.015624 0 76.03125-5.246094 112.988281-15.738281 11.320312-3.210938 20.808593-10.589844 26.710937-20.773438 2.078125-3.582031.859375-8.171875-2.726562-10.25-3.582032-2.074219-8.171875-.855469-10.25 2.730469-3.9375 6.796875-10.273438 11.71875-17.828125 13.863281-71.238281 20.226563-146.546875 20.226563-217.785157 0-15.714843-4.460937-24.941406-20.375-21.007812-36.230469l17.796875-71.742187 37.492187 37.492187c7.515626 7.515626 17.507813 11.652344 28.140626 11.652344 10.628906 0 20.621093-4.140625 28.136718-11.652344 7.519532-7.519531 11.65625-17.511718 11.65625-28.140624 0-10.632813-4.136718-20.625-11.65625-28.140626l-51.527344-51.527343c-6.199218-6.199219-13.957031-9.914063-22.023437-11.160157l4.613281-18.589843c25.074219 14.90625 55.066406 23.601562 87.269532 23.601562 32.207031 0 62.199218-8.691406 87.273437-23.601562l4.613281 18.589843c-8.066406 1.246094-15.824218 4.960938-22.023437 11.164063l-51.527344 51.523437c-7.519531 7.519532-11.65625 17.511719-11.65625 28.140626 0 10.628906 4.136719 20.625 11.65625 28.140624 7.515625 7.515626 17.507813 11.65625 28.136719 11.65625 10.632812 0 20.625-4.140624 28.140625-11.65625l37.492187-37.488281 16.253906 65.511719c.847657 3.414062 3.90625 5.695312 7.273438 5.695312.597656 0 1.203125-.074218 1.808594-.222656 4.023437-1 6.472656-5.066406 5.472656-9.085937l-8.253906-33.277344h13.929687c21.945313 0 39.796875-17.855469 39.796875-39.796875 0-3.773438-.535156-7.503906-1.574218-11.085938 16.34375-4.992187 28.027343-20.09375 28.027343-38.042968zm-55.757812-159.753906c0-2.65625-.085938-5.332032-.253907-8.015626 1.5625-.308593 3.050782-.882812 4.417969-1.671874 7.820313 7.128906 12.363281 17.203124 12.363281 27.972656 0 17.71875-12.230468 32.632812-28.691406 36.757812 7.828125-16.957031 12.164063-35.550781 12.164063-55.042968zm-3.65625 68.121093v51.835938h-52.703125l-2.175782-8.773438c15.066407-11.121093 27.84375-24.683593 37.578126-40.011719 6.0625-.046874 11.882812-1.121093 17.300781-3.050781zm-331.027344-49.835937c0-10.769532 4.539063-20.84375 12.359375-27.972656 1.367188.789062 2.859375 1.363281 4.421875 1.671874-.167969 2.679688-.253906 5.359376-.253906 8.015626 0 19.492187 4.332031 38.085937 12.164062 55.042968-16.464843-4.125-28.691406-19.039062-28.691406-36.757812zm37.484375 52.886718c9.730469 15.328126 22.507812 28.890626 37.578125 40.011719l-2.175781 8.773438h-52.703125v-51.835938c5.417969 1.929688 11.238281 3.003907 17.300781 3.050781zm7.1875 162.503907h-17.652344c-13.675781 0-24.796875-11.125-24.796875-24.796875 0-4.578125 1.257813-9.054688 3.640625-12.9375 1.394532-2.277344 1.476563-5.125.210938-7.476563-1.265625-2.351562-3.6875-3.851562-6.355469-3.941406-13.429687-.445313-23.953125-11.328125-23.953125-24.769531 0-13.675782 11.125-24.796875 24.796875-24.796875h68.601563l-1.0625 4.285156c-6.832032 1.671875-13.308594 5.167969-18.632813 10.496094-15.515625 15.515625-15.515625 40.761719 0 56.277343l1.652344 1.65625zm101.996094-21.804688c9.664062 9.667969 9.664062 25.398438 0 35.066407-9.667969 9.667968-25.398438 9.667968-35.066406 0l-10.011719-10.011719 35.066406-35.066407zm-51.527344-51.527343 30.90625 30.910156-35.066406 35.066406-30.90625-30.910156c-9.667969-9.667969-9.667969-25.398438 0-35.066406 4.683594-4.683594 10.910156-7.261719 17.53125-7.261719 6.625 0 12.851562 2.578125 17.535156 7.261719zm80.464844-31.757813c-79.445313 0-144.078125-57.683594-144.078125-128.585937 0-2.449219.085937-4.917969.246093-7.390626 41.441407-.882812 104.0625-19.453124 143.832032-49.644531 39.769531 30.191407 102.390625 48.765625 143.828125 49.644531.160156 2.472657.25 4.941407.25 7.390626 0 70.902343-64.632813 128.585937-144.078125 128.585937zm64.003906 118.351563c-9.667969 9.667968-25.398438 9.667968-35.066406 0-9.667969-9.667969-9.667969-25.398438 0-35.066407l10.011718-10.011719 35.066407 35.066407zm51.527344-51.527344-30.910156 30.910156-35.066407-35.066406 30.910157-30.910156c4.832031-4.832032 11.183593-7.25 17.53125-7.25 6.351562 0 12.703124 2.417968 17.535156 7.25 9.667968 9.667968 9.667968 25.398437 0 35.066406zm60.355468-10.886719c-2.671874.089844-5.089843 1.59375-6.355468 3.941406-1.265625 2.351563-1.1875 5.199219.210937 7.476563 2.382813 3.886718 3.640625 8.359375 3.640625 12.9375 0 13.675781-11.125 24.796875-24.796875 24.796875h-17.652343l-6.453126-26.003907 1.65625-1.652343c15.515626-15.519531 15.515626-40.765625 0-56.28125-5.328124-5.328125-11.800781-8.824219-18.632812-10.492188l-1.0625-4.285156h68.601562c13.671876 0 24.792969 11.121094 24.792969 24.792969 0 13.445312-10.519531 24.324218-23.949219 24.769531zm-156.054687-184.019531c-3.121094-2.722656-7.859375-2.398438-10.582031.726562-2.335938 2.679688-5.707032 4.21875-9.25 4.21875-3.542969 0-6.917969-1.539062-9.253906-4.21875-2.71875-3.121094-7.457032-3.449218-10.582032-.726562-3.121094 2.722656-3.445312 7.460937-.722656 10.582031 5.183594 5.949219 12.679688 9.363281 20.558594 9.363281s15.371094-3.414062 20.558594-9.363281c2.722656-3.125 2.394531-7.859375-.726563-10.582031zm-76.367187-11.648438c-4.144532 0-7.5 3.359375-7.5 7.5v9.386719c0 4.144531 3.355468 7.5 7.5 7.5 4.140624 0 7.5-3.355469 7.5-7.5v-9.386719c0-4.140625-3.359376-7.5-7.5-7.5zm113.070312 0c-4.140625 0-7.5 3.359375-7.5 7.5v9.386719c0 4.144531 3.359375 7.5 7.5 7.5s7.5-3.355469 7.5-7.5v-9.386719c0-4.140625-3.355469-7.5-7.5-7.5zm0 0"/></svg>