<svg height="512pt" viewBox="0 -47 512 512" width="512pt" xmlns="http://www.w3.org/2000/svg"><path d="m255.988281 319.554688c-5.109375 0-9.828125 2.332031-12.9375 6.398437-7.875 10.289063-17.265625 25.59375-17.265625 40.054687 0 16.65625 13.550782 30.203126 30.203125 30.203126 16.65625 0 30.203125-13.546876 30.203125-30.203126 0-14.460937-9.386718-29.765624-17.261718-40.054687-3.113282-4.066406-7.828126-6.398437-12.941407-6.398437zm0 61.65625c-8.382812 0-15.203125-6.820313-15.203125-15.203126 0-8.007812 5.035156-18.996093 14.175782-30.9375h.003906c.257812-.34375.601562-.515624 1.023437-.515624s.765625.171874 1.027344.515624c9.140625 11.941407 14.175781 22.929688 14.175781 30.9375 0 8.382813-6.820312 15.203126-15.203125 15.203126zm229.28125-352.03125h-153.21875c-1.050781-14.765626-13.390625-26.457032-28.417969-26.457032-3.441406 0-6.84375.625-10.035156 1.824219-4.464844-2.472656-9.457031-3.761719-14.664062-3.761719-3.546875 0-7.078125.628906-10.402344 1.835938-3.929688-1.722656-8.195312-2.621094-12.53125-2.621094s-8.597656.898438-12.53125 2.621094c-3.324219-1.207032-6.855469-1.835938-10.402344-1.835938-5.203125 0-10.195312 1.289063-14.664062 3.761719-3.191406-1.199219-6.59375-1.824219-10.035156-1.824219-15.023438 0-27.363282 11.691406-28.417969 26.457032h-86.796875c-4.140625 0-7.5 3.355468-7.5 7.5 0 4.140624 3.359375 7.5 7.5 7.5h89.84375c3.488281 6.800781 9.625 12.027343 17.046875 14.296874v19.921876h-113.753907c-4.140624 0-7.5 3.355468-7.5 7.5 0 4.140624 3.359376 7.5 7.5 7.5h107.253907l-9.796875 9.792968c-6.898438 6.902344-11.609375 15.171875-14.144532 23.941406-.058593.160157-.117187.320313-.164062.484376h-142.707031c-6.46875 0-11.730469-5.261719-11.730469-11.730469v-59.976563c0-6.46875 5.261719-11.730468 11.730469-11.730468h31.621093c4.144532 0 7.5-3.359376 7.5-7.5 0-4.144532-3.355468-7.5-7.5-7.5h-31.621093c-14.738281 0-26.730469 11.992187-26.730469 26.730468v59.976563c0 14.738281 11.992188 26.730469 26.730469 26.730469h8.101562v248.542968c0 14.445313 11.75 26.195313 26.195313 26.195313h167.507812.0625 55.152344.027344.035156 167.164062c6.40625 0 12.570313-2.339844 17.363282-6.582031 3.101562-2.746094 3.386718-7.488282.640625-10.585938-2.746094-3.101562-7.484375-3.390625-10.585938-.644531-2.046875 1.8125-4.679687 2.8125-7.417969 2.8125h-65.554687v-56.726563h53.300781c4.140625 0 7.5-3.355468 7.5-7.5 0-4.144531-3.359375-7.5-7.5-7.5h-15.007812v-24.71875h30.953125c4.144531 0 7.5-3.355468 7.5-7.5 0-4.144531-3.355469-7.5-7.5-7.5h-69.246094v-39.804687c0-20.148438-16.390625-36.539063-36.535156-36.539063h-185.769531c-4.546876 0-8.894532.84375-12.914063 2.367188v-12.921875h15.003906c4.144531 0 7.5-3.355469 7.5-7.5 0-4.140625-3.355469-7.5-7.5-7.5h-87.085937c-4.140625 0-7.5 3.359375-7.5 7.5 0 4.144531 3.359375 7.5 7.5 7.5h57.082031v23.554687c-.324219.378906-.636719.769532-.941406 1.167969h-30.007813c-4.144531 0-7.5 3.355469-7.5 7.5 0 4.140625 3.355469 7.5 7.5 7.5h23.074219c-.492187 2.378906-.75 4.84375-.75 7.371094v90.492187h-48.457031c-4.140625 0-7.5 3.355469-7.5 7.5 0 4.140625 3.359375 7.5 7.5 7.5h48.457031v45.757813h-65.550781c-6.175782 0-11.195313-5.019531-11.195313-11.195313v-248.542968h117.554688c-.035157 14.375 5.417969 28.765624 16.359375 39.710937 10.910156 10.90625 25.238281 16.363281 39.570312 16.363281 4.847656 0 9.695313-.640625 14.414063-1.890625.425781-.078125.84375-.191406 1.246093-.335937 8.757813-2.539063 17.015626-7.246094 23.90625-14.136719l31.066407-31.066406c2.683593-2.6875 5.078125-5.585938 7.191406-8.644531h161.027344v229.90625c0 4.144531 3.359375 7.5 7.5 7.5 4.144531 0 7.5-3.355469 7.5-7.5v-229.90625h8.101562c14.738281 0 26.730469-11.992188 26.730469-26.730469v-59.976563c0-14.738281-11.992188-26.730468-26.730469-26.730468zm-99.847656 276.730468h23.292969v24.71875h-23.292969zm-103.582031 96.445313h-51.347656c-16.695313-9.738281-26.976563-28.398438-26.316407-48.054688.910157-27.097656 14.609375-55.800781 36.640625-76.777343 1.847656-1.757813 3.929688-1.765626 5.011719-1.621094 1.894531.261718 3.546875 1.371094 4.539063 3.039062 5.46875 9.226563 12.195312 17.449219 21.160156 25.871094 3.074218 2.890625 7.386718 4.15625 11.542968 3.386719 4.144532-.769531 7.714844-3.492188 9.546876-7.289063 2.289062-4.738281 5.582031-9.964844 9.519531-15.105468.367187-.484376 1.128906-.480469 1.496093.003906 8.738282 11.417968 13.550782 21.902344 13.550782 29.523437 0 4.007813-1.621094 7.71875-4.5625 10.453125-5.476563 5.085938-7.789063 12.769532-6.035156 20.046875.851562 3.550781 1.269531 7.335938 1.269531 11.566407-.003907 18.632812-9.925781 35.695312-26.015625 44.957031zm-140.261719-151.25c0-11.875 9.660156-21.535157 21.539063-21.535157h185.769531c11.875 0 21.535156 9.660157 21.535156 21.535157v45.773437c-.105469.496094-.15625 1.007813-.15625 1.53125 0 .527344.054687 1.035156.15625 1.53125v36.65625c-.105469.496094-.15625 1.007813-.15625 1.53125 0 .527344.054687 1.035156.15625 1.53125v62.695313h-64.933594c11.007813-12.101563 17.367188-28.023438 17.367188-44.953125 0-5.429688-.554688-10.363282-1.6875-15.082032-.484375-2.015624.152343-4.140624 1.664062-5.546874 5.941407-5.523438 9.351563-13.335938 9.351563-21.441407 0-13.96875-9.046875-28.722656-16.636719-38.640625-3.039063-3.972656-7.65625-6.25-12.664063-6.25-5.007812 0-9.621093 2.277344-12.65625 6.246094-4.054687 5.296875-7.4375 10.539062-10.074218 15.621094-7.164063-6.941406-12.421875-13.492188-16.882813-21.019532-3.332031-5.617187-8.941406-9.355468-15.386719-10.246093-6.386718-.882813-12.730468 1.164062-17.40625 5.617187-11.914062 11.34375-39.792968 42.546875-41.289062 87.136719-.609375 18.101563 6.0625 35.542969 17.832031 48.558594h-65.4375v-151.25zm81.738281-67.390625c-10.941406 0-21.226562-4.261719-28.960937-11.996094-7.738281-7.734375-11.996094-18.019531-11.996094-28.960938 0-2.007812.144531-3.992187.429687-5.945312 11.496094.128906 23.234376 5.238281 32.234376 14.242188 9 9 14.113281 20.734374 14.238281 32.230468-1.953125.285156-3.9375.429688-5.945313.429688zm73.640625-75.929688c0 8.25-2.148437 16.167969-6.15625 23.132813-.179687.265625-.335937.546875-.480469.832031-1.613281 2.671875-3.511718 5.1875-5.667968 7.527344-2.820313-8.417969-2.511719-17.09375 1.070312-24.769532 2.453125-5.265624 6.316406-9.703124 11.234375-13.027343zm0-23.316406c-11.167969 4.8125-19.878906 13.078125-24.832031 23.703125-6.144531 13.175781-5.660156 28.722656 1.089844 42.609375l-20.941406 20.9375c-2.519532 2.523438-5.316407 4.667969-8.316407 6.425781-1.398437-13.710937-7.835937-27.203125-18.328125-37.699219-10.496094-10.496093-23.988281-16.933593-37.695312-18.332031 1.753906-2.996093 3.898437-5.792969 6.421875-8.3125l14.929687-14.933593c3.308594-3.308594 5.28125-7.589844 5.675782-12.195313.023437-.253906.039062-.515625.039062-.773437 0-.007813 0-.015626 0-.023438.011719-.304688.042969-.605469.042969-.914062v-26.039063c1.140625-.277344 2.261719-.617187 3.359375-1.027344 4.464844 2.46875 9.457031 3.757813 14.664062 3.757813 3.542969 0 7.078125-.628906 10.402344-1.832032 3.929688 1.722657 8.195312 2.621094 12.53125 2.621094s8.601562-.898437 12.53125-2.621094c3.324219 1.203126 6.859375 1.832032 10.402344 1.832032 5.207031 0 10.195312-1.289063 14.664062-3.757813 1.097656.410157 2.21875.75 3.359375 1.027344zm7.5-39.789062c-.261719 0-.515625.011718-.769531.039062-.019531 0-.035156 0-.054688 0-2.402343 0-4.765624-.640625-6.828124-1.855469-2.652344-1.558593-5.984376-1.34375-8.410157.542969-2.730469 2.125-6 3.246094-9.460937 3.246094-2.527344 0-4.941406-.59375-7.171875-1.765625-2.324219-1.226563-5.128907-1.140625-7.375.222656-2.523438 1.527344-5.421875 2.332031-8.386719 2.332031-2.96875 0-5.867188-.804687-8.386719-2.332031-1.191406-.722656-2.535156-1.085937-3.882812-1.085937-1.199219 0-2.398438.289062-3.496094.863281-2.226563 1.171875-4.636719 1.765625-7.167969 1.765625-3.460937 0-6.730468-1.121094-9.460937-3.246094-2.425781-1.886719-5.757813-2.101562-8.410157-.542969-2.0625 1.214844-4.425781 1.855469-6.828124 1.855469-.015626 0-.035157 0-.054688 0-.25-.027344-.507812-.039062-.769531-.039062h-.003907c-7.054687-.433594-12.671874-6.292969-12.671874-13.457032 0-7.445312 6.058593-13.5 13.5-13.5 2.40625 0 4.765624.640625 6.828124 1.855469 2.652344 1.558594 5.984376 1.34375 8.410157-.546875 2.730469-2.121094 6-3.246094 9.460937-3.246094 2.53125 0 4.941406.597656 7.167969 1.769532 2.328125 1.226562 5.128906 1.140624 7.378906-.222657 2.519531-1.523437 5.421875-2.332031 8.386719-2.332031s5.867188.808594 8.386719 2.332031c2.25 1.363281 5.050781 1.445313 7.375.222657 2.230469-1.171876 4.644531-1.769532 7.171875-1.769532 3.460937 0 6.730468 1.125 9.460937 3.246094 2.425781 1.894531 5.757813 2.105469 8.410157.546875 2.0625-1.214844 4.425781-1.855469 6.828124-1.855469 7.441407 0 13.5 6.054688 13.5 13.5 0 7.164063-5.617187 13.023438-12.671874 13.457032-.003907 0-.003907 0-.003907 0zm192.542969 71.207031c0 6.46875-5.261719 11.730469-11.730469 11.730469h-176.582031c2.140625-6.304688 3.269531-12.980469 3.269531-19.832032v-14.386718h113.753907c4.140624 0 7.5-3.359376 7.5-7.5 0-4.144532-3.359376-7.5-7.5-7.5h-113.753907v-19.921876c7.421875-2.273437 13.558594-7.496093 17.046875-14.296874h156.265625c6.46875 0 11.730469 5.261718 11.730469 11.726562zm0 0"/></svg>