<svg height="512pt" viewBox="-69 0 512 512" width="512pt" xmlns="http://www.w3.org/2000/svg"><path d="m60.058594 114.238281c-2.929688-2.929687-7.679688-2.925781-10.605469 0-2.929687 2.929688-2.929687 7.679688-.003906 10.605469l5.378906 5.378906c1.464844 1.464844 3.382813 2.199219 5.304687 2.199219 1.917969 0 3.839844-.734375 5.300782-2.199219 2.929687-2.925781 2.929687-7.675781.003906-10.605468zm59.558594-48.804687c1.464843 1.464844 3.382812 2.199218 5.304687 2.199218 1.917969 0 3.835937-.734374 5.300781-2.195312 2.929688-2.929688 2.929688-7.679688 0-10.609375l-5.375-5.375c-2.929687-2.929687-7.679687-2.929687-10.605468-.003906-2.929688 2.929687-2.929688 7.679687-.003907 10.609375zm236.125 345.59375-226.066407-226.066406c-5.8125-5.8125-9.398437-13.011719-10.78125-20.539063-.007812-.074219-.023437-.148437-.035156-.21875-2.160156-12.160156 1.4375-25.152344 10.816406-34.527344 7.367188-7.371093 17.183594-11.429687 27.640625-11.429687 6.472656 0 12.695313 1.558594 18.25 4.488281.089844.050781.179688.101563.273438.148437 3.316406 1.78125 6.386718 4.058594 9.121094 6.792969 22.199218 22.199219 57.890624 23.191407 81.257812 2.261719 3.085938-2.765625 3.34375-7.507812.582031-10.59375-2.765625-3.082031-7.503906-3.347656-10.59375-.578125-17.433593 15.617187-44.070312 14.871094-60.640625-1.699219-2.421875-2.421875-5.027344-4.550781-7.757812-6.417968 5.828125-22.871094 12.433594-57.390626 14.675781-90.390626 20.707031 6.882813 39.664063 18.527344 55.515625 34.378907 10.183594 10.179687 14.761719 24.734375 12.253906 38.9375-.722656 4.082031 2 7.972656 6.082032 8.691406 4.074218.722656 7.96875-2 8.6875-6.082031 3.359374-19.019532-2.777344-38.515625-16.417969-52.15625-29.679688-29.679688-69.203125-46.027344-111.289063-46.027344-42.085937 0-81.605468 16.347656-111.289062 46.027344-29.679688 29.683594-46.027344 69.203125-46.027344 111.289062 0 42.085938 16.347656 81.609375 46.027344 111.289063l25.816406 25.816406c.003906.003906.007812.007813.011719.011719l149.28125 149.285156c1.464843 1.460938 3.386719 2.195312 5.304687 2.195312 1.921875 0 3.839844-.734374 5.304688-2.195312 2.929687-2.933594 2.929687-7.679688 0-10.609375l-28.671875-28.671875c8.527343-27.757812 17.058593-69.183594 19.703125-105.160156l59.125 59.121094c-.992188 34.339843-8.972656 77.085937-17.515625 107.355468l-7.648438-7.652344c-2.929687-2.925781-7.675781-2.925781-10.605469.003907-2.929687 2.925781-2.929687 7.675781 0 10.605469l25.96875 25.96875c11.167969 11.167968 26.019532 17.320312 41.820313 17.320312 15.796875 0 30.648437-6.152344 41.820313-17.324219 11.171874-11.171875 17.324218-26.023437 17.324218-41.820312 0-15.800781-6.152344-30.65625-17.324218-41.828125zm-299.109376-354.390625c26.847657-26.851563 62.605469-41.636719 100.683594-41.636719 10.347656 0 20.523438 1.101562 30.398438 3.230469-1.871094 31.460937-8.035156 64.796875-13.675782 87.664062-18.726562-6.054687-40.125-1.671875-54.972656 13.171875-11.578125 11.578125-16.78125 27.144532-15.648437 42.316406-27.792969 15.894532-59.949219 29.207032-82.417969 36.972657-14.535156-48.570313-2.660156-103.425781 35.632812-141.71875zm0 201.363281c-13.453124-13.457031-23.640624-28.960938-30.574218-45.515625 22.699218-7.832031 53.183594-20.453125 80.769531-35.800781 2.628906 6.886718 6.699219 13.34375 12.238281 18.882812l32.578125 32.582032c-22.496093 19.726562-51.246093 38.824218-73.25 51.613281zm134.359376 134.359375-101.640626-101.640625c22.40625-13.261719 50.640626-32.289062 72.921876-51.941406l46.234374 46.230468c-.992187 34.339844-8.972656 77.085938-17.515624 107.351563zm154.144531 91.710937c-17.210938 17.210938-45.222657 17.210938-62.433594 0l-6.238281-6.242187c8.53125-27.757813 17.058594-69.183594 19.703125-105.160156l48.96875 48.96875c8.339843 8.339843 12.929687 19.425781 12.929687 31.21875 0 11.789062-4.589844 22.875-12.929687 31.214843zm-236.351563-400.359374c-.28125-4.132813-3.878906-7.246094-7.996094-6.96875-4.132812.28125-7.25 3.863281-6.96875 7.996093.171876 2.460938-.730468 4.875-2.46875 6.613281-1.738281 1.738282-4.148437 2.636719-6.613281 2.46875-4.144531-.269531-7.714843 2.835938-7.996093 6.96875-.285157 4.132813 2.835937 7.714844 6.96875 7.996094.539062.039063 1.078124.058594 1.617187.058594 6.222656 0 12.207031-2.460938 16.632813-6.886719 4.804687-4.808593 7.292968-11.457031 6.824218-18.246093zm0 0"/></svg>