<svg height="512pt" viewBox="0 -72 512.001 512" width="512pt" xmlns="http://www.w3.org/2000/svg"><path d="m204.5625 236.316406h-80.726562c-11.511719 0-20.875-9.363281-20.875-20.875 0-11.507812 9.363281-20.875 20.875-20.875 5.574218 0 10.816406 2.171875 14.757812 6.113282 2.929688 2.929687 7.679688 2.929687 10.605469 0 2.929687-2.925782 2.929687-7.675782 0-10.605469-6.773438-6.773438-15.785157-10.503907-25.363281-10.503907-19.78125 0-35.875 16.089844-35.875 35.875 0 19.777344 16.09375 35.871094 35.875 35.871094h80.726562c4.144531 0 7.5-3.355468 7.5-7.5 0-4.140625-3.355469-7.5-7.5-7.5zm300.648438 39.113282c-4.378907-4.378907-10.199219-6.789063-16.390626-6.789063-6.191406 0-12.011718 2.410156-16.390624 6.789063l-22.800782 22.800781c-14.679687 14.679687-34.195312 22.761719-54.957031 22.761719h-3.660156v-25.136719c32.984375-3.558594 59.9375-28.460938 65.597656-61.847657l9.394531-55.441406h1.546875c12.78125 0 23.179688-10.398437 23.179688-23.179687s-10.394531-23.179688-23.179688-23.179688h-58.074219c-22.414062 0-43.085937 11.21875-55.296874 30.011719l-13.203126 20.308594c-2.800781 4.3125-7.550781 6.890625-12.695312 6.890625h-54.972656c-6.207032 0-11.71875-3.71875-14.042969-9.476563l-8.5-21.058594v-77.109374c0-11.289063-9.183594-20.472657-20.46875-20.472657h-19.507813c-1.792968 0-3.523437.257813-5.183593.691407-3.792969-6.992188-8.550781-13.367188-14.207031-19.019532-12.25-12.25-27.855469-20.285156-45.132813-23.238281-4.085937-.695313-7.957031 2.050781-8.65625 6.132813-.695313 4.082031 2.046875 7.957031 6.132813 8.65625 14.195312 2.421874 27.007812 9.011718 37.050781 19.054687 5.128906 5.128906 9.34375 10.996094 12.597656 17.460937-1.933594 3.125-3.070313 6.792969-3.070313 10.734376v15.515624h-135.316406c2.902344-15.21875 10.4375-29.449218 21.710938-40.722656 4.804687-4.808594 10.171875-8.957031 15.9375-12.359375.03125-.015625.058594-.03125.085937-.046875 5.769531-3.394531 11.9375-6.039062 18.347657-7.839844 3.984374-1.121093 6.308593-5.261718 5.1875-9.25-1.121094-3.988281-5.261719-6.3125-9.25-5.191406-5.132813 1.445313-10.136719 3.351563-14.949219 5.664063l-10-19.191407c-2.753907-5.285156-8.160157-8.480468-14.128907-8.34765575-5.960937.14062475-11.222656 3.58593775-13.726562 8.99609375-5.117188 11.046875-14.023438 19.949219-25.070312 25.070312-5.410157 2.503907-8.855469 7.765626-8.992188 13.726563-.140625 5.960937 3.058594 11.375 8.347656 14.128906l19.199219 10.003907c-3.847656 8.03125-6.527344 16.570312-7.921875 25.363281h-16.601562c-12.78125-.003907-23.179688 10.394531-23.179688 23.175781s10.398438 23.179688 23.179688 23.179688h.773437l11.296875 84.117187c4.746094 35.351563 32.773438 62.835937 67.265625 67.753906v25.472657h-23.621094c-12.78125 0-23.179687 10.398437-23.179687 23.179687s10.398437 23.179687 23.179687 23.179687h315.78125c16.285157 0 32.089844-3.085937 46.96875-9.167968 3.835938-1.566406 5.675781-5.945313 4.105469-9.78125-1.566406-3.832032-5.941406-5.671875-9.777344-4.105469-13.074218 5.34375-26.96875 8.050781-41.296875 8.050781h-315.78125c-4.507812 0-8.179687-3.667968-8.179687-8.175781 0-4.511719 3.671875-8.179687 8.179687-8.179687h315.78125c24.765625 0 48.050781-9.644532 65.5625-27.15625l22.800781-22.800782c1.542969-1.546875 3.597657-2.398437 5.78125-2.398437 2.183594 0 4.238282.851562 5.785157 2.398437 1.542969 1.542969 2.394531 3.597656 2.394531 5.78125s-.851562 4.238282-2.394531 5.785156l-22.804688 22.800782c-2.359375 2.359375-4.851562 4.640625-7.40625 6.773437-3.183593 2.652344-3.609375 7.382813-.957031 10.5625 2.652344 3.179688 7.382812 3.605469 10.566406.953125 2.898438-2.417968 5.730469-5.003906 8.40625-7.683594l22.800782-22.800781c4.378906-4.378906 6.789062-10.199219 6.789062-16.390625 0-6.1875-2.410156-12.011718-6.789062-16.386718zm-299.894532-193.65625c0-1.542969.644532-2.933594 1.675782-3.929688.058593-.050781.113281-.105469.167968-.15625.96875-.859375 2.234375-1.382812 3.625-1.382812h19.511719c3.015625 0 5.46875 2.453124 5.46875 5.46875v40.195312c-5.9375-12.410156-17.21875-21.105469-30.449219-23.792969zm-169.882812-33.152344c-.128906-.066406-.289063-.148438-.285156-.476563.007812-.328125.175781-.402343.308593-.464843 14.265625-6.613282 25.761719-18.109376 32.371094-32.375.0625-.132813.140625-.296876.464844-.304688.355469.003906.414062.152344.480469.28125l10.328124 19.824219c-4.617187 3.210937-8.976562 6.835937-12.992187 10.851562-4.03125 4.03125-7.65625 8.386719-10.855469 12.992188zm-12.253906 80.027344c-4.511719 0-8.179688-3.667969-8.179688-8.179688 0-4.507812 3.667969-8.179688 8.179688-8.179688h23.230468c.003906 0 .007813.003907.011719.003907s.007813-.003907.007813-.003907h150.121093c.425781 0 .847657.03125 1.265625.046876h.003906c11.160157.488281 20.949219 7.347656 25.164063 17.789062l13.359375 33.097656c.003906.019532.011719.035156.019531.054688l8.992188 22.277344c4.625 11.457031 15.59375 18.863281 27.949219 18.863281h54.976562c10.242188 0 19.691406-5.128907 25.273438-13.71875l13.199218-20.308594c9.433594-14.519531 25.40625-23.183594 42.722656-23.183594h58.074219c4.511719 0 8.179688 3.667969 8.179688 8.175781 0 4.511719-3.667969 8.179688-8.179688 8.179688h-58.074219c-11.757812 0-22.601562 5.886719-29.007812 15.742188l-13.195312 20.308593c-8.613282 13.25-23.1875 21.164063-38.992188 21.164063h-54.976562c-19.058594 0-35.984376-11.421875-43.121094-29.101563l-22.371094-55.429687c-1.863281-4.617188-6.285156-7.597656-11.261719-7.597656zm110.691406 192.34375h-16.359375v-24.683594h16.359375zm210.78125 0h-195.78125v-24.683594h195.78125zm31.359375 0h-16.355469v-24.683594h16.355469zm-262.402344-39.683594c-31.945313 0-59.242187-23.875-63.496094-55.535156l-11.027343-82.125h155.539062l21.648438 53.644531c9.4375 23.378906 31.824218 38.484375 57.03125 38.484375h54.976562c20.898438 0 40.175781-10.464844 51.566406-27.988282l13.199219-20.308593c3.628906-5.582031 9.769531-8.914063 16.429687-8.914063h41.3125l-8.96875 52.9375c-4.890624 28.859375-29.6875 49.804688-58.957031 49.804688zm0 0"/></svg>