<svg height="511pt" viewBox="1 -58 511.999 511" width="511pt" xmlns="http://www.w3.org/2000/svg"><path d="m481.773438 175.703125c-3.273438-22.519531-10.578126-44-21.8125-64.066406 8.675781-8.226563 16.203124-17.347657 22.535156-27.34375 4.226562-6.671875 4.617187-14.875 1.050781-21.945313-3.613281-7.152344-10.539063-11.765625-18.527344-12.335937-10.796875-.769531-22.222656-3.378907-34.914062-7.128907 2.824219-1.363281 5.515625-2.835937 7.992187-4.425781 3.480469-2.238281 4.492188-6.878906 2.25-10.363281-2.238281-3.484375-6.878906-4.492188-10.363281-2.253906-6.503906 4.183594-14.804687 7.488281-23.542969 9.4375-2.996094-1.011719-6.058594-2.050782-9.203125-3.117188-19.355469-6.585937-41.277343-14.039062-67.53125-21.105468-.007812-.003907-.019531-.007813-.027343-.007813-23.578126-7-48.363282-10.546875-73.679688-10.546875-60.566406 0-117.367188 20.378906-159.933594 57.386719-8.195312 7.125-15.816406 14.84375-22.652344 22.9375-2.675781 3.164062-2.273437 7.894531.890626 10.566406 3.164062 2.675781 7.894531 2.277344 10.566406-.886719 6.34375-7.511718 13.417968-14.675781 21.035156-21.296875 39.839844-34.632812 93.144531-53.707031 150.09375-53.707031 23.617188 0 46.734375 3.269531 68.71875 9.722656.1875.066406.378906.125.570312.179688 26.015626 6.980468 47.855469 14.40625 67.121094 20.957031 3.785156 1.289063 7.457032 2.535156 11.042969 3.742187.039063.015626.078125.027344.117187.039063 22.941407 7.710937 42 13.519531 60.378907 14.832031 2.675781.191406 4.996093 1.738282 6.203125 4.132813.5625 1.113281 1.652344 4.035156-.328125 7.160156-15.445313 24.386719-38.964844 43.105469-69.898438 55.640625-26.789062 10.855469-59.082031 16.84375-93.390625 17.3125-69.445312.925781-126.699218-19.679688-139.921875-39.339844-.003906-.007812-.011719-.015625-.015625-.027344-.121094-.171874-.246094-.339843-.378906-.503906-.023438-.027344-.042969-.058594-.070312-.089844-.3125-.378906-.667969-.726562-1.058594-1.042968-.390625-.3125-.804688-.582032-1.242188-.808594-.035156-.019531-.074218-.03125-.113281-.050781-.183594-.09375-.375-.179688-.566406-.257813-.007813-.003906-.015625-.007812-.027344-.011718-.070313-.027344-.140625-.046876-.210937-.074219-.152344-.050781-.304688-.105469-.457032-.152344-.113281-.03125-.230468-.058594-.339844-.082031-.125-.03125-.246093-.0625-.367187-.085938-.128906-.023437-.257813-.039062-.382813-.054687-.113281-.015625-.226562-.035157-.34375-.042969-.125-.011719-.246093-.015625-.371093-.019531-.121094-.003907-.242188-.007813-.363281-.007813-.113282 0-.222657.007813-.332032.015625-.136718.007813-.273437.011719-.410156.03125-.089844.007813-.179688.023438-.273438.039063-.152343.019531-.308593.046875-.460937.078125-.070313.015625-.144531.035156-.214844.054687-.167969.039063-.332031.082032-.492187.132813-.066406.019531-.128906.046875-.195313.070312-.164062.054688-.324219.113281-.484375.179688-.074218.035156-.144531.070312-.21875.105469-.144531.066406-.289062.132812-.429687.210937-.105469.054687-.203125.121094-.304688.183594-.09375.054687-.191406.109375-.285156.167969-.011719.007812-.019531.019531-.03125.027343-.132813.089844-.257813.1875-.386719.285157-.066406.054687-.140625.105468-.207031.160156-.121094.101562-.234375.210937-.347656.320312-.617188.582032-1.121094 1.25-1.5 1.980469-.011719.023437-.023438.054687-.039063.082031-.09375.195313-.1875.390625-.265625.59375-.003906.007813-.011719.019532-.015625.027344-19.058594 48.386719-78.375 71.546875-105.105468 79.730469-.09375.027343-.1875.054687-.28125.085937-.570313.171875-1.128907.34375-1.667969.503906-.910157.269532-1.585938-.121093-1.902344-.378906-.355469-.289062-.769531-.800781-.707031-1.613281 1.949218-25.433594 9.375-49.628906 22.070312-71.914063 2.050782-3.597656.796875-8.179687-2.804687-10.230468-3.597657-2.050782-8.175781-.792969-10.226563 2.804687-11.65625 20.460938-19.210937 42.410157-22.5625 65.402344-18.988281 12.90625-30.222656 33.996094-30.222656 57.132813 0 38.109374 31.003906 69.113281 69.109375 69.113281 1.28125 0 2.585937-.046875 3.90625-.125 8.972656 13.449219 19.851563 25.996093 32.511719 37.359375 40.234375 36.121094 93.671875 56.015625 150.472656 56.015625 40.234375 0 79.421875-10.148438 113.320312-29.355469 3.605469-2.039062 4.871094-6.617188 2.828126-10.222656-2.039063-3.605469-6.617188-4.867188-10.21875-2.828125-31.652344 17.929687-68.28125 27.40625-105.929688 27.40625-109.015625 0-197.746094-79.078125-198.203125-176.433594 28.585937-9.398437 81.101563-32.011719 104.667969-76.34375 10.824218 9.453125 27.917968 17.90625 49.621094 24.394531 26.949218 8.054688 58.761718 12.429688 90.085937 12.429688 1.519531 0 3.050781-.007813 4.570313-.03125 22.671874-.308594 44.566406-2.929688 64.773437-7.691406 25.726563 25.386718 60.292969 39.910156 82.683594 47.246093-.238281 49.410157-23.769531 96.820313-64.660157 130.171875-3.210937 2.613282-3.6875 7.339844-1.070312 10.550782 1.480469 1.816406 3.640625 2.757812 5.816406 2.757812 1.664063 0 3.34375-.550781 4.734375-1.6875 15.738281-12.835938 29.09375-27.613281 39.808594-43.742188 1.375.082032 2.730469.128907 4.058594.128907 38.109375 0 69.113281-31.003907 69.113281-69.109375 0-23.140625-11.234375-44.230469-30.226562-57.136719zm-417.832032 110.992187c-27.421875-2.613281-48.941406-25.765624-48.941406-53.859374 0-14.140626 5.363281-27.304688 14.789062-37.210938 1.039063 2.820312 2.832032 5.355469 5.242188 7.300781 2.292969 1.851563 4.984375 3.046875 7.804688 3.539063.546874 28.246094 7.808593 55.480468 21.105468 80.230468zm324.644532-134.832031c5.847656-1.828125 11.515624-3.84375 16.976562-6.054687 16.085938-6.519532 30.34375-14.625 42.742188-24.21875 11.398437 21.195312 18.109374 44.042968 19.949218 68.050781.0625.8125-.351562 1.328125-.707031 1.617187-.316406.253907-.988281.648438-1.902344.375-18.566406-5.515624-51.417969-17.636718-77.058593-39.769531zm59.292968 134.84375c13.324219-24.828125 20.71875-52.191406 21.28125-80.242187 2.820313-.492188 5.515625-1.6875 7.808594-3.539063 2.414062-1.945312 4.203125-4.480469 5.242188-7.300781 9.425781 9.90625 14.789062 23.070312 14.789062 37.210938 0 28.15625-21.617188 51.34375-49.121094 53.871093zm-140.472656-79.941406c0 4.144531 3.359375 7.5 7.5 7.5 4.144531 0 7.5-3.355469 7.5-7.5 0-5.226563 4.253906-9.476563 9.480469-9.476563 5.226562 0 9.476562 4.253907 9.476562 9.476563 0 4.144531 3.359375 7.5 7.5 7.5 4.144531 0 7.5-3.355469 7.5-7.5 0-13.496094-10.980469-24.476563-24.476562-24.476563-13.496094 0-24.480469 10.980469-24.480469 24.476563zm-42.128906-105.832031c-3.722656-1.8125-8.214844-.265625-10.027344 3.457031-1.816406 3.722656-.269531 8.210937 3.457031 10.027344 13.152344 6.410156 31.429688 9.980469 51.878907 9.980469 30.125 0 64.960937-7.75 95.074218-25.597657 3.566406-2.109375 4.742188-6.710937 2.628906-10.273437-2.109374-3.5625-6.710937-4.742188-10.273437-2.628906-45.597656 27.019531-104.40625 28.84375-132.738281 15.035156zm-26.832032 124.183594c-7.769531 0-14.09375 6.324218-14.09375 14.09375v17.554687c0 17.449219 14.199219 31.644531 31.648438 31.644531s31.644531-14.195312 31.644531-31.644531v-17.554687c0-7.773438-6.320312-14.09375-14.089843-14.09375zm34.203126 31.648437c0 9.179687-7.46875 16.644531-16.648438 16.644531s-16.644531-7.46875-16.644531-16.644531v-16.648437h33.292969zm34.652343-194.136719c-27.199219 2.953125-55.335937-6.1875-71.160156-14.914062-3.628906-2.003906-8.191406-.683594-10.191406 2.945312-2 3.625-.679688 8.1875 2.945312 10.1875 19.828125 10.9375 45.460938 17.3125 68.203125 17.3125 4.046875 0 8.003906-.203125 11.820313-.617187 4.117187-.449219 7.09375-4.148438 6.648437-8.265625-.449218-4.117188-4.136718-7.113282-8.265625-6.648438zm-151.664062 144.136719c0 4.144531 3.355469 7.5 7.5 7.5 4.140625 0 7.5-3.355469 7.5-7.5 0-5.226563 4.25-9.476563 9.476562-9.476563 5.226563 0 9.480469 4.253907 9.480469 9.476563 0 4.144531 3.355469 7.5 7.5 7.5s7.5-3.355469 7.5-7.5c0-13.496094-10.980469-24.476563-24.480469-24.476563-13.496093 0-24.476562 10.980469-24.476562 24.476563zm0 0"/></svg>