<svg height="512pt" viewBox="-32 0 511 512" width="512pt" xmlns="http://www.w3.org/2000/svg"><path d="m223.820312 130.351562c9.503907 0 18.546876-4.117187 24.800782-11.292968 2.71875-3.125 2.394531-7.863282-.726563-10.582032-3.121093-2.722656-7.859375-2.398437-10.582031.726563-3.40625 3.90625-8.324219 6.148437-13.492188 6.148437-5.167968 0-10.085937-2.242187-13.492187-6.148437-2.722656-3.125-7.460937-3.449219-10.582031-.726563-3.125 2.71875-3.449219 7.457032-.726563 10.582032 6.253907 7.175781 15.292969 11.292968 24.800781 11.292968zm80.121094-16.757812v-12.054688c0-4.140624-3.355468-7.5-7.5-7.5-4.140625 0-7.5 3.359376-7.5 7.5v12.054688c0 4.144531 3.359375 7.5 7.5 7.5 4.144532 0 7.5-3.355469 7.5-7.5zm-145.246094 0v-12.054688c0-4.140624-3.355468-7.5-7.5-7.5-4.140624 0-7.5 3.359376-7.5 7.5v12.054688c0 4.144531 3.359376 7.5 7.5 7.5 4.144532 0 7.5-3.355469 7.5-7.5zm278.648438 144.425781c1.125-8.183593 1.695312-16.457031 1.695312-24.632812 0-14.351563-1.726562-28.660157-5.113281-42.613281.378907-.375.75-.757813 1.109375-1.160157 6.285156-7.054687 8.089844-16.90625 4.71875-25.710937-5.179687-13.511719-11.902344-26.558594-20.019531-38.871094 7.578125-10.136719 6.765625-24.601562-2.4375-33.804688-8.144531-8.148437-20.414063-9.71875-30.152344-4.714843-32.429687-30.332031-74.40625-51.105469-119.546875-59.191407.023438-.472656.039063-.945312.039063-1.421874 0-6.917969-2.691407-13.421876-7.585938-18.308594-4.890625-4.894532-11.394531-7.589844-18.3125-7.589844s-13.417969 2.695312-18.3125 7.585938l-16.433593 16.433593c-24.339844 1.628907-48.066407 6.777344-70.5625 15.335938-3.871094 1.476562-5.8125 5.808593-4.339844 9.679687 1.136718 2.992188 3.988281 4.832032 7.011718 4.832032.882813 0 1.785157-.15625 2.664063-.488282 16.1875-6.160156 33.058594-10.4375 50.355469-12.789062-1.898438 3.640625-2.90625 7.710937-2.90625 11.933594 0 6.917968 2.691406 13.421874 7.582031 18.316406 4.894531 4.890625 11.398437 7.585937 18.316406 7.585937 6.914063 0 13.417969-2.695312 18.3125-7.585937l26.625-26.625c.820313-.820313 1.570313-1.6875 2.265625-2.59375 42.71875 7.132812 82.519532 26.347656 113.304688 54.65625l-21.578125 21.578125c-10.09375 10.097656-10.09375 26.527343 0 36.625 4.894531 4.890625 11.398437 7.585937 18.316406 7.585937 6.914063 0 13.417969-2.695312 18.3125-7.585937l18.351563-18.355469c6.703124 10.566406 12.328124 21.675781 16.722656 33.148438 1.378906 3.597656.664062 7.472656-1.914063 10.363281-.644531.722656-1.363281 1.339843-2.140625 1.839843-.011718.007813-.023437.015626-.035156.023438-2.324219 1.488281-5.140625 1.953125-7.945312 1.238281-5.359376-1.371093-10.382813-2.847656-15.242188-4.273437-16.042969-4.710938-31.191406-9.160156-54.910156-9.160156-21.554688 0-41.5 5.25-60.789063 10.328124-18.835937 4.957032-38.3125 10.082032-58.953125 10.082032s-40.117187-5.125-58.949218-10.082032c-19.292969-5.078124-39.238282-10.328124-60.789063-10.328124-23.71875 0-38.871094 4.449218-54.914063 9.160156-4.859374 1.425781-9.882812 2.902344-15.242187 4.273437-2.796875.714844-5.609375.25-7.929687-1.230469-.015626-.011718-.035157-.019531-.050782-.03125-.777344-.5-1.496094-1.117187-2.140625-1.839843-2.574219-2.890625-3.289062-6.765625-1.910156-10.363281 5.492187-14.332032 12.839844-28.046876 21.882813-40.882813l16.761718 16.765625c4.894532 4.894531 11.398438 7.585938 18.3125 7.585938 6.917969 0 13.421875-2.691407 18.3125-7.585938 4.894532-4.890625 7.585938-11.394531 7.585938-18.3125s-2.695313-13.421875-7.585938-18.3125l-18.28125-18.285156c9.914063-8.351563 20.671875-15.867188 32.097656-22.367188 3.597657-2.050781 4.855469-6.628906 2.808594-10.230468-2.050781-3.597657-6.628906-4.851563-10.226562-2.808594-12.65625 7.203125-24.566406 15.5625-35.492188 24.894531-10.152344-7.859375-24.84375-7.140625-34.152344 2.167969-4.890624 4.890625-7.585937 11.394531-7.585937 18.3125 0 6.496094 2.375 12.625 6.710937 17.394531-10.457031 14.460937-18.910156 30.003906-25.152343 46.296875-3.375 8.804688-1.566407 18.652344 4.714843 25.707031.359376.402344.730469.785157 1.109376 1.164063-3.382813 13.953125-5.113282 28.261718-5.113282 42.613281 0 8.175781.574219 16.445313 1.699219 24.632813-8.714844 12.820312-11.820313 28.542968-8.488281 43.855468l30.5 140.128906c4.300781 19.761719 15.339844 37.632813 31.085937 50.316407 15.746094 12.6875 35.554688 19.675781 55.777344 19.675781h209.292969c21.261718 0 41.847656-7.636719 57.96875-21.5 3.140625-2.699219 3.5-7.433594.796875-10.574219-2.699219-3.144531-7.433594-3.5-10.578125-.796875-13.402344 11.523438-30.515625 17.871094-48.1875 17.871094h-39.835938l15.25-210.191406c1.570313-21.6875 19.835938-38.675782 41.578125-38.675782h44.980469c12.675781 0 24.507812 5.664063 32.460938 15.53125.183593.230469.351562.46875.53125.699219.003906.007813.011718.015625.015624.023438 7.535157 9.765625 10.359376 22.210937 7.726563 34.300781l-30.5 140.128906c-1.121094 5.164063-2.796875 10.203125-4.976563 14.984375-1.71875 3.765625-.058593 8.214844 3.710938 9.933594 3.765625 1.722656 8.21875.058594 9.9375-3.710937 2.621094-5.75 4.636719-11.808594 5.988281-18.015626l30.496094-140.128906c3.332031-15.3125.230469-31.039062-8.484375-43.859375zm-185.515625-227.984375c-.074219.144532-.140625.292969-.207031.441406-.53125 1.144532-1.253906 2.207032-2.175782 3.128907l-26.625 26.625c-2.0625 2.058593-4.796874 3.191406-7.707031 3.191406-2.910156 0-5.648437-1.132813-7.707031-3.191406-2.058594-2.058594-3.191406-4.796875-3.191406-7.707031 0-2.910157 1.132812-5.648438 3.191406-7.707032l26.628906-26.625c2.058594-2.058594 4.792969-3.191406 7.703125-3.191406 2.914063 0 5.648438 1.132812 7.707031 3.191406 2.058594 2.058594 3.191407 4.796875 3.191407 7.707032 0 1.441406-.277344 2.839843-.808594 4.136718zm154.863281 87.210938-26.625 26.625c-2.058594 2.058594-4.792968 3.191406-7.707031 3.191406-2.910156 0-5.648437-1.132812-7.707031-3.191406-4.246094-4.25-4.246094-11.160156 0-15.410156l26.523437-26.523438c.109375-.097656.222657-.195312.332031-.300781.027344-.027344.054688-.058594.082032-.085938 2.082031-1.929687 4.734375-2.90625 7.394531-2.90625 2.792969 0 5.582031 1.066407 7.707031 3.191407 4.25 4.246093 4.25 11.160156 0 15.410156zm-362.171875-24.734375c2.125-2.125 4.917969-3.1875 7.707031-3.1875 2.789063 0 5.582032 1.0625 7.707032 3.1875l26.625 26.625c2.058594 2.058593 3.191406 4.792969 3.191406 7.707031 0 2.910156-1.132812 5.644531-3.191406 7.703125s-4.796875 3.191406-7.707032 3.191406c-2.910156 0-5.648437-1.132812-7.707031-3.191406l-26.625-26.625c-2.058593-2.058594-3.191406-4.792969-3.191406-7.707031 0-2.910156 1.132813-5.648438 3.191406-7.703125zm74.652344 404.488281c-16.808594 0-33.273437-5.808594-46.363281-16.355469s-22.269532-25.402343-25.84375-41.828125l-30.496094-140.128906c-2.632812-12.089844.191406-24.535156 7.722656-34.300781.007813-.007813.011719-.015625.019532-.023438.179687-.230469.347656-.46875.527343-.699219 7.957031-9.867187 19.789063-15.53125 32.464844-15.53125h44.980469c21.742187 0 40.003906 16.988282 41.578125 38.675782l15.25 210.191406zm169.230469-204.160156v.003906l-14.8125 204.15625h-99.539063l-14.8125-204.15625v-.003906c-.847656-11.679688 3.078125-22.832032 11.054688-31.410156 7.972656-8.574219 18.816406-13.296876 30.527343-13.296876h46c11.710938 0 22.550782 4.722657 30.527344 13.296876 7.976563 8.578124 11.898438 19.730468 11.054688 31.410156zm135.292968-48.929688c-9.558593-6.945312-21.121093-10.777344-33.257812-10.777344h-44.980469c-20.933593 0-39.488281 11.589844-49.300781 28.824219-2.167969-3.847656-4.777344-7.464843-7.824219-10.742187-10.6875-11.488282-25.816406-18.082032-41.507812-18.082032h-46.003907c-15.691406 0-30.824218 6.59375-41.507812 18.082032-3.050781 3.277344-5.65625 6.894531-7.824219 10.742187-9.816406-17.230469-28.367187-28.824219-49.304687-28.824219h-44.980469c-12.136719 0-23.699219 3.832032-33.257813 10.777344-.226562-3.515625-.34375-7.027344-.34375-10.523437 0-11.980469 1.324219-23.925781 3.898438-35.628907 3.316406.515626 6.761719.378907 10.144531-.488281 5.613281-1.441406 10.765625-2.953125 15.75-4.414062 15.625-4.589844 29.125-8.554688 50.683594-8.554688 19.613281 0 37.757813 4.777344 56.972656 9.835938 19.757813 5.199219 40.1875 10.578125 62.769531 10.578125 22.585938 0 43.011719-5.378906 62.769532-10.578125 19.210937-5.058594 37.359375-9.835938 56.972656-9.835938 21.5625 0 35.058594 3.964844 50.683594 8.554688 4.984375 1.460937 10.136718 2.976562 15.75 4.414062 3.382812.863281 6.828125 1.003907 10.144531.488281 2.574219 11.703126 3.898437 23.648438 3.898437 35.628907 0 3.496093-.121093 7.007812-.34375 10.523437zm0 0"/></svg>