<svg height="512pt" viewBox="0 -36 512 512" width="512pt" xmlns="http://www.w3.org/2000/svg"><path d="m192.53125 83.0625c19.457031 0 35.285156-18.632812 35.285156-41.53125s-15.828125-41.53125-35.285156-41.53125-35.289062 18.632812-35.289062 41.53125 15.832031 41.53125 35.289062 41.53125zm0-68.0625c11.183594 0 20.285156 11.902344 20.285156 26.53125s-9.101562 26.53125-20.285156 26.53125c-11.1875 0-20.289062-11.902344-20.289062-26.53125s9.101562-26.53125 20.289062-26.53125zm-42.6875 250.300781c6.136719 0 11.90625-2.390625 16.246094-6.730469l27.082031-27.082031c8.957031-8.957031 8.957031-23.535156 0-32.496093-8.960937-8.957032-23.535156-8.957032-32.496094 0l-27.078125 27.082031c-4.339844 4.339843-6.730468 10.109375-6.730468 16.246093 0 6.140626 2.390624 11.910157 6.730468 16.25 4.339844 4.339844 10.109375 6.730469 16.246094 6.730469zm-5.640625-28.621093 27.078125-27.078126c1.558594-1.554687 3.601562-2.332031 5.644531-2.332031 2.039063 0 4.082031.777344 5.640625 2.332031 3.109375 3.109376 3.109375 8.171876 0 11.28125l-27.082031 27.078126c-1.507813 1.507812-3.511719 2.335937-5.640625 2.335937s-4.132812-.828125-5.640625-2.335937c-1.507813-1.507813-2.335937-3.511719-2.335937-5.640626 0-2.128906.828124-4.132812 2.335937-5.640624zm329.8125 42.484374c-8.003906-34.585937-33.546875-66.148437-72.429687-89.296874-18.117188-10.785157-38.582032-19.378907-60.5-25.574219 1.648437-5.796875 4.234374-12.039063 7.753906-18.65625 10.582031-19.90625 10.792968-42.167969.609375-64.382813-1.726563-3.765625-6.175781-5.421875-9.941407-3.691406-3.769531 1.722656-5.421874 6.175781-3.695312 9.941406 8.28125 18.058594 8.207031 35.25-.214844 51.089844-4.148437 7.800781-7.132812 15.054688-9.0625 21.992188-22.527344-5.140626-46.328125-7.828126-70.53125-7.828126-28.175781 0-55.804687 3.636719-81.511718 10.546876 4.777343-16.730469 17.074218-34.164063 40.140624-41.851563 32.375-10.785156 45.976563-48.519531 47.789063-77.558594.300781-4.839843 3.050781-9.085937 7.347656-11.355469 4.316407-2.285156 9.1875-2.171874 13.367188.3125 12.8125 7.613282 24.707031 17.238282 34.394531 27.832032 2.792969 3.058594 7.539062 3.269531 10.597656.476562 3.054688-2.792968 3.269532-7.539062.472656-10.59375-10.664062-11.671875-23.738281-22.257812-37.804687-30.613281-8.648437-5.132813-19.125-5.386719-28.035156-.675781-8.957031 4.734375-14.679688 13.585937-15.3125 23.6875-1.640625 26.300781-13.890625 56.375-37.558594 64.257812-15.5625 5.1875-28.726563 14.785156-38.074219 27.761719-7.039062 9.769531-11.839844 21.425781-13.765625 33.28125-17.078125 5.722656-33.109375 12.957031-47.636719 21.601563-38.882812 23.148437-64.421874 54.714843-72.429687 89.300781-22.179687 6.921875-37.984375 24.503906-37.984375 45.054687 0 22.296875 18.601562 41.101563 43.769531 46.589844l10.9375 27.628906c6.746094 17.042969 20.390625 30.691406 37.4375 37.441406.90625.355469 1.839844.527344 2.757813.527344 2.988281 0 5.808594-1.796875 6.976562-4.738281 1.523438-3.855469-.359375-8.210937-4.210937-9.734375-13.210938-5.234375-23.785157-15.808594-29.011719-29.015625l-8.125-20.519531c7.761719-.167969 15.269531-1.535156 22.332031-4.097656 5.738281-2.085938 12.0625-2.085938 17.796875 0 7.554688 2.738281 15.613282 4.128906 23.949219 4.128906 8.339844 0 16.398437-1.390625 23.949219-4.128906 5.738281-2.085938 12.058594-2.085938 17.796875 0 7.554687 2.738281 15.613281 4.128906 23.949219 4.128906 8.339843 0 16.398437-1.390625 23.949218-4.128906 5.738282-2.085938 12.058594-2.085938 17.796875 0 7.554688 2.738281 15.609375 4.128906 23.949219 4.128906s16.398438-1.390625 23.949219-4.128906c5.738281-2.085938 12.058593-2.085938 17.796875 0 7.554687 2.738281 15.609375 4.128906 23.949218 4.128906 8.339844 0 16.398438-1.390625 23.949219-4.128906 5.738281-2.085938 12.058594-2.085938 17.796875 0 7.550782 2.738281 15.609375 4.128906 23.949219 4.128906s16.394531-1.390625 23.949219-4.128906c5.738281-2.082032 12.058594-2.082032 17.796875 0 7.0625 2.5625 14.570312 3.929687 22.335937 4.097656l-8.125 20.519531c-7.847656 19.824219-26.695312 32.636719-48.019531 32.636719h-265.632813c-4.140624 0-7.5 3.355468-7.5 7.5 0 4.140625 3.359376 7.5 7.5 7.5h265.632813c27.515625 0 51.835937-16.53125 61.964844-42.113282l10.9375-27.632812c25.167969-5.488281 43.769531-24.292969 43.769531-46.589844 0-20.550781-15.804688-38.132812-37.984375-45.058594zm-355.929687-76.40625c37.914062-22.570312 86.894531-35 137.914062-35s100 12.429688 137.914062 35c32.847657 19.554688 55.121094 45.320313 63.769532 73.414063-1.519532-.097656-3.050782-.160156-4.601563-.160156-8.339843 0-16.394531 1.390625-23.945312 4.132812-5.742188 2.082031-12.0625 2.082031-17.800781 0-7.550782-2.742187-15.609376-4.132812-23.949219-4.132812-8.335938 0-16.394531 1.390625-23.949219 4.132812-5.738281 2.078125-12.058594 2.082031-17.796875 0-7.550781-2.742187-15.609375-4.132812-23.949219-4.132812-8.335937 0-16.394531 1.390625-23.949218 4.132812-5.734376 2.082031-12.058594 2.082031-17.796876 0-7.550781-2.742187-15.609374-4.132812-23.949218-4.132812-8.335938 0-16.394532 1.390625-23.945313 4.132812-5.738281 2.082031-12.0625 2.082031-17.796875 0-7.554687-2.742187-15.613281-4.132812-23.949218-4.132812-8.339844 0-16.398438 1.390625-23.949219 4.132812-5.738281 2.078125-12.058594 2.082031-17.796875 0-7.550782-2.742187-15.609375-4.132812-23.949219-4.132812s-16.394531 1.390625-23.949219 4.132812c-5.738281 2.078125-12.058594 2.082031-17.796875 0-7.550781-2.742187-15.609375-4.132812-23.949219-4.132812-1.550781 0-3.078124.0625-4.601562.160156 8.652344-28.09375 30.925781-53.859375 63.773438-73.414063zm343.898437 153.988282c-.117187.015625-.226563.03125-.339844.050781-2.773437.414063-5.632812.636719-8.558593.636719-6.589844 0-12.925782-1.085938-18.832032-3.230469-4.519531-1.640625-9.269531-2.460937-14.015625-2.460937-4.75 0-9.5.820312-14.019531 2.460937-5.90625 2.144531-12.242188 3.230469-18.828125 3.230469-6.589844 0-12.925781-1.085938-18.832031-3.230469-9.039063-3.28125-18.996094-3.28125-28.035156 0-5.90625 2.144531-12.242188 3.230469-18.832032 3.230469-6.585937 0-12.921875-1.085938-18.832031-3.230469-9.035156-3.28125-18.992187-3.28125-28.03125 0-5.90625 2.144531-12.242187 3.230469-18.832031 3.230469-6.585938 0-12.921875-1.085938-18.832032-3.230469-9.035156-3.28125-18.992187-3.28125-28.03125 0-5.90625 2.144531-12.242187 3.230469-18.832031 3.230469-6.589843 0-12.921875-1.085938-18.832031-3.230469-9.039062-3.28125-18.992188-3.28125-28.03125 0-5.90625 2.144531-12.242188 3.230469-18.832031 3.230469-6.585938 0-12.921875-1.085938-18.828125-3.230469-9.039063-3.28125-18.996094-3.28125-28.035156 0-5.90625 2.144531-12.242188 3.230469-18.828126 3.230469-2.925781 0-5.78125-.222656-8.546874-.636719-.117188-.019531-.238282-.035156-.359376-.050781-19.957031-3.121094-35.007812-16.515625-35.007812-32.523438 0-14.84375 12.941406-27.441406 30.742188-31.683594.183593-.035156.367187-.074218.546874-.125 4-.90625 8.238282-1.402343 12.628907-1.402343 6.585937 0 12.921875 1.085937 18.832031 3.230469 9.035156 3.28125 18.992188 3.277343 28.03125 0 5.90625-2.144532 12.242188-3.230469 18.832031-3.230469 6.585938 0 12.921875 1.085937 18.832031 3.230469 9.039063 3.28125 18.992188 3.277343 28.03125 0 5.90625-2.144532 12.242188-3.230469 18.832032-3.230469 6.585937 0 12.921875 1.085937 18.828125 3.230469 9.039062 3.28125 18.996093 3.28125 28.035156 0 5.90625-2.144532 12.242187-3.230469 18.828125-3.230469 6.589844 0 12.925781 1.085937 18.832031 3.230469 9.039063 3.28125 18.992188 3.28125 28.03125 0 5.90625-2.144532 12.242188-3.230469 18.832031-3.230469 6.585938 0 12.921876 1.085937 18.832032 3.230469 9.039062 3.28125 18.992187 3.277343 28.03125 0 5.90625-2.144532 12.242187-3.230469 18.832031-3.230469 6.585937 0 12.921875 1.085937 18.832031 3.230469 9.035156 3.28125 18.992188 3.277343 28.03125 0 5.90625-2.144532 12.242188-3.230469 18.832032-3.230469 4.347656 0 8.550781.484375 12.519531 1.382812.242187.066407.488281.125.742187.167969 17.75 4.261719 30.652344 16.839844 30.652344 31.660156 0 16.007813-15.054688 29.40625-35.015625 32.523438zm-126.90625-91.445313c6.136719 0 11.90625-2.390625 16.246094-6.730469l27.078125-27.082031c4.339844-4.339843 6.730468-10.109375 6.730468-16.246093 0-6.136719-2.390624-11.90625-6.726562-16.246094-4.339844-4.339844-10.109375-6.730469-16.25-6.730469-6.136719 0-11.90625 2.390625-16.246094 6.730469l-27.078125 27.078125c-4.339843 4.339843-6.730469 10.109375-6.730469 16.246093 0 6.140626 2.390626 11.910157 6.730469 16.25 4.339844 4.339844 10.109375 6.730469 16.246094 6.730469zm-5.640625-28.621093 27.078125-27.078126c1.507813-1.507812 3.511719-2.335937 5.640625-2.335937 2.132812 0 4.132812.828125 5.640625 2.335937 1.507813 1.503907 2.335937 3.507813 2.335937 5.640626 0 2.128906-.828124 4.132812-2.335937 5.640624l-27.078125 27.078126c-1.507812 1.507812-3.511719 2.339843-5.640625 2.339843s-4.132813-.832031-5.640625-2.339843c-1.507812-1.503907-2.335938-3.507813-2.335938-5.640626 0-2.128906.828126-4.132812 2.335938-5.640624zm-92.40625 33.015624c6.136719 0 11.910156-2.390624 16.246094-6.730468l37.9375-37.9375c4.339844-4.339844 6.730468-10.109375 6.730468-16.246094s-2.390624-11.910156-6.730468-16.246094c-4.339844-4.339844-10.109375-6.730468-16.246094-6.730468-6.140625 0-11.910156 2.390624-16.246094 6.726562l-37.941406 37.941406c-4.339844 4.339844-6.726562 10.109375-6.726562 16.246094s2.386718 11.910156 6.726562 16.246094c4.339844 4.339844 10.113281 6.730468 16.25 6.730468zm-5.640625-28.617187 37.9375-37.9375c1.507813-1.507813 3.511719-2.335937 5.640625-2.335937 2.132812 0 4.132812.828124 5.640625 2.335937s2.335937 3.507813 2.335937 5.640625c0 2.128906-.828124 4.132812-2.335937 5.640625l-37.9375 37.9375c-1.507813 1.507813-3.507813 2.335937-5.640625 2.335937-2.128906 0-4.132812-.828124-5.640625-2.335937-1.503906-1.507813-2.335937-3.511719-2.335937-5.640625s.828124-4.132812 2.335937-5.640625zm0 0"/></svg>