<svg height="512pt" viewBox="0 -24 512 512" width="512pt" xmlns="http://www.w3.org/2000/svg"><path d="m499.128906 346.363281c0-9.585937-2.890625-18.792969-8.363281-26.628906-.667969-.960937-.667969-2.324219.003906-3.566406 9.746094-17.976563 6.441407-40.640625-8.027343-55.113281-8.195313-8.195313-19.089844-13.019532-30.667969-13.574219-1.023438-.050781-1.945313-.511719-2.59375-1.304688-2.109375-2.566406-4.460938-4.863281-7-6.890625-.496094-2.644531-1.042969-5.273437-1.648438-7.886718 40.589844-3.683594 71.167969-27.667969 71.167969-57.257813 0-16.003906-8.925781-30.835937-25.136719-41.773437-15.304687-10.320313-35.511719-16.007813-56.898437-16.007813-19.03125 0-37.144532 4.527344-51.695313 12.808594-1.183593-1-2.382812-1.984375-3.585937-2.953125l60.21875-60.222656c13.414062-13.414063 13.414062-35.238282 0-48.652344-13.414063-13.414063-35.242188-13.410156-48.65625 0l-5.773438 5.777344-13.058594-13.058594c-13.414062-13.410156-35.238281-13.410156-48.652343 0-13.414063 13.414062-13.414063 35.242187 0 48.65625l13.054687 13.054687-20.808594 20.808594c-17.714843-5.382813-36.242187-8.191406-55.007812-8.191406s-37.292969 2.808593-55.007812 8.191406l-20.808594-20.808594 13.058594-13.054687c13.414062-13.414063 13.414062-35.242188 0-48.65625-13.417969-13.410156-35.242188-13.410156-48.65625 0l-13.054688 13.058594-5.777344-5.777344c-13.414062-13.414063-35.238281-13.414063-48.652344 0-6.519531 6.515625-10.097656 15.183594-10.078124 24.398437.007812 4.136719 3.363281 7.484375 7.5 7.484375h.015624c4.140626-.007812 7.492188-3.375 7.484376-7.515625-.011719-5.199219 2.007812-10.085937 5.683593-13.761719 7.5625-7.566406 19.875-7.566406 27.441407 0l11.078124 11.078126c2.929688 2.929687 7.679688 2.929687 10.609376 0l18.355468-18.359376c7.566406-7.5625 19.878906-7.5625 27.441406 0 7.566407 7.566407 7.566407 19.875 0 27.441407l-18.359374 18.359375c-1.40625 1.40625-2.195313 3.3125-2.195313 5.304687 0 1.988281.789063 3.894531 2.195313 5.304688l21.035156 21.03125c-5.324219 2.144531-10.550782 4.53125-15.664063 7.152343-.292969.113282-.578125.246094-.859375.402344-.109375.0625-.214844.136719-.324218.203125-6.515626 3.398438-12.847657 7.171875-18.953126 11.324219l-53.097656-53.09375c-2.929687-2.929688-7.675781-2.929688-10.605468 0-2.929688 2.929688-2.929688 7.679688 0 10.605469l51.515624 51.515625c-1.207031.96875-2.40625 1.953125-3.589843 2.953125-14.550781-8.28125-32.664063-12.808594-51.695313-12.808594-21.386718 0-41.59375 5.6875-56.898437 16.007813-16.210938 10.9375-25.136719 25.769531-25.136719 41.773437 0 29.589844 30.578125 53.574219 71.167969 57.257813-.605469 2.613281-1.152344 5.242187-1.648438 7.886718-2.539062 2.027344-4.894531 4.328125-7 6.890625-.648437.789063-1.570312 1.253907-2.59375 1.304688-11.582031.558593-22.472656 5.378906-30.667969 13.574219-14.472656 14.472656-17.773437 37.136718-8.03125 55.113281.671876 1.238281.675782 2.605469.003907 3.566406-5.46875 7.835937-8.363281 17.046875-8.363281 26.628906 0 9.585938 2.894531 18.792969 8.363281 26.632813.671875.957031.667969 2.324218-.003907 3.5625-9.742187 17.980468-6.441406 40.644531 8.03125 55.113281 8.195313 8.195313 19.085938 13.019531 30.667969 13.578125 1.023438.050781 1.945313.511719 2.59375 1.304688 8.738281 10.640624 21.632813 16.84375 35.375 17.023437.203125.003906.398438.003906.601563.003906 12.082031 0 23.542968-4.757812 32.335937-13.433593 9.058594-8.941407 14.25-21.308594 14.25-33.933594v-139.703125c0-10.394531-3.527343-20.609375-9.824219-28.882813 12.34375-56.5 62.570313-97.148437 120.738282-97.148437 19.613281 0 38.324218 4.625 54.984375 12.914062 0 0 .003906.003907.003906.003907.007813.003906.011719.003906.023437.007812 32.734376 16.304688 57.550782 46.78125 65.730469 84.222656-6.296875 8.273438-9.828125 18.488282-9.828125 28.882813v139.707031c0 12.621094 5.195313 24.988281 14.253906 33.929688 8.789063 8.675781 20.253907 13.433593 32.335938 13.433593.199219 0 .402344 0 .601562-.003906 13.742188-.179687 26.636719-6.382813 35.375-17.023437.652344-.789063 1.570313-1.253907 2.597657-1.300782 4.167969-.203125 8.289062-.960937 12.246093-2.253906 3.9375-1.285156 6.085938-5.523438 4.796876-9.460938-1.285157-3.933593-5.515626-6.082031-9.457032-4.796874-2.683594.875-5.480468 1.390624-8.308594 1.527343-5.234374.25-10.140624 2.714844-13.464843 6.761719-5.925781 7.21875-14.667969 11.429688-23.980469 11.550781-.132812 0-.265625 0-.398438 0-8.113281 0-15.84375-3.226562-21.804687-9.109375-6.222656-6.140625-9.789063-14.617187-9.789063-23.253906v-139.707031c0-8.636719 3.566407-17.113281 9.785157-23.253907 5.964843-5.886718 13.691406-9.109374 21.808593-9.109374h.398438c6.28125.082031 12.300781 2.03125 17.375 5.503906.074219.050781.15625.101562.230469.152344 2.359375 1.644531 4.507812 3.617187 6.375 5.890624 3.324219 4.046876 8.230469 6.515626 13.464843 6.765626 7.847657.378906 15.226563 3.648437 20.78125 9.203124 9.8125 9.808594 12.054688 25.171876 5.449219 37.355469-3.394531 6.261719-3.054687 13.660157.886719 19.304688 3.703125 5.304687 5.660156 11.542969 5.660156 18.042969 0 6.496093-1.957031 12.734374-5.660156 18.039062-3.941406 5.648438-4.28125 13.042969-.886719 19.304688 4.367188 8.058593 5.011719 17.609374 1.765625 26.210937-1.464844 3.875.492188 8.203125 4.367188 9.664063 3.875 1.464843 8.199218-.492188 9.664062-4.367188 4.785156-12.675781 3.835938-26.765625-2.609375-38.65625-.671875-1.242188-.671875-2.605469-.003906-3.566406 5.472656-7.835938 8.363281-17.046875 8.363281-26.632813zm-69.164062-215.003906c18.429687 0 35.65625 4.777344 48.511718 13.445313 2.941407 1.984374 5.554688 4.113281 7.828126 6.355468-22.460938-1.5625-52.261719-.195312-80.863282 6.242188-4.777344-6.113282-9.9375-11.941406-15.457031-17.460938 11.527344-5.566406 25.378906-8.582031 39.980469-8.582031zm-82.238282-54.285156c1.40625-1.40625 2.195313-3.3125 2.195313-5.304688 0-1.988281-.789063-3.894531-2.195313-5.304687l-18.359374-18.359375c-3.664063-3.664063-5.683594-8.535157-5.683594-13.71875 0-5.183594 2.019531-10.054688 5.683594-13.722657 7.566406-7.5625 19.875-7.5625 27.441406 0l18.359375 18.359376c2.929687 2.929687 7.675781 2.929687 10.605469 0l11.082031-11.078126c7.566406-7.566406 19.875-7.566406 27.441406 0 7.5625 7.566407 7.5625 19.875-.003906 27.441407l-61.800781 61.800781c-6.105469-4.152344-12.433594-7.925781-18.949219-11.324219-.109375-.066406-.214844-.140625-.328125-.207031-.28125-.15625-.570313-.285156-.863282-.402344-5.113281-2.621094-10.339843-5.007812-15.660156-7.148437zm-314.203124 67.730469c12.855468-8.667969 30.082031-13.445313 48.511718-13.445313 14.601563 0 28.453125 3.015625 39.980469 8.582031-5.519531 5.519532-10.679687 11.351563-15.457031 17.460938-28.597656-6.4375-58.398438-7.804688-80.859375-6.242188 2.273437-2.242187 4.886719-4.371094 7.824219-6.355468zm-18.523438 29.335937c0-2.347656.324219-4.667969.925781-6.953125 20.1875-2.703125 50.910157-2.453125 81.117188 3.527344-9.296875 14.261718-16.648438 29.71875-21.824219 45.953125-33.675781-2.214844-60.21875-20.585938-60.21875-42.527344zm115.085938 242.078125c0 8.636719-3.570313 17.113281-9.789063 23.253906-5.960937 5.886719-13.691406 9.113282-21.804687 9.109375-.132813 0-.265626 0-.398438 0-9.3125-.121093-18.054688-4.332031-23.980469-11.550781-3.328125-4.046875-8.234375-6.511719-13.464843-6.761719-7.847657-.378906-15.226563-3.648437-20.78125-9.203125-9.8125-9.808594-12.054688-25.171875-5.449219-37.355468 3.394531-6.265626 3.054687-13.660157-.886719-19.304688-3.703125-5.304688-5.660156-11.542969-5.660156-18.042969 0-6.496093 1.957031-12.734375 5.660156-18.042969 3.941406-5.640624 4.28125-13.035156.886719-19.300781-6.605469-12.183593-4.363281-27.546875 5.449219-37.359375 5.554687-5.554687 12.933593-8.820312 20.78125-9.199218 5.234374-.253907 10.140624-2.71875 13.464843-6.765626 1.867188-2.269531 4.011719-4.242187 6.363281-5.882812.09375-.0625.191407-.121094.28125-.1875 5.066407-3.453125 11.070313-5.394531 17.335938-5.476562h.398438c8.113281 0 15.84375 3.222656 21.804687 9.109374 6.222656 6.140626 9.789063 14.613282 9.789063 23.253907zm-7.40625-180.085938c-7.421876-4.652343-15.953126-7.101562-24.78125-6.980468-3.792969.046875-7.515626.574218-11.113282 1.507812 8.910156-34.613281 28.441406-65.988281 55.964844-89.484375 8.363281-7.136719 17.335938-13.417969 26.773438-18.804687l17.570312 31.472656c-30.753906 17.652344-54.347656 46.835938-64.414062 82.289062zm133.320312-100.652343c-19.609375 0-38.414062 4.121093-55.5 11.605469l-17.632812-31.589844c22.777343-10.523438 47.71875-16.109375 73.132812-16.109375s50.359375 5.585937 73.136719 16.109375l-17.632813 31.589844c-17.089844-7.484376-35.894531-11.605469-55.503906-11.605469zm158.101562 93.671875c-8.851562-.117188-17.367187 2.328125-24.78125 6.980468-10.070312-35.453124-33.660156-64.636718-64.410156-82.289062l17.566406-31.472656c9.4375 5.390625 18.410157 11.667968 26.773438 18.808594 27.523438 23.492187 47.054688 54.867187 55.964844 89.480468-3.597656-.933594-7.320313-1.460937-11.113282-1.507812zm22.679688-12.484375c-5.175781-16.234375-12.527344-31.691407-21.824219-45.953125 30.207031-5.980469 60.929688-6.234375 81.117188-3.527344.601562 2.285156.925781 4.605469.925781 6.953125 0 21.941406-26.542969 40.3125-60.21875 42.527344zm0 0"/></svg>