<svg height="512pt" viewBox="-17 0 512 512" width="512pt" xmlns="http://www.w3.org/2000/svg"><path d="m156.855469 193.152344c-4.144531 0-7.5 3.359375-7.5 7.5v13.808594c0 4.140624 3.355469 7.5 7.5 7.5 4.140625 0 7.5-3.359376 7.5-7.5v-13.808594c0-4.140625-3.359375-7.5-7.5-7.5zm317.707031-103.992188c-8.691406-15.609375-12.171875-33.300781-10.066406-51.160156.722656-6.125-1.347656-12.125-5.683594-16.460938-4.335938-4.335937-10.335938-6.402343-16.464844-5.6875-17.859375 2.105469-35.546875-1.371093-51.160156-10.0625-6.144531-3.421874-13.585938-3.628906-19.902344-.558593-6.222656 3.027343-10.582031 8.902343-11.664062 15.714843-3.019532 19.023438-11.835938 36.300782-25.5 49.960938-4.179688 4.183594-8.730469 7.902344-13.585938 11.167969 0-.058594 0-.121094 0-.179688 0-45.15625-36.734375-81.894531-81.890625-81.894531s-81.894531 36.738281-81.894531 81.894531c0 .058594.003906.121094.003906.179688-4.855468-3.265625-9.40625-6.984375-13.589844-11.164063-13.660156-13.664062-22.476562-30.941406-25.496093-49.964844-1.082031-6.8125-5.445313-12.683593-11.667969-15.710937-6.316406-3.074219-13.753906-2.867187-19.902344.554687-15.613281 8.6875-33.3125 12.171876-51.160156 10.066407-6.132812-.722657-12.128906 1.347656-16.464844 5.683593-4.335937 4.335938-6.40625 10.335938-5.683594 16.460938 2.105469 17.859375-1.375 35.550781-10.066406 51.160156-5.734375 10.308594-2.113281 23.367188 8.078125 29.113282 1.164063.65625 2.429688.96875 3.675781.96875 2.621094 0 5.164063-1.375 6.539063-3.816407 2.035156-3.609375.761719-8.183593-2.847656-10.21875-2.640625-1.488281-4.28125-5.253906-2.339844-8.75 10.234375-18.382812 14.335937-39.203125 11.855469-60.214843-.246094-2.105469.769531-3.46875 1.394531-4.097657.628906-.625 1.984375-1.648437 4.101563-1.394531 21.011718 2.480469 41.832031-1.621094 60.214843-11.855469 1.898438-1.054687 4.097657-1.117187 6.042969-.171875 1.089844.527344 2.976562 1.824219 3.414062 4.574219 3.519532 22.171875 13.789063 42.304687 29.707032 58.21875 7.792968 7.792969 16.671875 14.257813 26.414062 19.269531 1.445313 6.085938 3.582032 11.988282 6.394532 17.605469-9.210938 3.554687-18.15625 7.785156-26.777344 12.65625l-59.285156-59.289063c-2.929688-2.929687-7.679688-2.929687-10.609376 0-2.929687 2.929688-2.929687 7.679688 0 10.605469l56.765626 56.765625c-8.007813 5.359375-15.675782 11.308594-22.929688 17.832032-1.695312 1.527343-3.355469 3.089843-4.996094 4.667968-4.964844-9.5625-11.355468-18.28125-19.082031-26.007812-8.234375-8.234375-17.660156-15-28.015625-20.109375-3.714844-1.832031-8.210938-.308594-10.042969 3.40625-1.832031 3.714843-.308593 8.210937 3.40625 10.042969 8.878907 4.382812 16.972657 10.191406 24.046875 17.269531 7.851563 7.851562 14.09375 16.890625 18.601563 26.914062-26.847657 30.183594-44.15625 67.660157-49.570313 107.839844-9.933594 5.121094-16.75 15.476563-16.75 27.402344s6.816406 22.285156 16.75 27.402343c6.425782 47.714844 29.628906 91.613282 65.652344 124.023438 15.402344 13.851562 32.65625 25.136719 51.136719 33.628906.292969.152344.589843.289063.894531.402344 13.097656 5.941406 26.800781 10.476562 40.894531 13.53125.140625.027344.277344.070312.421875.09375 13.949219 2.988281 28.273438 4.53125 42.765625 4.53125 51.832031 0 101.214844-19.488281 139.046875-54.878906 3.023438-2.832032 3.183594-7.574219.355469-10.601563-2.832031-3.023437-7.578125-3.183593-10.601563-.355469-11.058593 10.347657-23.1875 19.21875-36.109374 26.527344 1.804687-7.875 3.355468-15.519531 4.582031-22.667968 12.371093-7.683594 19.902343-21.09375 19.902343-35.859376 0-23.300781-18.957031-42.253906-42.257812-42.253906s-42.253906 18.953125-42.253906 42.253906c0 12.5 5.480468 24.203126 14.878906 32.1875-2.753906 14.636719-6.933594 31.410157-11.757812 47.25-11.695313 2.246094-23.667969 3.398438-35.785157 3.398438-12.105469 0-24.082031-1.164062-35.789062-3.421875-4.824219-15.832031-9-32.597656-11.753907-47.226563 9.398438-7.984374 14.878907-19.6875 14.878907-32.1875 0-23.296874-18.953125-42.253906-42.253907-42.253906-23.300781 0-42.257812 18.957032-42.257812 42.253906 0 14.769532 7.535156 28.175782 19.902344 35.859376 1.226562 7.140624 2.773437 14.773437 4.578125 22.632812-11.878907-6.707031-23.082031-14.726562-33.386719-23.996094-32.003906-28.792968-53.078125-67.371094-60.003906-109.460937h372.148437c-4.867187 29.546875-16.761719 57.648437-34.730469 81.769531-2.476562 3.320312-1.789062 8.019531 1.53125 10.492188 1.347657 1.003906 2.917969 1.484374 4.476563 1.484374 2.289063 0 4.546875-1.042968 6.019531-3.019531 20.582032-27.625 33.789063-60.085937 38.378906-94.125 9.949219-5.113281 16.777344-15.480469 16.777344-27.414062 0-11.925781-6.816406-22.28125-16.75-27.402344-5.414062-40.183594-22.722656-77.65625-49.570312-107.839844 4.507812-10.027343 10.75-19.066406 18.601562-26.914062 13.664063-13.664063 30.9375-22.484375 49.960938-25.5 6.8125-1.082031 12.6875-5.441407 15.714844-11.667969 3.074218-6.316406 2.863281-13.757812-.554688-19.902344zm-161 297.75c15.027344 0 27.257812 12.226563 27.257812 27.253906 0 10.382813-5.777343 19.722657-15.070312 24.378907-2.160156 1.082031-3.664062 3.136719-4.046875 5.519531-1.820313 11.351562-4.554687 24.203125-7.933594 37.371094-7.320312 3.179687-14.835937 5.902344-22.515625 8.125 4.421875-15.507813 8.148438-31.414063 10.523438-45.125.507812-2.933594-.765625-5.890625-3.246094-7.535156-7.65625-5.074219-12.226562-13.570313-12.226562-22.734376.003906-15.027343 12.230468-27.253906 27.257812-27.253906zm-177.09375 27.253906c0-15.027343 12.226562-27.253906 27.257812-27.253906 15.027344 0 27.253907 12.226563 27.253907 27.253906 0 9.160157-4.570313 17.660157-12.226563 22.734376-2.476562 1.644531-3.753906 4.601562-3.246094 7.53125 2.375 13.703124 6.097657 29.597656 10.515626 45.09375-7.671876-2.226563-15.191407-4.929688-22.507813-8.109376-3.378906-13.160156-6.113281-26.007812-7.929687-37.351562-.382813-2.382812-1.886719-4.4375-4.046876-5.519531-9.296874-4.65625-15.070312-13.996094-15.070312-24.378907zm102.175781-399.164062c36.882813 0 66.890625 30.007812 66.890625 66.894531 0 4.226563-.40625 8.414063-1.1875 12.515625-.007812.046875-.019531.085938-.027344.128906-1.273437 6.601563-3.542968 12.976563-6.75 18.933594-6.539062-1.976562-13.183593-3.617187-19.910156-4.929687 5.308594-7.785157 8.292969-17.078125 8.292969-26.648438 0-26.085937-21.222656-47.308593-47.308594-47.308593-26.085937 0-47.308593 21.222656-47.308593 47.308593 0 9.570313 2.980468 18.863281 8.292968 26.648438-6.730468 1.3125-13.375 2.953125-19.914062 4.929687-3.207032-5.957031-5.476563-12.332031-6.75-18.933594-.007813-.042968-.015625-.082031-.027344-.128906-.78125-4.101562-1.1875-8.289062-1.1875-12.515625 0-36.886719 30.007812-66.894531 66.894531-66.894531zm32.308594 66.894531c0 9.289063-3.894531 17.894531-10.757813 24.03125-7.125-.753906-14.316406-1.152343-21.550781-1.152343s-14.425781.398437-21.550781 1.152343c-6.863281-6.136719-10.757812-14.742187-10.757812-24.03125 0-17.816406 14.492187-32.308593 32.308593-32.308593 17.816407 0 32.308594 14.492187 32.308594 32.308593zm171.207031 226.492188c0 8.722656-7.09375 15.816406-15.816406 15.816406h-375.402344c-8.71875 0-15.8125-7.09375-15.8125-15.816406 0-8.71875 7.09375-15.8125 15.8125-15.8125h375.402344c8.722656 0 15.816406 7.09375 15.816406 15.8125zm-17.425781-30.8125h-372.179687c6.105468-37.324219 23-70.667969 47.246093-96.984375.652344-.503906 1.207031-1.109375 1.652344-1.777344 20.992187-22.207031 47.289063-39.234375 76.765625-49.167969.289062-.078125.578125-.167969.859375-.28125 11.761719-3.902343 24.019531-6.675781 36.648437-8.207031.046876-.003906.09375-.007812.144532-.015625 7.472656-.898437 15.070312-1.367187 22.773437-1.367187 7.765625 0 15.429688.476562 22.960938 1.390624.039062.003907.074219.011719.109375.015626 12.6875 1.546874 25 4.34375 36.8125 8.285156.167968.058594.332031.121094.503906.167968 29.488281 9.933594 55.800781 26.964844 76.800781 49.179688.445313.671875 1 1.273438 1.65625 1.777344 24.246094 26.316406 41.136719 59.660156 47.246094 96.984375zm36.894531-175.070313c-.527344 1.085938-1.828125 2.976563-4.574218 3.410156-22.171876 3.519532-42.304688 13.789063-58.21875 29.707032-7.726563 7.726562-14.117188 16.445312-19.082032 26.007812-1.640625-1.578125-3.300781-3.140625-4.996094-4.667968-7.253906-6.523438-14.917968-12.472657-22.929687-17.832032l56.765625-56.765625c2.925781-2.929687 2.925781-7.675781 0-10.605469-2.929688-2.929687-7.679688-2.929687-10.609375 0l-59.285156 59.289063c-8.621094-4.871094-17.566407-9.101563-26.777344-12.65625 2.808594-5.617187 4.949219-11.523437 6.394531-17.605469 9.742188-5.011718 18.617188-11.472656 26.410156-19.269531 15.917969-15.914063 26.191407-36.046875 29.710938-58.21875.433594-2.75 2.324219-4.046875 3.410156-4.574219 1.945313-.945312 4.148438-.882812 6.046875.171875 18.382813 10.234375 39.203125 14.335938 60.214844 11.855469 2.109375-.253906 3.472656.769531 4.097656 1.394531.628907.628907 1.644531 1.996094 1.394531 4.101563-2.476562 21.007812 1.621094 41.828125 11.855469 60.214844 1.054688 1.894531 1.117188 4.097656.171875 6.042968zm-141.195312 90.648438c-4.144532 0-7.5 3.359375-7.5 7.5v13.808594c0 4.140624 3.355468 7.5 7.5 7.5 4.140625 0 7.5-3.359376 7.5-7.5v-13.808594c0-4.140625-3.359375-7.5-7.5-7.5zm-64.847656 1.066406h-33.882813c-7.644531 0-13.859375 6.21875-13.859375 13.859375v16.941406c0 16.984375 13.816406 30.804688 30.800781 30.804688s30.800781-13.816407 30.800781-30.804688v-16.941406c0-7.640625-6.21875-13.859375-13.859374-13.859375zm-1.140626 30.800781c0 8.714844-7.089843 15.804688-15.800781 15.804688-8.714843 0-15.804687-7.089844-15.804687-15.804688v-15.800781h31.605468zm0 0"/></svg>