<svg height="511pt" viewBox="0 -58 511.99979 511" width="511pt" xmlns="http://www.w3.org/2000/svg"><path d="m85.421875 269.238281c-22.351563 0-40.539063 18.1875-40.539063 40.539063 0 22.351562 18.1875 40.539062 40.539063 40.539062s40.539063-18.1875 40.539063-40.539062c0-22.355469-18.1875-40.539063-40.539063-40.539063zm0 66.078125c-14.082031 0-25.539063-11.457031-25.539063-25.539062 0-14.082032 11.457032-25.539063 25.539063-25.539063s25.539063 11.457031 25.539063 25.539063c0 14.082031-11.457032 25.539062-25.539063 25.539062zm424.40625 23.140625-59.90625-105.171875c-5.851563-10.273437-16.832031-16.65625-28.65625-16.65625h-28.335937v-42.285156c0-17.394531-14.152344-31.546875-31.546876-31.546875h-10.53125v-50.28125c10.371094-.738281 18.589844-9.386719 18.589844-19.941406v-21.679688c0-11.035156-8.980468-20.011719-20.015625-20.011719h-83.832031c-11.035156 0-20.015625 8.976563-20.015625 20.011719v21.679688c0 10.554687 8.21875 19.203125 18.589844 19.941406v50.28125h-60.203125v-100.589844h10.597656c11.035156 0 20.011719-8.980469 20.011719-20.015625v-21.675781c0-11.035156-8.976563-20.015625-20.011719-20.015625h-145.539062c-4.144532 0-7.5 3.355469-7.5 7.5s3.355468 7.5 7.5 7.5h145.535156c2.765625 0 5.015625 2.25 5.015625 5.015625v21.675781c0 2.765625-2.25 5.015625-5.015625 5.015625h-194.546875c-2.761719 0-5.011719-2.25-5.011719-5.015625v-21.675781c0-2.765625 2.25-5.015625 5.011719-5.015625h14.097656c4.140625 0 7.5-3.355469 7.5-7.5s-3.359375-7.5-7.5-7.5h-14.097656c-11.03125 0-20.011719 8.980469-20.011719 20.015625v21.675781c0 11.039063 8.980469 20.015625 20.011719 20.015625h10.597656v182.117188c-18.695313 15.683593-30.609375 39.199219-30.609375 65.453125 0 47.101562 38.320312 85.421875 85.421875 85.421875 44.574219 0 81.261719-34.324219 85.074219-77.921875h51.941406c3.8125 43.597656 40.5 77.921875 85.070312 77.921875 29.199219 0 55.007813-14.734375 70.421876-37.144531v.035156c0 10.003906 5.953124 18.980468 15.164062 22.878906 3.8125 1.613281 8.214844-.167969 9.828125-3.984375 1.613281-3.8125-.167969-8.214844-3.984375-9.828125-3.648438-1.542969-6.007812-5.101562-6.007812-9.0625v-106.464844h28.335937c6.445313 0 12.433594 3.480469 15.625 9.082032l59.90625 105.171874c.257813.453126.253906.910157-.007813 1.359376-.261718.449218-.65625.679687-1.179687.679687h-65.292969c-4.140625 0-7.5 3.355469-7.5 7.5s3.359375 7.5 7.5 7.5h65.292969c5.894531 0 11.183594-3.042969 14.148437-8.140625 2.964844-5.097656 2.992188-11.199219.070313-16.324219zm-249.25-265.882812v-21.679688c0-2.765625 2.25-5.011719 5.015625-5.011719h83.832031c2.765625 0 5.015625 2.246094 5.015625 5.011719v21.679688c0 2.765625-2.25 5.015625-5.015625 5.015625h-83.832031c-2.765625-.003906-5.015625-2.25-5.015625-5.015625zm75.273437 20.011719v50.210937h-56.683593v-50.210937zm-290.242187-50.378907h143.355469v100.589844h-30.457032v-53.28125c0-13.917969-11.324218-25.242187-25.242187-25.242187h-31.953125c-13.917969 0-25.242188 11.324218-25.242188 25.242187v53.28125h-30.460937zm97.898437 47.308594v53.28125h-52.441406v-53.28125c0-5.644531 4.597656-10.242187 10.246094-10.242187h31.949219c5.648437 0 10.246093 4.597656 10.246093 10.242187zm-58.085937 270.683594c-38.832031 0-70.421875-31.589844-70.421875-70.421875 0-38.832032 31.589844-70.421875 70.421875-70.421875s70.421875 31.589843 70.421875 70.421875c0 38.832031-31.589844 70.421875-70.421875 70.421875zm222.089844 0c-38.832031 0-70.425781-31.59375-70.425781-70.421875 0-38.832032 31.59375-70.425782 70.425781-70.425782 38.828125 0 70.417969 31.59375 70.417969 70.425782 0 38.828125-31.589844 70.421875-70.417969 70.421875zm70.417969-118.699219c-15.410157-22.414062-41.222657-37.144531-70.417969-37.144531-44.574219 0-81.261719 34.320312-85.074219 77.921875h-51.941406c-3.8125-43.601563-40.5-77.921875-85.074219-77.921875-14.371094 0-27.914063 3.582031-39.8125 9.878906v-56.4375h315.773437c9.125 0 16.550782 7.425781 16.550782 16.550781v67.152344zm62.046874 86.335938c.890626 0 1.800782-.160157 2.683594-.5 3.867188-1.484376 5.796875-5.820313 4.3125-9.6875l-21.304687-55.511719c-1.484375-3.867188-5.820313-5.796875-9.691407-4.3125-3.863281 1.484375-5.796874 5.820312-4.3125 9.6875l21.308594 55.511719c1.144532 2.980468 3.988282 4.8125 7.003906 4.8125zm-132.464843-78.597657c-22.355469 0-40.539063 18.1875-40.539063 40.539063 0 22.351562 18.183594 40.539062 40.539063 40.539062 22.351562 0 40.535156-18.1875 40.535156-40.539062 0-22.355469-18.183594-40.539063-40.535156-40.539063zm0 66.078125c-14.085938 0-25.542969-11.457031-25.542969-25.539062 0-14.082032 11.457031-25.539063 25.542969-25.539063 14.078125 0 25.535156 11.457031 25.535156 25.539063 0 14.082031-11.457031 25.539062-25.535156 25.539062zm0 0"/></svg>