<svg height="512pt" viewBox="0 0 512 512" width="512pt" xmlns="http://www.w3.org/2000/svg"><path d="m226.398438 210.554688c-8.574219 0-15.546876 6.972656-15.546876 15.546874v16.355469c0 8.570313 6.972657 15.546875 15.546876 15.546875h62.128906c8.574218 0 15.546875-6.976562 15.546875-15.546875v-16.355469c0-8.574218-6.972657-15.546874-15.546875-15.546874zm62.675781 15.546874v16.355469c0 .300781-.246094.546875-.546875.546875h-62.128906c-.300782 0-.546876-.246094-.546876-.546875v-16.355469c0-.300781.246094-.546874.546876-.546874h62.128906c.300781 0 .546875.246093.546875.546874zm199.445312 191.878907v-36.230469c0-55.769531-45.371093-101.140625-101.136719-101.140625h-54.84375c-2.011718 0-3.941406-.433594-5.714843-1.210937 8.113281-8.449219 13.113281-19.902344 13.113281-32.507813v-25.222656c0-16.550781-8.609375-31.113281-21.574219-39.484375v-54.902344c26.714844-6.5 46.613281-30.613281 46.613281-59.300781 0-33.65625-27.382812-61.039063-61.042968-61.039063-9.203125 0-18.277344 2.082032-26.515625 6.0625-10.8125-7.210937-23.316407-10.996094-36.457031-10.996094-9.265626 0-18.492188 1.976563-26.925782 5.746094-9.691406-5.082031-20.515625-7.753906-31.546875-7.753906s-21.855469 2.671875-31.546875 7.753906c-8.433594-3.769531-17.660156-5.746094-26.925781-5.746094-13.140625 0-25.644531 3.785157-36.457031 10.996094-8.242188-3.980468-17.316406-6.066406-26.519532-6.066406-4.652343 0-9.292968.527344-13.792968 1.566406-4.035156.933594-6.550782 4.960938-5.617188 8.996094.929688 4.035156 4.960938 6.546875 8.992188 5.621094 3.394531-.785156 6.902344-1.183594 10.417968-1.183594 8.199219 0 16.257813 2.191406 23.304688 6.339844 2.652344 1.558594 5.984375 1.34375 8.410156-.542969 9.019532-7.019531 19.832032-10.726563 31.261719-10.726563 8.351563 0 16.324219 1.964844 23.691406 5.839844 2.328125 1.230469 5.128907 1.144532 7.378907-.21875 8.238281-4.992187 17.714843-7.628906 27.402343-7.628906s19.160157 2.636719 27.402344 7.628906c2.25 1.363282 5.046875 1.449219 7.378906.222656 7.367188-3.878906 15.335938-5.84375 23.691407-5.84375 11.429687 0 22.238281 3.710938 31.257812 10.726563 2.429688 1.890625 5.761719 2.105469 8.410156.546875 7.046875-4.148438 15.105469-6.339844 23.308594-6.339844 25.386719 0 46.039062 20.652344 46.039062 46.039063s-20.652343 46.039062-46.039062 46.039062c-8.199219 0-16.257812-2.191406-23.308594-6.335937-2.648437-1.5625-5.980468-1.34375-8.40625.542968-9.023437 7.019532-19.832031 10.726563-31.261718 10.726563-8.355469 0-16.324219-1.964844-23.691407-5.84375-2.332031-1.226563-5.128906-1.140625-7.378906.222656-8.238281 4.992188-17.714844 7.628907-27.402344 7.628907-9.683593 0-19.160156-2.636719-27.398437-7.628907-2.25-1.359375-5.050782-1.445312-7.378906-.222656-7.367188 3.878906-15.339844 5.84375-23.695313 5.84375-11.429687 0-22.238281-3.707031-31.257813-10.726563-2.429687-1.886718-5.757812-2.105468-8.410156-.542968-7.046875 4.144531-15.105468 6.335937-23.304687 6.335937-25.390625 0-46.042969-20.652343-46.042969-46.039062 0-10.625 3.515625-20.605469 10.164062-28.859375 2.601563-3.226563 2.089844-7.945313-1.132812-10.546875-3.226562-2.597657-7.949219-2.089844-10.546875 1.136719-8.695313 10.792968-13.484375 24.386718-13.484375 38.269531 0 28.6875 19.898438 52.800781 46.613281 59.300781v75.375c-6.785156 2.917969-11.550781 9.664062-11.550781 17.507812v28.226563c0 7.84375 4.765625 14.589844 11.550781 17.507813v152.082031c-13.324219 2.371093-23.476562 14.035156-23.476562 28.03125v37.507812c0 15.703125 12.773437 28.480469 28.476562 28.480469h109.578125c12.410156 0 22.507813-10.097656 22.507813-22.511719v-5.101562c0-.128907 0-.425781.371093-.640625.367188-.210938.625-.0625.738282 0l34.445312 19.84375c9.546875 5.5 20.421875 8.40625 31.441406 8.40625h191.730469c4.140625 0 7.5-3.355469 7.5-7.5 0-4.140625-3.359375-7.5-7.5-7.5h-191.734375c-8.394531 0-16.675781-2.214844-23.953125-6.40625l-34.445312-19.84375c-4.925781-2.835938-10.808594-2.832032-15.730469.011718-4.921875 2.847657-7.863281 7.941407-7.863281 13.628907v5.101562c0 4.140625-3.367188 7.511719-7.507813 7.511719h-109.578125c-7.429687 0-13.476562-6.046875-13.476562-13.480469v-37.507812c0-7.433594 6.046875-13.480469 13.476562-13.480469h431.90625c7.433594 0 13.480469 6.046875 13.480469 13.480469v37.507812c0 7.433594-6.046875 13.480469-13.480469 13.480469h-6.265625c-4.144531 0-7.5 3.355469-7.5 7.5 0 4.140625 3.355469 7.5 7.5 7.5h6.265625c15.703125 0 28.480469-12.777344 28.480469-28.480469v-37.507812c0-13.996094-10.152344-25.660157-23.480469-28.03125zm-163.582031-196.3125v25.222656c0 17.632813-14.34375 31.976563-31.976562 31.976563h-70.996094c-17.632813 0-31.976563-14.34375-31.976563-31.976563v-25.222656c0-17.632813 14.34375-31.976563 31.976563-31.976563h70.996094c17.632812 0 31.976562 14.34375 31.976562 31.976563zm-263.324219-92.664063c9.007813-.085937 17.875-2.152344 25.945313-6.042968 10.8125 7.207031 23.320312 10.992187 36.457031 10.992187 9.265625 0 18.492187-1.976563 26.925781-5.746094 9.695313 5.082031 20.515625 7.753907 31.546875 7.753907s21.855469-2.671876 31.546875-7.753907c8.433594 3.769531 17.660156 5.746094 26.925782 5.746094 13.140624 0 25.644531-3.785156 36.460937-10.992187 8.066406 3.894531 16.933594 5.957031 25.941406 6.042968v46.863282c-3.347656-.761719-6.824219-1.175782-10.398437-1.175782h-71c-18.535156 0-34.59375 10.792969-42.230469 26.421875h-118.121094zm-11.550781 119.390625v-28.230469c0-2.230468 1.816406-4.050781 4.050781-4.050781h121.214844c-.214844 1.824219-.339844 3.671875-.339844 5.554688v25.222656c0 1.878906.125 3.730469.339844 5.554687h-121.214844c-2.234375-.003906-4.050781-1.820312-4.050781-4.050781zm423.457031 169.136719h-411.90625v-150.089844h118.121094c7.636719 15.632813 23.695313 26.425782 42.230469 26.425782h70.996094c7.53125 0 14.644531-1.792969 20.960937-4.953126 5.171875 4.3125 11.683594 6.695313 18.617187 6.695313h54.84375c47.496094 0 86.136719 38.644531 86.136719 86.140625zm-73.789062-48.613281-12.136719 12.140625c-2.929688 2.929687-2.929688 7.679687 0 10.605468 1.464844 1.464844 3.382812 2.195313 5.300781 2.195313 1.921875 0 3.839844-.730469 5.304688-2.195313l12.140625-12.140624c2.925781-2.929688 2.925781-7.675782 0-10.605469-2.929688-2.929688-7.679688-2.929688-10.609375 0zm-292.199219 0-12.140625 12.140625c-2.929687 2.929687-2.929687 7.675781 0 10.605468 1.464844 1.464844 3.382813 2.195313 5.300781 2.195313 1.921875 0 3.839844-.730469 5.304688-2.195313l12.140625-12.140624c2.929687-2.929688 2.929687-7.675782 0-10.605469-2.929688-2.929688-7.675781-2.929688-10.605469 0zm29.054688-59.859375-21.957032 21.960937c-2.929687 2.929688-2.929687 7.675781 0 10.605469 1.460938 1.464844 3.382813 2.195312 5.300782 2.195312 1.917968 0 3.839843-.730468 5.304687-2.195312l21.957031-21.957031c2.929688-2.929688 2.929688-7.679688 0-10.609375-2.925781-2.925782-7.675781-2.925782-10.605468 0zm0 0"/></svg>