<svg height="512pt" viewBox="0 -17 512 512" width="512pt" xmlns="http://www.w3.org/2000/svg"><path d="m243.09375 182.570312-18.230469 18.230469c-2.332031 2.332031-3.617187 5.433594-3.617187 8.726563 0 3.300781 1.285156 6.398437 3.617187 8.726562l9.117188 9.117188c4.917969 4.921875 11.378906 7.378906 17.839843 7.378906 6.464844 0 12.925782-2.457031 17.84375-7.378906 9.839844-9.835938 9.839844-25.847656 0-35.683594l-9.117187-9.121094c-4.8125-4.808594-12.640625-4.808594-17.453125.003906zm15.964844 34.195313c-3.992188 3.992187-10.484375 3.988281-14.472656 0l-7.238282-7.238281 14.472656-14.472656 7.238282 7.238281c3.988281 3.988281 3.988281 10.480469 0 14.472656zm-198.847656 166.53125 43.175781 7.949219c.460937.085937.917969.125 1.367187.125 3.546875 0 6.703125-2.527344 7.367188-6.140625.75-4.074219-1.945313-7.984375-6.019532-8.734375l-43.175781-7.953125c-4.070312-.753907-7.984375 1.945312-8.734375 6.019531s1.945313 7.984375 6.019532 8.734375zm353.683593-284.742187c3.410157-2.347657 4.269531-7.019532 1.921875-10.429688-2.351562-3.410156-7.019531-4.269531-10.433594-1.921875l-36.152343 24.90625c-3.410157 2.351563-4.269531 7.019531-1.921875 10.433594 1.457031 2.109375 3.800781 3.246093 6.183594 3.246093 1.46875 0 2.949218-.429687 4.25-1.324218zm-32.3125-44.660157c-3.414062-2.355469-8.082031-1.488281-10.433593 1.917969l-24.90625 36.15625c-2.347657 3.410156-1.488282 8.078125 1.921874 10.429688 1.300782.894531 2.78125 1.324218 4.25 1.324218 2.382813 0 4.726563-1.132812 6.183594-3.246094l24.90625-36.152343c2.347656-3.414063 1.488282-8.082031-1.921875-10.429688zm-96.734375 111.238281c1.464844 1.464844 3.382813 2.195313 5.304688 2.195313 1.917968 0 3.839844-.730469 5.300781-2.195313 2.929687-2.929687 2.929687-7.679687.003906-10.605468l-7.429687-7.429688c-2.929688-2.929687-7.679688-2.929687-10.605469 0-2.929687 2.925782-2.929687 7.675782-.003906 10.605469zm227.152344 233.636719c0-10.859375-5.660156-20.5-15.140625-25.792969l-8.429687-4.707031 3.527343-3.84375c5.421875-5.90625 7.476563-13.660156 5.636719-21.273437-1.863281-7.707032-7.558594-14.171875-14.863281-16.867188-3.886719-1.4375-8.199219.550782-9.636719 4.433594-1.433594 3.886719.554688 8.199219 4.4375 9.636719 2.636719.972656 4.789062 3.453125 5.480469 6.320312.464843 1.921875.476562 4.796875-2.101563 7.605469l-5.191406 5.652344c-2.71875 2.960937-3.914062 6.9375-3.273438 10.910156.636719 3.96875 3.019532 7.367188 6.527344 9.328125l10.574219 5.898437c4.667969 2.605469 7.453125 7.351563 7.453125 12.695313s-2.785156 10.089844-7.453125 12.695313l-10.574219 5.898437c-3.511718 1.960937-5.890625 5.363281-6.53125 9.332031-.636718 3.96875.558594 7.945313 3.277344 10.90625l5.1875 5.652344c3.289062 3.582031 2.621094 7.726562.898438 10.410156-1.71875 2.683594-5.210938 5.015625-9.835938 3.515625l-80.191406-25.976562v-64.871094l58.589844-18.976563c3.941406-1.277343 6.101562-5.507812 4.824218-9.445312-1.277344-3.941406-5.507812-6.105469-9.449218-4.824219l-55.585938 18.007813c-5.175781-18.589844-22.246094-32.273438-42.464844-32.273438h-83.738281l63.234375-63.234375c.003906-.007812.011719-.015625.023438-.023437l50.15625-50.160156c8.328124-8.324219 12.914062-19.394532 12.914062-31.171876 0-7.722656-1.984375-15.136718-5.691406-21.679687l72.25-36.894531c9.671875-4.9375 14.617187-15.386719 12.300781-25.996094-2.3125-10.613281-11.160156-18.050781-22.007813-18.515625l-5.214843-.222656 2.632812-9.289063c2.964844-10.445312.148438-21.265625-7.53125-28.945312-7.675781-7.675782-18.5-10.488282-28.945312-7.527344l-9.289063 2.632812-.222656-5.214843c-.460938-10.851563-7.902344-19.695313-18.511719-22.011719-10.613281-2.3125-21.0625 2.632812-26 12.304688l-36.898437 72.257812c-9.257813-5.246094-20.199219-7.019531-30.925782-4.726562-4.050781.867187-6.628906 4.851562-5.765624 8.902343.867187 4.050781 4.851562 6.640625 8.902343 5.765625 9.703125-2.070312 19.675781.871094 26.683594 7.875l18.308594 18.3125c6.480469 42.800782-.738281 91.285156-18.601563 124.550782l-73.015625 73.011718h-52.433593l-29.261719-29.261718c8.675781-17.746094 21.53125-50.945313 27.054687-99.796876l76.125-76.125c2.929688-2.933593 2.929688-7.679687 0-10.609374-2.925781-2.925782-7.675781-2.925782-10.605468 0l-118.988282 118.988281c-8.324218 8.328125-12.910156 19.398437-12.910156 31.175781 0 7.722656 1.980469 15.136719 5.6875 21.675781l-72.246094 36.894531c-5.953125 3.042969-10.085937 8.054688-11.875 13.945313-9.910156-2.597656-20.105468 1.328125-25.714844 10.066406-5.867187 9.140625-4.875 20.65625 2.472657 28.65625l3.527343 3.84375-8.429687 4.707031c-9.480469 5.292969-15.140625 14.933594-15.140625 25.792969 0 10.855469 5.660156 20.5 15.140625 25.789063l8.429687 4.707031-3.527343 3.84375c-7.347657 8-8.339844 19.515625-2.472657 28.65625 4.464844 6.953125 11.832032 10.871094 19.65625 10.871094 2.457032 0 4.957032-.386719 7.425782-1.1875l77.1875-25.003907c5.179687 18.585938 22.25 32.273438 42.464844 32.273438h112.347656.023437.027344 70.992187c20.214844 0 37.285157-13.683594 42.460938-32.273438l77.191406 25.003907c2.46875.800781 4.96875 1.1875 7.425782 1.1875 7.820312 0 15.191406-3.917969 19.65625-10.871094 5.867187-9.140625 4.875-20.65625-2.46875-28.65625l-3.53125-3.84375 8.429687-4.707031c9.480469-5.289063 15.140625-14.933594 15.140625-25.789063zm-145.238281-203.972656-24.070313 24.070313c7.332032-25.070313 10.367188-53.210938 8.566406-80.710938l15.503907 15.503906c5.496093 5.496094 8.519531 12.800782 8.519531 20.570313 0 7.765625-3.023438 15.070312-8.519531 20.566406zm-37.6875-100.035156 38.335937-75.070313c2.210938-4.332031 6.332032-5.148437 9.441406-4.46875 3.117188.679688 6.519532 3.136719 6.726563 7.992188l.328125 7.667968c.171875 4.019532 2.136719 7.671876 5.398438 10.027344 3.257812 2.355469 7.34375 3.078125 11.210937 1.980469l11.652344-3.300781c5.140625-1.457032 10.464843-.074219 14.246093 3.703125 3.777344 3.777343 5.164063 9.105469 3.703126 14.246093l-3.300782 11.648438c-1.097656 3.871094-.378906 7.957031 1.980469 11.21875 2.355469 3.257812 6.011719 5.222656 10.023437 5.394531l7.671876.328125c4.855468.207032 7.3125 3.609375 7.992187 6.722656.679687 3.117188-.136719 7.234376-4.46875 9.445313l-75.070313 38.335937zm-129.023438 239.058593c-26.863281 19.199219-49.578125 29.804688-64.828125 35.503907v-6.421875c0-16.035156 13.046875-29.082032 29.082032-29.082032zm-54.8125-101.203124 25.273438-25.273438c-5.417969 32.570312-13.976563 56.132812-20.734375 70.945312l-4.539063-4.539062c-5.496093-5.492188-8.519531-12.796875-8.519531-20.5625 0-7.773438 3.023438-15.074219 8.519531-20.570312zm-25.015625 147.148437v.078125 51.359375l-80.191406 25.976563c-4.625 1.496093-8.117188-.832032-9.839844-3.519532-1.722656-2.679687-2.390625-6.824218.898438-10.40625l5.191406-5.652344c2.71875-2.960937 3.914062-6.9375 3.273438-10.910156-.640626-3.96875-3.019532-7.367187-6.527344-9.328125l-10.574219-5.898437c-4.667969-2.605469-7.453125-7.351563-7.453125-12.695313s2.785156-10.089843 7.453125-12.695312l10.574219-5.898438c3.507812-1.960937 5.890625-5.363281 6.527344-9.332031.640624-3.972656-.554688-7.945312-3.273438-10.90625l-5.1875-5.65625c-3.289062-3.582031-2.621094-7.722656-.898438-10.40625 1.71875-2.683594 5.207032-5.019531 9.835938-3.519531l80.191406 25.976562zm1.621094-28.675781-64.230469-20.804688c.480469-1.808594 1.667969-3.789062 4.371094-5.167968l75.070313-38.335938 9.507812 9.507812c.011719.011719.023438.023438.035156.035157l22.492188 22.492187h-4.785156c-20.214844.003906-37.285157 13.683594-42.460938 32.273438zm254.933594 83.542968c0 16.035157-13.046875 29.085938-29.082032 29.085938h-34.046874c22.914062-12.542969 44.960937-30.292969 63.128906-51.015625zm0-45.828124c-25.683594 34.84375-65.070313 64.019531-101.222656 74.914062h-111.25c-16.035157 0-29.082032-13.046875-29.082032-29.085938v-49.375c18.683594-6.414062 51.246094-20.800781 89.699219-51.4375h122.769531c16.039063 0 29.085938 13.046876 29.085938 29.082032zm81.027344-14.242188c-.75-4.074219-4.65625-6.769531-8.734376-6.019531l-43.175781 7.953125c-4.074219.75-6.765625 4.660156-6.015625 8.734375.664063 3.613281 3.816406 6.140625 7.367188 6.140625.449218 0 .90625-.039063 1.367187-.125l43.175781-7.949219c4.074219-.75 6.769532-4.660156 6.015626-8.734375zm-268.414063-139.4375c-2.929687 2.929688-2.929687 7.679688-.003906 10.605469l7.429687 7.429687c1.464844 1.464844 3.382813 2.199219 5.304688 2.199219 1.917968 0 3.839844-.734375 5.304687-2.195313 2.925781-2.929687 2.925781-7.679687 0-10.609374l-7.429687-7.429688c-2.929688-2.925781-7.679688-2.925781-10.605469 0zm262.398437 179.113281-43.175781-7.949219c-4.070312-.75-7.984375 1.941407-8.734375 6.015626-.75 4.074218 1.945313 7.984374 6.019532 8.734374l43.175781 7.953126c.457031.085937.914062.125 1.367187.125 3.546875 0 6.699219-2.527344 7.367188-6.144532.75-4.070312-1.945313-7.984375-6.019532-8.734375zm-390.226562 14.878907c.449219 0 .90625-.039063 1.367188-.125l43.175781-7.953126c4.074219-.75 6.765625-4.660156 6.015625-8.734374-.75-4.070313-4.660156-6.769532-8.734375-6.015626l-43.175781 7.949219c-4.074219.75-6.765626 4.664063-6.015626 8.734375.664063 3.617188 3.816407 6.144532 7.367188 6.144532zm142.363281-56.871094c-4.140625 0-7.5 3.355468-7.5 7.5v8.644531c0 4.140625 3.359375 7.5 7.5 7.5 4.144531 0 7.5-3.359375 7.5-7.5v-8.644531c0-4.140625-3.355469-7.5-7.5-7.5zm-69.664062-68.292969-36.15625 24.90625c-3.410157 2.347656-4.269531 7.019531-1.917969 10.429687 1.453125 2.113282 3.796875 3.246094 6.179688 3.246094 1.46875 0 2.949218-.429687 4.25-1.324218l36.152343-24.90625c3.410157-2.351563 4.273438-7.019532 1.921875-10.433594-2.351562-3.410156-7.019531-4.269532-10.429687-1.917969zm173.8125 68.292969c-4.144531 0-7.5 3.355468-7.5 7.5v8.644531c0 4.140625 3.355469 7.5 7.5 7.5 4.140625 0 7.5-3.359375 7.5-7.5v-8.644531c0-4.140625-3.359375-7.5-7.5-7.5zm-33.417969 10.871094c-3.125-2.722657-7.859375-2.394532-10.582031.730468-2.039063 2.339844-4.980469 3.679688-8.074219 3.679688s-6.035156-1.339844-8.074219-3.679688c-2.722656-3.125-7.460937-3.449218-10.582031-.730468-3.125 2.722656-3.449219 7.460937-.726562 10.582031 4.886718 5.609375 11.953124 8.828125 19.382812 8.828125s14.492188-3.21875 19.382812-8.828125c2.722657-3.121094 2.394532-7.859375-.726562-10.582031zm0 0"/></svg>