<svg height="512pt" viewBox="-74 0 512 512.001" width="512pt" xmlns="http://www.w3.org/2000/svg"><path d="m210.367188 392.378906c.730468.222656 1.46875.328125 2.195312.328125 3.210938 0 6.179688-2.074219 7.171875-5.304687 1.210937-3.960938-1.019531-8.15625-4.980469-9.367188-2.03125-.625-3.835937-1.710937-5.355468-3.230468-2.777344-2.777344-4.136719-6.617188-3.730469-10.527344.429687-4.121094-2.5625-7.808594-6.679688-8.238282-4.128906-.429687-7.808593 2.558594-8.238281 6.679688-.878906 8.433594 2.050781 16.703125 8.039062 22.691406 3.230469 3.230469 7.230469 5.636719 11.578126 6.96875zm1.542968 55.914063c1.480469-3.585938 4.222656-6.496094 7.71875-8.195313 3.726563-1.8125 5.277344-6.296875 3.46875-10.023437-1.808594-3.726563-6.296875-5.28125-10.023437-3.46875-6.808594 3.304687-12.144531 8.980469-15.027344 15.96875-1.582031 3.828125.242187 8.210937 4.070313 9.792969.9375.386718 1.90625.570312 2.855468.570312 2.949219-.003906 5.746094-1.75 6.9375-4.644531zm8.546875-95.496094c2.777344.402344 5.296875 1.671875 7.289063 3.664063 2.3125 2.316406 3.660156 5.390624 3.789062 8.664062.15625 4.039062 3.480469 7.207031 7.488282 7.207031.097656 0 .195312 0 .296874-.003906 4.140626-.164063 7.363282-3.648437 7.203126-7.789063-.273438-7.054687-3.179688-13.691406-8.171876-18.6875-4.296874-4.292968-9.734374-7.023437-15.730468-7.898437-4.097656-.589844-7.90625 2.242187-8.503906 6.34375-.597657 4.097656 2.242187 7.902344 6.339843 8.5zm-148.3125-225.777344c0-17.65625-11.601562-36.515625-21.328125-49.230469-3.546875-4.632812-8.921875-7.285156-14.746094-7.285156-5.824218 0-11.195312 2.652344-14.742187 7.285156-9.730469 12.714844-21.328125 31.574219-21.328125 49.230469 0 19.890625 16.179688 36.070313 36.070312 36.070313 19.890626 0 36.074219-16.179688 36.074219-36.070313zm-36.070312 21.070313c-11.621094 0-21.070313-9.449219-21.070313-21.070313 0-10.5 6.476563-24.746093 18.238282-40.113281.9375-1.222656 2.175781-1.402344 2.832031-1.402344s1.894531.179688 2.832031 1.402344c11.761719 15.367188 18.238281 29.613281 18.238281 40.113281 0 11.621094-9.453125 21.070313-21.070312 21.070313zm210.4375-55.5c19.890625 0 36.070312-16.179688 36.070312-36.070313 0-17.65625-11.597656-36.515625-21.328125-49.230469-3.546875-4.632812-8.917968-7.289062-14.742187-7.289062s-11.195313 2.65625-14.742188 7.289062c-9.730469 12.714844-21.328125 31.574219-21.328125 49.230469 0 19.890625 16.179688 36.070313 36.070313 36.070313zm-2.832031-76.183594c.9375-1.222656 2.175781-1.40625 2.832031-1.40625s1.894531.183594 2.832031 1.40625c11.761719 15.367188 18.238281 29.613281 18.238281 40.113281 0 11.617188-9.453125 21.070313-21.070312 21.070313-11.617188 0-21.070313-9.453125-21.070313-21.070313 0-10.5 6.476563-24.746093 18.238282-40.113281zm6.351562 444.714844c-3.433594-2.316406-8.09375-1.417969-10.414062 2.015625-2.945313 4.363281-7.84375 6.96875-13.101563 6.96875-4.105469 0-7.996094-1.570313-10.953125-4.417969-2.980469-2.875-7.730469-2.785156-10.605469.195312-2.875 2.980469-2.789062 7.726563.195313 10.601563 5.765625 5.558594 13.355468 8.621094 21.363281 8.621094 10.246094 0 19.789063-5.074219 25.53125-13.570313 2.320313-3.433594 1.417969-8.09375-2.015625-10.414062zm-45.148438-211.878906c-3.007812 3.449218-7.34375 5.425781-11.902343 5.425781-4.558594 0-8.898438-1.976563-11.902344-5.425781-2.722656-3.121094-7.460937-3.445313-10.582031-.726563-3.121094 2.722656-3.449219 7.460937-.726563 10.582031 5.855469 6.71875 14.3125 10.570313 23.207031 10.570313 8.898438 0 17.359376-3.851563 23.214844-10.570313 2.71875-3.121094 2.394532-7.859375-.730468-10.582031-3.121094-2.71875-7.859376-2.394531-10.578126.726563zm47.1875-6.613282v11.050782c0 4.144531 3.355469 7.5 7.5 7.5 4.144532 0 7.5-3.355469 7.5-7.5v-11.050782c0-4.144531-3.355468-7.5-7.5-7.5-4.144531 0-7.5 3.355469-7.5 7.5zm-133.183593 0v11.050782c0 4.144531 3.359375 7.5 7.5 7.5 4.144531 0 7.5-3.355469 7.5-7.5v-11.050782c0-4.144531-3.355469-7.5-7.5-7.5-4.140625 0-7.5 3.355469-7.5 7.5zm-31.351563 199.945313h20.609375c4.140625 0 7.5-3.359375 7.5-7.5 0-4.144531-3.359375-7.5-7.5-7.5h-20.609375c-4.144531 0-7.5 3.355469-7.5 7.5 0 4.140625 3.355469 7.5 7.5 7.5zm210.332032 16.628906c-2.925782-2.925781-7.675782-2.929687-10.605469 0-2.929688 2.929687-2.929688 7.679687 0 10.609375l13.152343 13.148438c1.464844 1.464843 3.382813 2.195312 5.304688 2.195312 1.917969 0 3.835938-.730469 5.304688-2.195312 2.925781-2.929688 2.925781-7.679688-.003907-10.605469zm-3.753907-59.019531c-2.929687-2.925782-7.679687-2.929688-10.609375 0-2.925781 2.929687-2.925781 7.679687.003906 10.605468l20.335938 20.339844c1.464844 1.464844 3.382812 2.195313 5.304688 2.195313 1.917968 0 3.839843-.730469 5.304687-2.195313 2.925781-2.929687 2.925781-7.679687-.003906-10.609375zm53.929688 13.339844-33.035157-33.039063c18.304688-25.398437 27.949219-55.285156 27.949219-86.863281 0-11.867188-1.167969-22.617188-3.566406-32.871094-1.054687-4.496094.285156-9.300781 3.488281-12.535156 11.84375-11.949219 18.367188-27.792969 18.367188-44.609375 0-15.539063-5.03125-33.226563-14.953125-52.578125-1.894531-3.6875-6.414063-5.140625-10.097657-3.25-3.6875 1.890625-5.140624 6.410156-3.25 10.09375 8.824219 17.210937 13.300782 32.601562 13.300782 45.734375 0 12.835937-4.980469 24.929687-14.019532 34.050781-6.8125 6.871094-9.664062 17.027344-7.441406 26.511719 2.132813 9.117187 3.171875 18.753906 3.171875 29.453125 0 27.570312-8.171875 53.707031-23.710937 76.105468l-44.882813-44.882812c-22.492187-22.492188-59.09375-22.496094-81.582031 0-19.464844 19.460938-22.070312 49.476562-7.855469 71.785156h-61.339843c-32-26.855468-49.632813-66.570312-48.445313-109.402344 1.027344-37 10.863281-73.863281 29.238281-109.566406 19.542969-37.96875 44.035156-65.390625 61.144532-81.707031 5.570312-5.308594 13.132812-7.753906 20.753906-6.703125 7.648437 1.054688 14.300781 5.476562 18.246094 12.132812 12.25 20.65625 27.210937 39.066407 47.078124 57.933594 4.039063 3.835938 9.503907 5.523438 15.011719 4.636719 5.472657-.882813 10.109375-4.1875 12.722657-9.0625 5.910156-11.039063 13.40625-22.519531 22.289062-34.121094 2.683594-3.507812 6.765625-5.523437 11.191406-5.523437h.003906c4.476563.003906 8.605469 2.046875 11.328126 5.609375 2.195312 2.867187 4.351562 5.792969 6.40625 8.691406 2.394531 3.378906 7.074218 4.175781 10.457031 1.777344 3.378906-2.394531 4.175781-7.074219 1.777343-10.453125-2.15625-3.046875-4.421874-6.121094-6.726562-9.132813-5.585938-7.300781-14.054688-11.488281-23.242188-11.492187h-.003906c-9.136718 0-17.558594 4.160156-23.105468 11.40625-9.371094 12.242187-17.3125 24.40625-23.601563 36.15625-.523437.980468-1.40625 1.257812-1.886719 1.335937-.496094.082031-1.449218.09375-2.292968-.707031-18.839844-17.886719-32.980469-35.269531-44.503907-54.707031-6.292969-10.609375-16.898437-17.660157-29.101562-19.339844-12.175781-1.683594-24.257813 2.222656-33.152344 10.707031-25.730469 24.542969-47.90625 54.175782-64.128906 85.699219-19.410157 37.71875-29.804688 76.75-30.894531 116.011719-1.179688 42.398437 14.316406 82.074218 42.972656 111.308594-25.574219 5.910156-44.703125 28.855468-44.703125 56.195312 0 8.992188 2.011719 17.609375 5.984375 25.613281 1.308594 2.640625 3.964844 4.167969 6.722656 4.167969 1.121094 0 2.257812-.253906 3.328125-.785156 3.710937-1.839844 5.226563-6.339844 3.386719-10.050782-2.933594-5.914062-4.421875-12.285156-4.421875-18.945312 0-23.535156 19.148437-42.683594 42.6875-42.683594h86.652343c-11.621093 10.558594-18.925781 25.785156-18.925781 42.683594 0 4.332031.496094 8.546875 1.40625 12.605469h-29.074219c-4.140624 0-7.5 3.355469-7.5 7.5s3.359376 7.5 7.5 7.5h34.714844c3.105469 5.671875 7.128906 10.765625 11.878906 15.082031h-86.652343c-6.214844 0-12.203125-1.304688-17.796875-3.871094-3.765625-1.734375-8.214844-.082031-9.945313 3.679688-1.730469 3.765625-.082031 8.21875 3.679688 9.949218 7.574219 3.476563 15.667969 5.242188 24.0625 5.242188h125.410156c15.695313 0 29.9375-6.308594 40.351563-16.511719 11.191406 10.984375 25.785156 16.484375 40.382812 16.484375 14.773438 0 29.546875-5.621094 40.792969-16.867187 22.492187-22.496094 22.492187-59.089844 0-81.582031zm-159.65625-78.074219c16.644531-16.644531 43.722656-16.644531 60.363281-.007813.003906 0 .003906.003906.007812.007813l.019532.019531c16.621094 16.644531 16.617187 43.710938-.019532 60.347656-1.324218 1.320313-2.75 2.550782-4.25 3.695313-5.664062-1.863281-11.707031-2.886719-17.988281-2.886719h-37.28125c-.289062-.269531-.582031-.539062-.851562-.808594-16.644531-16.644531-16.644531-43.722656 0-60.367187zm38.128906 161.550781c-23.535156 0-42.683594-19.148438-42.683594-42.6875s19.144531-42.6875 42.683594-42.6875 42.691406 19.148438 42.691406 42.6875-19.152343 42.6875-42.691406 42.6875zm110.921875-12.503906c-16.644531 16.644531-43.726562 16.644531-60.367188 0l-.886718-.886719c5.089844-8.59375 8.023437-18.605469 8.023437-29.296875 0-19.742188-9.976562-37.195312-25.148437-47.601562.101562-.097657.207031-.1875.304687-.289063 11.949219-11.949219 17.550781-27.882813 16.800781-43.566406l61.273438 61.273437c16.644531 16.644532 16.644531 43.722656 0 60.367188zm0 0"/></svg>