<svg height="512pt" viewBox="0 0 512 512.00146" width="512pt" xmlns="http://www.w3.org/2000/svg"><path d="m503.5625 139.726562-31.691406-19.289062c-3.203125-1.949219-4.824219-5.722656-4.039063-9.390625l6.472657-30.160156c1.445312-6.742188-.15625-13.726563-4.398438-19.167969-4.238281-5.4375-10.621094-8.695312-17.511719-8.9375l-28.117187-.988281c-3.707032-.132813-6.792969-3.015625-7.179688-6.703125l-2.566406-24.460938c-.777344-7.449218-5.152344-14.074218-11.699219-17.722656-6.523437-3.636719-14.433593-3.875-21.15625-.632812-11.863281 5.71875-23.988281 12.648437-36.035156 20.59375-3.457031 2.28125-4.410156 6.933593-2.128906 10.390624 2.28125 3.457032 6.933593 4.414063 10.390625 2.132813 11.488281-7.578125 23.023437-14.175781 34.289062-19.605469 2.363282-1.140625 5.039063-1.054687 7.339844.226563 2.316406 1.292969 3.808594 3.546875 4.085938 6.183593l2.5625 24.460938c1.160156 11.082031 10.4375 19.734375 21.570312 20.125l28.117188.992188c2.476562.089843 4.683593 1.214843 6.210937 3.171874 1.523437 1.957032 2.078125 4.371094 1.558594 6.796876l-6.472657 30.160156c-2.121093 9.898437 2.261719 20.085937 10.910157 25.351562l31.683593 19.289063c1.246094.753906 1.285157 1.910156 1.195313 2.527343-.105469.746094-.507813 1.710938-1.816406 2.0625-68.875 18.667969-173.617188 81.648438-237.40625 142.25-1.992188-3.089843-3.3125-6.597656-3.789063-10.28125l-5.84375-44.835937c-1.203125-9.214844-5.050781-17.710937-10.878906-24.605469 17.164062-24.21875 42.929688-53.835937 62.828125-66.273437 3.515625-2.195313 4.582031-6.820313 2.386719-10.335938-2.195313-3.511719-6.824219-4.578125-10.335938-2.386719-23.996094 15-51.125 48.023438-66.289062 69.175782-1.089844-.667969-2.199219-1.316406-3.347656-1.902344-6.949219-3.539062-14.535157-5.265625-22.105469-5.191406 33.410156-56.292969 78.429687-109.132813 125.265625-146.6875 3.230468-2.589844 3.75-7.3125 1.160156-10.542969-2.59375-3.230469-7.3125-3.75-10.542969-1.160156-51.578125 41.355469-100.976562 100.65625-135.84375 162.988281-.804687.378906-1.605469.777344-2.390625 1.207031l-39.710937 21.628907c-5.011719 2.726562-10.859375 3.65625-16.46875 2.605468l-44.449219-8.296875c-15.464844-2.882812-31.34375 2.03125-42.46875 13.15625s-16.042969 27.003907-13.15625 42.46875l8.300781 44.453125c1.046875 5.605469.117188 11.453125-2.609375 16.464844l-21.628906 39.710938c-7.527344 13.816406-7.753906 30.4375-.609375 44.457031 7.140625 14.019531 20.722656 23.601562 36.324219 25.636719l44.839844 5.839843c5.65625.738281 10.929687 3.425781 14.851562 7.570313l31.085938 32.839844c9.128906 9.648437 21.34375 14.914062 34.511718 14.914062.410156 0 .824219-.003906 1.238282-.015625 13.5625-.339844 26.34375-6.378906 35.0625-16.570313 2.691406-3.144531 2.324218-7.878906-.824219-10.574218-3.144531-2.691406-7.882813-2.320313-10.574219.824218-5.957031 6.964844-14.71875 11.09375-24.035156 11.324219-9.332032.25-18.027344-3.390625-24.484375-10.210937l-31.082031-32.84375c-6.289063-6.644532-14.746094-10.949219-23.8125-12.132813l-44.839844-5.84375c-10.855469-1.414062-19.929688-7.816406-24.898438-17.570312-4.96875-9.753907-4.816406-20.859375.417969-30.472657l21.632813-39.710937c4.371093-8.03125 5.855468-17.402344 4.179687-26.394531l-8.300781-44.449219c-2.007813-10.761719 1.277344-21.371094 9.019531-29.109375 7.738281-7.738281 18.351563-11.03125 29.109375-9.019531l44.449219 8.300781c8.988281 1.675781 18.359375.191406 26.394531-4.179688l39.710938-21.628906c1.085937-.59375 2.195312-1.109375 3.3125-1.570312.082031-.03125.15625-.066406.234374-.101563 8.730469-3.523437 18.351563-3.117187 26.925782 1.25 9.75 4.972657 16.15625 14.046875 17.570312 24.898438l5.84375 44.839843c1.179688 9.0625 5.484375 17.511719 12.113282 23.792969.007812.003907.011718.011719.015624.015625l.914063.867188h.003906l31.925781 30.214844c7.949219 7.527343 11.527344 18.042968 9.8125 28.851562-1.710937 10.8125-8.363281 19.707031-18.246093 24.40625l-40.839844 19.414062c-8.261719 3.925782-14.972656 10.636719-18.898437 18.898438l-8.859376 18.636719c-1.777343 3.742187-.1875 8.214843 3.554688 9.996093 3.738281 1.777344 8.214844.1875 9.992188-3.554687l8.859374-18.640625c2.449219-5.152344 6.636719-9.339844 11.789063-11.789062l40.839844-19.414063c14.210937-6.753906 24.164062-20.066406 26.625-35.605469 2.460937-15.539062-2.890625-31.277344-14.320313-42.09375l-26.234375-24.828125c62.210938-59.117187 164.101563-120.484375 230.945313-138.597656 6.863281-1.859375 11.746094-7.390625 12.746094-14.433594 1.003906-7.054687-2.15625-13.742187-8.242188-17.449219zm-324.386719-4.902343c.984375.433593 2.015625.640625 3.023438.640625 2.882812 0 5.628906-1.671875 6.867187-4.476563 15.070313-34.160156 42.425782-68.773437 71.390625-90.324219 3.320313-2.472656 4.011719-7.171874 1.539063-10.492187-2.472656-3.324219-7.171875-4.015625-10.496094-1.539063-30.917969 23.003907-60.101562 59.90625-76.15625 96.300782-1.671875 3.792968.042969 8.21875 3.832031 9.890625zm290.472657 80.429687c-34.542969 6.097656-62.566407 32.074219-70.332032 39.886719-2.917968 2.941406-2.902344 7.6875.035156 10.609375 1.460938 1.453125 3.375 2.179688 5.285157 2.179688 1.929687 0 3.855469-.738282 5.320312-2.214844 6.980469-7.023438 32.101563-30.355469 62.300781-35.6875 4.078126-.71875 6.800782-4.609375 6.082032-8.6875-.722656-4.082032-4.601563-6.808594-8.691406-6.085938zm-312.394532 103.53125c-12.367187-12.363281-31.664062-13.183594-43.027344-1.820312-11.359374 11.359375-10.542968 30.660156 1.820313 43.023437 6.527344 6.527344 14.984375 9.835938 23.1875 9.835938 7.339844 0 14.476563-2.648438 19.839844-8.015625 11.359375-11.359375 10.542969-30.660156-1.820313-43.023438zm-8.785156 32.417969c-5.511719 5.511719-15.296875 4.695313-21.8125-1.820313-6.515625-6.515624-7.332031-16.300781-1.820312-21.8125 2.457031-2.453124 5.757812-3.652343 9.242187-3.652343 4.335937 0 8.957031 1.859375 12.570313 5.472656 6.515624 6.515625 7.332031 16.300781 1.820312 21.8125zm139.125-121.769531c1.476562 1.566406 3.46875 2.359375 5.460938 2.359375 1.84375 0 3.691406-.675781 5.140624-2.039063 21.152344-19.90625 65.160157-53.542968 92.78125-64.929687 3.828126-1.578125 5.65625-5.960938 4.074219-9.792969-1.574219-3.828125-5.957031-5.65625-9.789062-4.074219-17.300781 7.128907-38.019531 20.976563-52.355469 31.339844-16.410156 11.859375-33.648438 25.859375-44.992188 36.535156-3.015624 2.839844-3.160156 7.585938-.320312 10.601563zm-108.917969 62.964844c1.917969 0 3.839844-.730469 5.304688-2.195313 2.925781-2.929687 2.925781-7.679687 0-10.605469l-8.148438-8.148437c-2.929687-2.925781-7.675781-2.925781-10.605469 0-2.929687 2.933593-2.929687 7.679687 0 10.609375l8.144532 8.144531c1.464844 1.464844 3.382812 2.195313 5.304687 2.195313zm-109.960937 75.5625c-2.925782 2.929687-2.925782 7.675781 0 10.605468l8.148437 8.144532c1.464844 1.464843 3.382813 2.199218 5.300781 2.199218 1.921876 0 3.839844-.734375 5.304688-2.199218 2.929688-2.929688 2.929688-7.675782 0-10.605469l-8.144531-8.144531c-2.929688-2.929688-7.679688-2.929688-10.609375 0zm0 0"/></svg>