<svg height="512pt" viewBox="0 -41 512.00073 512" width="512pt" xmlns="http://www.w3.org/2000/svg"><path d="m319.066406 146.589844c0-10.921875-10.390625-20.519532-30.878906-28.523438-14-5.46875-31.476562-9.4375-41.558594-9.4375-21.066406 0-38.207031 17.03125-38.207031 37.960938 0 20.933594 17.140625 37.964844 38.207031 37.964844 10.082032 0 27.558594-3.96875 41.558594-9.4375 20.488281-8.003907 30.878906-17.597657 30.878906-28.527344zm-72.4375 22.964844c-12.796875 0-23.207031-10.300782-23.207031-22.964844 0-12.660156 10.410156-22.960938 23.207031-22.960938 7.0625 0 22.117188 2.949219 36.101563 8.410156 15.542969 6.070313 21.335937 12.148438 21.335937 14.550782 0 2.40625-5.792968 8.484375-21.335937 14.554687-13.984375 5.460938-29.039063 8.410157-36.101563 8.410157zm-85.359375-54.796876v13.519532c0 4.140625 3.359375 7.5 7.5 7.5 4.144531 0 7.5-3.359375 7.5-7.5v-13.519532c0-4.140624-3.355469-7.5-7.5-7.5-4.140625 0-7.5 3.359376-7.5 7.5zm324.515625 163.007813h-6.289062l10.710937-10.714844c9.082031-9.082031 9.082031-23.855469 0-32.9375-4.398437-4.398437-10.25-6.824219-16.46875-6.824219-6.222656 0-12.074219 2.425782-16.472656 6.824219l-43.652344 43.652344h-2.332031c1.085938-4.265625 1.125-8.761719.042969-13.175781l-3.386719-13.859375c-1.710938-6.992188-5.925781-12.679688-11.464844-16.335938 19.03125-21.671875 29.027344-48.988281 29.027344-79.707031 0-34.640625-12.25-67.179688-35.429688-94.097656-2.703124-3.140625-7.4375-3.492188-10.574218-.789063-3.140625 2.703125-3.492188 7.4375-.792969 10.574219 20.800781 24.160156 31.796875 53.3125 31.796875 84.3125 0 30.058594-10.242188 55.363281-30.441406 75.273438-1.378906.074218-2.769532.253906-4.164063.546874-39.386719 8.277344-79.324219 12.132813-125.6875 12.132813s-86.300781-3.855469-125.6875-12.132813c-1.394531-.292968-2.785156-.472656-4.164062-.550781-20.203125-19.90625-30.441407-45.210937-30.441407-75.269531 0-37.820312 16.535157-73.027344 46.566407-99.132812 30.082031-26.152344 70.46875-40.554688 113.726562-40.554688 38.621094 0 75.78125 11.8125 104.640625 33.253906 3.324219 2.46875 8.023438 1.777344 10.496094-1.546875 2.46875-3.324219 1.777344-8.023437-1.546875-10.492187-31.429687-23.351563-71.769531-36.214844-113.589844-36.214844-46.871093 0-90.757812 15.710938-123.570312 44.234375-33.351563 29-51.722657 68.226563-51.722657 110.453125 0 30.71875 9.992188 58.035156 29.023438 79.707031-5.539062 3.652344-9.75 9.34375-11.460938 16.335938l-2.539062 10.375-50.738281-18.464844c-6.582031-2.394531-13.699219-2.085937-20.046875.875-6.34375 2.957031-11.160156 8.210937-13.554688 14.792969-2.394531 6.578125-2.085937 13.699218.875 20.046875 2.960938 6.34375 8.214844 11.160156 14.792969 13.554687l5.910156 2.152344-13.730469 6.402344c-11.636718 5.425781-16.691406 19.3125-11.265624 30.953125 3.8125 8.171875 12.101562 13.453125 21.121093 13.453125 3.414063 0 6.722657-.738282 9.832031-2.1875l55.949219-26.089844 25.957031 9.449219c3.730469 19.15625 12.226563 37.195312 25.148438 53.042969 1.484375 1.820312 3.644531 2.761718 5.820312 2.761718 1.664063 0 3.339844-.550781 4.734376-1.6875 3.210937-2.617187 3.6875-7.34375 1.070312-10.554687-15.675781-19.222657-23.960938-42.0625-23.960938-66.050781 0-.761719.011719-1.527344.03125-2.292969 2.472657.445312 4.953126.878906 7.4375 1.296875h.007813c.035156.007812.070313.011718.105469.019531 28.039062 4.683594 56.714844 7.441406 87.644531 8.4375.054687 0 .109375.007813.164063.007813.015624 0 .03125-.003907.046874-.003907 8.78125.28125 17.734376.425781 26.917969.425781 9.179688 0 18.132813-.144531 26.914063-.425781.015625 0 .03125.003907.046875.003907.054687 0 .109375-.007813.164062-.007813 20.246094-.652344 39.519531-2.066406 58.28125-4.277344v48.34375c0 7.535157 4.4375 14.039063 10.824219 17.082031-23.113281 26.8125-58.199219 42.511719-96.230469 42.511719-27.53125 0-53.53125-8.113281-75.1875-23.457031-3.378906-2.398438-8.058593-1.597656-10.453125 1.78125-2.394531 3.378906-1.597656 8.0625 1.78125 10.457031 24.203125 17.152344 53.203125 26.21875 83.859375 26.21875 46.03125 0 88.304688-20.734375 113.925781-55.65625h13.960938c10.4375 0 18.929688-8.496093 18.929688-18.933593v-24.890626h88.761718c14.453125 0 26.214844-11.761718 26.214844-26.214843 0-14.457031-11.761719-26.214844-26.214844-26.214844zm-394.492187 23.671875c-1.867188-.679688-3.929688-.59375-5.734375.25l-58.765625 27.402344c-1.109375.519531-2.285157.78125-3.492188.78125-3.214843 0-6.167969-1.882813-7.523437-4.792969-1.933594-4.144531-.132813-9.085937 4.011718-11.019531l30.140626-14.054688c2.746093-1.28125 4.453124-4.09375 4.320312-7.125s-2.074219-5.683594-4.925781-6.722656l-22.925781-8.34375c-2.816407-1.023438-5.066407-3.082031-6.332032-5.796875s-1.398437-5.761719-.371094-8.578125c1.023438-2.816406 3.082032-5.0625 5.796876-6.328125 2.71875-1.265625 5.761718-1.402344 8.578124-.375l54.804688 19.945313c.65625 3.109374 1.867188 6.109374 3.613281 8.886718 3.980469 6.328125 10.207031 10.664063 17.535157 12.207032.984374.210937 1.96875.402343 2.953124.605468-.078124 1.734375-.125 3.460938-.125 5.171875 0 1.9375.058594 3.863281.152344 5.785157zm39.667969-14.863281c-5.964844-1.070313-11.90625-2.222657-17.839844-3.472657-3.320313-.699218-6.136719-2.660156-7.933594-5.519531-1.78125-2.832031-2.324219-6.179687-1.53125-9.429687l3.386719-13.859375c1.285156-5.246094 5.683593-8.863281 10.757812-9.320313.113281-.007812.230469-.007812.347657-.019531.246093-.015625.492187-.03125.742187-.03125.835937 0 1.6875.085937 2.542969.265625 5.765625 1.210938 11.546875 2.320312 17.351562 3.347656zm84.78125 9.152343c-24.429688-1.042968-47.476563-3.238281-69.972657-6.683593l7.832031-38.085938c19.992188 2.988281 40.472657 4.949219 62.140626 5.929688zm53.925781.496094c-6.382813.148438-12.859375.222656-19.460938.222656-6.605469 0-13.082031-.074218-19.464843-.222656v-38.824218c6.375.15625 12.851562.242187 19.464843.242187 6.609375 0 13.085938-.085937 19.460938-.242187zm15-.496094v-38.839843c21.667969-.980469 42.148437-2.941407 62.140625-5.929688l7.835937 38.085938c-22.5 3.445312-45.542969 5.640625-69.976562 6.683593zm97.355469 59.359376c0 2.167968-1.761719 3.933593-3.929688 3.933593h-23.546875c-2.167969 0-3.933594-1.765625-3.933594-3.933593v-15.519532h31.410157zm0-30.519532h-31.410157v-19.773437c4.8125-.6875 9.597657-1.417969 14.363281-2.214844.035157-.007813.070313-.007813.105469-.015625.003907 0 .003907 0 .007813-.003906 5.667968-.945313 11.308594-1.96875 16.9375-3.078125v25.085937zm13.199218-46.984375c-1.796875 2.859375-4.613281 4.816407-7.933594 5.519531-5.929687 1.25-11.875 2.402344-17.839843 3.472657l-7.824219-38.039063c5.804688-1.027344 11.585938-2.136718 17.351562-3.347656 1.113282-.234375 2.222657-.296875 3.300782-.230469.117187.011719.238281.011719.355468.019531 5.066407.460938 9.453126 4.082032 10.730469 9.316407l3.390625 13.859375c.792969 3.25.25 6.597656-1.53125 9.429687zm90.5625 37.617188h-88.761718v-19.730469c1.535156-.761719 2.984374-1.667969 4.34375-2.703125h15.355468c1.988282 0 3.894532-.792969 5.300782-2.199219l45.851562-45.847656c1.566406-1.566406 3.648438-2.429688 5.863281-2.429688 2.214844 0 4.296875.863282 5.859375 2.429688 3.234375 3.234375 3.234375 8.492188 0 11.726562l-23.515625 23.515626c-2.144531 2.144531-2.785156 5.371093-1.625 8.171874 1.160157 2.804688 3.894531 4.632813 6.929688 4.632813h24.398437c6.183594 0 11.214844 5.03125 11.214844 11.214844 0 6.183593-5.03125 11.21875-11.214844 11.21875zm-219.765625-120.039063c-3.992187 4.582032-9.753906 7.210938-15.8125 7.210938-6.058593 0-11.824219-2.628906-15.816406-7.210938-2.722656-3.121094-7.460937-3.445312-10.582031-.726562-3.121094 2.722656-3.449219 7.460937-.726563 10.582031 6.84375 7.851563 16.730469 12.355469 27.125 12.355469s20.28125-4.503906 27.125-12.355469c2.71875-3.121094 2.394531-7.859375-.730469-10.582031-3.121093-2.71875-7.859374-2.394532-10.582031.726562zm-15.8125 185.175782c4.011719 0 7.265625-3.253907 7.265625-7.265626 0-4.015624-3.253906-7.269531-7.265625-7.269531-4.015625 0-7.269531 3.253907-7.269531 7.269531 0 4.011719 3.253906 7.265626 7.269531 7.265626zm0-35.699219c4.011719 0 7.265625-3.253907 7.265625-7.265625 0-4.015625-3.253906-7.269532-7.265625-7.269532-4.015625 0-7.269531 3.253907-7.269531 7.269532 0 4.011718 3.253906 7.265625 7.269531 7.265625zm73.933594-229.878907v13.519532c0 4.140625 3.355469 7.5 7.5 7.5 4.140625 0 7.5-3.359375 7.5-7.5v-13.519532c0-4.140624-3.359375-7.5-7.5-7.5-4.144531 0-7.5 3.359376-7.5 7.5zm0 0"/></svg>