<svg height="512pt" viewBox="0 0 512 512.001" width="512pt" xmlns="http://www.w3.org/2000/svg"><path d="m512 256c0-17.871094-14.539062-32.410156-32.410156-32.410156h-6.425782l2.96875-2.972656c10.480469-10.476563 10.480469-27.527344 0-38.003907-10.476562-10.476562-27.527343-10.476562-38.003906 0l-40.976562 40.976563h-47.425782c-1.300781-3.753906-2.816406-7.402344-4.542968-10.9375l62.1875-62.191406c6.125-6.121094 9.496094-14.257813 9.496094-22.917969 0-8.65625-3.371094-16.796875-9.496094-22.914063-6.121094-6.125-14.257813-9.496094-22.914063-9.496094-8.660156 0-16.796875 3.371094-22.917969 9.496094l-62.191406 62.1875c-3.53125-1.726562-7.183594-3.246094-10.9375-4.546875v-47.417969l40.976563-40.980468c10.476562-10.476563 10.476562-27.527344 0-38.003906-10.476563-10.480469-27.527344-10.476563-38.007813 0l-2.96875 2.96875v-6.425782c0-17.871094-14.539062-32.410156-32.410156-32.410156s-32.410156 14.539062-32.410156 32.410156v6.425782l-2.96875-2.96875c-10.480469-10.476563-27.53125-10.476563-38.007813 0-10.476562 10.476562-10.476562 27.527343 0 38.003906l40.976563 40.976562v47.421875c-3.75 1.300781-7.402344 2.824219-10.9375 4.546875l-51.320313-51.324218c-2.929687-2.925782-7.679687-2.925782-10.609375 0-2.925781 2.929687-2.925781 7.679687 0 10.609374l48.582032 48.578126c-9.578126 6.699218-17.921876 15.042968-24.621094 24.621093l-59.445313-59.445312c-3.289062-3.289063-5.101562-7.660157-5.101562-12.3125 0-4.648438 1.8125-9.023438 5.101562-12.3125 3.285157-3.285157 7.65625-5.097657 12.308594-5.097657 4.140625 0 7.5-3.359374 7.496094-7.5 0-4.140624-3.355469-7.5-7.5-7.5-8.65625 0-16.792969 3.371094-22.914063 9.492188s-9.492187 14.261719-9.492187 22.917969 3.371093 16.796875 9.492187 22.917969l62.191406 62.1875c-1.726562 3.535156-3.246093 7.1875-4.546874 10.941406h-47.421876l-40.976562-40.980469c-10.480469-10.476563-27.53125-10.476563-38.007812.003906-10.476563 10.476563-10.476563 27.527344 0 38.003907l2.96875 2.972656h-6.425782c-17.871094 0-32.410156 14.539062-32.410156 32.410156s14.539062 32.410156 32.410156 32.410156h6.425782l-2.96875 2.972656c-10.476563 10.476563-10.476563 27.527344 0 38.003907 5.238281 5.238281 12.121093 7.859375 19.003906 7.859375 6.882812 0 13.761718-2.621094 19.003906-7.859375l40.976562-40.976563h47.421876c1.300781 3.753906 2.820312 7.40625 4.546874 10.9375l-62.191406 62.191406c-6.121094 6.121094-9.492187 14.257813-9.492187 22.917969 0 8.65625 3.371093 16.796875 9.492187 22.914063 6.121094 6.125 14.261719 9.496094 22.917969 9.496094s16.796875-3.371094 22.917969-9.496094l62.1875-62.1875c3.535156 1.726562 7.1875 3.246094 10.9375 4.546875v47.421875l-40.976563 40.976562c-10.476562 10.476563-10.476562 27.527344.003907 38.003906 5.238281 5.242188 12.117187 7.859376 19 7.859376 6.882812 0 13.765624-2.621094 19.003906-7.859376l2.96875-2.96875v6.425782c0 17.871094 14.539062 32.410156 32.410156 32.410156s32.410156-14.539062 32.410156-32.410156v-6.425782l2.972656 2.972657c5.238282 5.238281 12.121094 7.855469 19.003907 7.855469 6.878906 0 13.761719-2.621094 19-7.859376 5.320312-5.316406 8.179687-12.675781 7.847656-20.191406-.183594-4.140625-3.6875-7.347656-7.824219-7.164062-4.140625.183594-7.34375 3.6875-7.164062 7.824218.148437 3.371094-1.082032 6.542969-3.464844 8.925782-4.628906 4.628906-12.164062 4.628906-16.792969 0l-13.578125-13.578125v-33.585938l16.878906 16.878907c1.464844 1.464843 3.382813 2.195312 5.300782 2.195312 1.921875 0 3.839844-.730469 5.304687-2.195312 2.929688-2.929688 2.929688-7.679688 0-10.605469l-27.484375-27.488281v-47.421876c3.753906-1.300781 7.40625-2.820312 10.9375-4.542968l62.191406 62.1875c6.121094 6.121094 14.257813 9.492187 22.917969 9.492187 8.65625 0 16.792969-3.371093 22.914063-9.492187 6.125-6.121094 9.496094-14.261719 9.496094-22.917969s-3.371094-16.796875-9.496094-22.917969l-62.1875-62.1875c1.726562-3.535156 3.242187-7.1875 4.542968-10.9375h47.425782l40.976562 40.976563c5.238282 5.238281 12.121094 7.855469 19 7.855469 6.882813 0 13.765625-2.617188 19.003906-7.855469 10.480469-10.476563 10.480469-27.527344 0-38.007813l-2.96875-2.96875h6.425782c17.871094 0 32.410156-14.539062 32.410156-32.410156zm-223.589844-195.949219 13.578125-13.578125c4.628907-4.628906 12.164063-4.628906 16.792969 0s4.628906 12.164063 0 16.792969l-30.371094 30.371094zm-241.9375 133.167969c4.628906-4.628906 12.164063-4.628906 16.792969 0l30.371094 30.371094h-33.585938l-13.578125-13.578125c-4.628906-4.628907-4.628906-12.160157 0-16.792969zm16.792969 125.5625c-4.628906 4.628906-12.164063 4.628906-16.792969 0-4.628906-4.632812-4.628906-12.164062 0-16.796875l13.578125-13.574219h33.585938zm95.09375-45.371094h-125.949219c-9.601562 0-17.410156-7.808594-17.410156-17.410156s7.808594-17.410156 17.410156-17.410156h125.949219c-1.003906 5.652344-1.53125 11.472656-1.53125 17.410156s.527344 11.757812 1.53125 17.410156zm65.230469 178.539063-13.574219 13.578125c-4.632813 4.628906-12.164063 4.628906-16.796875 0-4.628906-4.628906-4.628906-12.164063 0-16.792969l30.371094-30.371094zm15-419.539063c0-9.601562 7.8125-17.410156 17.410156-17.410156 9.601562 0 17.410156 7.808594 17.410156 17.410156v125.949219c-5.652344-1.003906-11.472656-1.53125-17.410156-1.53125s-11.753906.527344-17.410156 1.53125zm-45.371094 30.855469c-4.628906-4.628906-4.628906-12.164063 0-16.792969 4.632812-4.628906 12.164062-4.628906 16.796875 0l13.574219 13.578125v33.585938zm-53.363281 333.5c-3.289063 3.289063-7.660157 5.097656-12.3125 5.097656-4.648438 0-9.019531-1.808593-12.308594-5.097656s-5.101563-7.660156-5.101563-12.308594c0-4.652343 1.8125-9.023437 5.101563-12.3125l59.445313-59.445312c6.699218 9.578125 15.042968 17.921875 24.621093 24.621093zm133.554687 82.824219c0 9.601562-7.808594 17.410156-17.410156 17.410156-9.597656 0-17.410156-7.808594-17.410156-17.410156v-125.949219c5.65625 1.003906 11.472656 1.53125 17.410156 1.53125s11.757812-.527344 17.410156-1.53125zm-17.410156-139.417969c-46.414062 0-84.171875-37.761719-84.171875-84.171875s37.761719-84.171875 84.171875-84.171875c46.414062 0 84.171875 37.761719 84.171875 84.171875s-37.757813 84.171875-84.171875 84.171875zm140.765625 31.972656c3.289063 3.289063 5.101563 7.660157 5.101563 12.3125 0 4.648438-1.8125 9.019531-5.101563 12.308594s-7.660156 5.097656-12.308594 5.097656c-4.652343 0-9.023437-1.808593-12.3125-5.097656l-59.445312-59.445313c9.578125-6.699218 17.921875-15.042968 24.621093-24.621093zm-59.445313-172.839843c-6.699218-9.578126-15.042968-17.921876-24.621093-24.621094l59.445312-59.449219c3.289063-3.289063 7.660157-5.097656 12.3125-5.097656 4.648438 0 9.019531 1.808593 12.308594 5.097656s5.101563 7.660156 5.101563 12.3125c0 4.648437-1.8125 9.019531-5.101563 12.308594zm111.414063-6.085938c4.628906-4.628906 12.164063-4.628906 16.792969 0 4.628906 4.632812 4.628906 12.164062 0 16.796875l-13.578125 13.574219h-33.585938zm16.792969 125.5625c-4.628906 4.628906-12.164063 4.628906-16.792969 0l-30.371094-30.371094h33.585938l13.578125 13.578125c4.628906 4.628907 4.628906 12.160157 0 16.792969zm-111.886719-45.371094c1.007813-5.652344 1.53125-11.472656 1.53125-17.410156s-.523437-11.757812-1.53125-17.410156h125.949219c9.601562 0 17.410156 7.808594 17.410156 17.410156s-7.808594 17.410156-17.410156 17.410156zm-97.640625-66.761718c-27.210938 0-49.351562 22.136718-49.351562 49.351562s22.140624 49.351562 49.351562 49.351562c27.214844 0 49.351562-22.136718 49.351562-49.351562s-22.136718-49.351562-49.351562-49.351562zm0 83.703124c-18.941406 0-34.351562-15.410156-34.351562-34.351562s15.410156-34.351562 34.351562-34.351562 34.351562 15.410156 34.351562 34.351562-15.410156 34.351562-34.351562 34.351562zm0 0"/></svg>