<svg height="512pt" viewBox="-83 0 512 512.00107" width="512pt" xmlns="http://www.w3.org/2000/svg"><path d="m240.773438 93.246094c4.585937-10.171875 3.457031-22.398438-3.75-31.71875-1.941407-2.511719-2.675782-5.730469-2.015626-8.835938 1.933594-9.101562-.285156-18.5-6.089843-25.777344-5.800781-7.273437-14.46875-11.527343-23.773438-11.667968-3.175781-.050782-6.152343-1.480469-8.167969-3.933594-5.910156-7.191406-14.640624-11.3125-23.949218-11.3125s-18.035156 4.121094-23.949219 11.3125c-2.015625 2.453125-4.992187 3.882812-8.164063 3.933594-9.308593.140625-17.972656 4.394531-23.777343 11.667968-5.800781 7.277344-8.019531 16.675782-6.085938 25.777344.660157 3.105469-.078125 6.328125-2.015625 8.835938-7.191406 9.300781-8.332031 21.492187-3.777344 31.652344-14.984374 5.25-29.171874 12.800781-42.175781 22.542968-3.316406 2.480469-3.988281 7.183594-1.507812 10.496094 2.484375 3.316406 7.183593 3.992188 10.5 1.507812 14.15625-10.601562 29.859375-18.339843 46.507812-23.023437.378907-.074219.753907-.179687 1.121094-.3125 12.113281-3.296875 24.714844-4.992187 37.585937-4.992187h31.472657c77.925781 0 141.410156 62.964843 142.273437 140.691406-.839844-.527344-1.683594-1.082032-2.554687-1.652344-5.964844-3.921875-13.382813-8.800781-27.125-8.800781-5.410157 0-9.832031.761719-13.578125 1.917969.703125-3.164063 1.082031-6.445313 1.082031-9.8125 0-9.550782-3.898437-18.417969-10.808594-24.808594-2.167969-15.695313-15.476562-27.527344-31.703125-27.527344-3.707031 0-7.367187.640625-10.820312 1.878906-6.628906-6.230468-15.488282-9.820312-24.695313-9.820312-5.929687 0-11.628906 1.414062-16.757812 4.132812-6.085938-4.414062-13.371094-6.792968-21.046875-6.792968-7.675782 0-14.960938 2.378906-21.042969 6.792968-5.132813-2.71875-10.832031-4.132812-16.761719-4.132812-9.207031 0-18.066406 3.589844-24.695312 9.820312-3.453125-1.238281-7.109375-1.878906-10.820313-1.878906-16.226562 0-29.535156 11.832031-31.703125 27.527344-6.910156 6.390625-10.808594 15.257812-10.808594 24.808594 0 3.371093.378907 6.648437 1.082032 9.8125-3.746094-1.15625-8.167969-1.917969-13.574219-1.917969-13.746094 0-21.164063 4.878906-27.125 8.800781-.875.574219-1.71875 1.125-2.5625 1.652344.371094-32.660156 12.019531-64.363282 32.914063-89.433594 2.652343-3.183594 2.222656-7.914062-.960938-10.5625-3.183594-2.652344-7.910156-2.222656-10.5625.957031-23.476562 28.171875-36.40625 63.914063-36.40625 100.640625v9.773438.035156 71.039062.035157 49.574219c0 22.859374 17.25 41.753906 39.414062 44.378906v13.460937c-3.199218 1.257813-6.066406 3.3125-8.316406 6.046875-.484375.589844-1.199218.933594-1.960937.945313-6.144531.09375-11.871094 2.902343-15.703125 7.707031-3.828125 4.804688-5.296875 11.007812-4.019532 17.023438.160157.746093-.015624 1.519531-.484374 2.125-3.757813 4.859374-5.128907 11.085937-3.761719 17.078124 1.367187 5.992188 5.304687 11.007813 10.800781 13.757813.683594.339844 1.175781.960937 1.359375 1.703125 1.457031 5.972656 5.46875 10.925781 11.007813 13.59375 5.535156 2.664062 11.910156 2.710938 17.488281.128906.691406-.320312 1.484375-.320312 2.179687 0 2.738282 1.269532 5.671875 1.902344 8.605469 1.902344 3.035156 0 6.066406-.679688 8.882813-2.035156 5.539062-2.664063 9.550781-7.621094 11.007812-13.589844.179688-.742188.675781-1.363281 1.359375-1.703125 5.496094-2.75 9.433594-7.765625 10.800781-13.757813 1.367188-5.992187-.003906-12.21875-3.761718-17.082031-.46875-.601562-.644532-1.378906-.488282-2.121093 1.28125-6.015626-.1875-12.21875-4.019531-17.023438-3.832031-4.808594-9.554687-7.617188-15.699219-7.707031-.765625-.011719-1.480468-.355469-1.964844-.945313-2.246093-2.734375-5.113281-4.792968-8.3125-6.050781v-13.457031c13.871094-1.644532 25.820313-9.660156 32.816407-21.039063h171.597656c6.996094 11.378907 18.941406 19.394531 32.816406 21.039063v13.457031c-3.199219 1.257813-6.066406 3.316406-8.316406 6.050781-.484375.589844-1.199219.933594-1.960937.945313-6.148438.089843-11.871094 2.902343-15.703126 7.707031-3.832031 4.804688-5.296874 11.007812-4.019531 17.019531.160157.746094-.015625 1.523438-.484375 2.125-3.757812 4.863281-5.128906 11.089844-3.761718 17.082031 1.367187 5.992188 5.304687 11.007813 10.800781 13.757813.683593.339844 1.175781.960937 1.359375 1.703125 1.457031 5.96875 5.46875 10.925781 11.007812 13.589844 5.535156 2.667968 11.910156 2.714844 17.488282.132812.691406-.320312 1.484374-.320312 2.179687 0 2.738281 1.269532 5.671875 1.902344 8.605469 1.902344 3.035156 0 6.066406-.679688 8.882812-2.035156 5.539063-2.664063 9.550782-7.621094 11.007813-13.589844.179687-.742188.675781-1.363281 1.359375-1.703125 5.496094-2.75 9.433594-7.765625 10.800781-13.757813 1.367187-5.992187-.003906-12.21875-3.761719-17.082031-.46875-.601562-.644531-1.378906-.488281-2.121093 1.28125-6.015626-.1875-12.21875-4.019531-17.023438-3.832032-4.808594-9.554688-7.617188-15.699219-7.707031-.761719-.011719-1.476563-.355469-1.960937-.945313-2.25-2.734375-5.117188-4.792968-8.316407-6.050781v-13.457031c5.609375-.667969 11.070313-2.386719 16.023438-5.078125 3.640625-1.976563 4.988281-6.53125 3.007812-10.167969-1.976562-3.640625-6.53125-4.988281-10.167969-3.011719-4.3125 2.34375-9.207031 3.582031-14.152343 3.582031h-4.421875c-16.378906 0-29.703125-13.324218-29.703125-29.703124v-42.71875c6.597656-1.707032 11.132812-4.683594 15.246093-7.390626 5.378907-3.535156 9.625-6.332031 18.878907-6.332031 9.253906 0 13.503906 2.796875 18.882812 6.332031 3.085938 2.03125 6.464844 4.246094 10.820313 5.953126v44.15625c0 1.101562-.0625 2.207031-.179688 3.289062-.453125 4.117188 2.515625 7.820312 6.632813 8.273438.28125.03125.558593.046874.832031.046874 3.773438 0 7.023438-2.84375 7.445312-6.683593.179688-1.621094.269532-3.277344.269532-4.925781v-49.574219c0-.011719 0-.023438 0-.035157v-71.039062c0-.011719 0-.023438 0-.035156v-9.773438c0-68.511718-44.035156-126.925781-105.285156-148.445312zm-14.65625-4.355469c-11.980469-2.925781-24.484376-4.492187-37.351563-4.492187h-31.472656c-12.757813 0-25.277344 1.503906-37.382813 4.445312-3.398437-5.546875-3.160156-12.773438.992188-18.140625 4.640625-6.003906 6.398437-13.707031 4.820312-21.128906-1-4.699219.148438-9.550781 3.144532-13.304688 2.996093-3.757812 7.46875-5.953125 12.269531-6.027343 7.589843-.113282 14.707031-3.539063 19.527343-9.402344 3.054688-3.710938 7.558594-5.839844 12.363282-5.839844 4.804687 0 9.3125 2.128906 12.363281 5.839844 4.820313 5.859375 11.9375 9.289062 19.527344 9.402344 4.804687.070312 9.277343 2.269531 12.273437 6.023437 2.996094 3.757813 4.140625 8.609375 3.144532 13.308594-1.578126 7.421875.179687 15.125 4.820312 21.128906 4.164062 5.386719 4.390625 12.636719.960938 18.1875zm68.796874 356.671875c1.429688-1.738281 3.265626-1.996094 4.230469-1.996094.964844 0 2.800781.257813 4.230469 1.996094 3.289062 4 8.144531 6.335938 13.324219 6.414062 2.25.035157 3.59375 1.308594 4.195312 2.0625.601563.753907 1.542969 2.351563 1.074219 4.550782-1.074219 5.066406.125 10.320312 3.292969 14.417968 1.375 1.78125 1.222656 3.625 1.003906 4.566407-.214844.941406-.875 2.671875-2.886719 3.679687-4.628906 2.316406-7.992187 6.53125-9.21875 11.5625-.535156 2.1875-2.074218 3.214844-2.945312 3.632813-.871094.421875-2.632813.984375-4.675782.035156-2.351562-1.085937-4.871093-1.632813-7.394531-1.632813-2.523437 0-5.046875.546876-7.394531 1.632813-2.042969.949219-3.808594.386719-4.675781-.035156-.871094-.417969-2.410157-1.445313-2.945313-3.632813-1.226562-5.03125-4.589844-9.246094-9.21875-11.5625-2.011718-1.007812-2.675781-2.738281-2.890625-3.679687-.214843-.941407-.367187-2.785157 1.007813-4.566407 3.167968-4.097656 4.367187-9.351562 3.289062-14.417968-.464844-2.199219.472656-3.792969 1.074219-4.550782.605469-.753906 1.949219-2.027343 4.199219-2.0625 5.179687-.078124 10.035156-2.414062 13.324218-6.414062zm-230.449218 6.414062c2.25.035157 3.597656 1.308594 4.199218 2.0625.601563.753907 1.542969 2.351563 1.074219 4.550782-1.074219 5.066406.125 10.320312 3.292969 14.417968 1.375 1.78125 1.222656 3.625 1.007812 4.566407-.214843.941406-.878906 2.671875-2.890624 3.679687-4.632813 2.316406-7.992188 6.53125-9.21875 11.5625-.535157 2.1875-2.074219 3.214844-2.945313 3.632813-.871094.421875-2.632813.984375-4.675781.035156-2.351563-1.085937-4.871094-1.628906-7.394532-1.628906-2.519531 0-5.042968.542969-7.390624 1.628906-.003907 0-.003907 0-.003907 0-2.039062.945313-3.804687.382813-4.675781-.035156s-2.410156-1.445313-2.945312-3.632813c-1.226563-5.03125-4.585938-9.246094-9.21875-11.5625-2.011719-1.007812-2.671876-2.734375-2.886719-3.675781-.214844-.941406-.371094-2.789063 1.003906-4.570313 3.167969-4.097656 4.367187-9.351562 3.292969-14.414062-.46875-2.203125.472656-3.796875 1.074218-4.554688.601563-.753906 1.949219-2.027343 4.199219-2.058593 5.175781-.078125 10.03125-2.417969 13.320313-6.417969 1.429687-1.738281 3.265625-1.996094 4.230468-1.996094.964844 0 2.800782.257813 4.230469 1.996094 3.285157 4 8.144531 6.335938 13.320313 6.414062zm14.363281-79.828124c0 16.375-13.324219 29.699218-29.703125 29.699218h-4.421875c-16.378906 0-29.703125-13.324218-29.703125-29.699218v-44.160157c4.355469-1.703125 7.738281-3.921875 10.820312-5.949219 5.378907-3.539062 9.628907-6.332031 18.882813-6.332031s13.5 2.792969 18.878906 6.332031c4.113281 2.703126 8.652344 5.679688 15.246094 7.386719zm0-58.558594c-2.445313-1.089844-4.59375-2.5-7-4.082032-5.960937-3.921874-13.378906-8.804687-27.125-8.804687s-21.164063 4.882813-27.125 8.804687c-.878906.578126-1.730469 1.132813-2.578125 1.664063v-54.253906c4.355469-1.703125 7.734375-3.921875 10.820312-5.949219 5.378907-3.539062 9.628907-6.335938 18.882813-6.335938s13.503906 2.796876 18.882813 6.335938c2.816406 1.851562 5.984374 3.925781 9.929687 5.582031 1.671875 1.398438 3.445313 2.679688 5.3125 3.828125zm14.207031 66.898437c.511719-2.703125.789063-5.488281.789063-8.339843v-105.898438c2.828125.554688 5.746093.851562 8.730469.851562h140.945312c2.984375 0 5.902344-.296874 8.730469-.851562v105.898438c0 2.847656.277343 5.636718.792969 8.339843zm150.464844-128.386719h-140.945312c-16.738282 0-30.359376-13.621093-30.359376-30.359374 0-5.976563 2.746094-11.472657 7.527344-15.078126 1.816406-1.367187 2.914063-3.488281 2.980469-5.761718.28125-9.25 7.75-16.496094 17.003906-16.496094 3.109375 0 6.148438.84375 8.792969 2.441406 3.300781 2 7.582031 1.164063 9.890625-1.933594 4.007813-5.371093 10.144531-8.449218 16.832031-8.449218 4.683594 0 9.117188 1.515625 12.820313 4.382812 3.015625 2.332032 7.304687 2.035156 9.964843-.699218 3.984376-4.089844 9.320313-6.339844 15.023438-6.339844 5.699219 0 11.035156 2.25 15.019531 6.339844 2.660157 2.730468 6.945313 3.03125 9.960938.699218 3.703125-2.867187 8.140625-4.382812 12.824219-4.382812 6.6875 0 12.824218 3.078125 16.828124 8.449218 2.308594 3.097657 6.59375 3.933594 9.894532 1.933594 2.644531-1.597656 5.683594-2.441406 8.789062-2.441406 9.257813 0 16.726563 7.246094 17.007813 16.496094.066406 2.273437 1.164062 4.394531 2.980469 5.761718 4.78125 3.605469 7.527343 9.101563 7.527343 15.078126-.003906 16.742187-13.621093 30.359374-30.363281 30.359374zm87.558594 59.070313c-.847656-.53125-1.699219-1.085937-2.578125-1.664063-5.960938-3.921874-13.378907-8.800781-27.125-8.800781-13.746094 0-21.164063 4.878907-27.125 8.800781-2.40625 1.582032-4.554688 2.992188-7 4.082032v-53.210938c1.863281-1.148437 3.640625-2.425781 5.3125-3.824218 3.945312-1.660157 7.113281-3.734376 9.929687-5.585938 5.378906-3.539062 9.628906-6.335938 18.882813-6.335938 9.253906 0 13.503906 2.796876 18.882812 6.335938 3.085938 2.027344 6.464844 4.246094 10.820313 5.949219zm0 0"/></svg>