<svg height="511pt" viewBox="0 -8 511.99855 511" width="511pt" xmlns="http://www.w3.org/2000/svg"><path d="m508.335938 183.832031c-7.625-23.460937-26.300782-41.632812-49.964844-48.605469l-10.730469-3.167968c-3.976563-1.167969-8.144531 1.101562-9.316406 5.074218-1.171875 3.976563 1.101562 8.144532 5.074219 9.316407l10.730468 3.164062c19.195313 5.660157 33.753906 19.824219 39.9375 38.855469 6.1875 19.035156 2.734375 39.046875-9.472656 54.910156l-46.152344 59.988282c-8.628906 11.210937-13.164062 25.175781-12.777344 39.320312l2.082032 75.660156c.550781 20.003906-8.421875 38.226563-24.613282 49.988282-16.191406 11.765624-36.289062 14.664062-55.148437 7.960937l-71.3125-25.359375c-13.332031-4.742188-28.015625-4.742188-41.34375 0l-71.316406 25.359375c-18.855469 6.703125-38.957031 3.804687-55.148438-7.960937-16.191406-11.761719-25.160156-29.984376-24.609375-49.988282l2.078125-75.660156c.390625-14.144531-4.144531-28.109375-12.773437-39.320312l-46.15625-59.988282c-12.203125-15.863281-15.65625-35.875-9.472656-54.910156 6.183593-19.035156 20.742187-33.195312 39.9375-38.855469l72.601562-21.402343c13.570312-4 25.449219-12.628907 33.449219-24.300782l42.785156-62.433594c11.316406-16.507812 29.28125-25.976562 49.296875-25.976562 20.011719 0 37.980469 9.46875 49.292969 25.976562l42.789062 62.433594c7.996094 11.671875 19.875 20.300782 33.445313 24.300782l28.0625 8.273437c3.976562 1.175781 8.144531-1.101563 9.316406-5.074219s-1.101562-8.144531-5.074219-9.316406l-28.0625-8.269531c-10.269531-3.027344-19.261719-9.5625-25.3125-18.394531l-42.789062-62.433594c-13.945313-20.347656-37-32.496094-61.667969-32.496094-24.671875 0-47.726562 12.148438-61.671875 32.496094l-42.785156 62.433594c-6.054688 8.832031-15.046875 15.367187-25.316407 18.394531l-72.601562 21.402343c-23.660156 6.972657-42.339844 25.144532-49.960938 48.605469-7.625 23.464844-3.195312 49.144531 11.847657 68.695313l46.15625 59.988281c6.53125 8.484375 9.964843 19.054687 9.667969 29.757813l-2.078126 75.660156c-.679687 24.660156 10.832032 48.039062 30.789063 62.539062 19.957031 14.503906 45.75 18.222656 68.992187 9.957032l71.316407-25.359376c10.085937-3.585937 21.203125-3.585937 31.289062 0l71.316407 25.359376c8.15625 2.902343 16.628906 4.328124 25.050781 4.328124 15.578125-.003906 30.988281-4.871093 43.941406-14.28125 19.957031-14.5 31.46875-37.882812 30.789063-62.542968l-2.078126-75.660156c-.296874-10.703126 3.136719-21.273438 9.667969-29.757813l46.15625-59.988281c15.042969-19.550782 19.46875-45.230469 11.847657-68.695313zm-47.855469 52.03125c8.332031-10.828125 10.863281-24.996093 6.847656-38.027343-.023437-.085938-.039063-.171876-.070313-.261719-.003906-.019531-.015624-.039063-.023437-.058594-.027344-.101563-.054687-.199219-.085937-.300781-4.289063-13.199219-14.796876-23.421875-28.105469-27.347656l-84.109375-24.792969c-5.953125-1.753907-11.160156-5.539063-14.667969-10.65625l-49.570313-72.328125c-7.847656-11.449219-20.816406-18.285156-34.695312-18.285156s-26.847656 6.835937-34.695312 18.285156l-49.570313 72.328125c-3.503906 5.117187-8.714844 8.902343-14.667969 10.65625l-84.105468 24.792969c-13.3125 3.925781-23.820313 14.148437-28.109376 27.347656-.03125.097656-.054687.195312-.085937.292968-.007813.023438-.019531.042969-.027344.066407-.027343.09375-.046875.183593-.074219.277343-4.007812 13.023438-1.476562 27.183594 6.851563 38.007813l53.472656 69.496094c3.785157 4.917969 5.773438 11.042969 5.601563 17.242187l-2.410156 87.652344c-.378907 13.875 6.09375 27.027344 17.320312 35.183594.050781.039062.105469.070312.152344.105468.011718.007813.027344.019532.039062.03125.019532.015626.046875.023438.070313.039063 11.191406 8.007813 25.578125 10.042969 38.554687 5.425781l82.617188-29.378906c5.84375-2.078125 12.285156-2.078125 18.128906 0l82.617188 29.378906c4.589843 1.632813 9.355468 2.433594 14.097656 2.433594 8.761718 0 17.433594-2.738281 24.71875-8.035156 11.226562-8.15625 17.703125-21.308594 17.320312-35.183594l-2.410156-87.652344c-.171875-6.203125 1.820312-12.324218 5.605469-17.242187zm-343.605469 60.347657-53.46875-69.496094c-3.863281-5.019532-5.78125-10.957032-5.636719-17.015625l32.6875 10.621093c.773438.25 1.554688.367188 2.320313.367188 3.164062 0 6.105468-2.015625 7.132812-5.183594 1.28125-3.941406-.875-8.171875-4.816406-9.453125l-32.886719-10.683593c3.449219-5.320313 8.660157-9.238282 14.992188-11.109376l84.109375-24.792968c2.113281-.621094 4.164062-1.417969 6.140625-2.359375l68.910156 94.847656-107.679687-34.988281c-3.941407-1.28125-8.171876.875-9.449219 4.816406-1.28125 3.9375.875 8.171875 4.8125 9.449219l107.679687 34.988281-110.964844 36.054688c-1.113281-2.121094-2.410156-4.152344-3.882812-6.0625zm6.300781 114.457031 2.410157-87.652344c.058593-2.15625-.058594-4.304687-.328126-6.429687l111.101563-36.101563-107.347656 147.753906c-3.933594-4.902343-6.015625-11.023437-5.835938-17.570312zm125.320313-4.886719c-2.230469.402344-4.4375.980469-6.589844 1.746094l-82.617188 29.378906c-6.015624 2.136719-12.308593 2.109375-18.066406.046875l107.273438-147.648437zm0-162.648438-68.855469-94.769531c1.632813-1.6875 3.132813-3.511719 4.46875-5.460937l49.570313-72.332032c3.65625-5.332031 8.847656-9.03125 14.816406-10.722656zm96.050781-86.027343c1.976563.941406 4.027344 1.738281 6.144531 2.363281l84.105469 24.792969c6.335937 1.867187 11.546875 5.785156 14.992187 11.105469l-174.152343 56.585937zm-81.046875-97.257813c5.964844 1.6875 11.164062 5.386719 14.816406 10.722656l49.574219 72.328126c1.335937 1.949218 2.832031 3.773437 4.464844 5.460937l-68.855469 94.773437zm119.484375 368.394532-18.847656-25.945313c-2.4375-3.351563-7.125-4.09375-10.476563-1.660156-3.355468 2.433593-4.097656 7.125-1.660156 10.476562l18.773438 25.839844c-5.757813 2.0625-12.050782 2.089844-18.066407-.046875l-82.617187-29.378906c-2.152344-.769532-4.359375-1.34375-6.59375-1.746094v-116.476562l67.546875 92.96875c1.46875 2.019531 3.753906 3.09375 6.074219 3.09375 1.527343 0 3.070312-.46875 4.402343-1.433594 3.351563-2.4375 4.09375-7.128906 1.660157-10.480469l-67.546876-92.96875 111.105469 36.101563c-.269531 2.125-.390625 4.273437-.328125 6.425781l2.410156 87.65625c.179688 6.546875-1.902343 12.667969-5.835937 17.574219zm12.136719-132.03125c-1.472656 1.910156-2.769532 3.941406-3.882813 6.0625l-110.96875-36.054688 173.957031-56.519531c.144532 6.058593-1.773437 11.996093-5.636718 17.015625zm0 0"/></svg>