<svg height="511pt" viewBox="-30 1 511 511.999" width="511pt" xmlns="http://www.w3.org/2000/svg"><path d="m180.023438 56.757812c0-4.011718-3.25-7.257812-7.257813-7.257812s-7.257813 3.25-7.257813 7.257812c0 4.007813 3.25 7.257813 7.257813 7.257813s7.257813-3.25 7.257813-7.257813zm-33.054688 56.320313c-4.144531 0-7.5 3.359375-7.5 7.5v13.296875c0 4.140625 3.355469 7.5 7.5 7.5 4.140625 0 7.496094-3.359375 7.496094-7.5v-13.296875c0-4.140625-3.355469-7.5-7.496094-7.5zm-41.171875 153.078125c0 4.007812 3.25 7.257812 7.257813 7.257812 4.007812 0 7.257812-3.25 7.257812-7.257812s-3.25-7.257812-7.257812-7.257812c-4.007813 0-7.257813 3.25-7.257813 7.257812zm292.167969-39.925781h-45.929688c23.566406-21.308594 35.890625-49.628907 35.890625-83.039063 0-39.101562-17.007812-75.421875-47.886719-102.269531-30.355468-26.386719-70.949218-40.921875-114.300781-40.921875-45.359375 0-88.792969 16.523438-119.160156 45.335938-3.003906 2.851562-3.128906 7.597656-.28125 10.601562 2.851563 3.007812 7.597656 3.128906 10.605469.28125 27.609375-26.195312 67.28125-41.21875 108.835937-41.21875 39.734375 0 76.832031 13.226562 104.460938 37.246094 27.550781 23.953125 42.726562 56.25 42.726562 90.945312 0 35.824219-16.363281 64.929688-47.320312 84.167969-2.84375 1.769531-4.171875 5.210937-3.253907 8.429687.921876 3.222657 3.863282 5.441407 7.214844 5.441407h47.277344c-7.867188 9.257812-7.449219 23.195312 1.289062 31.933593 1.621094 1.625 2.515626 3.78125 2.515626 6.074219s-.894532 4.453125-2.515626 6.074219c-8.742187 8.742188-9.15625 22.679688-1.285156 31.941406h-41.980468c-7.113282 0-13.800782 3.476563-17.878907 9.308594-4.082031 5.828125-5.066406 13.296875-2.632812 19.984375l27.121093 74.511719c-5.242187-1.945313-10.9375-1.976563-16.246093-.046875-5.917969 2.15625-10.644531 6.488281-13.308594 12.199219-2.003906 4.292968-7.125 6.15625-11.414063 4.152343-11.207031-5.222656-24.457031-.855469-30.464843 9.710938l-8.566407-23.535157c-5.449218-14.96875-19.8125-25.027343-35.742187-25.027343s-30.292969 10.058593-35.742187 25.027343l-8.566407 23.535157c-6.003906-10.566407-19.257812-14.933594-30.460937-9.710938-4.292969 2.003907-9.414063.136719-11.414063-4.15625-2.664062-5.707031-7.390625-10.039062-13.3125-12.195312-5.308593-1.933594-11.003906-1.902344-16.242187.042969l27.121094-74.511719c2.433593-6.683594 1.449218-14.15625-2.632813-19.984375-4.078125-5.828125-10.765625-9.308594-17.878906-9.308594h-41.980469c7.871094-9.257812 7.457031-23.199219-1.285156-31.941406-1.621094-1.621094-2.515625-3.777344-2.515625-6.074219 0-2.292969.894531-4.449219 2.515625-6.070313 8.738281-8.742187 9.15625-22.679687 1.289062-31.9375h47.277344c3.351562 0 6.292969-2.21875 7.210938-5.4375.921874-3.222656-.40625-6.664062-3.25-8.429687-30.957032-19.238281-47.320313-48.34375-47.320313-84.167969 0-21.992187 5.902344-42.6875 17.546875-61.515625 2.179688-3.519531 1.089844-8.144531-2.429688-10.320312-3.523437-2.179688-8.148437-1.09375-10.324218 2.433593-12.949219 20.933594-19.792969 44.933594-19.792969 69.402344 0 33.40625 12.324219 61.726563 35.890625 83.039063h-45.925781c-29.230469 0-53.011719 23.777343-53.011719 53.007812s23.78125 53.011719 53.011719 53.011719h63.09375c2.261719 0 4.300781 1.0625 5.59375 2.910156 1.296875 1.851563 1.597656 4.128906.824219 6.253906l-33.234376 91.304688c-.027343.074219-.054687.152344-.078124.226562l-2.871094 7.886719c-4.84375 13.304688-4.214844 27.699219 1.769531 40.53125s16.609375 22.566407 29.914063 27.410157c13.304687 4.84375 27.699218 4.214843 40.53125-1.769532 12.835937-5.984375 22.570312-16.605468 27.410156-29.914062l17.625-48.417969c3.300781-9.066406 12-15.160156 21.648437-15.160156 9.648438 0 18.347657 6.09375 21.648438 15.160156l17.621093 48.417969c4.84375 13.308594 14.578126 23.929687 27.410157 29.914062 7.128906 3.324219 14.734375 4.996094 22.371093 4.996094 6.113282 0 12.246094-1.074219 18.164063-3.226562 9.417969-3.429688 17.628906-9.410157 23.746094-17.300782 2.535156-3.273437 1.9375-7.984375-1.332031-10.523437-3.277344-2.535157-7.988282-1.941407-10.523438 1.335937-4.378906 5.648438-10.265625 9.933594-17.019531 12.394532-9.539063 3.472656-19.863281 3.023437-29.066407-1.269532-9.203124-4.289062-16.183593-11.90625-19.652343-21.449218l-1.84375-5.066407 5.492187-11.78125c2.003906-4.292969 7.121094-6.15625 11.414063-4.152343 11.789062 5.496093 25.851562.378906 31.351562-11.410157.96875-2.082031 2.6875-3.65625 4.84375-4.441406s4.488281-.683594 6.570313.285156l11.757812 5.484375 1.847656 5.082032c1.058594 2.902343 1.761719 5.910156 2.085938 8.949218.417969 3.84375 3.667969 6.695313 7.449219 6.695313.269531 0 .542969-.015625.8125-.046875 4.121093-.445313 7.097656-4.144532 6.652343-8.261719-.457031-4.234375-1.433593-8.429687-2.902343-12.464844l-2.871094-7.886719c-.027344-.074218-.054687-.148437-.082031-.222656l-33.230469-91.304687c-.773437-2.125-.476563-4.402344.820313-6.253907 1.296874-1.851562 3.335937-2.910156 5.59375-2.910156h63.097656c29.230468 0 53.011718-23.78125 53.011718-53.011718-.003906-29.230469-23.78125-53.011719-53.011718-53.011719zm-335.230469 69.6875c3.351563 3.351562 3.351563 8.800781.003906 12.148437l-9.1875 9.1875h-.039062c-20.960938 0-38.011719-17.054687-38.011719-38.011718 0-20.960938 17.050781-38.011719 38.011719-38.011719h.042969l9.179687 9.179687c3.351563 3.351563 3.351563 8.800782 0 12.148438-4.453125 4.457031-6.910156 10.378906-6.910156 16.679687.003906 6.300781 2.457031 12.226563 6.910156 16.679688zm109.636719 176.042969c-3.472656 9.542968-10.453125 17.160156-19.65625 21.449218-9.199219 4.292969-19.519532 4.742188-29.0625 1.269532-9.539063-3.472657-17.15625-10.453126-21.449219-19.65625-4.289063-9.199219-4.738281-19.523438-1.265625-29.0625l1.847656-5.082032 11.761719-5.484375c2.074219-.96875 4.410156-1.070312 6.566406-.289062 2.15625.785156 3.875 2.363281 4.847657 4.445312 5.496093 11.789063 19.558593 16.90625 31.347656 11.40625 4.289062-2 9.410156-.136719 11.414062 4.15625l5.496094 11.78125zm225.59375-154.707032h-.039063l-9.1875-9.1875c-3.351562-3.347656-3.351562-8.796875 0-12.148437 4.453125-4.453125 6.910157-10.378907 6.910157-16.679688s-2.457032-12.226562-6.910157-16.679687c-3.351562-3.347656-3.351562-8.796875 0-12.148438l9.179688-9.179687h.046875c20.957031 0 38.011718 17.050781 38.011718 38.011719 0 20.957031-17.054687 38.011718-38.011718 38.011718zm-250.996094 92.832032c0 4.011718 3.25 7.257812 7.257812 7.257812 4.007813 0 7.257813-3.25 7.257813-7.257812 0-4.007813-3.25-7.257813-7.257813-7.257813-4.007812 0-7.257812 3.25-7.257812 7.257813zm157.539062-268.710938c4.140626 0 7.5-3.359375 7.5-7.5v-13.296875c0-4.140625-3.359374-7.5-7.5-7.5-4.144531 0-7.5 3.359375-7.5 7.5v13.296875c0 4.140625 3.355469 7.5 7.5 7.5zm-25.796874-74.441406c-4.011719 0-7.257813 3.25-7.257813 7.257812 0 4.011719 3.25 7.257813 7.257813 7.257813 4.007812 0 7.257812-3.25 7.257812-7.257813 0-4.007812-3.25-7.257812-7.257812-7.257812zm-52.972657 231.1875c16.507813 0 29.941407-13.429688 29.941407-29.941406 0-16.507813-13.433594-29.9375-29.941407-29.9375-16.511719 0-29.941406 13.429687-29.941406 29.9375 0 16.511718 13.429687 29.941406 29.941406 29.941406zm0-44.882813c8.238281 0 14.941407 6.703125 14.941407 14.941407 0 8.242187-6.703126 14.945312-14.941407 14.945312s-14.941406-6.703125-14.941406-14.945312c0-8.238282 6.699219-14.941407 14.941406-14.941407zm110.941407 37.382813c0-4.007813-3.25-7.257813-7.257813-7.257813s-7.257813 3.25-7.257813 7.257813c0 4.011718 3.25 7.257812 7.257813 7.257812s7.257813-3.246094 7.257813-7.257812zm-110.941407-116.632813c16.507813 0 29.941407-13.429687 29.941407-29.941406v-16.316406c0-7.511719-6.113282-13.625-13.625-13.625h-32.632813c-7.515625 0-13.625 6.113281-13.625 13.625v16.316406c0 16.511719 13.429687 29.941406 29.941406 29.941406zm-14.941406-44.882812h29.882813v14.941406c0 8.238281-6.703126 14.941406-14.941407 14.941406s-14.941406-6.703125-14.941406-14.941406zm14.941406 241.105469c16.507813 0 29.941407-13.433594 29.941407-29.941407 0-16.507812-13.433594-29.941406-29.941407-29.941406-16.511719 0-29.941406 13.433594-29.941406 29.941406 0 16.507813 13.429687 29.941407 29.941406 29.941407zm0-44.882813c8.238281 0 14.941407 6.703125 14.941407 14.941406s-6.703126 14.941407-14.941407 14.941407-14.941406-6.703126-14.941406-14.941407 6.699219-14.941406 14.941406-14.941406zm60.230469 56.117187c0 4.007813 3.25 7.257813 7.257812 7.257813 4.007813 0 7.257813-3.25 7.257813-7.257813 0-4.007812-3.25-7.257812-7.257813-7.257812-4.007812 0-7.257812 3.25-7.257812 7.257812zm0 0"/></svg>