<svg viewBox="0 0 512 512" xmlns="http://www.w3.org/2000/svg"><path d="m256 0c-140.96875 0-256 115.050781-256 256 0 140.96875 115.050781 256 256 256 140.96875 0 256-115.050781 256-256 0-140.96875-115.050781-256-256-256zm0 482c-124.617188 0-226-101.382812-226-226s101.382812-226 226-226 226 101.382812 226 226-101.382812 226-226 226zm0 0"/><path d="m376 138.957031-88.027344 132.042969h41.535156c-6.835937 33.878906-36.824218 60-73.507812 60-41.152344 0-74.789062-33.464844-75-74.609375.019531-42.4375 33.972656-75.390625 75-75.390625 12.164062 0 23.726562 2.785156 34.371094 8.285156l11.921875 6.15625 49.726562-74.589844-13.894531-7.992187c-24.878906-14.300781-53.273438-21.859375-82.125-21.859375-91.191406 0-165 73.792969-165 165 0 90.980469 74.019531 165 165 165 86.359375 0 156.820312-66.101562 164.332031-150h43.695313zm15 102.042969v15c0 74.613281-60.378906 135-135 135-74.4375 0-135-60.5625-135-135 0-74.613281 60.378906-135 135-135 18.1875 0 36.148438 3.667969 52.734375 10.695312l-17.019531 25.527344c-11.378906-4.09375-23.515625-6.222656-35.714844-6.222656-57.703125 0-105 46.472656-105 105.429688v.070312c.273438 57.621094 47.375 104.5 105 104.5 57.957031 0 105-46.855469 105-105v-15h-16.972656l31.972656-47.957031 31.972656 47.957031zm0 0"/></svg>