<svg viewBox="0 0 512 512" xmlns="http://www.w3.org/2000/svg"><path d="m256 0c-140.96875 0-256 115.050781-256 256 0 140.96875 115.050781 256 256 256 140.96875 0 256-115.050781 256-256 0-140.96875-115.050781-256-256-256zm0 482c-124.617188 0-226-101.382812-226-226s101.382812-226 226-226 226 101.382812 226 226-101.382812 226-226 226zm0 0"/><path d="m389.9375 240.503906 43.09375-37.871094-42.296875-73.261718-54.816406 18.542968c-8.230469-6.125-17.027344-11.238281-26.296875-15.292968l-11.324219-56.621094h-84.59375l-11.324219 56.621094c-9.269531 4.054687-18.066406 9.171875-26.296875 15.292968l-54.816406-18.542968-42.296875 73.261718 43.097656 37.871094c-1.421875 10.90625-1.417968 20.144532 0 30.988282l-43.097656 37.878906 42.296875 73.261718 54.816406-18.546874c8.230469 6.125 17.03125 11.242187 26.296875 15.292968l11.324219 56.621094h84.59375l11.324219-56.621094c9.265625-4.050781 18.066406-9.167968 26.296875-15.292968l54.816406 18.542968 42.296875-73.261718-43.097656-37.875c1.417968-10.859376 1.421875-20.097657.003906-30.988282zm4.816406 75.164063-17.703125 30.664062-47.269531-15.992187c-19.871094 16.796875-25.441406 19.347656-46.324219 26.898437l-9.753906 48.761719h-35.40625l-9.753906-48.761719c-23.851563-8.621093-28.886719-12.160156-46.324219-26.898437l-47.269531 15.992187-17.703125-30.664062 37.179687-32.675781c-4.597656-25.453126-4.609375-28.46875 0-53.988282l-37.179687-32.675781 17.703125-30.660156 47.269531 15.988281c19.914062-16.832031 25.523438-19.375 46.324219-26.894531l9.753906-48.761719h35.40625l9.753906 48.761719c23.847657 8.621093 28.890625 12.160156 46.324219 26.898437l47.269531-15.992187 17.703125 30.664062-37.179687 32.671875c4.617187 25.546875 4.59375 28.5625 0 53.988282zm0 0"/><path d="m256 211c-24.8125 0-45 20.1875-45 45s20.1875 45 45 45 45-20.1875 45-45-20.1875-45-45-45zm0 60c-8.269531 0-15-6.730469-15-15s6.730469-15 15-15 15 6.730469 15 15-6.730469 15-15 15zm0 0"/></svg>